%TF.GenerationSoftware,KiCad,Pcbnew,(6.0.0)*%
%TF.CreationDate,2022-03-13T21:04:06-04:00*%
%TF.ProjectId,panel meter v1,70616e65-6c20-46d6-9574-65722076312e,rev?*%
%TF.SameCoordinates,Original*%
%TF.FileFunction,Legend,Top*%
%TF.FilePolarity,Positive*%
%FSLAX46Y46*%
G04 Gerber Fmt 4.6, Leading zero omitted, Abs format (unit mm)*
G04 Created by KiCad (PCBNEW (6.0.0)) date 2022-03-13 21:04:06*
%MOMM*%
%LPD*%
G01*
G04 APERTURE LIST*
G04 Aperture macros list*
%AMRoundRect*
0 Rectangle with rounded corners*
0 $1 Rounding radius*
0 $2 $3 $4 $5 $6 $7 $8 $9 X,Y pos of 4 corners*
0 Add a 4 corners polygon primitive as box body*
4,1,4,$2,$3,$4,$5,$6,$7,$8,$9,$2,$3,0*
0 Add four circle primitives for the rounded corners*
1,1,$1+$1,$2,$3*
1,1,$1+$1,$4,$5*
1,1,$1+$1,$6,$7*
1,1,$1+$1,$8,$9*
0 Add four rect primitives between the rounded corners*
20,1,$1+$1,$2,$3,$4,$5,0*
20,1,$1+$1,$4,$5,$6,$7,0*
20,1,$1+$1,$6,$7,$8,$9,0*
20,1,$1+$1,$8,$9,$2,$3,0*%
G04 Aperture macros list end*
%ADD10C,0.150000*%
%ADD11C,0.120000*%
%ADD12C,0.127000*%
%ADD13C,0.200000*%
%ADD14C,1.700000*%
%ADD15R,1.600000X1.600000*%
%ADD16O,1.600000X1.600000*%
%ADD17R,1.700000X1.700000*%
%ADD18O,1.700000X1.700000*%
%ADD19C,1.600000*%
%ADD20C,2.000000*%
%ADD21R,1.200000X1.200000*%
%ADD22C,1.200000*%
%ADD23C,3.200000*%
%ADD24R,1.800000X1.800000*%
%ADD25C,1.800000*%
%ADD26RoundRect,0.100000X-0.637500X-0.100000X0.637500X-0.100000X0.637500X0.100000X-0.637500X0.100000X0*%
G04 APERTURE END LIST*
D10*
X61412380Y-48998095D02*
X60412380Y-48998095D01*
X60412380Y-48760000D01*
X60460000Y-48617142D01*
X60555238Y-48521904D01*
X60650476Y-48474285D01*
X60840952Y-48426666D01*
X60983809Y-48426666D01*
X61174285Y-48474285D01*
X61269523Y-48521904D01*
X61364761Y-48617142D01*
X61412380Y-48760000D01*
X61412380Y-48998095D01*
X61412380Y-47474285D02*
X61412380Y-48045714D01*
X61412380Y-47760000D02*
X60412380Y-47760000D01*
X60555238Y-47855238D01*
X60650476Y-47950476D01*
X60698095Y-48045714D01*
X61412380Y-74398095D02*
X60412380Y-74398095D01*
X60412380Y-74160000D01*
X60460000Y-74017142D01*
X60555238Y-73921904D01*
X60650476Y-73874285D01*
X60840952Y-73826666D01*
X60983809Y-73826666D01*
X61174285Y-73874285D01*
X61269523Y-73921904D01*
X61364761Y-74017142D01*
X61412380Y-74160000D01*
X61412380Y-74398095D01*
X60507619Y-73445714D02*
X60460000Y-73398095D01*
X60412380Y-73302857D01*
X60412380Y-73064761D01*
X60460000Y-72969523D01*
X60507619Y-72921904D01*
X60602857Y-72874285D01*
X60698095Y-72874285D01*
X60840952Y-72921904D01*
X61412380Y-73493333D01*
X61412380Y-72874285D01*
X60426471Y-63639063D02*
X60378851Y-63734301D01*
X60378851Y-63877158D01*
X60426471Y-64020016D01*
X60521709Y-64115254D01*
X60616947Y-64162873D01*
X60807423Y-64210492D01*
X60950280Y-64210492D01*
X61140756Y-64162873D01*
X61235994Y-64115254D01*
X61331232Y-64020016D01*
X61378851Y-63877158D01*
X61378851Y-63781920D01*
X61331232Y-63639063D01*
X61283613Y-63591444D01*
X60950280Y-63591444D01*
X60950280Y-63781920D01*
X61378851Y-62639063D02*
X61378851Y-63210492D01*
X61378851Y-62924778D02*
X60378851Y-62924778D01*
X60521709Y-63020016D01*
X60616947Y-63115254D01*
X60664566Y-63210492D01*
X58348571Y-61293333D02*
X58348571Y-61626666D01*
X58872380Y-61626666D02*
X57872380Y-61626666D01*
X57872380Y-61150476D01*
X58872380Y-60245714D02*
X58872380Y-60817142D01*
X58872380Y-60531428D02*
X57872380Y-60531428D01*
X58015238Y-60626666D01*
X58110476Y-60721904D01*
X58158095Y-60817142D01*
X60888571Y-53744761D02*
X60936190Y-53601904D01*
X60983809Y-53554285D01*
X61079047Y-53506666D01*
X61221904Y-53506666D01*
X61317142Y-53554285D01*
X61364761Y-53601904D01*
X61412380Y-53697142D01*
X61412380Y-54078095D01*
X60412380Y-54078095D01*
X60412380Y-53744761D01*
X60460000Y-53649523D01*
X60507619Y-53601904D01*
X60602857Y-53554285D01*
X60698095Y-53554285D01*
X60793333Y-53601904D01*
X60840952Y-53649523D01*
X60888571Y-53744761D01*
X60888571Y-54078095D01*
X61412380Y-52554285D02*
X61412380Y-53125714D01*
X61412380Y-52840000D02*
X60412380Y-52840000D01*
X60555238Y-52935238D01*
X60650476Y-53030476D01*
X60698095Y-53125714D01*
X95337380Y-105108333D02*
X95337380Y-104489285D01*
X95718333Y-104822619D01*
X95718333Y-104679761D01*
X95765952Y-104584523D01*
X95813571Y-104536904D01*
X95908809Y-104489285D01*
X96146904Y-104489285D01*
X96242142Y-104536904D01*
X96289761Y-104584523D01*
X96337380Y-104679761D01*
X96337380Y-104965476D01*
X96289761Y-105060714D01*
X96242142Y-105108333D01*
X61412380Y-95218095D02*
X60412380Y-95218095D01*
X60412380Y-94980000D01*
X60460000Y-94837142D01*
X60555238Y-94741904D01*
X60650476Y-94694285D01*
X60840952Y-94646666D01*
X60983809Y-94646666D01*
X61174285Y-94694285D01*
X61269523Y-94741904D01*
X61364761Y-94837142D01*
X61412380Y-94980000D01*
X61412380Y-95218095D01*
X61412380Y-94218095D02*
X60412380Y-94218095D01*
X60412380Y-93837142D01*
X60460000Y-93741904D01*
X60507619Y-93694285D01*
X60602857Y-93646666D01*
X60745714Y-93646666D01*
X60840952Y-93694285D01*
X60888571Y-93741904D01*
X60936190Y-93837142D01*
X60936190Y-94218095D01*
X60412380Y-93313333D02*
X60412380Y-92694285D01*
X60793333Y-93027619D01*
X60793333Y-92884761D01*
X60840952Y-92789523D01*
X60888571Y-92741904D01*
X60983809Y-92694285D01*
X61221904Y-92694285D01*
X61317142Y-92741904D01*
X61364761Y-92789523D01*
X61412380Y-92884761D01*
X61412380Y-93170476D01*
X61364761Y-93265714D01*
X61317142Y-93313333D01*
X57920000Y-91654285D02*
X57872380Y-91749523D01*
X57872380Y-91892380D01*
X57920000Y-92035238D01*
X58015238Y-92130476D01*
X58110476Y-92178095D01*
X58300952Y-92225714D01*
X58443809Y-92225714D01*
X58634285Y-92178095D01*
X58729523Y-92130476D01*
X58824761Y-92035238D01*
X58872380Y-91892380D01*
X58872380Y-91797142D01*
X58824761Y-91654285D01*
X58777142Y-91606666D01*
X58443809Y-91606666D01*
X58443809Y-91797142D01*
X57872380Y-91273333D02*
X57872380Y-90654285D01*
X58253333Y-90987619D01*
X58253333Y-90844761D01*
X58300952Y-90749523D01*
X58348571Y-90701904D01*
X58443809Y-90654285D01*
X58681904Y-90654285D01*
X58777142Y-90701904D01*
X58824761Y-90749523D01*
X58872380Y-90844761D01*
X58872380Y-91130476D01*
X58824761Y-91225714D01*
X58777142Y-91273333D01*
X61126666Y-69294285D02*
X61126666Y-68818095D01*
X61412380Y-69389523D02*
X60412380Y-69056190D01*
X61412380Y-68722857D01*
X60507619Y-68437142D02*
X60460000Y-68389523D01*
X60412380Y-68294285D01*
X60412380Y-68056190D01*
X60460000Y-67960952D01*
X60507619Y-67913333D01*
X60602857Y-67865714D01*
X60698095Y-67865714D01*
X60840952Y-67913333D01*
X61412380Y-68484761D01*
X61412380Y-67865714D01*
X58348571Y-66444761D02*
X58396190Y-66301904D01*
X58443809Y-66254285D01*
X58539047Y-66206666D01*
X58681904Y-66206666D01*
X58777142Y-66254285D01*
X58824761Y-66301904D01*
X58872380Y-66397142D01*
X58872380Y-66778095D01*
X57872380Y-66778095D01*
X57872380Y-66444761D01*
X57920000Y-66349523D01*
X57967619Y-66301904D01*
X58062857Y-66254285D01*
X58158095Y-66254285D01*
X58253333Y-66301904D01*
X58300952Y-66349523D01*
X58348571Y-66444761D01*
X58348571Y-66778095D01*
X57967619Y-65825714D02*
X57920000Y-65778095D01*
X57872380Y-65682857D01*
X57872380Y-65444761D01*
X57920000Y-65349523D01*
X57967619Y-65301904D01*
X58062857Y-65254285D01*
X58158095Y-65254285D01*
X58300952Y-65301904D01*
X58872380Y-65873333D01*
X58872380Y-65254285D01*
X58586666Y-56594285D02*
X58586666Y-56118095D01*
X58872380Y-56689523D02*
X57872380Y-56356190D01*
X58872380Y-56022857D01*
X58872380Y-55165714D02*
X58872380Y-55737142D01*
X58872380Y-55451428D02*
X57872380Y-55451428D01*
X58015238Y-55546666D01*
X58110476Y-55641904D01*
X58158095Y-55737142D01*
X58777142Y-71286666D02*
X58824761Y-71334285D01*
X58872380Y-71477142D01*
X58872380Y-71572380D01*
X58824761Y-71715238D01*
X58729523Y-71810476D01*
X58634285Y-71858095D01*
X58443809Y-71905714D01*
X58300952Y-71905714D01*
X58110476Y-71858095D01*
X58015238Y-71810476D01*
X57920000Y-71715238D01*
X57872380Y-71572380D01*
X57872380Y-71477142D01*
X57920000Y-71334285D01*
X57967619Y-71286666D01*
X57967619Y-70905714D02*
X57920000Y-70858095D01*
X57872380Y-70762857D01*
X57872380Y-70524761D01*
X57920000Y-70429523D01*
X57967619Y-70381904D01*
X58062857Y-70334285D01*
X58158095Y-70334285D01*
X58300952Y-70381904D01*
X58872380Y-70953333D01*
X58872380Y-70334285D01*
X58348571Y-87050476D02*
X58348571Y-86717142D01*
X58872380Y-86574285D02*
X58872380Y-87050476D01*
X57872380Y-87050476D01*
X57872380Y-86574285D01*
X57967619Y-86193333D02*
X57920000Y-86145714D01*
X57872380Y-86050476D01*
X57872380Y-85812380D01*
X57920000Y-85717142D01*
X57967619Y-85669523D01*
X58062857Y-85621904D01*
X58158095Y-85621904D01*
X58300952Y-85669523D01*
X58872380Y-86240952D01*
X58872380Y-85621904D01*
X58777142Y-96686666D02*
X58824761Y-96734285D01*
X58872380Y-96877142D01*
X58872380Y-96972380D01*
X58824761Y-97115238D01*
X58729523Y-97210476D01*
X58634285Y-97258095D01*
X58443809Y-97305714D01*
X58300952Y-97305714D01*
X58110476Y-97258095D01*
X58015238Y-97210476D01*
X57920000Y-97115238D01*
X57872380Y-96972380D01*
X57872380Y-96877142D01*
X57920000Y-96734285D01*
X57967619Y-96686666D01*
X57872380Y-96353333D02*
X57872380Y-95734285D01*
X58253333Y-96067619D01*
X58253333Y-95924761D01*
X58300952Y-95829523D01*
X58348571Y-95781904D01*
X58443809Y-95734285D01*
X58681904Y-95734285D01*
X58777142Y-95781904D01*
X58824761Y-95829523D01*
X58872380Y-95924761D01*
X58872380Y-96210476D01*
X58824761Y-96305714D01*
X58777142Y-96353333D01*
X58348571Y-51490476D02*
X58348571Y-51157142D01*
X58872380Y-51014285D02*
X58872380Y-51490476D01*
X57872380Y-51490476D01*
X57872380Y-51014285D01*
X58872380Y-50061904D02*
X58872380Y-50633333D01*
X58872380Y-50347619D02*
X57872380Y-50347619D01*
X58015238Y-50442857D01*
X58110476Y-50538095D01*
X58158095Y-50633333D01*
X93130714Y-104711523D02*
X93797380Y-104711523D01*
X92749761Y-104949619D02*
X93464047Y-105187714D01*
X93464047Y-104568666D01*
X61412380Y-105378095D02*
X60412380Y-105378095D01*
X60412380Y-105140000D01*
X60460000Y-104997142D01*
X60555238Y-104901904D01*
X60650476Y-104854285D01*
X60840952Y-104806666D01*
X60983809Y-104806666D01*
X61174285Y-104854285D01*
X61269523Y-104901904D01*
X61364761Y-104997142D01*
X61412380Y-105140000D01*
X61412380Y-105378095D01*
X61412380Y-104378095D02*
X60412380Y-104378095D01*
X60412380Y-103997142D01*
X60460000Y-103901904D01*
X60507619Y-103854285D01*
X60602857Y-103806666D01*
X60745714Y-103806666D01*
X60840952Y-103854285D01*
X60888571Y-103901904D01*
X60936190Y-103997142D01*
X60936190Y-104378095D01*
X60745714Y-102949523D02*
X61412380Y-102949523D01*
X60364761Y-103187619D02*
X61079047Y-103425714D01*
X61079047Y-102806666D01*
X58348571Y-102290476D02*
X58348571Y-101957142D01*
X58872380Y-101814285D02*
X58872380Y-102290476D01*
X57872380Y-102290476D01*
X57872380Y-101814285D01*
X57872380Y-101480952D02*
X57872380Y-100861904D01*
X58253333Y-101195238D01*
X58253333Y-101052380D01*
X58300952Y-100957142D01*
X58348571Y-100909523D01*
X58443809Y-100861904D01*
X58681904Y-100861904D01*
X58777142Y-100909523D01*
X58824761Y-100957142D01*
X58872380Y-101052380D01*
X58872380Y-101338095D01*
X58824761Y-101433333D01*
X58777142Y-101480952D01*
X58348571Y-76533333D02*
X58348571Y-76866666D01*
X58872380Y-76866666D02*
X57872380Y-76866666D01*
X57872380Y-76390476D01*
X57967619Y-76057142D02*
X57920000Y-76009523D01*
X57872380Y-75914285D01*
X57872380Y-75676190D01*
X57920000Y-75580952D01*
X57967619Y-75533333D01*
X58062857Y-75485714D01*
X58158095Y-75485714D01*
X58300952Y-75533333D01*
X58872380Y-76104761D01*
X58872380Y-75485714D01*
X61412380Y-59658095D02*
X60412380Y-59658095D01*
X60412380Y-59420000D01*
X60460000Y-59277142D01*
X60555238Y-59181904D01*
X60650476Y-59134285D01*
X60840952Y-59086666D01*
X60983809Y-59086666D01*
X61174285Y-59134285D01*
X61269523Y-59181904D01*
X61364761Y-59277142D01*
X61412380Y-59420000D01*
X61412380Y-59658095D01*
X61412380Y-58658095D02*
X60412380Y-58658095D01*
X60412380Y-58277142D01*
X60460000Y-58181904D01*
X60507619Y-58134285D01*
X60602857Y-58086666D01*
X60745714Y-58086666D01*
X60840952Y-58134285D01*
X60888571Y-58181904D01*
X60936190Y-58277142D01*
X60936190Y-58658095D01*
X60507619Y-57705714D02*
X60460000Y-57658095D01*
X60412380Y-57562857D01*
X60412380Y-57324761D01*
X60460000Y-57229523D01*
X60507619Y-57181904D01*
X60602857Y-57134285D01*
X60698095Y-57134285D01*
X60840952Y-57181904D01*
X61412380Y-57753333D01*
X61412380Y-57134285D01*
X60888571Y-89233333D02*
X60888571Y-89566666D01*
X61412380Y-89566666D02*
X60412380Y-89566666D01*
X60412380Y-89090476D01*
X60412380Y-88804761D02*
X60412380Y-88185714D01*
X60793333Y-88519047D01*
X60793333Y-88376190D01*
X60840952Y-88280952D01*
X60888571Y-88233333D01*
X60983809Y-88185714D01*
X61221904Y-88185714D01*
X61317142Y-88233333D01*
X61364761Y-88280952D01*
X61412380Y-88376190D01*
X61412380Y-88661904D01*
X61364761Y-88757142D01*
X61317142Y-88804761D01*
X58348571Y-107584761D02*
X58396190Y-107441904D01*
X58443809Y-107394285D01*
X58539047Y-107346666D01*
X58681904Y-107346666D01*
X58777142Y-107394285D01*
X58824761Y-107441904D01*
X58872380Y-107537142D01*
X58872380Y-107918095D01*
X57872380Y-107918095D01*
X57872380Y-107584761D01*
X57920000Y-107489523D01*
X57967619Y-107441904D01*
X58062857Y-107394285D01*
X58158095Y-107394285D01*
X58253333Y-107441904D01*
X58300952Y-107489523D01*
X58348571Y-107584761D01*
X58348571Y-107918095D01*
X58777142Y-106346666D02*
X58824761Y-106394285D01*
X58872380Y-106537142D01*
X58872380Y-106632380D01*
X58824761Y-106775238D01*
X58729523Y-106870476D01*
X58634285Y-106918095D01*
X58443809Y-106965714D01*
X58300952Y-106965714D01*
X58110476Y-106918095D01*
X58015238Y-106870476D01*
X57920000Y-106775238D01*
X57872380Y-106632380D01*
X57872380Y-106537142D01*
X57920000Y-106394285D01*
X57967619Y-106346666D01*
X58205714Y-105489523D02*
X58872380Y-105489523D01*
X57824761Y-105727619D02*
X58539047Y-105965714D01*
X58539047Y-105346666D01*
X61412380Y-110410476D02*
X60412380Y-110410476D01*
X60412380Y-110029523D01*
X60460000Y-109934285D01*
X60507619Y-109886666D01*
X60602857Y-109839047D01*
X60745714Y-109839047D01*
X60840952Y-109886666D01*
X60888571Y-109934285D01*
X60936190Y-110029523D01*
X60936190Y-110410476D01*
X60412380Y-109220000D02*
X60412380Y-109029523D01*
X60460000Y-108934285D01*
X60555238Y-108839047D01*
X60745714Y-108791428D01*
X61079047Y-108791428D01*
X61269523Y-108839047D01*
X61364761Y-108934285D01*
X61412380Y-109029523D01*
X61412380Y-109220000D01*
X61364761Y-109315238D01*
X61269523Y-109410476D01*
X61079047Y-109458095D01*
X60745714Y-109458095D01*
X60555238Y-109410476D01*
X60460000Y-109315238D01*
X60412380Y-109220000D01*
X61412380Y-107886666D02*
X61412380Y-108362857D01*
X60412380Y-108362857D01*
X98099619Y-105060714D02*
X98052000Y-105013095D01*
X98004380Y-104917857D01*
X98004380Y-104679761D01*
X98052000Y-104584523D01*
X98099619Y-104536904D01*
X98194857Y-104489285D01*
X98290095Y-104489285D01*
X98432952Y-104536904D01*
X99004380Y-105108333D01*
X99004380Y-104489285D01*
X58777142Y-45886666D02*
X58824761Y-45934285D01*
X58872380Y-46077142D01*
X58872380Y-46172380D01*
X58824761Y-46315238D01*
X58729523Y-46410476D01*
X58634285Y-46458095D01*
X58443809Y-46505714D01*
X58300952Y-46505714D01*
X58110476Y-46458095D01*
X58015238Y-46410476D01*
X57920000Y-46315238D01*
X57872380Y-46172380D01*
X57872380Y-46077142D01*
X57920000Y-45934285D01*
X57967619Y-45886666D01*
X58872380Y-44934285D02*
X58872380Y-45505714D01*
X58872380Y-45220000D02*
X57872380Y-45220000D01*
X58015238Y-45315238D01*
X58110476Y-45410476D01*
X58158095Y-45505714D01*
X60412380Y-44132380D02*
X61412380Y-43799047D01*
X60412380Y-43465714D01*
X61031428Y-43132380D02*
X61031428Y-42370476D01*
X61412380Y-42751428D02*
X60650476Y-42751428D01*
X92765904Y-113228380D02*
X92765904Y-112228380D01*
X93004000Y-112228380D01*
X93146857Y-112276000D01*
X93242095Y-112371238D01*
X93289714Y-112466476D01*
X93337333Y-112656952D01*
X93337333Y-112799809D01*
X93289714Y-112990285D01*
X93242095Y-113085523D01*
X93146857Y-113180761D01*
X93004000Y-113228380D01*
X92765904Y-113228380D01*
X94146857Y-113180761D02*
X94051619Y-113228380D01*
X93861142Y-113228380D01*
X93765904Y-113180761D01*
X93718285Y-113085523D01*
X93718285Y-112704571D01*
X93765904Y-112609333D01*
X93861142Y-112561714D01*
X94051619Y-112561714D01*
X94146857Y-112609333D01*
X94194476Y-112704571D01*
X94194476Y-112799809D01*
X93718285Y-112895047D01*
X95051619Y-113180761D02*
X94956380Y-113228380D01*
X94765904Y-113228380D01*
X94670666Y-113180761D01*
X94623047Y-113133142D01*
X94575428Y-113037904D01*
X94575428Y-112752190D01*
X94623047Y-112656952D01*
X94670666Y-112609333D01*
X94765904Y-112561714D01*
X94956380Y-112561714D01*
X95051619Y-112609333D01*
X95480190Y-113228380D02*
X95480190Y-112561714D01*
X95480190Y-112228380D02*
X95432571Y-112276000D01*
X95480190Y-112323619D01*
X95527809Y-112276000D01*
X95480190Y-112228380D01*
X95480190Y-112323619D01*
X95956380Y-113228380D02*
X95956380Y-112561714D01*
X95956380Y-112656952D02*
X96004000Y-112609333D01*
X96099238Y-112561714D01*
X96242095Y-112561714D01*
X96337333Y-112609333D01*
X96384952Y-112704571D01*
X96384952Y-113228380D01*
X96384952Y-112704571D02*
X96432571Y-112609333D01*
X96527809Y-112561714D01*
X96670666Y-112561714D01*
X96765904Y-112609333D01*
X96813523Y-112704571D01*
X96813523Y-113228380D01*
X97718285Y-113228380D02*
X97718285Y-112704571D01*
X97670666Y-112609333D01*
X97575428Y-112561714D01*
X97384952Y-112561714D01*
X97289714Y-112609333D01*
X97718285Y-113180761D02*
X97623047Y-113228380D01*
X97384952Y-113228380D01*
X97289714Y-113180761D01*
X97242095Y-113085523D01*
X97242095Y-112990285D01*
X97289714Y-112895047D01*
X97384952Y-112847428D01*
X97623047Y-112847428D01*
X97718285Y-112799809D01*
X98337333Y-113228380D02*
X98242095Y-113180761D01*
X98194476Y-113085523D01*
X98194476Y-112228380D01*
X61412380Y-99798095D02*
X60412380Y-99798095D01*
X60412380Y-99560000D01*
X60460000Y-99417142D01*
X60555238Y-99321904D01*
X60650476Y-99274285D01*
X60840952Y-99226666D01*
X60983809Y-99226666D01*
X61174285Y-99274285D01*
X61269523Y-99321904D01*
X61364761Y-99417142D01*
X61412380Y-99560000D01*
X61412380Y-99798095D01*
X60412380Y-98893333D02*
X60412380Y-98274285D01*
X60793333Y-98607619D01*
X60793333Y-98464761D01*
X60840952Y-98369523D01*
X60888571Y-98321904D01*
X60983809Y-98274285D01*
X61221904Y-98274285D01*
X61317142Y-98321904D01*
X61364761Y-98369523D01*
X61412380Y-98464761D01*
X61412380Y-98750476D01*
X61364761Y-98845714D01*
X61317142Y-98893333D01*
X60460000Y-78954285D02*
X60412380Y-79049523D01*
X60412380Y-79192380D01*
X60460000Y-79335238D01*
X60555238Y-79430476D01*
X60650476Y-79478095D01*
X60840952Y-79525714D01*
X60983809Y-79525714D01*
X61174285Y-79478095D01*
X61269523Y-79430476D01*
X61364761Y-79335238D01*
X61412380Y-79192380D01*
X61412380Y-79097142D01*
X61364761Y-78954285D01*
X61317142Y-78906666D01*
X60983809Y-78906666D01*
X60983809Y-79097142D01*
X60507619Y-78525714D02*
X60460000Y-78478095D01*
X60412380Y-78382857D01*
X60412380Y-78144761D01*
X60460000Y-78049523D01*
X60507619Y-78001904D01*
X60602857Y-77954285D01*
X60698095Y-77954285D01*
X60840952Y-78001904D01*
X61412380Y-78573333D01*
X61412380Y-77954285D01*
X58348571Y-81684761D02*
X58396190Y-81541904D01*
X58443809Y-81494285D01*
X58539047Y-81446666D01*
X58681904Y-81446666D01*
X58777142Y-81494285D01*
X58824761Y-81541904D01*
X58872380Y-81637142D01*
X58872380Y-82018095D01*
X57872380Y-82018095D01*
X57872380Y-81684761D01*
X57920000Y-81589523D01*
X57967619Y-81541904D01*
X58062857Y-81494285D01*
X58158095Y-81494285D01*
X58253333Y-81541904D01*
X58300952Y-81589523D01*
X58348571Y-81684761D01*
X58348571Y-82018095D01*
X57872380Y-81113333D02*
X57872380Y-80494285D01*
X58253333Y-80827619D01*
X58253333Y-80684761D01*
X58300952Y-80589523D01*
X58348571Y-80541904D01*
X58443809Y-80494285D01*
X58681904Y-80494285D01*
X58777142Y-80541904D01*
X58824761Y-80589523D01*
X58872380Y-80684761D01*
X58872380Y-80970476D01*
X58824761Y-81065714D01*
X58777142Y-81113333D01*
X61126666Y-84534285D02*
X61126666Y-84058095D01*
X61412380Y-84629523D02*
X60412380Y-84296190D01*
X61412380Y-83962857D01*
X60412380Y-83724761D02*
X60412380Y-83105714D01*
X60793333Y-83439047D01*
X60793333Y-83296190D01*
X60840952Y-83200952D01*
X60888571Y-83153333D01*
X60983809Y-83105714D01*
X61221904Y-83105714D01*
X61317142Y-83153333D01*
X61364761Y-83200952D01*
X61412380Y-83296190D01*
X61412380Y-83581904D01*
X61364761Y-83677142D01*
X61317142Y-83724761D01*
%TO.C,U1*%
X70572380Y-82041904D02*
X71381904Y-82041904D01*
X71477142Y-81994285D01*
X71524761Y-81946666D01*
X71572380Y-81851428D01*
X71572380Y-81660952D01*
X71524761Y-81565714D01*
X71477142Y-81518095D01*
X71381904Y-81470476D01*
X70572380Y-81470476D01*
X71572380Y-80470476D02*
X71572380Y-81041904D01*
X71572380Y-80756190D02*
X70572380Y-80756190D01*
X70715238Y-80851428D01*
X70810476Y-80946666D01*
X70858095Y-81041904D01*
X71572380Y-77874285D02*
X70572380Y-77874285D01*
X71477142Y-76826666D02*
X71524761Y-76874285D01*
X71572380Y-77017142D01*
X71572380Y-77112380D01*
X71524761Y-77255238D01*
X71429523Y-77350476D01*
X71334285Y-77398095D01*
X71143809Y-77445714D01*
X71000952Y-77445714D01*
X70810476Y-77398095D01*
X70715238Y-77350476D01*
X70620000Y-77255238D01*
X70572380Y-77112380D01*
X70572380Y-77017142D01*
X70620000Y-76874285D01*
X70667619Y-76826666D01*
X71572380Y-75921904D02*
X71572380Y-76398095D01*
X70572380Y-76398095D01*
X70572380Y-75683809D02*
X70572380Y-75017142D01*
X71572380Y-75445714D01*
X71572380Y-74112380D02*
X71572380Y-74683809D01*
X71572380Y-74398095D02*
X70572380Y-74398095D01*
X70715238Y-74493333D01*
X70810476Y-74588571D01*
X70858095Y-74683809D01*
X70572380Y-73493333D02*
X70572380Y-73398095D01*
X70620000Y-73302857D01*
X70667619Y-73255238D01*
X70762857Y-73207619D01*
X70953333Y-73160000D01*
X71191428Y-73160000D01*
X71381904Y-73207619D01*
X71477142Y-73255238D01*
X71524761Y-73302857D01*
X71572380Y-73398095D01*
X71572380Y-73493333D01*
X71524761Y-73588571D01*
X71477142Y-73636190D01*
X71381904Y-73683809D01*
X71191428Y-73731428D01*
X70953333Y-73731428D01*
X70762857Y-73683809D01*
X70667619Y-73636190D01*
X70620000Y-73588571D01*
X70572380Y-73493333D01*
X70572380Y-72826666D02*
X70572380Y-72160000D01*
X71572380Y-72588571D01*
X71477142Y-71207619D02*
X71524761Y-71255238D01*
X71572380Y-71398095D01*
X71572380Y-71493333D01*
X71524761Y-71636190D01*
X71429523Y-71731428D01*
X71334285Y-71779047D01*
X71143809Y-71826666D01*
X71000952Y-71826666D01*
X70810476Y-71779047D01*
X70715238Y-71731428D01*
X70620000Y-71636190D01*
X70572380Y-71493333D01*
X70572380Y-71398095D01*
X70620000Y-71255238D01*
X70667619Y-71207619D01*
X71572380Y-70779047D02*
X70572380Y-70779047D01*
X70572380Y-70398095D01*
X70620000Y-70302857D01*
X70667619Y-70255238D01*
X70762857Y-70207619D01*
X70905714Y-70207619D01*
X71000952Y-70255238D01*
X71048571Y-70302857D01*
X71096190Y-70398095D01*
X71096190Y-70779047D01*
X71572380Y-69302857D02*
X71572380Y-69779047D01*
X70572380Y-69779047D01*
%TO.C,D2*%
X74112380Y-50776095D02*
X73112380Y-50776095D01*
X73112380Y-50538000D01*
X73160000Y-50395142D01*
X73255238Y-50299904D01*
X73350476Y-50252285D01*
X73540952Y-50204666D01*
X73683809Y-50204666D01*
X73874285Y-50252285D01*
X73969523Y-50299904D01*
X74064761Y-50395142D01*
X74112380Y-50538000D01*
X74112380Y-50776095D01*
X73207619Y-49823714D02*
X73160000Y-49776095D01*
X73112380Y-49680857D01*
X73112380Y-49442761D01*
X73160000Y-49347523D01*
X73207619Y-49299904D01*
X73302857Y-49252285D01*
X73398095Y-49252285D01*
X73540952Y-49299904D01*
X74112380Y-49871333D01*
X74112380Y-49252285D01*
X72207380Y-46235904D02*
X71207380Y-46235904D01*
X72207380Y-45664476D02*
X71635952Y-46093047D01*
X71207380Y-45664476D02*
X71778809Y-46235904D01*
%TO.C,J1*%
X97457380Y-46713333D02*
X98171666Y-46713333D01*
X98314523Y-46760952D01*
X98409761Y-46856190D01*
X98457380Y-46999047D01*
X98457380Y-47094285D01*
X98457380Y-45713333D02*
X98457380Y-46284761D01*
X98457380Y-45999047D02*
X97457380Y-45999047D01*
X97600238Y-46094285D01*
X97695476Y-46189523D01*
X97743095Y-46284761D01*
%TO.C,C1*%
X93651342Y-73115466D02*
X93698961Y-73163085D01*
X93746580Y-73305942D01*
X93746580Y-73401180D01*
X93698961Y-73544038D01*
X93603723Y-73639276D01*
X93508485Y-73686895D01*
X93318009Y-73734514D01*
X93175152Y-73734514D01*
X92984676Y-73686895D01*
X92889438Y-73639276D01*
X92794200Y-73544038D01*
X92746580Y-73401180D01*
X92746580Y-73305942D01*
X92794200Y-73163085D01*
X92841819Y-73115466D01*
X93746580Y-72163085D02*
X93746580Y-72734514D01*
X93746580Y-72448800D02*
X92746580Y-72448800D01*
X92889438Y-72544038D01*
X92984676Y-72639276D01*
X93032295Y-72734514D01*
%TO.C,J16*%
X122830714Y-51879523D02*
X123497380Y-51879523D01*
X122449761Y-52117619D02*
X123164047Y-52355714D01*
X123164047Y-51736666D01*
%TO.C,J4*%
X108575000Y-49656904D02*
X108527380Y-49752142D01*
X108527380Y-49895000D01*
X108575000Y-50037857D01*
X108670238Y-50133095D01*
X108765476Y-50180714D01*
X108955952Y-50228333D01*
X109098809Y-50228333D01*
X109289285Y-50180714D01*
X109384523Y-50133095D01*
X109479761Y-50037857D01*
X109527380Y-49895000D01*
X109527380Y-49799761D01*
X109479761Y-49656904D01*
X109432142Y-49609285D01*
X109098809Y-49609285D01*
X109098809Y-49799761D01*
X109527380Y-49180714D02*
X108527380Y-49180714D01*
X109527380Y-48609285D01*
X108527380Y-48609285D01*
X109527380Y-48133095D02*
X108527380Y-48133095D01*
X108527380Y-47895000D01*
X108575000Y-47752142D01*
X108670238Y-47656904D01*
X108765476Y-47609285D01*
X108955952Y-47561666D01*
X109098809Y-47561666D01*
X109289285Y-47609285D01*
X109384523Y-47656904D01*
X109479761Y-47752142D01*
X109527380Y-47895000D01*
X109527380Y-48133095D01*
%TO.C,J2*%
X105902380Y-44148333D02*
X106616666Y-44148333D01*
X106759523Y-44195952D01*
X106854761Y-44291190D01*
X106902380Y-44434047D01*
X106902380Y-44529285D01*
X105997619Y-43719761D02*
X105950000Y-43672142D01*
X105902380Y-43576904D01*
X105902380Y-43338809D01*
X105950000Y-43243571D01*
X105997619Y-43195952D01*
X106092857Y-43148333D01*
X106188095Y-43148333D01*
X106330952Y-43195952D01*
X106902380Y-43767380D01*
X106902380Y-43148333D01*
%TO.C,C3*%
X88606333Y-54840142D02*
X88558714Y-54887761D01*
X88415857Y-54935380D01*
X88320619Y-54935380D01*
X88177761Y-54887761D01*
X88082523Y-54792523D01*
X88034904Y-54697285D01*
X87987285Y-54506809D01*
X87987285Y-54363952D01*
X88034904Y-54173476D01*
X88082523Y-54078238D01*
X88177761Y-53983000D01*
X88320619Y-53935380D01*
X88415857Y-53935380D01*
X88558714Y-53983000D01*
X88606333Y-54030619D01*
X88939666Y-53935380D02*
X89558714Y-53935380D01*
X89225380Y-54316333D01*
X89368238Y-54316333D01*
X89463476Y-54363952D01*
X89511095Y-54411571D01*
X89558714Y-54506809D01*
X89558714Y-54744904D01*
X89511095Y-54840142D01*
X89463476Y-54887761D01*
X89368238Y-54935380D01*
X89082523Y-54935380D01*
X88987285Y-54887761D01*
X88939666Y-54840142D01*
%TO.C,C8*%
X91214142Y-98056266D02*
X91261761Y-98103885D01*
X91309380Y-98246742D01*
X91309380Y-98341980D01*
X91261761Y-98484838D01*
X91166523Y-98580076D01*
X91071285Y-98627695D01*
X90880809Y-98675314D01*
X90737952Y-98675314D01*
X90547476Y-98627695D01*
X90452238Y-98580076D01*
X90357000Y-98484838D01*
X90309380Y-98341980D01*
X90309380Y-98246742D01*
X90357000Y-98103885D01*
X90404619Y-98056266D01*
X90737952Y-97484838D02*
X90690333Y-97580076D01*
X90642714Y-97627695D01*
X90547476Y-97675314D01*
X90499857Y-97675314D01*
X90404619Y-97627695D01*
X90357000Y-97580076D01*
X90309380Y-97484838D01*
X90309380Y-97294361D01*
X90357000Y-97199123D01*
X90404619Y-97151504D01*
X90499857Y-97103885D01*
X90547476Y-97103885D01*
X90642714Y-97151504D01*
X90690333Y-97199123D01*
X90737952Y-97294361D01*
X90737952Y-97484838D01*
X90785571Y-97580076D01*
X90833190Y-97627695D01*
X90928428Y-97675314D01*
X91118904Y-97675314D01*
X91214142Y-97627695D01*
X91261761Y-97580076D01*
X91309380Y-97484838D01*
X91309380Y-97294361D01*
X91261761Y-97199123D01*
X91214142Y-97151504D01*
X91118904Y-97103885D01*
X90928428Y-97103885D01*
X90833190Y-97151504D01*
X90785571Y-97199123D01*
X90737952Y-97294361D01*
X97809380Y-98961028D02*
X97809380Y-99532457D01*
X97809380Y-99246742D02*
X96809380Y-99246742D01*
X96952238Y-99341980D01*
X97047476Y-99437219D01*
X97095095Y-99532457D01*
X96809380Y-98341980D02*
X96809380Y-98246742D01*
X96857000Y-98151504D01*
X96904619Y-98103885D01*
X96999857Y-98056266D01*
X97190333Y-98008647D01*
X97428428Y-98008647D01*
X97618904Y-98056266D01*
X97714142Y-98103885D01*
X97761761Y-98151504D01*
X97809380Y-98246742D01*
X97809380Y-98341980D01*
X97761761Y-98437219D01*
X97714142Y-98484838D01*
X97618904Y-98532457D01*
X97428428Y-98580076D01*
X97190333Y-98580076D01*
X96999857Y-98532457D01*
X96904619Y-98484838D01*
X96857000Y-98437219D01*
X96809380Y-98341980D01*
X97142714Y-97151504D02*
X97809380Y-97151504D01*
X97142714Y-97580076D02*
X97666523Y-97580076D01*
X97761761Y-97532457D01*
X97809380Y-97437219D01*
X97809380Y-97294361D01*
X97761761Y-97199123D01*
X97714142Y-97151504D01*
X97285571Y-96341980D02*
X97285571Y-96675314D01*
X97809380Y-96675314D02*
X96809380Y-96675314D01*
X96809380Y-96199123D01*
%TO.C,J15*%
X122497380Y-57483333D02*
X122497380Y-56864285D01*
X122878333Y-57197619D01*
X122878333Y-57054761D01*
X122925952Y-56959523D01*
X122973571Y-56911904D01*
X123068809Y-56864285D01*
X123306904Y-56864285D01*
X123402142Y-56911904D01*
X123449761Y-56959523D01*
X123497380Y-57054761D01*
X123497380Y-57340476D01*
X123449761Y-57435714D01*
X123402142Y-57483333D01*
%TO.C,J6*%
X99417142Y-72540714D02*
X99464761Y-72588333D01*
X99512380Y-72731190D01*
X99512380Y-72826428D01*
X99464761Y-72969285D01*
X99369523Y-73064523D01*
X99274285Y-73112142D01*
X99083809Y-73159761D01*
X98940952Y-73159761D01*
X98750476Y-73112142D01*
X98655238Y-73064523D01*
X98560000Y-72969285D01*
X98512380Y-72826428D01*
X98512380Y-72731190D01*
X98560000Y-72588333D01*
X98607619Y-72540714D01*
X98512380Y-71921666D02*
X98512380Y-71731190D01*
X98560000Y-71635952D01*
X98655238Y-71540714D01*
X98845714Y-71493095D01*
X99179047Y-71493095D01*
X99369523Y-71540714D01*
X99464761Y-71635952D01*
X99512380Y-71731190D01*
X99512380Y-71921666D01*
X99464761Y-72016904D01*
X99369523Y-72112142D01*
X99179047Y-72159761D01*
X98845714Y-72159761D01*
X98655238Y-72112142D01*
X98560000Y-72016904D01*
X98512380Y-71921666D01*
X99512380Y-71064523D02*
X98512380Y-71064523D01*
X99226666Y-70731190D01*
X98512380Y-70397857D01*
X99512380Y-70397857D01*
%TO.C,J5*%
X95543714Y-95726142D02*
X96210380Y-95488047D01*
X95543714Y-95249952D01*
X95829428Y-94869000D02*
X95829428Y-94107095D01*
%TO.C,J8*%
X99512380Y-81208333D02*
X98512380Y-81208333D01*
X99512380Y-80732142D02*
X98512380Y-80732142D01*
X99512380Y-80160714D01*
X98512380Y-80160714D01*
X99607619Y-79922619D02*
X99607619Y-79160714D01*
X99512380Y-78446428D02*
X99512380Y-78922619D01*
X98512380Y-78922619D01*
X98512380Y-77922619D02*
X98512380Y-77732142D01*
X98560000Y-77636904D01*
X98655238Y-77541666D01*
X98845714Y-77494047D01*
X99179047Y-77494047D01*
X99369523Y-77541666D01*
X99464761Y-77636904D01*
X99512380Y-77732142D01*
X99512380Y-77922619D01*
X99464761Y-78017857D01*
X99369523Y-78113095D01*
X99179047Y-78160714D01*
X98845714Y-78160714D01*
X98655238Y-78113095D01*
X98560000Y-78017857D01*
X98512380Y-77922619D01*
%TO.C,J3*%
X100115714Y-51657142D02*
X100782380Y-51419047D01*
X100115714Y-51180952D01*
X100401428Y-50800000D02*
X100401428Y-50038095D01*
X100782380Y-50419047D02*
X100020476Y-50419047D01*
%TO.C,R5*%
X73239333Y-112296380D02*
X72906000Y-111820190D01*
X72667904Y-112296380D02*
X72667904Y-111296380D01*
X73048857Y-111296380D01*
X73144095Y-111344000D01*
X73191714Y-111391619D01*
X73239333Y-111486857D01*
X73239333Y-111629714D01*
X73191714Y-111724952D01*
X73144095Y-111772571D01*
X73048857Y-111820190D01*
X72667904Y-111820190D01*
X74144095Y-111296380D02*
X73667904Y-111296380D01*
X73620285Y-111772571D01*
X73667904Y-111724952D01*
X73763142Y-111677333D01*
X74001238Y-111677333D01*
X74096476Y-111724952D01*
X74144095Y-111772571D01*
X74191714Y-111867809D01*
X74191714Y-112105904D01*
X74144095Y-112201142D01*
X74096476Y-112248761D01*
X74001238Y-112296380D01*
X73763142Y-112296380D01*
X73667904Y-112248761D01*
X73620285Y-112201142D01*
%TO.C,J7*%
X94922380Y-77231666D02*
X93922380Y-77231666D01*
X94922380Y-76755476D02*
X93922380Y-76755476D01*
X94922380Y-76184047D01*
X93922380Y-76184047D01*
X95017619Y-75945952D02*
X95017619Y-75184047D01*
X94922380Y-74945952D02*
X93922380Y-74945952D01*
X94398571Y-74945952D02*
X94398571Y-74374523D01*
X94922380Y-74374523D02*
X93922380Y-74374523D01*
X94922380Y-73898333D02*
X93922380Y-73898333D01*
%TO.C,J9*%
X96972380Y-61404285D02*
X96496190Y-61737619D01*
X96972380Y-61975714D02*
X95972380Y-61975714D01*
X95972380Y-61594761D01*
X96020000Y-61499523D01*
X96067619Y-61451904D01*
X96162857Y-61404285D01*
X96305714Y-61404285D01*
X96400952Y-61451904D01*
X96448571Y-61499523D01*
X96496190Y-61594761D01*
X96496190Y-61975714D01*
X96448571Y-60975714D02*
X96448571Y-60642380D01*
X96972380Y-60499523D02*
X96972380Y-60975714D01*
X95972380Y-60975714D01*
X95972380Y-60499523D01*
X96448571Y-59737619D02*
X96448571Y-60070952D01*
X96972380Y-60070952D02*
X95972380Y-60070952D01*
X95972380Y-59594761D01*
X97067619Y-59451904D02*
X97067619Y-58690000D01*
X96972380Y-58451904D02*
X95972380Y-58451904D01*
X96448571Y-58451904D02*
X96448571Y-57880476D01*
X96972380Y-57880476D02*
X95972380Y-57880476D01*
X96972380Y-57404285D02*
X95972380Y-57404285D01*
%TO.C,R7*%
X83653333Y-112296380D02*
X83320000Y-111820190D01*
X83081904Y-112296380D02*
X83081904Y-111296380D01*
X83462857Y-111296380D01*
X83558095Y-111344000D01*
X83605714Y-111391619D01*
X83653333Y-111486857D01*
X83653333Y-111629714D01*
X83605714Y-111724952D01*
X83558095Y-111772571D01*
X83462857Y-111820190D01*
X83081904Y-111820190D01*
X83986666Y-111296380D02*
X84653333Y-111296380D01*
X84224761Y-112296380D01*
%TO.C,C6*%
X103405954Y-42947142D02*
X103358335Y-42994761D01*
X103215478Y-43042380D01*
X103120240Y-43042380D01*
X102977382Y-42994761D01*
X102882144Y-42899523D01*
X102834525Y-42804285D01*
X102786906Y-42613809D01*
X102786906Y-42470952D01*
X102834525Y-42280476D01*
X102882144Y-42185238D01*
X102977382Y-42090000D01*
X103120240Y-42042380D01*
X103215478Y-42042380D01*
X103358335Y-42090000D01*
X103405954Y-42137619D01*
X104263097Y-42042380D02*
X104072621Y-42042380D01*
X103977382Y-42090000D01*
X103929763Y-42137619D01*
X103834525Y-42280476D01*
X103786906Y-42470952D01*
X103786906Y-42851904D01*
X103834525Y-42947142D01*
X103882144Y-42994761D01*
X103977382Y-43042380D01*
X104167859Y-43042380D01*
X104263097Y-42994761D01*
X104310716Y-42947142D01*
X104358335Y-42851904D01*
X104358335Y-42613809D01*
X104310716Y-42518571D01*
X104263097Y-42470952D01*
X104167859Y-42423333D01*
X103977382Y-42423333D01*
X103882144Y-42470952D01*
X103834525Y-42518571D01*
X103786906Y-42613809D01*
%TO.C,C4*%
X91797142Y-85256666D02*
X91844761Y-85304285D01*
X91892380Y-85447142D01*
X91892380Y-85542380D01*
X91844761Y-85685238D01*
X91749523Y-85780476D01*
X91654285Y-85828095D01*
X91463809Y-85875714D01*
X91320952Y-85875714D01*
X91130476Y-85828095D01*
X91035238Y-85780476D01*
X90940000Y-85685238D01*
X90892380Y-85542380D01*
X90892380Y-85447142D01*
X90940000Y-85304285D01*
X90987619Y-85256666D01*
X91225714Y-84399523D02*
X91892380Y-84399523D01*
X90844761Y-84637619D02*
X91559047Y-84875714D01*
X91559047Y-84256666D01*
X100671380Y-85558047D02*
X100671380Y-85462809D01*
X100719000Y-85367571D01*
X100766619Y-85319952D01*
X100861857Y-85272333D01*
X101052333Y-85224714D01*
X101290428Y-85224714D01*
X101480904Y-85272333D01*
X101576142Y-85319952D01*
X101623761Y-85367571D01*
X101671380Y-85462809D01*
X101671380Y-85558047D01*
X101623761Y-85653285D01*
X101576142Y-85700904D01*
X101480904Y-85748523D01*
X101290428Y-85796142D01*
X101052333Y-85796142D01*
X100861857Y-85748523D01*
X100766619Y-85700904D01*
X100719000Y-85653285D01*
X100671380Y-85558047D01*
X101576142Y-84796142D02*
X101623761Y-84748523D01*
X101671380Y-84796142D01*
X101623761Y-84843761D01*
X101576142Y-84796142D01*
X101671380Y-84796142D01*
X101004714Y-83891380D02*
X101671380Y-83891380D01*
X100623761Y-84129476D02*
X101338047Y-84367571D01*
X101338047Y-83748523D01*
X100671380Y-83462809D02*
X100671380Y-82796142D01*
X101671380Y-83224714D01*
X101004714Y-81986619D02*
X101671380Y-81986619D01*
X101004714Y-82415190D02*
X101528523Y-82415190D01*
X101623761Y-82367571D01*
X101671380Y-82272333D01*
X101671380Y-82129476D01*
X101623761Y-82034238D01*
X101576142Y-81986619D01*
X101147571Y-81177095D02*
X101147571Y-81510428D01*
X101671380Y-81510428D02*
X100671380Y-81510428D01*
X100671380Y-81034238D01*
%TO.C,J10*%
X94432380Y-68555952D02*
X93956190Y-68889285D01*
X94432380Y-69127380D02*
X93432380Y-69127380D01*
X93432380Y-68746428D01*
X93480000Y-68651190D01*
X93527619Y-68603571D01*
X93622857Y-68555952D01*
X93765714Y-68555952D01*
X93860952Y-68603571D01*
X93908571Y-68651190D01*
X93956190Y-68746428D01*
X93956190Y-69127380D01*
X93908571Y-68127380D02*
X93908571Y-67794047D01*
X94432380Y-67651190D02*
X94432380Y-68127380D01*
X93432380Y-68127380D01*
X93432380Y-67651190D01*
X93908571Y-66889285D02*
X93908571Y-67222619D01*
X94432380Y-67222619D02*
X93432380Y-67222619D01*
X93432380Y-66746428D01*
X94527619Y-66603571D02*
X94527619Y-65841666D01*
X94432380Y-65127380D02*
X94432380Y-65603571D01*
X93432380Y-65603571D01*
X93432380Y-64603571D02*
X93432380Y-64413095D01*
X93480000Y-64317857D01*
X93575238Y-64222619D01*
X93765714Y-64175000D01*
X94099047Y-64175000D01*
X94289523Y-64222619D01*
X94384761Y-64317857D01*
X94432380Y-64413095D01*
X94432380Y-64603571D01*
X94384761Y-64698809D01*
X94289523Y-64794047D01*
X94099047Y-64841666D01*
X93765714Y-64841666D01*
X93575238Y-64794047D01*
X93480000Y-64698809D01*
X93432380Y-64603571D01*
%TO.C,R1*%
X103322380Y-90336666D02*
X102846190Y-90670000D01*
X103322380Y-90908095D02*
X102322380Y-90908095D01*
X102322380Y-90527142D01*
X102370000Y-90431904D01*
X102417619Y-90384285D01*
X102512857Y-90336666D01*
X102655714Y-90336666D01*
X102750952Y-90384285D01*
X102798571Y-90431904D01*
X102846190Y-90527142D01*
X102846190Y-90908095D01*
X103322380Y-89384285D02*
X103322380Y-89955714D01*
X103322380Y-89670000D02*
X102322380Y-89670000D01*
X102465238Y-89765238D01*
X102560476Y-89860476D01*
X102608095Y-89955714D01*
X104560714Y-88288714D02*
X105227380Y-88288714D01*
X104179761Y-88526809D02*
X104894047Y-88764904D01*
X104894047Y-88145857D01*
X104227380Y-87860142D02*
X104227380Y-87193476D01*
X105227380Y-87622047D01*
X105227380Y-86812523D02*
X104227380Y-86812523D01*
X105227380Y-86241095D02*
X104655952Y-86669666D01*
X104227380Y-86241095D02*
X104798809Y-86812523D01*
%TO.C,R6*%
X78446333Y-112296380D02*
X78113000Y-111820190D01*
X77874904Y-112296380D02*
X77874904Y-111296380D01*
X78255857Y-111296380D01*
X78351095Y-111344000D01*
X78398714Y-111391619D01*
X78446333Y-111486857D01*
X78446333Y-111629714D01*
X78398714Y-111724952D01*
X78351095Y-111772571D01*
X78255857Y-111820190D01*
X77874904Y-111820190D01*
X79303476Y-111296380D02*
X79113000Y-111296380D01*
X79017761Y-111344000D01*
X78970142Y-111391619D01*
X78874904Y-111534476D01*
X78827285Y-111724952D01*
X78827285Y-112105904D01*
X78874904Y-112201142D01*
X78922523Y-112248761D01*
X79017761Y-112296380D01*
X79208238Y-112296380D01*
X79303476Y-112248761D01*
X79351095Y-112201142D01*
X79398714Y-112105904D01*
X79398714Y-111867809D01*
X79351095Y-111772571D01*
X79303476Y-111724952D01*
X79208238Y-111677333D01*
X79017761Y-111677333D01*
X78922523Y-111724952D01*
X78874904Y-111772571D01*
X78827285Y-111867809D01*
%TO.C,R2*%
X96802380Y-54776666D02*
X96326190Y-55110000D01*
X96802380Y-55348095D02*
X95802380Y-55348095D01*
X95802380Y-54967142D01*
X95850000Y-54871904D01*
X95897619Y-54824285D01*
X95992857Y-54776666D01*
X96135714Y-54776666D01*
X96230952Y-54824285D01*
X96278571Y-54871904D01*
X96326190Y-54967142D01*
X96326190Y-55348095D01*
X95897619Y-54395714D02*
X95850000Y-54348095D01*
X95802380Y-54252857D01*
X95802380Y-54014761D01*
X95850000Y-53919523D01*
X95897619Y-53871904D01*
X95992857Y-53824285D01*
X96088095Y-53824285D01*
X96230952Y-53871904D01*
X96802380Y-54443333D01*
X96802380Y-53824285D01*
%TO.C,C5*%
X91797142Y-92876666D02*
X91844761Y-92924285D01*
X91892380Y-93067142D01*
X91892380Y-93162380D01*
X91844761Y-93305238D01*
X91749523Y-93400476D01*
X91654285Y-93448095D01*
X91463809Y-93495714D01*
X91320952Y-93495714D01*
X91130476Y-93448095D01*
X91035238Y-93400476D01*
X90940000Y-93305238D01*
X90892380Y-93162380D01*
X90892380Y-93067142D01*
X90940000Y-92924285D01*
X90987619Y-92876666D01*
X90892380Y-91971904D02*
X90892380Y-92448095D01*
X91368571Y-92495714D01*
X91320952Y-92448095D01*
X91273333Y-92352857D01*
X91273333Y-92114761D01*
X91320952Y-92019523D01*
X91368571Y-91971904D01*
X91463809Y-91924285D01*
X91701904Y-91924285D01*
X91797142Y-91971904D01*
X91844761Y-92019523D01*
X91892380Y-92114761D01*
X91892380Y-92352857D01*
X91844761Y-92448095D01*
X91797142Y-92495714D01*
X100417380Y-94194047D02*
X100417380Y-94098809D01*
X100465000Y-94003571D01*
X100512619Y-93955952D01*
X100607857Y-93908333D01*
X100798333Y-93860714D01*
X101036428Y-93860714D01*
X101226904Y-93908333D01*
X101322142Y-93955952D01*
X101369761Y-94003571D01*
X101417380Y-94098809D01*
X101417380Y-94194047D01*
X101369761Y-94289285D01*
X101322142Y-94336904D01*
X101226904Y-94384523D01*
X101036428Y-94432142D01*
X100798333Y-94432142D01*
X100607857Y-94384523D01*
X100512619Y-94336904D01*
X100465000Y-94289285D01*
X100417380Y-94194047D01*
X101322142Y-93432142D02*
X101369761Y-93384523D01*
X101417380Y-93432142D01*
X101369761Y-93479761D01*
X101322142Y-93432142D01*
X101417380Y-93432142D01*
X100512619Y-93003571D02*
X100465000Y-92955952D01*
X100417380Y-92860714D01*
X100417380Y-92622619D01*
X100465000Y-92527380D01*
X100512619Y-92479761D01*
X100607857Y-92432142D01*
X100703095Y-92432142D01*
X100845952Y-92479761D01*
X101417380Y-93051190D01*
X101417380Y-92432142D01*
X100512619Y-92051190D02*
X100465000Y-92003571D01*
X100417380Y-91908333D01*
X100417380Y-91670238D01*
X100465000Y-91575000D01*
X100512619Y-91527380D01*
X100607857Y-91479761D01*
X100703095Y-91479761D01*
X100845952Y-91527380D01*
X101417380Y-92098809D01*
X101417380Y-91479761D01*
X100750714Y-90622619D02*
X101417380Y-90622619D01*
X100750714Y-91051190D02*
X101274523Y-91051190D01*
X101369761Y-91003571D01*
X101417380Y-90908333D01*
X101417380Y-90765476D01*
X101369761Y-90670238D01*
X101322142Y-90622619D01*
X100893571Y-89813095D02*
X100893571Y-90146428D01*
X101417380Y-90146428D02*
X100417380Y-90146428D01*
X100417380Y-89670238D01*
%TO.C,C7*%
X70588142Y-51220666D02*
X70635761Y-51268285D01*
X70683380Y-51411142D01*
X70683380Y-51506380D01*
X70635761Y-51649238D01*
X70540523Y-51744476D01*
X70445285Y-51792095D01*
X70254809Y-51839714D01*
X70111952Y-51839714D01*
X69921476Y-51792095D01*
X69826238Y-51744476D01*
X69731000Y-51649238D01*
X69683380Y-51506380D01*
X69683380Y-51411142D01*
X69731000Y-51268285D01*
X69778619Y-51220666D01*
X69683380Y-50887333D02*
X69683380Y-50220666D01*
X70683380Y-50649238D01*
%TO.C,D1*%
X69492904Y-43505380D02*
X69492904Y-42505380D01*
X69731000Y-42505380D01*
X69873857Y-42553000D01*
X69969095Y-42648238D01*
X70016714Y-42743476D01*
X70064333Y-42933952D01*
X70064333Y-43076809D01*
X70016714Y-43267285D01*
X69969095Y-43362523D01*
X69873857Y-43457761D01*
X69731000Y-43505380D01*
X69492904Y-43505380D01*
X71016714Y-43505380D02*
X70445285Y-43505380D01*
X70731000Y-43505380D02*
X70731000Y-42505380D01*
X70635761Y-42648238D01*
X70540523Y-42743476D01*
X70445285Y-42791095D01*
X65651095Y-45410380D02*
X65651095Y-44410380D01*
X66222523Y-45410380D02*
X65793952Y-44838952D01*
X66222523Y-44410380D02*
X65651095Y-44981809D01*
%TO.C,U2*%
X79756095Y-46024380D02*
X79756095Y-46833904D01*
X79803714Y-46929142D01*
X79851333Y-46976761D01*
X79946571Y-47024380D01*
X80137047Y-47024380D01*
X80232285Y-46976761D01*
X80279904Y-46929142D01*
X80327523Y-46833904D01*
X80327523Y-46024380D01*
X80756095Y-46119619D02*
X80803714Y-46072000D01*
X80898952Y-46024380D01*
X81137047Y-46024380D01*
X81232285Y-46072000D01*
X81279904Y-46119619D01*
X81327523Y-46214857D01*
X81327523Y-46310095D01*
X81279904Y-46452952D01*
X80708476Y-47024380D01*
X81327523Y-47024380D01*
%TO.C,J14*%
X122592619Y-62515714D02*
X122545000Y-62468095D01*
X122497380Y-62372857D01*
X122497380Y-62134761D01*
X122545000Y-62039523D01*
X122592619Y-61991904D01*
X122687857Y-61944285D01*
X122783095Y-61944285D01*
X122925952Y-61991904D01*
X123497380Y-62563333D01*
X123497380Y-61944285D01*
%TO.C,J17*%
X123497380Y-66389285D02*
X123497380Y-66960714D01*
X123497380Y-66675000D02*
X122497380Y-66675000D01*
X122640238Y-66770238D01*
X122735476Y-66865476D01*
X122783095Y-66960714D01*
D11*
%TO.C,U1*%
X80275000Y-55825000D02*
X74815000Y-55825000D01*
X87735000Y-55825000D02*
X82275000Y-55825000D01*
X87735000Y-106745000D02*
X87735000Y-55825000D01*
X74815000Y-55825000D02*
X74815000Y-106745000D01*
X74815000Y-106745000D02*
X87735000Y-106745000D01*
X80275000Y-55825000D02*
G75*
G03*
X82275000Y-55825000I1000000J0D01*
G01*
%TO.C,D2*%
X73660000Y-47014000D02*
X73660000Y-47664000D01*
X74780000Y-48504000D02*
X72540000Y-48504000D01*
X74780000Y-51904000D02*
X74780000Y-47664000D01*
X74780000Y-48264000D02*
X72540000Y-48264000D01*
X72540000Y-51904000D02*
X74780000Y-51904000D01*
X73660000Y-52554000D02*
X73660000Y-51904000D01*
X72540000Y-47664000D02*
X72540000Y-51904000D01*
X74780000Y-47664000D02*
X72540000Y-47664000D01*
X74780000Y-48384000D02*
X72540000Y-48384000D01*
%TO.C,J1*%
X93965000Y-47710000D02*
X88825000Y-47710000D01*
X88825000Y-45050000D02*
X88825000Y-47710000D01*
X93965000Y-45050000D02*
X88825000Y-45050000D01*
X96565000Y-47710000D02*
X95235000Y-47710000D01*
X93965000Y-45050000D02*
X93965000Y-47710000D01*
X96565000Y-46380000D02*
X96565000Y-47710000D01*
%TO.C,C1*%
X92360000Y-73031000D02*
X92360000Y-74289000D01*
X90520000Y-73031000D02*
X90520000Y-74289000D01*
%TO.C,J16*%
X126346000Y-52070000D02*
G75*
G03*
X126346000Y-52070000I-1251000J0D01*
G01*
%TO.C,J4*%
X112376000Y-48895000D02*
G75*
G03*
X112376000Y-48895000I-1251000J0D01*
G01*
%TO.C,J2*%
X110490000Y-45145000D02*
X113090000Y-45145000D01*
X107890000Y-43815000D02*
X107890000Y-42485000D01*
X107890000Y-42485000D02*
X109220000Y-42485000D01*
X110490000Y-42485000D02*
X113090000Y-42485000D01*
X110490000Y-45145000D02*
X110490000Y-42485000D01*
X113090000Y-45145000D02*
X113090000Y-42485000D01*
%TO.C,C3*%
X85846000Y-53309000D02*
X84588000Y-53309000D01*
X85846000Y-55149000D02*
X84588000Y-55149000D01*
%TO.C,C8*%
X92028000Y-97809600D02*
X96186000Y-97809600D01*
X94947000Y-96088600D02*
X95187000Y-96088600D01*
X92256000Y-96928600D02*
X93267000Y-96928600D01*
X93443000Y-95888600D02*
X94771000Y-95888600D01*
X94947000Y-96688600D02*
X95815000Y-96688600D01*
X92555000Y-96488600D02*
X93267000Y-96488600D01*
X94947000Y-96808600D02*
X95892000Y-96808600D01*
X92153000Y-97168600D02*
X93267000Y-97168600D01*
X92711000Y-96328600D02*
X93267000Y-96328600D01*
X94947000Y-96408600D02*
X95585000Y-96408600D01*
X94947000Y-97048600D02*
X96014000Y-97048600D01*
X92036000Y-97689600D02*
X93267000Y-97689600D01*
X92322000Y-96808600D02*
X93267000Y-96808600D01*
X92488000Y-96568600D02*
X93267000Y-96568600D01*
X92756000Y-96288600D02*
X93267000Y-96288600D01*
X92912000Y-100159401D02*
X92912000Y-99759401D01*
X92102000Y-97329600D02*
X93267000Y-97329600D01*
X94947000Y-97008600D02*
X95996000Y-97008600D01*
X94947000Y-96928600D02*
X95958000Y-96928600D01*
X92907000Y-96168600D02*
X93267000Y-96168600D01*
X92200000Y-97048600D02*
X93267000Y-97048600D01*
X94947000Y-96328600D02*
X95503000Y-96328600D01*
X94947000Y-97088600D02*
X96031000Y-97088600D01*
X92803000Y-96248600D02*
X93267000Y-96248600D01*
X92139000Y-97209600D02*
X93267000Y-97209600D01*
X92399000Y-96688600D02*
X93267000Y-96688600D01*
X92591000Y-96448600D02*
X93267000Y-96448600D01*
X92237000Y-96968600D02*
X93267000Y-96968600D01*
X94947000Y-97689600D02*
X96178000Y-97689600D01*
X92372000Y-96728600D02*
X93267000Y-96728600D01*
X92027000Y-97889600D02*
X96187000Y-97889600D01*
X94947000Y-97449600D02*
X96141000Y-97449600D01*
X94947000Y-97489600D02*
X96149000Y-97489600D01*
X94947000Y-96528600D02*
X95694000Y-96528600D01*
X94947000Y-96288600D02*
X95458000Y-96288600D01*
X94947000Y-96248600D02*
X95411000Y-96248600D01*
X92167000Y-97128600D02*
X93267000Y-97128600D01*
X94947000Y-97168600D02*
X96061000Y-97168600D01*
X94947000Y-96168600D02*
X95307000Y-96168600D01*
X94947000Y-97529600D02*
X96157000Y-97529600D01*
X94947000Y-96968600D02*
X95977000Y-96968600D01*
X92853000Y-96208600D02*
X93267000Y-96208600D01*
X92669000Y-96368600D02*
X93267000Y-96368600D01*
X94947000Y-97569600D02*
X96163000Y-97569600D01*
X92183000Y-97088600D02*
X93267000Y-97088600D01*
X92051000Y-97569600D02*
X93267000Y-97569600D01*
X93570000Y-95848600D02*
X94644000Y-95848600D01*
X92073000Y-97449600D02*
X93267000Y-97449600D01*
X92040000Y-97649600D02*
X93267000Y-97649600D01*
X94947000Y-97249600D02*
X96089000Y-97249600D01*
X94947000Y-96568600D02*
X95726000Y-96568600D01*
X94947000Y-97649600D02*
X96174000Y-97649600D01*
X92347000Y-96768600D02*
X93267000Y-96768600D01*
X92065000Y-97489600D02*
X93267000Y-97489600D01*
X92125000Y-97249600D02*
X93267000Y-97249600D01*
X92082000Y-97409600D02*
X93267000Y-97409600D01*
X92277000Y-96888600D02*
X93267000Y-96888600D01*
X94947000Y-96208600D02*
X95361000Y-96208600D01*
X92427000Y-96648600D02*
X93267000Y-96648600D01*
X92520000Y-96528600D02*
X93267000Y-96528600D01*
X94947000Y-96128600D02*
X95249000Y-96128600D01*
X92057000Y-97529600D02*
X93267000Y-97529600D01*
X92030000Y-97769600D02*
X96184000Y-97769600D01*
X92113000Y-97289600D02*
X93267000Y-97289600D01*
X94947000Y-96608600D02*
X95757000Y-96608600D01*
X94947000Y-97209600D02*
X96075000Y-97209600D01*
X94947000Y-97409600D02*
X96132000Y-97409600D01*
X93027000Y-96088600D02*
X93267000Y-96088600D01*
X94947000Y-97128600D02*
X96047000Y-97128600D01*
X92299000Y-96848600D02*
X93267000Y-96848600D01*
X93094000Y-96048600D02*
X95120000Y-96048600D01*
X93339000Y-95928600D02*
X94875000Y-95928600D01*
X94947000Y-96768600D02*
X95867000Y-96768600D01*
X94947000Y-97369600D02*
X96123000Y-97369600D01*
X94947000Y-97609600D02*
X96169000Y-97609600D01*
X94947000Y-96648600D02*
X95787000Y-96648600D01*
X93167000Y-96008600D02*
X95047000Y-96008600D01*
X93248000Y-95968600D02*
X94966000Y-95968600D01*
X93737000Y-95808600D02*
X94477000Y-95808600D01*
X94947000Y-97329600D02*
X96112000Y-97329600D01*
X92629000Y-96408600D02*
X93267000Y-96408600D01*
X94947000Y-96848600D02*
X95915000Y-96848600D01*
X92045000Y-97609600D02*
X93267000Y-97609600D01*
X94947000Y-97289600D02*
X96101000Y-97289600D01*
X92091000Y-97369600D02*
X93267000Y-97369600D01*
X92712000Y-99959401D02*
X93112000Y-99959401D01*
X92027000Y-97849600D02*
X96187000Y-97849600D01*
X92965000Y-96128600D02*
X93267000Y-96128600D01*
X94947000Y-96368600D02*
X95545000Y-96368600D01*
X94947000Y-96448600D02*
X95623000Y-96448600D01*
X94947000Y-96888600D02*
X95937000Y-96888600D01*
X92033000Y-97729600D02*
X96181000Y-97729600D01*
X94947000Y-96728600D02*
X95842000Y-96728600D01*
X92457000Y-96608600D02*
X93267000Y-96608600D01*
X94947000Y-96488600D02*
X95659000Y-96488600D01*
X92218000Y-97008600D02*
X93267000Y-97008600D01*
X96227000Y-97889600D02*
G75*
G03*
X96227000Y-97889600I-2120000J0D01*
G01*
%TO.C,J15*%
X126346000Y-57150000D02*
G75*
G03*
X126346000Y-57150000I-1251000J0D01*
G01*
%TO.C,J12*%
X88143000Y-49343000D02*
X88143000Y-52003000D01*
X85543000Y-49343000D02*
X85543000Y-52003000D01*
X89413000Y-49343000D02*
X90743000Y-49343000D01*
X88143000Y-52003000D02*
X85543000Y-52003000D01*
X90743000Y-49343000D02*
X90743000Y-50673000D01*
X88143000Y-49343000D02*
X85543000Y-49343000D01*
%TO.C,J6*%
X97771000Y-71755000D02*
G75*
G03*
X97771000Y-71755000I-1251000J0D01*
G01*
%TO.C,J5*%
X99549000Y-94869000D02*
G75*
G03*
X99549000Y-94869000I-1251000J0D01*
G01*
%TO.C,J8*%
X97771000Y-79375000D02*
G75*
G03*
X97771000Y-79375000I-1251000J0D01*
G01*
%TO.C,J3*%
X99041000Y-50800000D02*
G75*
G03*
X99041000Y-50800000I-1251000J0D01*
G01*
%TO.C,R5*%
X73306000Y-109474000D02*
X73236000Y-109474000D01*
X76046000Y-109474000D02*
G75*
G03*
X76046000Y-109474000I-1370000J0D01*
G01*
%TO.C,J7*%
X97771000Y-75565000D02*
G75*
G03*
X97771000Y-75565000I-1251000J0D01*
G01*
%TO.C,J9*%
X97771000Y-64135000D02*
G75*
G03*
X97771000Y-64135000I-1251000J0D01*
G01*
%TO.C,R7*%
X83720000Y-109474000D02*
X83650000Y-109474000D01*
X86460000Y-109474000D02*
G75*
G03*
X86460000Y-109474000I-1370000J0D01*
G01*
%TO.C,C6*%
X104973621Y-44074000D02*
X104973621Y-45950000D01*
X104012621Y-48030000D02*
X104012621Y-50191000D01*
X104453621Y-48030000D02*
X104453621Y-50100000D01*
X103852621Y-43772000D02*
X103852621Y-45950000D01*
X105613621Y-48030000D02*
X105613621Y-49506000D01*
X104893621Y-44038000D02*
X104893621Y-45950000D01*
X105013621Y-48030000D02*
X105013621Y-49886000D01*
X106733621Y-46188000D02*
X106733621Y-47792000D01*
X104413621Y-43869000D02*
X104413621Y-45950000D01*
X105373621Y-44300000D02*
X105373621Y-45950000D01*
X106493621Y-45558000D02*
X106493621Y-48422000D01*
X105573621Y-44442000D02*
X105573621Y-45950000D01*
X104853621Y-44020000D02*
X104853621Y-45950000D01*
X105693621Y-44540000D02*
X105693621Y-45950000D01*
X106533621Y-45640000D02*
X106533621Y-48340000D01*
X105333621Y-44274000D02*
X105333621Y-45950000D01*
X105093621Y-44134000D02*
X105093621Y-45950000D01*
X104333621Y-48030000D02*
X104333621Y-50131000D01*
X104252621Y-48030000D02*
X104252621Y-50149000D01*
X104172621Y-43815000D02*
X104172621Y-45950000D01*
X106373621Y-45340000D02*
X106373621Y-48640000D01*
X106133621Y-44995000D02*
X106133621Y-48985000D01*
X105213621Y-48030000D02*
X105213621Y-49780000D01*
X103772621Y-43766000D02*
X103772621Y-50214000D01*
X103572621Y-43760000D02*
X103572621Y-50220000D01*
X106813621Y-46588000D02*
X106813621Y-47392000D01*
X105733621Y-44574000D02*
X105733621Y-45950000D01*
X104373621Y-43859000D02*
X104373621Y-45950000D01*
X106173621Y-45046000D02*
X106173621Y-48934000D01*
X104212621Y-43823000D02*
X104212621Y-45950000D01*
X103932621Y-43779000D02*
X103932621Y-45950000D01*
X104092621Y-43801000D02*
X104092621Y-45950000D01*
X104172621Y-48030000D02*
X104172621Y-50165000D01*
X104653621Y-48030000D02*
X104653621Y-50037000D01*
X105293621Y-44248000D02*
X105293621Y-45950000D01*
X104613621Y-48030000D02*
X104613621Y-50051000D01*
X103732621Y-43763000D02*
X103732621Y-50217000D01*
X105773621Y-48030000D02*
X105773621Y-49370000D01*
X105653621Y-48030000D02*
X105653621Y-49474000D01*
X104573621Y-43916000D02*
X104573621Y-45950000D01*
X104293621Y-48030000D02*
X104293621Y-50140000D01*
X104773621Y-43988000D02*
X104773621Y-45950000D01*
X105653621Y-44506000D02*
X105653621Y-45950000D01*
X104613621Y-43929000D02*
X104613621Y-45950000D01*
X104573621Y-48030000D02*
X104573621Y-50064000D01*
X104493621Y-48030000D02*
X104493621Y-50088000D01*
X104092621Y-48030000D02*
X104092621Y-50179000D01*
X105533621Y-44412000D02*
X105533621Y-45950000D01*
X106653621Y-45931000D02*
X106653621Y-48049000D01*
X105453621Y-44354000D02*
X105453621Y-45950000D01*
X104813621Y-44004000D02*
X104813621Y-45950000D01*
X104733621Y-48030000D02*
X104733621Y-50008000D01*
X103652621Y-43760000D02*
X103652621Y-50220000D01*
X106573621Y-45728000D02*
X106573621Y-48252000D01*
X103852621Y-48030000D02*
X103852621Y-50208000D01*
X105413621Y-44326000D02*
X105413621Y-45950000D01*
X105133621Y-48030000D02*
X105133621Y-49824000D01*
X105173621Y-48030000D02*
X105173621Y-49802000D01*
X104293621Y-43840000D02*
X104293621Y-45950000D01*
X106053621Y-44898000D02*
X106053621Y-49082000D01*
X104252621Y-43831000D02*
X104252621Y-45950000D01*
X105013621Y-44094000D02*
X105013621Y-45950000D01*
X104493621Y-43892000D02*
X104493621Y-45950000D01*
X106333621Y-45276000D02*
X106333621Y-48704000D01*
X105253621Y-48030000D02*
X105253621Y-49756000D01*
X105053621Y-44114000D02*
X105053621Y-45950000D01*
X104132621Y-43808000D02*
X104132621Y-45950000D01*
X104813621Y-48030000D02*
X104813621Y-49976000D01*
X103932621Y-48030000D02*
X103932621Y-50201000D01*
X105333621Y-48030000D02*
X105333621Y-49706000D01*
X106013621Y-44853000D02*
X106013621Y-49127000D01*
X105613621Y-44474000D02*
X105613621Y-45950000D01*
X105893621Y-44725000D02*
X105893621Y-49255000D01*
X105773621Y-44610000D02*
X105773621Y-45950000D01*
X104212621Y-48030000D02*
X104212621Y-50157000D01*
X104453621Y-43880000D02*
X104453621Y-45950000D01*
X103612621Y-43760000D02*
X103612621Y-50220000D01*
X105493621Y-44383000D02*
X105493621Y-45950000D01*
X105093621Y-48030000D02*
X105093621Y-49846000D01*
X103892621Y-48030000D02*
X103892621Y-50205000D01*
X105853621Y-44685000D02*
X105853621Y-45950000D01*
X103812621Y-48030000D02*
X103812621Y-50212000D01*
X105813621Y-48030000D02*
X105813621Y-49333000D01*
X105413621Y-48030000D02*
X105413621Y-49654000D01*
X106253621Y-45156000D02*
X106253621Y-48824000D01*
X104373621Y-48030000D02*
X104373621Y-50121000D01*
X105213621Y-44200000D02*
X105213621Y-45950000D01*
X104052621Y-48030000D02*
X104052621Y-50185000D01*
X105053621Y-48030000D02*
X105053621Y-49866000D01*
X104693621Y-48030000D02*
X104693621Y-50023000D01*
X103972621Y-48030000D02*
X103972621Y-50196000D01*
X104773621Y-48030000D02*
X104773621Y-49992000D01*
X106213621Y-45100000D02*
X106213621Y-48880000D01*
X105493621Y-48030000D02*
X105493621Y-49597000D01*
X104893621Y-48030000D02*
X104893621Y-49942000D01*
X105293621Y-48030000D02*
X105293621Y-49732000D01*
X105533621Y-48030000D02*
X105533621Y-49568000D01*
X104533621Y-48030000D02*
X104533621Y-50076000D01*
X104132621Y-48030000D02*
X104132621Y-50172000D01*
X104693621Y-43957000D02*
X104693621Y-45950000D01*
X104653621Y-43943000D02*
X104653621Y-45950000D01*
X105453621Y-48030000D02*
X105453621Y-49626000D01*
X105253621Y-44224000D02*
X105253621Y-45950000D01*
X104733621Y-43972000D02*
X104733621Y-45950000D01*
X106613621Y-45825000D02*
X106613621Y-48155000D01*
X104413621Y-48030000D02*
X104413621Y-50111000D01*
X104853621Y-48030000D02*
X104853621Y-49960000D01*
X104012621Y-43789000D02*
X104012621Y-45950000D01*
X105133621Y-44156000D02*
X105133621Y-45950000D01*
X105973621Y-44808000D02*
X105973621Y-49172000D01*
X100072380Y-45151000D02*
X100702380Y-45151000D01*
X106413621Y-45409000D02*
X106413621Y-48571000D01*
X106093621Y-44946000D02*
X106093621Y-49034000D01*
X105813621Y-44647000D02*
X105813621Y-45950000D01*
X106293621Y-45214000D02*
X106293621Y-48766000D01*
X106453621Y-45481000D02*
X106453621Y-48499000D01*
X106693621Y-46050000D02*
X106693621Y-47930000D01*
X104933621Y-44056000D02*
X104933621Y-45950000D01*
X105853621Y-48030000D02*
X105853621Y-49295000D01*
X105733621Y-48030000D02*
X105733621Y-49406000D01*
X103972621Y-43784000D02*
X103972621Y-45950000D01*
X104333621Y-43849000D02*
X104333621Y-45950000D01*
X105693621Y-48030000D02*
X105693621Y-49440000D01*
X105373621Y-48030000D02*
X105373621Y-49680000D01*
X103812621Y-43768000D02*
X103812621Y-45950000D01*
X103692621Y-43762000D02*
X103692621Y-50218000D01*
X106773621Y-46357000D02*
X106773621Y-47623000D01*
X104533621Y-43904000D02*
X104533621Y-45950000D01*
X104052621Y-43795000D02*
X104052621Y-45950000D01*
X103892621Y-43775000D02*
X103892621Y-45950000D01*
X105573621Y-48030000D02*
X105573621Y-49538000D01*
X105933621Y-44766000D02*
X105933621Y-49214000D01*
X104973621Y-48030000D02*
X104973621Y-49906000D01*
X100387380Y-44836000D02*
X100387380Y-45466000D01*
X104933621Y-48030000D02*
X104933621Y-49924000D01*
X105173621Y-44178000D02*
X105173621Y-45950000D01*
X106842621Y-46990000D02*
G75*
G03*
X106842621Y-46990000I-3270000J0D01*
G01*
%TO.C,C4*%
X94250000Y-82750000D02*
X94250000Y-82765000D01*
X98790000Y-82750000D02*
X98790000Y-82765000D01*
X94250000Y-82750000D02*
X98790000Y-82750000D01*
X94250000Y-84875000D02*
X94250000Y-84890000D01*
X94250000Y-84890000D02*
X98790000Y-84890000D01*
X98790000Y-84875000D02*
X98790000Y-84890000D01*
%TO.C,J10*%
X97771000Y-67945000D02*
G75*
G03*
X97771000Y-67945000I-1251000J0D01*
G01*
%TO.C,R1*%
X101830000Y-87630000D02*
X101060000Y-87630000D01*
X94520000Y-86260000D02*
X94520000Y-89000000D01*
X101060000Y-89000000D02*
X101060000Y-86260000D01*
X94520000Y-89000000D02*
X101060000Y-89000000D01*
X93750000Y-87630000D02*
X94520000Y-87630000D01*
X101060000Y-86260000D02*
X94520000Y-86260000D01*
%TO.C,R6*%
X78513000Y-109474000D02*
X78443000Y-109474000D01*
X81253000Y-109474000D02*
G75*
G03*
X81253000Y-109474000I-1370000J0D01*
G01*
%TO.C,J11*%
X99740000Y-108580000D02*
X99740000Y-111180000D01*
X99740000Y-111180000D02*
X92000000Y-111180000D01*
X98410000Y-105980000D02*
X99740000Y-105980000D01*
X97140000Y-105980000D02*
X92000000Y-105980000D01*
X97140000Y-105980000D02*
X97140000Y-108580000D01*
X92000000Y-105980000D02*
X92000000Y-111180000D01*
X99740000Y-105980000D02*
X99740000Y-107310000D01*
X97140000Y-108580000D02*
X99740000Y-108580000D01*
%TO.C,R2*%
X93980000Y-50570000D02*
X93980000Y-51340000D01*
X95350000Y-57880000D02*
X95350000Y-51340000D01*
X92610000Y-51340000D02*
X92610000Y-57880000D01*
X95350000Y-51340000D02*
X92610000Y-51340000D01*
X92610000Y-57880000D02*
X95350000Y-57880000D01*
X93980000Y-58650000D02*
X93980000Y-57880000D01*
%TO.C,C5*%
X98790000Y-90370000D02*
X98790000Y-90385000D01*
X94250000Y-92510000D02*
X98790000Y-92510000D01*
X94250000Y-92495000D02*
X94250000Y-92510000D01*
X98790000Y-92495000D02*
X98790000Y-92510000D01*
X94250000Y-90370000D02*
X98790000Y-90370000D01*
X94250000Y-90370000D02*
X94250000Y-90385000D01*
%TO.C,C7*%
X70069000Y-48954401D02*
X69039000Y-48954401D01*
X67359000Y-49074401D02*
X66391000Y-49074401D01*
X67359000Y-49474401D02*
X66683000Y-49474401D01*
X70249000Y-48393401D02*
X69039000Y-48393401D01*
X67359000Y-49794401D02*
X67057000Y-49794401D01*
X69279000Y-49834401D02*
X69039000Y-49834401D01*
X69394000Y-45763600D02*
X69394000Y-46163600D01*
X67359000Y-48513401D02*
X66174000Y-48513401D01*
X70255000Y-48353401D02*
X69039000Y-48353401D01*
X70088000Y-48914401D02*
X69039000Y-48914401D01*
X69818000Y-49354401D02*
X69039000Y-49354401D01*
X69453000Y-49714401D02*
X69039000Y-49714401D01*
X68736000Y-50074401D02*
X67662000Y-50074401D01*
X70139000Y-48794401D02*
X69039000Y-48794401D01*
X67359000Y-48633401D02*
X66205000Y-48633401D01*
X70029000Y-49034401D02*
X69039000Y-49034401D01*
X67359000Y-48673401D02*
X66217000Y-48673401D01*
X70224000Y-48513401D02*
X69039000Y-48513401D01*
X70270000Y-48233401D02*
X69039000Y-48233401D01*
X67359000Y-49834401D02*
X67119000Y-49834401D01*
X67359000Y-48433401D02*
X66157000Y-48433401D01*
X68967000Y-49994401D02*
X67431000Y-49994401D01*
X69212000Y-49874401D02*
X67186000Y-49874401D01*
X70050000Y-48994401D02*
X69039000Y-48994401D01*
X68863000Y-50034401D02*
X67535000Y-50034401D01*
X70233000Y-48473401D02*
X69039000Y-48473401D01*
X70181000Y-48673401D02*
X69039000Y-48673401D01*
X69399000Y-49754401D02*
X69039000Y-49754401D01*
X67359000Y-48593401D02*
X66194000Y-48593401D01*
X69751000Y-49434401D02*
X69039000Y-49434401D01*
X67359000Y-49194401D02*
X66464000Y-49194401D01*
X69139000Y-49914401D02*
X67259000Y-49914401D01*
X67359000Y-49234401D02*
X66491000Y-49234401D01*
X70007000Y-49074401D02*
X69039000Y-49074401D01*
X67359000Y-48754401D02*
X66245000Y-48754401D01*
X67359000Y-49594401D02*
X66803000Y-49594401D01*
X70241000Y-48433401D02*
X69039000Y-48433401D01*
X67359000Y-48713401D02*
X66231000Y-48713401D01*
X67359000Y-49514401D02*
X66721000Y-49514401D01*
X67359000Y-49674401D02*
X66895000Y-49674401D01*
X69984000Y-49114401D02*
X69039000Y-49114401D01*
X69595000Y-49594401D02*
X69039000Y-49594401D01*
X67359000Y-49754401D02*
X66999000Y-49754401D01*
X69715000Y-49474401D02*
X69039000Y-49474401D01*
X67359000Y-49114401D02*
X66414000Y-49114401D01*
X67359000Y-49554401D02*
X66761000Y-49554401D01*
X69503000Y-49674401D02*
X69039000Y-49674401D01*
X69907000Y-49234401D02*
X69039000Y-49234401D01*
X67359000Y-48313401D02*
X66137000Y-48313401D01*
X67359000Y-49434401D02*
X66647000Y-49434401D01*
X67359000Y-49354401D02*
X66580000Y-49354401D01*
X67359000Y-49714401D02*
X66945000Y-49714401D01*
X70215000Y-48553401D02*
X69039000Y-48553401D01*
X70123000Y-48834401D02*
X69039000Y-48834401D01*
X69594000Y-45963600D02*
X69194000Y-45963600D01*
X67359000Y-48994401D02*
X66348000Y-48994401D01*
X70261000Y-48313401D02*
X69039000Y-48313401D01*
X67359000Y-48393401D02*
X66149000Y-48393401D01*
X69879000Y-49274401D02*
X69039000Y-49274401D01*
X68569000Y-50114401D02*
X67829000Y-50114401D01*
X70193000Y-48633401D02*
X69039000Y-48633401D01*
X67359000Y-49034401D02*
X66369000Y-49034401D01*
X67359000Y-49314401D02*
X66549000Y-49314401D01*
X69058000Y-49954401D02*
X67340000Y-49954401D01*
X67359000Y-48874401D02*
X66292000Y-48874401D01*
X67359000Y-48914401D02*
X66310000Y-48914401D01*
X67359000Y-48553401D02*
X66183000Y-48553401D01*
X69959000Y-49154401D02*
X69039000Y-49154401D01*
X69550000Y-49634401D02*
X69039000Y-49634401D01*
X67359000Y-49154401D02*
X66439000Y-49154401D01*
X69341000Y-49794401D02*
X69039000Y-49794401D01*
X69786000Y-49394401D02*
X69039000Y-49394401D01*
X69677000Y-49514401D02*
X69039000Y-49514401D01*
X70276000Y-48153401D02*
X66122000Y-48153401D01*
X69849000Y-49314401D02*
X69039000Y-49314401D01*
X67359000Y-48794401D02*
X66259000Y-48794401D01*
X69934000Y-49194401D02*
X69039000Y-49194401D01*
X69637000Y-49554401D02*
X69039000Y-49554401D01*
X67359000Y-49394401D02*
X66612000Y-49394401D01*
X70106000Y-48874401D02*
X69039000Y-48874401D01*
X70153000Y-48754401D02*
X69039000Y-48754401D01*
X67359000Y-48233401D02*
X66128000Y-48233401D01*
X67359000Y-48353401D02*
X66143000Y-48353401D01*
X70266000Y-48273401D02*
X69039000Y-48273401D01*
X70273000Y-48193401D02*
X66125000Y-48193401D01*
X70278000Y-48113401D02*
X66120000Y-48113401D01*
X67359000Y-48954401D02*
X66329000Y-48954401D01*
X67359000Y-48834401D02*
X66275000Y-48834401D01*
X70279000Y-48073401D02*
X66119000Y-48073401D01*
X67359000Y-48273401D02*
X66132000Y-48273401D01*
X67359000Y-49274401D02*
X66519000Y-49274401D01*
X70204000Y-48593401D02*
X69039000Y-48593401D01*
X67359000Y-49634401D02*
X66848000Y-49634401D01*
X70167000Y-48713401D02*
X69039000Y-48713401D01*
X67359000Y-48473401D02*
X66165000Y-48473401D01*
X70279000Y-48033401D02*
X66119000Y-48033401D01*
X70319000Y-48033401D02*
G75*
G03*
X70319000Y-48033401I-2120000J0D01*
G01*
%TO.C,D1*%
X68450000Y-41933000D02*
X68450000Y-44173000D01*
X72620000Y-43053000D02*
X71970000Y-43053000D01*
X68330000Y-41933000D02*
X68330000Y-44173000D01*
X67730000Y-41933000D02*
X67730000Y-44173000D01*
X71970000Y-44173000D02*
X71970000Y-41933000D01*
X67080000Y-43053000D02*
X67730000Y-43053000D01*
X71970000Y-41933000D02*
X67730000Y-41933000D01*
X67730000Y-44173000D02*
X71970000Y-44173000D01*
X68570000Y-41933000D02*
X68570000Y-44173000D01*
D12*
%TO.C,J18*%
X134560000Y-49362500D02*
X127060000Y-49362500D01*
X127060000Y-69362500D02*
X134560000Y-69362500D01*
X127060000Y-49362500D02*
X127060000Y-69362500D01*
X134560000Y-69362500D02*
X134560000Y-49362500D01*
D13*
X130460000Y-70092500D02*
G75*
G03*
X130460000Y-70092500I-100000J0D01*
G01*
D11*
%TO.C,U2*%
X80518000Y-50632000D02*
X82718000Y-50632000D01*
X80518000Y-50632000D02*
X78318000Y-50632000D01*
X80518000Y-47412000D02*
X76918000Y-47412000D01*
X80518000Y-47412000D02*
X82718000Y-47412000D01*
%TO.C,J14*%
X126346000Y-62230000D02*
G75*
G03*
X126346000Y-62230000I-1251000J0D01*
G01*
%TO.C,J17*%
X126346000Y-66675000D02*
G75*
G03*
X126346000Y-66675000I-1251000J0D01*
G01*
%TD*%
%LPC*%
D14*
%TO.C,REF\u002A\u002A*%
X114300000Y-88900000D03*
%TD*%
%TO.C,REF\u002A\u002A*%
X111760000Y-60960000D03*
%TD*%
%TO.C,REF\u002A\u002A*%
X127058021Y-86510442D03*
%TD*%
%TO.C,REF\u002A\u002A*%
X106680000Y-96520000D03*
%TD*%
%TO.C,REF\u002A\u002A*%
X109202800Y-91439999D03*
%TD*%
%TO.C,REF\u002A\u002A*%
X116840000Y-106680000D03*
%TD*%
%TO.C,REF\u002A\u002A*%
X114300000Y-86360000D03*
%TD*%
%TO.C,REF\u002A\u002A*%
X104140000Y-78740000D03*
%TD*%
%TO.C,REF\u002A\u002A*%
X106646471Y-73701692D03*
%TD*%
%TO.C,REF\u002A\u002A*%
X132080000Y-101600000D03*
%TD*%
%TO.C,REF\u002A\u002A*%
X106680000Y-111769036D03*
%TD*%
%TO.C,REF\u002A\u002A*%
X99060000Y-66040000D03*
%TD*%
%TO.C,REF\u002A\u002A*%
X132080000Y-76200000D03*
%TD*%
%TO.C,REF\u002A\u002A*%
X106680000Y-55880000D03*
%TD*%
%TO.C,REF\u002A\u002A*%
X124460000Y-73660000D03*
%TD*%
%TO.C,REF\u002A\u002A*%
X124442800Y-83794635D03*
%TD*%
D15*
%TO.C,U1*%
X73655000Y-57155000D03*
D16*
X73655000Y-59695000D03*
X73655000Y-62235000D03*
X73655000Y-64775000D03*
X73655000Y-67315000D03*
X73655000Y-69855000D03*
X73655000Y-72395000D03*
X73655000Y-74935000D03*
X73655000Y-77475000D03*
X73655000Y-80015000D03*
X73655000Y-82555000D03*
X73655000Y-85095000D03*
X73655000Y-87635000D03*
X73655000Y-90175000D03*
X73655000Y-92715000D03*
X73655000Y-95255000D03*
X73655000Y-97795000D03*
X73655000Y-100335000D03*
X73655000Y-102875000D03*
X73655000Y-105415000D03*
X88895000Y-105415000D03*
X88895000Y-102875000D03*
X88895000Y-100335000D03*
X88895000Y-97795000D03*
X88895000Y-95255000D03*
X88895000Y-92715000D03*
X88895000Y-90175000D03*
X88895000Y-87635000D03*
X88895000Y-85095000D03*
X88895000Y-82555000D03*
X88895000Y-80015000D03*
X88895000Y-77475000D03*
X88895000Y-74935000D03*
X88895000Y-72395000D03*
X88895000Y-69855000D03*
X88895000Y-67315000D03*
X88895000Y-64775000D03*
X88895000Y-62235000D03*
X88895000Y-59695000D03*
X88895000Y-57155000D03*
%TD*%
D14*
%TO.C,REF\u002A\u002A*%
X116848164Y-61027056D03*
%TD*%
%TO.C,REF\u002A\u002A*%
X116840000Y-58420000D03*
%TD*%
%TO.C,REF\u002A\u002A*%
X119380000Y-96520000D03*
%TD*%
%TO.C,REF\u002A\u002A*%
X106680000Y-109220000D03*
%TD*%
%TO.C,REF\u002A\u002A*%
X114299999Y-58410964D03*
%TD*%
%TO.C,REF\u002A\u002A*%
X104140000Y-53340000D03*
%TD*%
D15*
%TO.C,D2*%
X73660000Y-45974000D03*
D16*
X73660000Y-53594000D03*
%TD*%
D14*
%TO.C,REF\u002A\u002A*%
X109220000Y-55880000D03*
%TD*%
D17*
%TO.C,J1*%
X95235000Y-46380000D03*
D18*
X92695000Y-46380000D03*
X90155000Y-46380000D03*
%TD*%
D14*
%TO.C,REF\u002A\u002A*%
X121920000Y-83820000D03*
%TD*%
%TO.C,REF\u002A\u002A*%
X109220000Y-53340000D03*
%TD*%
%TO.C,REF\u002A\u002A*%
X127000000Y-93980000D03*
%TD*%
%TO.C,REF\u002A\u002A*%
X111760000Y-91440000D03*
%TD*%
%TO.C,REF\u002A\u002A*%
X101600000Y-55880000D03*
%TD*%
%TO.C,REF\u002A\u002A*%
X121920000Y-104140000D03*
%TD*%
%TO.C,REF\u002A\u002A*%
X99060000Y-76200000D03*
%TD*%
%TO.C,REF\u002A\u002A*%
X106673262Y-83819999D03*
%TD*%
%TO.C,REF\u002A\u002A*%
X111760000Y-76200000D03*
%TD*%
%TO.C,REF\u002A\u002A*%
X109220000Y-109220000D03*
%TD*%
%TO.C,REF\u002A\u002A*%
X114266471Y-53381692D03*
%TD*%
%TO.C,REF\u002A\u002A*%
X124460000Y-71120000D03*
%TD*%
%TO.C,REF\u002A\u002A*%
X129522800Y-104114635D03*
%TD*%
D19*
%TO.C,C1*%
X91440000Y-72410000D03*
X91440000Y-74910000D03*
%TD*%
D14*
%TO.C,REF\u002A\u002A*%
X121920000Y-58420000D03*
%TD*%
%TO.C,REF\u002A\u002A*%
X119362800Y-91439999D03*
%TD*%
%TO.C,REF\u002A\u002A*%
X109220000Y-111769036D03*
%TD*%
%TO.C,REF\u002A\u002A*%
X111760000Y-68580000D03*
%TD*%
%TO.C,REF\u002A\u002A*%
X119380000Y-68580000D03*
%TD*%
%TO.C,REF\u002A\u002A*%
X114266471Y-104181692D03*
%TD*%
%TO.C,REF\u002A\u002A*%
X116898021Y-86510442D03*
%TD*%
%TO.C,REF\u002A\u002A*%
X101600000Y-71120000D03*
%TD*%
%TO.C,REF\u002A\u002A*%
X119379999Y-81279999D03*
%TD*%
D20*
%TO.C,J16*%
X125095000Y-52070000D03*
%TD*%
D14*
%TO.C,REF\u002A\u002A*%
X101600000Y-53340000D03*
%TD*%
D20*
%TO.C,J4*%
X111125000Y-48895000D03*
%TD*%
D17*
%TO.C,J2*%
X109220000Y-43815000D03*
D18*
X111760000Y-43815000D03*
%TD*%
D14*
%TO.C,REF\u002A\u002A*%
X124426471Y-104181692D03*
%TD*%
%TO.C,REF\u002A\u002A*%
X124518021Y-76350442D03*
%TD*%
%TO.C,REF\u002A\u002A*%
X119362800Y-101599999D03*
%TD*%
%TO.C,REF\u002A\u002A*%
X116840000Y-63500000D03*
%TD*%
%TO.C,REF\u002A\u002A*%
X101600000Y-106680000D03*
%TD*%
%TO.C,REF\u002A\u002A*%
X104139999Y-101599999D03*
%TD*%
%TO.C,REF\u002A\u002A*%
X116840000Y-48260000D03*
%TD*%
%TO.C,REF\u002A\u002A*%
X101591835Y-60957859D03*
%TD*%
D19*
%TO.C,C3*%
X86467000Y-54229000D03*
X83967000Y-54229000D03*
%TD*%
D14*
%TO.C,REF\u002A\u002A*%
X109219999Y-88890964D03*
%TD*%
%TO.C,REF\u002A\u002A*%
X124426471Y-94021692D03*
%TD*%
%TO.C,REF\u002A\u002A*%
X101600000Y-68580000D03*
%TD*%
%TO.C,REF\u002A\u002A*%
X124460000Y-106680000D03*
%TD*%
%TO.C,REF\u002A\u002A*%
X132080000Y-81280000D03*
%TD*%
%TO.C,REF\u002A\u002A*%
X109228164Y-71187056D03*
%TD*%
%TO.C,REF\u002A\u002A*%
X111818021Y-66190442D03*
%TD*%
%TO.C,REF\u002A\u002A*%
X121920000Y-68580000D03*
%TD*%
%TO.C,REF\u002A\u002A*%
X124460000Y-86360000D03*
%TD*%
%TO.C,REF\u002A\u002A*%
X119362800Y-60959999D03*
%TD*%
%TO.C,REF\u002A\u002A*%
X106680000Y-76200000D03*
%TD*%
%TO.C,REF\u002A\u002A*%
X129540000Y-78740000D03*
%TD*%
%TO.C,REF\u002A\u002A*%
X116840000Y-83820000D03*
%TD*%
%TO.C,REF\u002A\u002A*%
X114299999Y-109210964D03*
%TD*%
%TO.C,REF\u002A\u002A*%
X104139999Y-71105812D03*
%TD*%
%TO.C,REF\u002A\u002A*%
X106688164Y-88900000D03*
%TD*%
D21*
%TO.C,C8*%
X94107000Y-98889600D03*
D22*
X94107000Y-96889600D03*
%TD*%
D14*
%TO.C,REF\u002A\u002A*%
X114300000Y-78740000D03*
%TD*%
%TO.C,REF\u002A\u002A*%
X119362800Y-50799999D03*
%TD*%
%TO.C,REF\u002A\u002A*%
X114266471Y-94021692D03*
%TD*%
%TO.C,REF\u002A\u002A*%
X111760000Y-93980000D03*
%TD*%
%TO.C,REF\u002A\u002A*%
X132080000Y-78740000D03*
%TD*%
%TO.C,REF\u002A\u002A*%
X101600000Y-109220000D03*
%TD*%
%TO.C,REF\u002A\u002A*%
X121978021Y-106830442D03*
%TD*%
%TO.C,REF\u002A\u002A*%
X109220000Y-106680000D03*
%TD*%
%TO.C,REF\u002A\u002A*%
X104106471Y-104181692D03*
%TD*%
%TO.C,REF\u002A\u002A*%
X126983671Y-73601978D03*
%TD*%
%TO.C,REF\u002A\u002A*%
X119388164Y-71187056D03*
%TD*%
%TO.C,REF\u002A\u002A*%
X129522800Y-101599999D03*
%TD*%
%TO.C,REF\u002A\u002A*%
X121920000Y-50800000D03*
%TD*%
%TO.C,REF\u002A\u002A*%
X111760000Y-99060000D03*
%TD*%
%TO.C,REF\u002A\u002A*%
X119362800Y-53314635D03*
%TD*%
%TO.C,REF\u002A\u002A*%
X109220000Y-78740000D03*
%TD*%
%TO.C,REF\u002A\u002A*%
X124460000Y-96520000D03*
%TD*%
%TO.C,REF\u002A\u002A*%
X109220000Y-73660000D03*
%TD*%
%TO.C,REF\u002A\u002A*%
X114300000Y-71120000D03*
%TD*%
D20*
%TO.C,J15*%
X125095000Y-57150000D03*
%TD*%
D14*
%TO.C,REF\u002A\u002A*%
X101600000Y-101600000D03*
%TD*%
%TO.C,REF\u002A\u002A*%
X121920000Y-86360000D03*
%TD*%
%TO.C,REF\u002A\u002A*%
X127000000Y-81280000D03*
%TD*%
%TO.C,REF\u002A\u002A*%
X121920000Y-78740000D03*
%TD*%
D17*
%TO.C,J12*%
X89413000Y-50673000D03*
D18*
X86873000Y-50673000D03*
%TD*%
D14*
%TO.C,REF\u002A\u002A*%
X121978021Y-96670442D03*
%TD*%
%TO.C,REF\u002A\u002A*%
X121920000Y-60960000D03*
%TD*%
%TO.C,REF\u002A\u002A*%
X99060000Y-68580000D03*
%TD*%
%TO.C,REF\u002A\u002A*%
X104130065Y-73626999D03*
%TD*%
%TO.C,REF\u002A\u002A*%
X111760000Y-53340000D03*
%TD*%
D20*
%TO.C,J6*%
X96520000Y-71755000D03*
%TD*%
D14*
%TO.C,REF\u002A\u002A*%
X109220000Y-68580000D03*
%TD*%
%TO.C,REF\u002A\u002A*%
X109202800Y-63474635D03*
%TD*%
%TO.C,REF\u002A\u002A*%
X99060000Y-55880000D03*
%TD*%
%TO.C,REF\u002A\u002A*%
X99060000Y-60960000D03*
%TD*%
%TO.C,REF\u002A\u002A*%
X111760000Y-55880000D03*
%TD*%
%TO.C,REF\u002A\u002A*%
X104139999Y-91439999D03*
%TD*%
%TO.C,REF\u002A\u002A*%
X109220000Y-58420000D03*
%TD*%
%TO.C,REF\u002A\u002A*%
X111760000Y-63500000D03*
%TD*%
%TO.C,REF\u002A\u002A*%
X116840000Y-109220000D03*
%TD*%
%TO.C,REF\u002A\u002A*%
X101600000Y-73660000D03*
%TD*%
%TO.C,REF\u002A\u002A*%
X119346471Y-83861692D03*
%TD*%
%TO.C,REF\u002A\u002A*%
X111760000Y-78740000D03*
%TD*%
%TO.C,REF\u002A\u002A*%
X132080000Y-91440000D03*
%TD*%
%TO.C,REF\u002A\u002A*%
X132080000Y-88900000D03*
%TD*%
%TO.C,REF\u002A\u002A*%
X129522800Y-91439999D03*
%TD*%
%TO.C,REF\u002A\u002A*%
X104139999Y-99050964D03*
%TD*%
%TO.C,REF\u002A\u002A*%
X104106471Y-94021692D03*
%TD*%
%TO.C,REF\u002A\u002A*%
X104198892Y-55871835D03*
%TD*%
%TO.C,REF\u002A\u002A*%
X106680000Y-50800000D03*
%TD*%
%TO.C,REF\u002A\u002A*%
X109220000Y-76200000D03*
%TD*%
D20*
%TO.C,J5*%
X98298000Y-94869000D03*
%TD*%
D14*
%TO.C,REF\u002A\u002A*%
X106680000Y-106680000D03*
%TD*%
%TO.C,REF\u002A\u002A*%
X127008164Y-101667056D03*
%TD*%
%TO.C,REF\u002A\u002A*%
X116839999Y-78730964D03*
%TD*%
%TO.C,REF\u002A\u002A*%
X106680000Y-66040000D03*
%TD*%
%TO.C,REF\u002A\u002A*%
X119380000Y-78740000D03*
%TD*%
%TO.C,REF\u002A\u002A*%
X114266471Y-63541692D03*
%TD*%
%TO.C,REF\u002A\u002A*%
X121920000Y-111769036D03*
%TD*%
%TO.C,REF\u002A\u002A*%
X121978021Y-56030442D03*
%TD*%
%TO.C,REF\u002A\u002A*%
X127000000Y-83820000D03*
%TD*%
%TO.C,REF\u002A\u002A*%
X114299999Y-68570964D03*
%TD*%
%TO.C,REF\u002A\u002A*%
X114299999Y-91439999D03*
%TD*%
%TO.C,REF\u002A\u002A*%
X121920000Y-93980000D03*
%TD*%
%TO.C,REF\u002A\u002A*%
X106680000Y-93980000D03*
%TD*%
%TO.C,REF\u002A\u002A*%
X104133262Y-81288164D03*
%TD*%
%TO.C,REF\u002A\u002A*%
X116840000Y-76200000D03*
%TD*%
%TO.C,REF\u002A\u002A*%
X109202800Y-93954635D03*
%TD*%
%TO.C,REF\u002A\u002A*%
X121920000Y-76200000D03*
%TD*%
%TO.C,REF\u002A\u002A*%
X101600000Y-111760000D03*
%TD*%
D20*
%TO.C,J8*%
X96520000Y-79375000D03*
%TD*%
D14*
%TO.C,REF\u002A\u002A*%
X121920000Y-48260000D03*
%TD*%
%TO.C,REF\u002A\u002A*%
X124459999Y-101599999D03*
%TD*%
%TO.C,REF\u002A\u002A*%
X116840000Y-55880000D03*
%TD*%
D20*
%TO.C,J3*%
X97790000Y-50800000D03*
%TD*%
D14*
%TO.C,REF\u002A\u002A*%
X124459999Y-109210964D03*
%TD*%
%TO.C,REF\u002A\u002A*%
X114300000Y-66040000D03*
%TD*%
%TO.C,REF\u002A\u002A*%
X132080000Y-73660000D03*
%TD*%
%TO.C,REF\u002A\u002A*%
X104139999Y-68570964D03*
%TD*%
%TO.C,REF\u002A\u002A*%
X129540000Y-73660000D03*
%TD*%
%TO.C,REF\u002A\u002A*%
X111760000Y-86360000D03*
%TD*%
%TO.C,REF\u002A\u002A*%
X114358021Y-76350442D03*
%TD*%
%TO.C,REF\u002A\u002A*%
X116840000Y-45720000D03*
%TD*%
%TO.C,REF\u002A\u002A*%
X104140000Y-106680000D03*
%TD*%
%TO.C,REF\u002A\u002A*%
X114299999Y-101599999D03*
%TD*%
%TO.C,REF\u002A\u002A*%
X116840000Y-81280000D03*
%TD*%
%TO.C,REF\u002A\u002A*%
X116840000Y-88900000D03*
%TD*%
D19*
%TO.C,R5*%
X74676000Y-109474000D03*
D16*
X72136000Y-109474000D03*
%TD*%
D14*
%TO.C,REF\u002A\u002A*%
X114299999Y-111760000D03*
%TD*%
%TO.C,REF\u002A\u002A*%
X119380000Y-66040000D03*
%TD*%
%TO.C,REF\u002A\u002A*%
X116848164Y-101667056D03*
%TD*%
%TO.C,REF\u002A\u002A*%
X129540000Y-99060000D03*
%TD*%
%TO.C,REF\u002A\u002A*%
X129531835Y-76183671D03*
%TD*%
%TO.C,REF\u002A\u002A*%
X119380000Y-111769036D03*
%TD*%
%TO.C,REF\u002A\u002A*%
X114299999Y-99050964D03*
%TD*%
%TO.C,REF\u002A\u002A*%
X116840000Y-104140000D03*
%TD*%
%TO.C,REF\u002A\u002A*%
X132138021Y-96670442D03*
%TD*%
%TO.C,REF\u002A\u002A*%
X132046471Y-70986756D03*
%TD*%
%TO.C,REF\u002A\u002A*%
X106688164Y-91507056D03*
%TD*%
%TO.C,REF\u002A\u002A*%
X111742800Y-73634635D03*
%TD*%
%TO.C,REF\u002A\u002A*%
X104106471Y-63541692D03*
%TD*%
%TO.C,REF\u002A\u002A*%
X101600000Y-99060000D03*
%TD*%
D20*
%TO.C,J7*%
X96520000Y-75565000D03*
%TD*%
D14*
%TO.C,REF\u002A\u002A*%
X121920000Y-63500000D03*
%TD*%
%TO.C,REF\u002A\u002A*%
X121920000Y-109220000D03*
%TD*%
D20*
%TO.C,J9*%
X96520000Y-64135000D03*
%TD*%
D14*
%TO.C,REF\u002A\u002A*%
X99060000Y-63500000D03*
%TD*%
%TO.C,REF\u002A\u002A*%
X129540000Y-88900000D03*
%TD*%
%TO.C,REF\u002A\u002A*%
X129540000Y-96520000D03*
%TD*%
%TO.C,REF\u002A\u002A*%
X104139999Y-109210964D03*
%TD*%
%TO.C,REF\u002A\u002A*%
X109220000Y-99060000D03*
%TD*%
%TO.C,REF\u002A\u002A*%
X121902800Y-73634635D03*
%TD*%
D19*
%TO.C,R7*%
X85090000Y-109474000D03*
D16*
X82550000Y-109474000D03*
%TD*%
D15*
%TO.C,C6*%
X102322621Y-46990000D03*
D19*
X104822621Y-46990000D03*
%TD*%
D14*
%TO.C,REF\u002A\u002A*%
X116840000Y-53340000D03*
%TD*%
%TO.C,REF\u002A\u002A*%
X119380000Y-99060000D03*
%TD*%
%TO.C,REF\u002A\u002A*%
X124459999Y-99050964D03*
%TD*%
%TO.C,REF\u002A\u002A*%
X109219999Y-81279999D03*
%TD*%
%TO.C,REF\u002A\u002A*%
X109220000Y-96520000D03*
%TD*%
%TO.C,REF\u002A\u002A*%
X111760000Y-104140000D03*
%TD*%
%TO.C,REF\u002A\u002A*%
X114300000Y-73660000D03*
%TD*%
%TO.C,REF\u002A\u002A*%
X121920000Y-45720000D03*
%TD*%
%TO.C,REF\u002A\u002A*%
X119380000Y-109220000D03*
%TD*%
D19*
%TO.C,C4*%
X94020000Y-83820000D03*
X99020000Y-83820000D03*
%TD*%
D14*
%TO.C,REF\u002A\u002A*%
X121920000Y-99060000D03*
%TD*%
D20*
%TO.C,J10*%
X96520000Y-67945000D03*
%TD*%
D14*
%TO.C,REF\u002A\u002A*%
X106688164Y-61027056D03*
%TD*%
D19*
%TO.C,R1*%
X92710000Y-87630000D03*
D16*
X102870000Y-87630000D03*
%TD*%
D14*
%TO.C,REF\u002A\u002A*%
X124460000Y-45720000D03*
%TD*%
%TO.C,REF\u002A\u002A*%
X104140000Y-66040000D03*
%TD*%
%TO.C,REF\u002A\u002A*%
X119380000Y-58420000D03*
%TD*%
%TO.C,REF\u002A\u002A*%
X132080000Y-86360000D03*
%TD*%
%TO.C,REF\u002A\u002A*%
X127000000Y-96520000D03*
%TD*%
D19*
%TO.C,R6*%
X79883000Y-109474000D03*
D16*
X77343000Y-109474000D03*
%TD*%
D14*
%TO.C,REF\u002A\u002A*%
X111760000Y-101600000D03*
%TD*%
%TO.C,REF\u002A\u002A*%
X99060000Y-58420000D03*
%TD*%
%TO.C,REF\u002A\u002A*%
X101600000Y-63500000D03*
%TD*%
%TO.C,REF\u002A\u002A*%
X114282800Y-81279999D03*
%TD*%
%TO.C,REF\u002A\u002A*%
X132080000Y-104140000D03*
%TD*%
%TO.C,REF\u002A\u002A*%
X114300000Y-106680000D03*
%TD*%
%TO.C,REF\u002A\u002A*%
X129540000Y-83820000D03*
%TD*%
D17*
%TO.C,J11*%
X98410000Y-107310000D03*
D18*
X98410000Y-109850000D03*
X95870000Y-107310000D03*
X95870000Y-109850000D03*
X93330000Y-107310000D03*
X93330000Y-109850000D03*
%TD*%
D14*
%TO.C,REF\u002A\u002A*%
X119362800Y-93954635D03*
%TD*%
%TO.C,REF\u002A\u002A*%
X121902800Y-71119999D03*
%TD*%
D19*
%TO.C,R2*%
X93980000Y-49530000D03*
D16*
X93980000Y-59690000D03*
%TD*%
D14*
%TO.C,REF\u002A\u002A*%
X119362800Y-63474635D03*
%TD*%
%TO.C,REF\u002A\u002A*%
X106680000Y-53340000D03*
%TD*%
%TO.C,REF\u002A\u002A*%
X104140000Y-58420000D03*
%TD*%
%TO.C,REF\u002A\u002A*%
X111818021Y-106830442D03*
%TD*%
D23*
%TO.C,REF\u002A\u002A*%
X129540000Y-45720000D03*
%TD*%
D14*
%TO.C,REF\u002A\u002A*%
X129464778Y-81279999D03*
%TD*%
%TO.C,REF\u002A\u002A*%
X119380000Y-86360000D03*
%TD*%
%TO.C,REF\u002A\u002A*%
X109186471Y-83861692D03*
%TD*%
%TO.C,REF\u002A\u002A*%
X124459999Y-91439999D03*
%TD*%
D19*
%TO.C,C5*%
X94020000Y-91440000D03*
X99020000Y-91440000D03*
%TD*%
D23*
%TO.C,REF\u002A\u002A*%
X129540000Y-109220000D03*
%TD*%
D14*
%TO.C,REF\u002A\u002A*%
X106680000Y-86360000D03*
%TD*%
%TO.C,REF\u002A\u002A*%
X106680000Y-81280000D03*
%TD*%
%TO.C,REF\u002A\u002A*%
X121920000Y-88900000D03*
%TD*%
%TO.C,REF\u002A\u002A*%
X109202800Y-60959999D03*
%TD*%
%TO.C,REF\u002A\u002A*%
X111760000Y-88900000D03*
%TD*%
%TO.C,REF\u002A\u002A*%
X101600000Y-96520000D03*
%TD*%
%TO.C,REF\u002A\u002A*%
X104130065Y-76209934D03*
%TD*%
%TO.C,REF\u002A\u002A*%
X106680000Y-63500000D03*
%TD*%
%TO.C,REF\u002A\u002A*%
X116839999Y-71119999D03*
%TD*%
%TO.C,REF\u002A\u002A*%
X114282800Y-83794635D03*
%TD*%
%TO.C,REF\u002A\u002A*%
X111742800Y-71119999D03*
%TD*%
%TO.C,REF\u002A\u002A*%
X111809857Y-58419999D03*
%TD*%
%TO.C,REF\u002A\u002A*%
X127000000Y-99060000D03*
%TD*%
%TO.C,REF\u002A\u002A*%
X104140000Y-96520000D03*
%TD*%
%TO.C,REF\u002A\u002A*%
X129522800Y-93954635D03*
%TD*%
%TO.C,REF\u002A\u002A*%
X124460000Y-88900000D03*
%TD*%
%TO.C,REF\u002A\u002A*%
X109202800Y-101599999D03*
%TD*%
%TO.C,REF\u002A\u002A*%
X124460000Y-48260000D03*
%TD*%
%TO.C,REF\u002A\u002A*%
X114300000Y-96520000D03*
%TD*%
%TO.C,REF\u002A\u002A*%
X116848164Y-50867056D03*
%TD*%
%TO.C,REF\u002A\u002A*%
X114300000Y-55880000D03*
%TD*%
%TO.C,REF\u002A\u002A*%
X109220000Y-86360000D03*
%TD*%
%TO.C,REF\u002A\u002A*%
X114299999Y-50799999D03*
%TD*%
D21*
%TO.C,C7*%
X68199000Y-47033401D03*
D22*
X68199000Y-49033401D03*
%TD*%
D14*
%TO.C,REF\u002A\u002A*%
X104139999Y-60959999D03*
%TD*%
%TO.C,REF\u002A\u002A*%
X119380000Y-76200000D03*
%TD*%
%TO.C,REF\u002A\u002A*%
X119380000Y-45720000D03*
%TD*%
D15*
%TO.C,D1*%
X66040000Y-43053000D03*
D16*
X73660000Y-43053000D03*
%TD*%
D24*
%TO.C,J18*%
X130360000Y-66862500D03*
D25*
X130360000Y-61862500D03*
X130360000Y-56862500D03*
X130360000Y-51862500D03*
%TD*%
D14*
%TO.C,REF\u002A\u002A*%
X116840000Y-111769036D03*
%TD*%
%TO.C,REF\u002A\u002A*%
X101600000Y-78740000D03*
%TD*%
%TO.C,REF\u002A\u002A*%
X121920000Y-53340000D03*
%TD*%
%TO.C,REF\u002A\u002A*%
X109220000Y-66040000D03*
%TD*%
%TO.C,REF\u002A\u002A*%
X127000000Y-104140000D03*
%TD*%
%TO.C,REF\u002A\u002A*%
X129540000Y-71120000D03*
%TD*%
%TO.C,REF\u002A\u002A*%
X101600000Y-58420000D03*
%TD*%
%TO.C,REF\u002A\u002A*%
X106680000Y-68580000D03*
%TD*%
%TO.C,REF\u002A\u002A*%
X124459999Y-111760000D03*
%TD*%
D26*
%TO.C,U2*%
X77655500Y-48047000D03*
X77655500Y-48697000D03*
X77655500Y-49347000D03*
X77655500Y-49997000D03*
X83380500Y-49997000D03*
X83380500Y-49347000D03*
X83380500Y-48697000D03*
X83380500Y-48047000D03*
%TD*%
D14*
%TO.C,REF\u002A\u002A*%
X106679999Y-71119999D03*
%TD*%
%TO.C,REF\u002A\u002A*%
X121978021Y-66190442D03*
%TD*%
%TO.C,REF\u002A\u002A*%
X132080000Y-99060000D03*
%TD*%
%TO.C,REF\u002A\u002A*%
X121920000Y-101600000D03*
%TD*%
%TO.C,REF\u002A\u002A*%
X101600000Y-76200000D03*
%TD*%
%TO.C,REF\u002A\u002A*%
X106680000Y-104140000D03*
%TD*%
%TO.C,REF\u002A\u002A*%
X101547130Y-65942426D03*
%TD*%
%TO.C,REF\u002A\u002A*%
X116848164Y-91507056D03*
%TD*%
%TO.C,REF\u002A\u002A*%
X116840000Y-96520000D03*
%TD*%
%TO.C,REF\u002A\u002A*%
X104125098Y-83819999D03*
%TD*%
%TO.C,REF\u002A\u002A*%
X104139999Y-111760000D03*
%TD*%
%TO.C,REF\u002A\u002A*%
X109202800Y-104114635D03*
%TD*%
%TO.C,REF\u002A\u002A*%
X106814113Y-58386471D03*
%TD*%
%TO.C,REF\u002A\u002A*%
X106679999Y-78730964D03*
%TD*%
%TO.C,REF\u002A\u002A*%
X111760000Y-111769036D03*
%TD*%
%TO.C,REF\u002A\u002A*%
X111760000Y-83820000D03*
%TD*%
%TO.C,REF\u002A\u002A*%
X127008164Y-91507056D03*
%TD*%
%TO.C,REF\u002A\u002A*%
X121928164Y-81347056D03*
%TD*%
%TO.C,REF\u002A\u002A*%
X114300000Y-48260000D03*
%TD*%
%TO.C,REF\u002A\u002A*%
X106688164Y-101667056D03*
%TD*%
%TO.C,REF\u002A\u002A*%
X129531835Y-86342800D03*
%TD*%
%TO.C,REF\u002A\u002A*%
X101600000Y-104140000D03*
%TD*%
%TO.C,REF\u002A\u002A*%
X99060000Y-53340000D03*
%TD*%
%TO.C,REF\u002A\u002A*%
X116840000Y-93980000D03*
%TD*%
%TO.C,REF\u002A\u002A*%
X127000000Y-71120000D03*
%TD*%
%TO.C,REF\u002A\u002A*%
X119380000Y-55880000D03*
%TD*%
%TO.C,REF\u002A\u002A*%
X114299999Y-60959999D03*
%TD*%
%TO.C,REF\u002A\u002A*%
X116840000Y-66040000D03*
%TD*%
%TO.C,REF\u002A\u002A*%
X124442800Y-81279999D03*
%TD*%
%TO.C,REF\u002A\u002A*%
X132080000Y-93980000D03*
%TD*%
%TO.C,REF\u002A\u002A*%
X127000000Y-78740000D03*
%TD*%
%TO.C,REF\u002A\u002A*%
X119379999Y-88890964D03*
%TD*%
%TO.C,REF\u002A\u002A*%
X119380000Y-106680000D03*
%TD*%
%TO.C,REF\u002A\u002A*%
X127000000Y-76200000D03*
%TD*%
D20*
%TO.C,J14*%
X125095000Y-62230000D03*
%TD*%
D14*
%TO.C,REF\u002A\u002A*%
X114300000Y-45720000D03*
%TD*%
D20*
%TO.C,J17*%
X125095000Y-66675000D03*
%TD*%
D14*
%TO.C,REF\u002A\u002A*%
X111768164Y-81347056D03*
%TD*%
%TO.C,REF\u002A\u002A*%
X116806471Y-73701692D03*
%TD*%
%TO.C,REF\u002A\u002A*%
X119380000Y-73660000D03*
%TD*%
%TO.C,REF\u002A\u002A*%
X121920000Y-91440000D03*
%TD*%
%TO.C,REF\u002A\u002A*%
X111760000Y-109220000D03*
%TD*%
%TO.C,REF\u002A\u002A*%
X127000000Y-88900000D03*
%TD*%
%TO.C,REF\u002A\u002A*%
X116840000Y-99060000D03*
%TD*%
%TO.C,REF\u002A\u002A*%
X116840000Y-68580000D03*
%TD*%
%TO.C,REF\u002A\u002A*%
X124460000Y-78740000D03*
%TD*%
%TO.C,REF\u002A\u002A*%
X119362800Y-104114635D03*
%TD*%
%TO.C,REF\u002A\u002A*%
X119380000Y-48260000D03*
%TD*%
%TO.C,REF\u002A\u002A*%
X132180585Y-83794635D03*
%TD*%
%TO.C,REF\u002A\u002A*%
X111818021Y-96670442D03*
%TD*%
%TO.C,REF\u002A\u002A*%
X106680000Y-99060000D03*
%TD*%
D17*
%TO.C,J13*%
X62795000Y-43175000D03*
D18*
X62795000Y-45715000D03*
X62795000Y-48255000D03*
X62795000Y-50795000D03*
X62795000Y-53335000D03*
X62795000Y-55875000D03*
X62795000Y-58415000D03*
X62795000Y-60955000D03*
X62795000Y-63495000D03*
X62795000Y-66035000D03*
X62795000Y-68575000D03*
X62795000Y-71115000D03*
X62795000Y-73655000D03*
X62795000Y-76195000D03*
X62795000Y-78735000D03*
X62795000Y-81275000D03*
X62795000Y-83815000D03*
X62795000Y-86355000D03*
X62795000Y-88895000D03*
X62795000Y-91435000D03*
X62795000Y-93975000D03*
X62795000Y-96515000D03*
X62795000Y-99055000D03*
X62795000Y-101595000D03*
X62795000Y-104135000D03*
X62795000Y-106675000D03*
X62795000Y-109215000D03*
%TD*%
M02*
