%FSLAX45Y45*%
G04 Gerber Fmt 4.5, Leading zero omitted, Abs format (unit mm)*
G04 Created by KiCad (PCBNEW (6.0.0)) date 2022-03-13 21:04:10*
%MOMM*%
%LPD*%
G01*
G04 APERTURE LIST*
%TA.AperFunction,Profile*%
%ADD10C,0.100000*%
%TD*%
%ADD11C,0.200000*%
%ADD12C,0.320000*%
G04 APERTURE END LIST*
D10*
X5588000Y-11430000D02*
X5588000Y-4064000D01*
X13462000Y-4064000D02*
X13462000Y-11430000D01*
X13462000Y-11430000D02*
X5588000Y-11430000D01*
X5588000Y-4064000D02*
X13462000Y-4064000D01*
D11*
D12*
X12794000Y-4412000D02*
X13114000Y-4732000D01*
X13114000Y-4412000D02*
X12794000Y-4732000D01*
X12794000Y-10762000D02*
X13114000Y-11082000D01*
X13114000Y-10762000D02*
X12794000Y-11082000D01*
D11*
X5840619Y-11745476D02*
X5840619Y-11545476D01*
X5888238Y-11545476D01*
X5916809Y-11555000D01*
X5935857Y-11574048D01*
X5945381Y-11593095D01*
X5954905Y-11631190D01*
X5954905Y-11659762D01*
X5945381Y-11697857D01*
X5935857Y-11716905D01*
X5916809Y-11735952D01*
X5888238Y-11745476D01*
X5840619Y-11745476D01*
X6040619Y-11745476D02*
X6040619Y-11612143D01*
X6040619Y-11650238D02*
X6050143Y-11631190D01*
X6059667Y-11621667D01*
X6078714Y-11612143D01*
X6097762Y-11612143D01*
X6164428Y-11745476D02*
X6164428Y-11612143D01*
X6164428Y-11545476D02*
X6154905Y-11555000D01*
X6164428Y-11564524D01*
X6173952Y-11555000D01*
X6164428Y-11545476D01*
X6164428Y-11564524D01*
X6288238Y-11745476D02*
X6269190Y-11735952D01*
X6259667Y-11716905D01*
X6259667Y-11545476D01*
X6393000Y-11745476D02*
X6373952Y-11735952D01*
X6364428Y-11716905D01*
X6364428Y-11545476D01*
X6621571Y-11745476D02*
X6621571Y-11545476D01*
X6688238Y-11688333D01*
X6754905Y-11545476D01*
X6754905Y-11745476D01*
X6935857Y-11745476D02*
X6935857Y-11640714D01*
X6926333Y-11621667D01*
X6907286Y-11612143D01*
X6869190Y-11612143D01*
X6850143Y-11621667D01*
X6935857Y-11735952D02*
X6916809Y-11745476D01*
X6869190Y-11745476D01*
X6850143Y-11735952D01*
X6840619Y-11716905D01*
X6840619Y-11697857D01*
X6850143Y-11678809D01*
X6869190Y-11669286D01*
X6916809Y-11669286D01*
X6935857Y-11659762D01*
X7031095Y-11612143D02*
X7031095Y-11812143D01*
X7031095Y-11621667D02*
X7050143Y-11612143D01*
X7088238Y-11612143D01*
X7107286Y-11621667D01*
X7116809Y-11631190D01*
X7126333Y-11650238D01*
X7126333Y-11707381D01*
X7116809Y-11726428D01*
X7107286Y-11735952D01*
X7088238Y-11745476D01*
X7050143Y-11745476D01*
X7031095Y-11735952D01*
X7212048Y-11726428D02*
X7221571Y-11735952D01*
X7212048Y-11745476D01*
X7202524Y-11735952D01*
X7212048Y-11726428D01*
X7212048Y-11745476D01*
X7212048Y-11621667D02*
X7221571Y-11631190D01*
X7212048Y-11640714D01*
X7202524Y-11631190D01*
X7212048Y-11621667D01*
X7212048Y-11640714D01*
X5383000Y-11975000D02*
X5583000Y-12175000D01*
X5583000Y-11975000D02*
X5383000Y-12175000D01*
X5821571Y-11965476D02*
X5945381Y-11965476D01*
X5878714Y-12041667D01*
X5907286Y-12041667D01*
X5926333Y-12051190D01*
X5935857Y-12060714D01*
X5945381Y-12079762D01*
X5945381Y-12127381D01*
X5935857Y-12146428D01*
X5926333Y-12155952D01*
X5907286Y-12165476D01*
X5850143Y-12165476D01*
X5831095Y-12155952D01*
X5821571Y-12146428D01*
X6031095Y-12146428D02*
X6040619Y-12155952D01*
X6031095Y-12165476D01*
X6021571Y-12155952D01*
X6031095Y-12146428D01*
X6031095Y-12165476D01*
X6116809Y-11984524D02*
X6126333Y-11975000D01*
X6145381Y-11965476D01*
X6193000Y-11965476D01*
X6212048Y-11975000D01*
X6221571Y-11984524D01*
X6231095Y-12003571D01*
X6231095Y-12022619D01*
X6221571Y-12051190D01*
X6107286Y-12165476D01*
X6231095Y-12165476D01*
X6354905Y-11965476D02*
X6373952Y-11965476D01*
X6393000Y-11975000D01*
X6402524Y-11984524D01*
X6412048Y-12003571D01*
X6421571Y-12041667D01*
X6421571Y-12089286D01*
X6412048Y-12127381D01*
X6402524Y-12146428D01*
X6393000Y-12155952D01*
X6373952Y-12165476D01*
X6354905Y-12165476D01*
X6335857Y-12155952D01*
X6326333Y-12146428D01*
X6316809Y-12127381D01*
X6307286Y-12089286D01*
X6307286Y-12041667D01*
X6316809Y-12003571D01*
X6326333Y-11984524D01*
X6335857Y-11975000D01*
X6354905Y-11965476D01*
X6545381Y-11965476D02*
X6564428Y-11965476D01*
X6583476Y-11975000D01*
X6593000Y-11984524D01*
X6602524Y-12003571D01*
X6612048Y-12041667D01*
X6612048Y-12089286D01*
X6602524Y-12127381D01*
X6593000Y-12146428D01*
X6583476Y-12155952D01*
X6564428Y-12165476D01*
X6545381Y-12165476D01*
X6526333Y-12155952D01*
X6516809Y-12146428D01*
X6507286Y-12127381D01*
X6497762Y-12089286D01*
X6497762Y-12041667D01*
X6507286Y-12003571D01*
X6516809Y-11984524D01*
X6526333Y-11975000D01*
X6545381Y-11965476D01*
X6697762Y-12165476D02*
X6697762Y-12032143D01*
X6697762Y-12051190D02*
X6707286Y-12041667D01*
X6726333Y-12032143D01*
X6754905Y-12032143D01*
X6773952Y-12041667D01*
X6783476Y-12060714D01*
X6783476Y-12165476D01*
X6783476Y-12060714D02*
X6793000Y-12041667D01*
X6812048Y-12032143D01*
X6840619Y-12032143D01*
X6859667Y-12041667D01*
X6869190Y-12060714D01*
X6869190Y-12165476D01*
X6964428Y-12165476D02*
X6964428Y-12032143D01*
X6964428Y-12051190D02*
X6973952Y-12041667D01*
X6993000Y-12032143D01*
X7021571Y-12032143D01*
X7040619Y-12041667D01*
X7050143Y-12060714D01*
X7050143Y-12165476D01*
X7050143Y-12060714D02*
X7059667Y-12041667D01*
X7078714Y-12032143D01*
X7107286Y-12032143D01*
X7126333Y-12041667D01*
X7135857Y-12060714D01*
X7135857Y-12165476D01*
X7526333Y-11955952D02*
X7354905Y-12213095D01*
X7783476Y-11965476D02*
X7802524Y-11965476D01*
X7821571Y-11975000D01*
X7831095Y-11984524D01*
X7840619Y-12003571D01*
X7850143Y-12041667D01*
X7850143Y-12089286D01*
X7840619Y-12127381D01*
X7831095Y-12146428D01*
X7821571Y-12155952D01*
X7802524Y-12165476D01*
X7783476Y-12165476D01*
X7764428Y-12155952D01*
X7754905Y-12146428D01*
X7745381Y-12127381D01*
X7735857Y-12089286D01*
X7735857Y-12041667D01*
X7745381Y-12003571D01*
X7754905Y-11984524D01*
X7764428Y-11975000D01*
X7783476Y-11965476D01*
X7935857Y-12146428D02*
X7945381Y-12155952D01*
X7935857Y-12165476D01*
X7926333Y-12155952D01*
X7935857Y-12146428D01*
X7935857Y-12165476D01*
X8135857Y-12165476D02*
X8021571Y-12165476D01*
X8078714Y-12165476D02*
X8078714Y-11965476D01*
X8059667Y-11994048D01*
X8040619Y-12013095D01*
X8021571Y-12022619D01*
X8212048Y-11984524D02*
X8221571Y-11975000D01*
X8240619Y-11965476D01*
X8288238Y-11965476D01*
X8307286Y-11975000D01*
X8316809Y-11984524D01*
X8326333Y-12003571D01*
X8326333Y-12022619D01*
X8316809Y-12051190D01*
X8202524Y-12165476D01*
X8326333Y-12165476D01*
X8497762Y-11965476D02*
X8459667Y-11965476D01*
X8440619Y-11975000D01*
X8431095Y-11984524D01*
X8412048Y-12013095D01*
X8402524Y-12051190D01*
X8402524Y-12127381D01*
X8412048Y-12146428D01*
X8421571Y-12155952D01*
X8440619Y-12165476D01*
X8478714Y-12165476D01*
X8497762Y-12155952D01*
X8507286Y-12146428D01*
X8516810Y-12127381D01*
X8516810Y-12079762D01*
X8507286Y-12060714D01*
X8497762Y-12051190D01*
X8478714Y-12041667D01*
X8440619Y-12041667D01*
X8421571Y-12051190D01*
X8412048Y-12060714D01*
X8402524Y-12079762D01*
X8640619Y-11965476D02*
X8659667Y-11965476D01*
X8678714Y-11975000D01*
X8688238Y-11984524D01*
X8697762Y-12003571D01*
X8707286Y-12041667D01*
X8707286Y-12089286D01*
X8697762Y-12127381D01*
X8688238Y-12146428D01*
X8678714Y-12155952D01*
X8659667Y-12165476D01*
X8640619Y-12165476D01*
X8621571Y-12155952D01*
X8612048Y-12146428D01*
X8602524Y-12127381D01*
X8593000Y-12089286D01*
X8593000Y-12041667D01*
X8602524Y-12003571D01*
X8612048Y-11984524D01*
X8621571Y-11975000D01*
X8640619Y-11965476D01*
X8783476Y-11965476D02*
X8783476Y-12003571D01*
X8859667Y-11965476D02*
X8859667Y-12003571D01*
X9154905Y-12241667D02*
X9145381Y-12232143D01*
X9126333Y-12203571D01*
X9116810Y-12184524D01*
X9107286Y-12155952D01*
X9097762Y-12108333D01*
X9097762Y-12070238D01*
X9107286Y-12022619D01*
X9116810Y-11994048D01*
X9126333Y-11975000D01*
X9145381Y-11946428D01*
X9154905Y-11936905D01*
X9221571Y-11984524D02*
X9231095Y-11975000D01*
X9250143Y-11965476D01*
X9297762Y-11965476D01*
X9316810Y-11975000D01*
X9326333Y-11984524D01*
X9335857Y-12003571D01*
X9335857Y-12022619D01*
X9326333Y-12051190D01*
X9212048Y-12165476D01*
X9335857Y-12165476D01*
X9573952Y-12165476D02*
X9573952Y-11965476D01*
X9659667Y-12165476D02*
X9659667Y-12060714D01*
X9650143Y-12041667D01*
X9631095Y-12032143D01*
X9602524Y-12032143D01*
X9583476Y-12041667D01*
X9573952Y-12051190D01*
X9783476Y-12165476D02*
X9764429Y-12155952D01*
X9754905Y-12146428D01*
X9745381Y-12127381D01*
X9745381Y-12070238D01*
X9754905Y-12051190D01*
X9764429Y-12041667D01*
X9783476Y-12032143D01*
X9812048Y-12032143D01*
X9831095Y-12041667D01*
X9840619Y-12051190D01*
X9850143Y-12070238D01*
X9850143Y-12127381D01*
X9840619Y-12146428D01*
X9831095Y-12155952D01*
X9812048Y-12165476D01*
X9783476Y-12165476D01*
X9964429Y-12165476D02*
X9945381Y-12155952D01*
X9935857Y-12136905D01*
X9935857Y-11965476D01*
X10116810Y-12155952D02*
X10097762Y-12165476D01*
X10059667Y-12165476D01*
X10040619Y-12155952D01*
X10031095Y-12136905D01*
X10031095Y-12060714D01*
X10040619Y-12041667D01*
X10059667Y-12032143D01*
X10097762Y-12032143D01*
X10116810Y-12041667D01*
X10126333Y-12060714D01*
X10126333Y-12079762D01*
X10031095Y-12098809D01*
X10202524Y-12155952D02*
X10221571Y-12165476D01*
X10259667Y-12165476D01*
X10278714Y-12155952D01*
X10288238Y-12136905D01*
X10288238Y-12127381D01*
X10278714Y-12108333D01*
X10259667Y-12098809D01*
X10231095Y-12098809D01*
X10212048Y-12089286D01*
X10202524Y-12070238D01*
X10202524Y-12060714D01*
X10212048Y-12041667D01*
X10231095Y-12032143D01*
X10259667Y-12032143D01*
X10278714Y-12041667D01*
X10354905Y-12241667D02*
X10364429Y-12232143D01*
X10383476Y-12203571D01*
X10393000Y-12184524D01*
X10402524Y-12155952D01*
X10412048Y-12108333D01*
X10412048Y-12070238D01*
X10402524Y-12022619D01*
X10393000Y-11994048D01*
X10383476Y-11975000D01*
X10364429Y-11946428D01*
X10354905Y-11936905D01*
X10716810Y-12241667D02*
X10707286Y-12232143D01*
X10688238Y-12203571D01*
X10678714Y-12184524D01*
X10669190Y-12155952D01*
X10659667Y-12108333D01*
X10659667Y-12070238D01*
X10669190Y-12022619D01*
X10678714Y-11994048D01*
X10688238Y-11975000D01*
X10707286Y-11946428D01*
X10716810Y-11936905D01*
X10793000Y-12032143D02*
X10793000Y-12165476D01*
X10793000Y-12051190D02*
X10802524Y-12041667D01*
X10821571Y-12032143D01*
X10850143Y-12032143D01*
X10869190Y-12041667D01*
X10878714Y-12060714D01*
X10878714Y-12165476D01*
X11002524Y-12165476D02*
X10983476Y-12155952D01*
X10973952Y-12146428D01*
X10964429Y-12127381D01*
X10964429Y-12070238D01*
X10973952Y-12051190D01*
X10983476Y-12041667D01*
X11002524Y-12032143D01*
X11031095Y-12032143D01*
X11050143Y-12041667D01*
X11059667Y-12051190D01*
X11069190Y-12070238D01*
X11069190Y-12127381D01*
X11059667Y-12146428D01*
X11050143Y-12155952D01*
X11031095Y-12165476D01*
X11002524Y-12165476D01*
X11126333Y-12032143D02*
X11202524Y-12032143D01*
X11154905Y-11965476D02*
X11154905Y-12136905D01*
X11164429Y-12155952D01*
X11183476Y-12165476D01*
X11202524Y-12165476D01*
X11421571Y-12032143D02*
X11421571Y-12232143D01*
X11421571Y-12041667D02*
X11440619Y-12032143D01*
X11478714Y-12032143D01*
X11497762Y-12041667D01*
X11507286Y-12051190D01*
X11516809Y-12070238D01*
X11516809Y-12127381D01*
X11507286Y-12146428D01*
X11497762Y-12155952D01*
X11478714Y-12165476D01*
X11440619Y-12165476D01*
X11421571Y-12155952D01*
X11631095Y-12165476D02*
X11612048Y-12155952D01*
X11602524Y-12136905D01*
X11602524Y-11965476D01*
X11793000Y-12165476D02*
X11793000Y-12060714D01*
X11783476Y-12041667D01*
X11764428Y-12032143D01*
X11726333Y-12032143D01*
X11707286Y-12041667D01*
X11793000Y-12155952D02*
X11773952Y-12165476D01*
X11726333Y-12165476D01*
X11707286Y-12155952D01*
X11697762Y-12136905D01*
X11697762Y-12117857D01*
X11707286Y-12098809D01*
X11726333Y-12089286D01*
X11773952Y-12089286D01*
X11793000Y-12079762D01*
X11859667Y-12032143D02*
X11935857Y-12032143D01*
X11888238Y-11965476D02*
X11888238Y-12136905D01*
X11897762Y-12155952D01*
X11916809Y-12165476D01*
X11935857Y-12165476D01*
X12078714Y-12155952D02*
X12059667Y-12165476D01*
X12021571Y-12165476D01*
X12002524Y-12155952D01*
X11993000Y-12136905D01*
X11993000Y-12060714D01*
X12002524Y-12041667D01*
X12021571Y-12032143D01*
X12059667Y-12032143D01*
X12078714Y-12041667D01*
X12088238Y-12060714D01*
X12088238Y-12079762D01*
X11993000Y-12098809D01*
X12259667Y-12165476D02*
X12259667Y-11965476D01*
X12259667Y-12155952D02*
X12240619Y-12165476D01*
X12202524Y-12165476D01*
X12183476Y-12155952D01*
X12173952Y-12146428D01*
X12164428Y-12127381D01*
X12164428Y-12070238D01*
X12173952Y-12051190D01*
X12183476Y-12041667D01*
X12202524Y-12032143D01*
X12240619Y-12032143D01*
X12259667Y-12041667D01*
X12335857Y-12241667D02*
X12345381Y-12232143D01*
X12364428Y-12203571D01*
X12373952Y-12184524D01*
X12383476Y-12155952D01*
X12393000Y-12108333D01*
X12393000Y-12070238D01*
X12383476Y-12022619D01*
X12373952Y-11994048D01*
X12364428Y-11975000D01*
X12345381Y-11946428D01*
X12335857Y-11936905D01*
M02*
