%TF.GenerationSoftware,KiCad,Pcbnew,(6.0.0)*%
%TF.CreationDate,2022-03-13T21:04:06-04:00*%
%TF.ProjectId,panel meter v1,70616e65-6c20-46d6-9574-65722076312e,rev?*%
%TF.SameCoordinates,Original*%
%TF.FileFunction,Copper,L2,Bot*%
%TF.FilePolarity,Positive*%
%FSLAX46Y46*%
G04 Gerber Fmt 4.6, Leading zero omitted, Abs format (unit mm)*
G04 Created by KiCad (PCBNEW (6.0.0)) date 2022-03-13 21:04:06*
%MOMM*%
%LPD*%
G01*
G04 APERTURE LIST*
%TA.AperFunction,ComponentPad*%
%ADD10C,1.700000*%
%TD*%
%TA.AperFunction,ComponentPad*%
%ADD11R,1.600000X1.600000*%
%TD*%
%TA.AperFunction,ComponentPad*%
%ADD12O,1.600000X1.600000*%
%TD*%
%TA.AperFunction,ComponentPad*%
%ADD13R,1.700000X1.700000*%
%TD*%
%TA.AperFunction,ComponentPad*%
%ADD14O,1.700000X1.700000*%
%TD*%
%TA.AperFunction,ComponentPad*%
%ADD15C,1.600000*%
%TD*%
%TA.AperFunction,ComponentPad*%
%ADD16C,2.000000*%
%TD*%
%TA.AperFunction,ComponentPad*%
%ADD17R,1.200000X1.200000*%
%TD*%
%TA.AperFunction,ComponentPad*%
%ADD18C,1.200000*%
%TD*%
%TA.AperFunction,ComponentPad*%
%ADD19R,1.800000X1.800000*%
%TD*%
%TA.AperFunction,ComponentPad*%
%ADD20C,1.800000*%
%TD*%
%TA.AperFunction,ViaPad*%
%ADD21C,0.800000*%
%TD*%
%TA.AperFunction,Conductor*%
%ADD22C,0.250000*%
%TD*%
%TA.AperFunction,Conductor*%
%ADD23C,1.000000*%
%TD*%
G04 APERTURE END LIST*
D10*
%TO.P,REF\u002A\u002A,1*%
%TO.N,N/C*%
X114300000Y-88900000D03*
%TD*%
%TO.P,REF\u002A\u002A,1*%
%TO.N,N/C*%
X111760000Y-60960000D03*
%TD*%
%TO.P,REF\u002A\u002A,1*%
%TO.N,N/C*%
X127058021Y-86510442D03*
%TD*%
%TO.P,REF\u002A\u002A,1*%
%TO.N,N/C*%
X106680000Y-96520000D03*
%TD*%
%TO.P,REF\u002A\u002A,1*%
%TO.N,N/C*%
X109202800Y-91439999D03*
%TD*%
%TO.P,REF\u002A\u002A,1*%
%TO.N,N/C*%
X116840000Y-106680000D03*
%TD*%
%TO.P,REF\u002A\u002A,1*%
%TO.N,N/C*%
X114300000Y-86360000D03*
%TD*%
%TO.P,REF\u002A\u002A,1*%
%TO.N,N/C*%
X104140000Y-78740000D03*
%TD*%
%TO.P,REF\u002A\u002A,1*%
%TO.N,N/C*%
X106646471Y-73701692D03*
%TD*%
%TO.P,REF\u002A\u002A,1*%
%TO.N,N/C*%
X132080000Y-101600000D03*
%TD*%
%TO.P,REF\u002A\u002A,1*%
%TO.N,N/C*%
X106680000Y-111769036D03*
%TD*%
%TO.P,REF\u002A\u002A,1*%
%TO.N,N/C*%
X99060000Y-66040000D03*
%TD*%
%TO.P,REF\u002A\u002A,1*%
%TO.N,N/C*%
X132080000Y-76200000D03*
%TD*%
%TO.P,REF\u002A\u002A,1*%
%TO.N,N/C*%
X106680000Y-55880000D03*
%TD*%
%TO.P,REF\u002A\u002A,1*%
%TO.N,N/C*%
X124460000Y-73660000D03*
%TD*%
%TO.P,REF\u002A\u002A,1*%
%TO.N,N/C*%
X124442800Y-83794635D03*
%TD*%
D11*
%TO.P,U1,1,V+*%
%TO.N,+5V*%
X73655000Y-57155000D03*
D12*
%TO.P,U1,2,D1*%
%TO.N,/D1*%
X73655000Y-59695000D03*
%TO.P,U1,3,C1*%
%TO.N,/C1*%
X73655000Y-62235000D03*
%TO.P,U1,4,B1*%
%TO.N,/B1*%
X73655000Y-64775000D03*
%TO.P,U1,5,A1*%
%TO.N,/A1*%
X73655000Y-67315000D03*
%TO.P,U1,6,F1*%
%TO.N,/F1*%
X73655000Y-69855000D03*
%TO.P,U1,7,G1*%
%TO.N,/G1*%
X73655000Y-72395000D03*
%TO.P,U1,8,E1*%
%TO.N,/E1*%
X73655000Y-74935000D03*
%TO.P,U1,9,D2*%
%TO.N,/D2*%
X73655000Y-77475000D03*
%TO.P,U1,10,C2*%
%TO.N,/C2*%
X73655000Y-80015000D03*
%TO.P,U1,11,B2*%
%TO.N,/B2*%
X73655000Y-82555000D03*
%TO.P,U1,12,A2*%
%TO.N,/A2*%
X73655000Y-85095000D03*
%TO.P,U1,13,F2*%
%TO.N,/F2*%
X73655000Y-87635000D03*
%TO.P,U1,14,E2*%
%TO.N,/E2*%
X73655000Y-90175000D03*
%TO.P,U1,15,D3*%
%TO.N,/D3*%
X73655000Y-92715000D03*
%TO.P,U1,16,B3*%
%TO.N,/B3*%
X73655000Y-95255000D03*
%TO.P,U1,17,F3*%
%TO.N,/F3*%
X73655000Y-97795000D03*
%TO.P,U1,18,E3*%
%TO.N,/E3*%
X73655000Y-100335000D03*
%TO.P,U1,19,AB4*%
%TO.N,/BC4*%
X73655000Y-102875000D03*
%TO.P,U1,20,POL*%
%TO.N,/POL*%
X73655000Y-105415000D03*
%TO.P,U1,21,BP/GND*%
%TO.N,GND*%
X88895000Y-105415000D03*
%TO.P,U1,22,G3*%
%TO.N,/G3*%
X88895000Y-102875000D03*
%TO.P,U1,23,A3*%
%TO.N,/A3*%
X88895000Y-100335000D03*
%TO.P,U1,24,C3*%
%TO.N,/C3*%
X88895000Y-97795000D03*
%TO.P,U1,25,G2*%
%TO.N,/G2*%
X88895000Y-95255000D03*
%TO.P,U1,26,V-*%
%TO.N,/V-*%
X88895000Y-92715000D03*
%TO.P,U1,27,INT*%
%TO.N,Net-(C5-Pad1)*%
X88895000Y-90175000D03*
%TO.P,U1,28,BUFF*%
%TO.N,Net-(R1-Pad1)*%
X88895000Y-87635000D03*
%TO.P,U1,29,A-Z*%
%TO.N,Net-(C4-Pad1)*%
X88895000Y-85095000D03*
%TO.P,U1,30,IN_LO*%
%TO.N,Net-(U1-Pad30)*%
X88895000Y-82555000D03*
%TO.P,U1,31,IN_HI*%
%TO.N,Net-(U1-Pad31)*%
X88895000Y-80015000D03*
%TO.P,U1,32,COMMON*%
%TO.N,Net-(U1-Pad32)*%
X88895000Y-77475000D03*
%TO.P,U1,33,CREF-*%
%TO.N,Net-(C1-Pad2)*%
X88895000Y-74935000D03*
%TO.P,U1,34,CREF+*%
%TO.N,Net-(C1-Pad1)*%
X88895000Y-72395000D03*
%TO.P,U1,35,REF_LO*%
%TO.N,Net-(U1-Pad35)*%
X88895000Y-69855000D03*
%TO.P,U1,36,REF_HI*%
%TO.N,Net-(U1-Pad36)*%
X88895000Y-67315000D03*
%TO.P,U1,37,TEST*%
%TO.N,Net-(U1-Pad37)*%
X88895000Y-64775000D03*
%TO.P,U1,38,OSC3*%
%TO.N,Net-(C3-Pad2)*%
X88895000Y-62235000D03*
%TO.P,U1,39,OSC2*%
%TO.N,Net-(R2-Pad2)*%
X88895000Y-59695000D03*
%TO.P,U1,40,OSC1*%
%TO.N,Net-(C3-Pad1)*%
X88895000Y-57155000D03*
%TD*%
D10*
%TO.P,REF\u002A\u002A,1*%
%TO.N,N/C*%
X116848164Y-61027056D03*
%TD*%
%TO.P,REF\u002A\u002A,1*%
%TO.N,N/C*%
X116840000Y-58420000D03*
%TD*%
%TO.P,REF\u002A\u002A,1*%
%TO.N,N/C*%
X119380000Y-96520000D03*
%TD*%
%TO.P,REF\u002A\u002A,1*%
%TO.N,N/C*%
X106680000Y-109220000D03*
%TD*%
%TO.P,REF\u002A\u002A,1*%
%TO.N,N/C*%
X114299999Y-58410964D03*
%TD*%
%TO.P,REF\u002A\u002A,1*%
%TO.N,N/C*%
X104140000Y-53340000D03*
%TD*%
D11*
%TO.P,D2,1,K*%
%TO.N,Net-(D1-Pad2)*%
X73660000Y-45974000D03*
D12*
%TO.P,D2,2,A*%
%TO.N,+5V*%
X73660000Y-53594000D03*
%TD*%
D10*
%TO.P,REF\u002A\u002A,1*%
%TO.N,N/C*%
X109220000Y-55880000D03*
%TD*%
D13*
%TO.P,J1,1,Pin_1*%
%TO.N,+5V*%
X95235000Y-46380000D03*
D14*
%TO.P,J1,2,Pin_2*%
%TO.N,/Input*%
X92695000Y-46380000D03*
%TO.P,J1,3,Pin_3*%
%TO.N,unconnected-(J1-Pad3)*%
X90155000Y-46380000D03*
%TD*%
D10*
%TO.P,REF\u002A\u002A,1*%
%TO.N,N/C*%
X121920000Y-83820000D03*
%TD*%
%TO.P,REF\u002A\u002A,1*%
%TO.N,N/C*%
X109220000Y-53340000D03*
%TD*%
%TO.P,REF\u002A\u002A,1*%
%TO.N,N/C*%
X127000000Y-93980000D03*
%TD*%
%TO.P,REF\u002A\u002A,1*%
%TO.N,N/C*%
X111760000Y-91440000D03*
%TD*%
%TO.P,REF\u002A\u002A,1*%
%TO.N,N/C*%
X101600000Y-55880000D03*
%TD*%
%TO.P,REF\u002A\u002A,1*%
%TO.N,N/C*%
X121920000Y-104140000D03*
%TD*%
%TO.P,REF\u002A\u002A,1*%
%TO.N,N/C*%
X99060000Y-76200000D03*
%TD*%
%TO.P,REF\u002A\u002A,1*%
%TO.N,N/C*%
X106673262Y-83819999D03*
%TD*%
%TO.P,REF\u002A\u002A,1*%
%TO.N,N/C*%
X111760000Y-76200000D03*
%TD*%
%TO.P,REF\u002A\u002A,1*%
%TO.N,N/C*%
X109220000Y-109220000D03*
%TD*%
%TO.P,REF\u002A\u002A,1*%
%TO.N,N/C*%
X114266471Y-53381692D03*
%TD*%
%TO.P,REF\u002A\u002A,1*%
%TO.N,N/C*%
X124460000Y-71120000D03*
%TD*%
%TO.P,REF\u002A\u002A,1*%
%TO.N,N/C*%
X129522800Y-104114635D03*
%TD*%
D15*
%TO.P,C1,1*%
%TO.N,Net-(C1-Pad1)*%
X91440000Y-72410000D03*
%TO.P,C1,2*%
%TO.N,Net-(C1-Pad2)*%
X91440000Y-74910000D03*
%TD*%
D10*
%TO.P,REF\u002A\u002A,1*%
%TO.N,N/C*%
X121920000Y-58420000D03*
%TD*%
%TO.P,REF\u002A\u002A,1*%
%TO.N,N/C*%
X119362800Y-91439999D03*
%TD*%
%TO.P,REF\u002A\u002A,1*%
%TO.N,N/C*%
X109220000Y-111769036D03*
%TD*%
%TO.P,REF\u002A\u002A,1*%
%TO.N,N/C*%
X111760000Y-68580000D03*
%TD*%
%TO.P,REF\u002A\u002A,1*%
%TO.N,N/C*%
X119380000Y-68580000D03*
%TD*%
%TO.P,REF\u002A\u002A,1*%
%TO.N,N/C*%
X114266471Y-104181692D03*
%TD*%
%TO.P,REF\u002A\u002A,1*%
%TO.N,N/C*%
X116898021Y-86510442D03*
%TD*%
%TO.P,REF\u002A\u002A,1*%
%TO.N,N/C*%
X101600000Y-71120000D03*
%TD*%
%TO.P,REF\u002A\u002A,1*%
%TO.N,N/C*%
X119379999Y-81279999D03*
%TD*%
D16*
%TO.P,J16,1,Pin_1*%
%TO.N,Net-(J16-Pad1)*%
X125095000Y-52070000D03*
%TD*%
D10*
%TO.P,REF\u002A\u002A,1*%
%TO.N,N/C*%
X101600000Y-53340000D03*
%TD*%
D16*
%TO.P,J4,1,Pin_1*%
%TO.N,GND*%
X111125000Y-48895000D03*
%TD*%
D13*
%TO.P,J2,1,Pin_1*%
%TO.N,/Input*%
X109220000Y-43815000D03*
D14*
%TO.P,J2,2,Pin_2*%
%TO.N,GND*%
X111760000Y-43815000D03*
%TD*%
D10*
%TO.P,REF\u002A\u002A,1*%
%TO.N,N/C*%
X124426471Y-104181692D03*
%TD*%
%TO.P,REF\u002A\u002A,1*%
%TO.N,N/C*%
X124518021Y-76350442D03*
%TD*%
%TO.P,REF\u002A\u002A,1*%
%TO.N,N/C*%
X119362800Y-101599999D03*
%TD*%
%TO.P,REF\u002A\u002A,1*%
%TO.N,N/C*%
X116840000Y-63500000D03*
%TD*%
%TO.P,REF\u002A\u002A,1*%
%TO.N,N/C*%
X101600000Y-106680000D03*
%TD*%
%TO.P,REF\u002A\u002A,1*%
%TO.N,N/C*%
X104139999Y-101599999D03*
%TD*%
%TO.P,REF\u002A\u002A,1*%
%TO.N,N/C*%
X116840000Y-48260000D03*
%TD*%
%TO.P,REF\u002A\u002A,1*%
%TO.N,N/C*%
X101591835Y-60957859D03*
%TD*%
D15*
%TO.P,C3,1*%
%TO.N,Net-(C3-Pad1)*%
X86467000Y-54229000D03*
%TO.P,C3,2*%
%TO.N,Net-(C3-Pad2)*%
X83967000Y-54229000D03*
%TD*%
D10*
%TO.P,REF\u002A\u002A,1*%
%TO.N,N/C*%
X109219999Y-88890964D03*
%TD*%
%TO.P,REF\u002A\u002A,1*%
%TO.N,N/C*%
X124426471Y-94021692D03*
%TD*%
%TO.P,REF\u002A\u002A,1*%
%TO.N,N/C*%
X101600000Y-68580000D03*
%TD*%
%TO.P,REF\u002A\u002A,1*%
%TO.N,N/C*%
X124460000Y-106680000D03*
%TD*%
%TO.P,REF\u002A\u002A,1*%
%TO.N,N/C*%
X132080000Y-81280000D03*
%TD*%
%TO.P,REF\u002A\u002A,1*%
%TO.N,N/C*%
X109228164Y-71187056D03*
%TD*%
%TO.P,REF\u002A\u002A,1*%
%TO.N,N/C*%
X111818021Y-66190442D03*
%TD*%
%TO.P,REF\u002A\u002A,1*%
%TO.N,N/C*%
X121920000Y-68580000D03*
%TD*%
%TO.P,REF\u002A\u002A,1*%
%TO.N,N/C*%
X124460000Y-86360000D03*
%TD*%
%TO.P,REF\u002A\u002A,1*%
%TO.N,N/C*%
X119362800Y-60959999D03*
%TD*%
%TO.P,REF\u002A\u002A,1*%
%TO.N,N/C*%
X106680000Y-76200000D03*
%TD*%
%TO.P,REF\u002A\u002A,1*%
%TO.N,N/C*%
X129540000Y-78740000D03*
%TD*%
%TO.P,REF\u002A\u002A,1*%
%TO.N,N/C*%
X116840000Y-83820000D03*
%TD*%
%TO.P,REF\u002A\u002A,1*%
%TO.N,N/C*%
X114299999Y-109210964D03*
%TD*%
%TO.P,REF\u002A\u002A,1*%
%TO.N,N/C*%
X104139999Y-71105812D03*
%TD*%
%TO.P,REF\u002A\u002A,1*%
%TO.N,N/C*%
X106688164Y-88900000D03*
%TD*%
D17*
%TO.P,C8,1*%
%TO.N,GND*%
X94107000Y-98889600D03*
D18*
%TO.P,C8,2*%
%TO.N,/V-*%
X94107000Y-96889600D03*
%TD*%
D10*
%TO.P,REF\u002A\u002A,1*%
%TO.N,N/C*%
X114300000Y-78740000D03*
%TD*%
%TO.P,REF\u002A\u002A,1*%
%TO.N,N/C*%
X119362800Y-50799999D03*
%TD*%
%TO.P,REF\u002A\u002A,1*%
%TO.N,N/C*%
X114266471Y-94021692D03*
%TD*%
%TO.P,REF\u002A\u002A,1*%
%TO.N,N/C*%
X111760000Y-93980000D03*
%TD*%
%TO.P,REF\u002A\u002A,1*%
%TO.N,N/C*%
X132080000Y-78740000D03*
%TD*%
%TO.P,REF\u002A\u002A,1*%
%TO.N,N/C*%
X101600000Y-109220000D03*
%TD*%
%TO.P,REF\u002A\u002A,1*%
%TO.N,N/C*%
X121978021Y-106830442D03*
%TD*%
%TO.P,REF\u002A\u002A,1*%
%TO.N,N/C*%
X109220000Y-106680000D03*
%TD*%
%TO.P,REF\u002A\u002A,1*%
%TO.N,N/C*%
X104106471Y-104181692D03*
%TD*%
%TO.P,REF\u002A\u002A,1*%
%TO.N,N/C*%
X126983671Y-73601978D03*
%TD*%
%TO.P,REF\u002A\u002A,1*%
%TO.N,N/C*%
X119388164Y-71187056D03*
%TD*%
%TO.P,REF\u002A\u002A,1*%
%TO.N,N/C*%
X129522800Y-101599999D03*
%TD*%
%TO.P,REF\u002A\u002A,1*%
%TO.N,N/C*%
X121920000Y-50800000D03*
%TD*%
%TO.P,REF\u002A\u002A,1*%
%TO.N,N/C*%
X111760000Y-99060000D03*
%TD*%
%TO.P,REF\u002A\u002A,1*%
%TO.N,N/C*%
X119362800Y-53314635D03*
%TD*%
%TO.P,REF\u002A\u002A,1*%
%TO.N,N/C*%
X109220000Y-78740000D03*
%TD*%
%TO.P,REF\u002A\u002A,1*%
%TO.N,N/C*%
X124460000Y-96520000D03*
%TD*%
%TO.P,REF\u002A\u002A,1*%
%TO.N,N/C*%
X109220000Y-73660000D03*
%TD*%
%TO.P,REF\u002A\u002A,1*%
%TO.N,N/C*%
X114300000Y-71120000D03*
%TD*%
D16*
%TO.P,J15,1,Pin_1*%
%TO.N,Net-(J15-Pad1)*%
X125095000Y-57150000D03*
%TD*%
D10*
%TO.P,REF\u002A\u002A,1*%
%TO.N,N/C*%
X101600000Y-101600000D03*
%TD*%
%TO.P,REF\u002A\u002A,1*%
%TO.N,N/C*%
X121920000Y-86360000D03*
%TD*%
%TO.P,REF\u002A\u002A,1*%
%TO.N,N/C*%
X127000000Y-81280000D03*
%TD*%
%TO.P,REF\u002A\u002A,1*%
%TO.N,N/C*%
X121920000Y-78740000D03*
%TD*%
D13*
%TO.P,J12,1,Pin_1*%
%TO.N,+5V*%
X89413000Y-50673000D03*
D14*
%TO.P,J12,2,Pin_2*%
%TO.N,Net-(U1-Pad37)*%
X86873000Y-50673000D03*
%TD*%
D10*
%TO.P,REF\u002A\u002A,1*%
%TO.N,N/C*%
X121978021Y-96670442D03*
%TD*%
%TO.P,REF\u002A\u002A,1*%
%TO.N,N/C*%
X121920000Y-60960000D03*
%TD*%
%TO.P,REF\u002A\u002A,1*%
%TO.N,N/C*%
X99060000Y-68580000D03*
%TD*%
%TO.P,REF\u002A\u002A,1*%
%TO.N,N/C*%
X104130065Y-73626999D03*
%TD*%
%TO.P,REF\u002A\u002A,1*%
%TO.N,N/C*%
X111760000Y-53340000D03*
%TD*%
D16*
%TO.P,J6,1,Pin_1*%
%TO.N,Net-(U1-Pad32)*%
X96520000Y-71755000D03*
%TD*%
D10*
%TO.P,REF\u002A\u002A,1*%
%TO.N,N/C*%
X109220000Y-68580000D03*
%TD*%
%TO.P,REF\u002A\u002A,1*%
%TO.N,N/C*%
X109202800Y-63474635D03*
%TD*%
%TO.P,REF\u002A\u002A,1*%
%TO.N,N/C*%
X99060000Y-55880000D03*
%TD*%
%TO.P,REF\u002A\u002A,1*%
%TO.N,N/C*%
X99060000Y-60960000D03*
%TD*%
%TO.P,REF\u002A\u002A,1*%
%TO.N,N/C*%
X111760000Y-55880000D03*
%TD*%
%TO.P,REF\u002A\u002A,1*%
%TO.N,N/C*%
X104139999Y-91439999D03*
%TD*%
%TO.P,REF\u002A\u002A,1*%
%TO.N,N/C*%
X109220000Y-58420000D03*
%TD*%
%TO.P,REF\u002A\u002A,1*%
%TO.N,N/C*%
X111760000Y-63500000D03*
%TD*%
%TO.P,REF\u002A\u002A,1*%
%TO.N,N/C*%
X116840000Y-109220000D03*
%TD*%
%TO.P,REF\u002A\u002A,1*%
%TO.N,N/C*%
X101600000Y-73660000D03*
%TD*%
%TO.P,REF\u002A\u002A,1*%
%TO.N,N/C*%
X119346471Y-83861692D03*
%TD*%
%TO.P,REF\u002A\u002A,1*%
%TO.N,N/C*%
X111760000Y-78740000D03*
%TD*%
%TO.P,REF\u002A\u002A,1*%
%TO.N,N/C*%
X132080000Y-91440000D03*
%TD*%
%TO.P,REF\u002A\u002A,1*%
%TO.N,N/C*%
X132080000Y-88900000D03*
%TD*%
%TO.P,REF\u002A\u002A,1*%
%TO.N,N/C*%
X129522800Y-91439999D03*
%TD*%
%TO.P,REF\u002A\u002A,1*%
%TO.N,N/C*%
X104139999Y-99050964D03*
%TD*%
%TO.P,REF\u002A\u002A,1*%
%TO.N,N/C*%
X104106471Y-94021692D03*
%TD*%
%TO.P,REF\u002A\u002A,1*%
%TO.N,N/C*%
X104198892Y-55871835D03*
%TD*%
%TO.P,REF\u002A\u002A,1*%
%TO.N,N/C*%
X106680000Y-50800000D03*
%TD*%
%TO.P,REF\u002A\u002A,1*%
%TO.N,N/C*%
X109220000Y-76200000D03*
%TD*%
D16*
%TO.P,J5,1,Pin_1*%
%TO.N,/V-*%
X98298000Y-94869000D03*
%TD*%
D10*
%TO.P,REF\u002A\u002A,1*%
%TO.N,N/C*%
X106680000Y-106680000D03*
%TD*%
%TO.P,REF\u002A\u002A,1*%
%TO.N,N/C*%
X127008164Y-101667056D03*
%TD*%
%TO.P,REF\u002A\u002A,1*%
%TO.N,N/C*%
X116839999Y-78730964D03*
%TD*%
%TO.P,REF\u002A\u002A,1*%
%TO.N,N/C*%
X106680000Y-66040000D03*
%TD*%
%TO.P,REF\u002A\u002A,1*%
%TO.N,N/C*%
X119380000Y-78740000D03*
%TD*%
%TO.P,REF\u002A\u002A,1*%
%TO.N,N/C*%
X114266471Y-63541692D03*
%TD*%
%TO.P,REF\u002A\u002A,1*%
%TO.N,N/C*%
X121920000Y-111769036D03*
%TD*%
%TO.P,REF\u002A\u002A,1*%
%TO.N,N/C*%
X121978021Y-56030442D03*
%TD*%
%TO.P,REF\u002A\u002A,1*%
%TO.N,N/C*%
X127000000Y-83820000D03*
%TD*%
%TO.P,REF\u002A\u002A,1*%
%TO.N,N/C*%
X114299999Y-68570964D03*
%TD*%
%TO.P,REF\u002A\u002A,1*%
%TO.N,N/C*%
X114299999Y-91439999D03*
%TD*%
%TO.P,REF\u002A\u002A,1*%
%TO.N,N/C*%
X121920000Y-93980000D03*
%TD*%
%TO.P,REF\u002A\u002A,1*%
%TO.N,N/C*%
X106680000Y-93980000D03*
%TD*%
%TO.P,REF\u002A\u002A,1*%
%TO.N,N/C*%
X104133262Y-81288164D03*
%TD*%
%TO.P,REF\u002A\u002A,1*%
%TO.N,N/C*%
X116840000Y-76200000D03*
%TD*%
%TO.P,REF\u002A\u002A,1*%
%TO.N,N/C*%
X109202800Y-93954635D03*
%TD*%
%TO.P,REF\u002A\u002A,1*%
%TO.N,N/C*%
X121920000Y-76200000D03*
%TD*%
%TO.P,REF\u002A\u002A,1*%
%TO.N,N/C*%
X101600000Y-111760000D03*
%TD*%
D16*
%TO.P,J8,1,Pin_1*%
%TO.N,Net-(U1-Pad30)*%
X96520000Y-79375000D03*
%TD*%
D10*
%TO.P,REF\u002A\u002A,1*%
%TO.N,N/C*%
X121920000Y-48260000D03*
%TD*%
%TO.P,REF\u002A\u002A,1*%
%TO.N,N/C*%
X124459999Y-101599999D03*
%TD*%
%TO.P,REF\u002A\u002A,1*%
%TO.N,N/C*%
X116840000Y-55880000D03*
%TD*%
D16*
%TO.P,J3,1,Pin_1*%
%TO.N,+5V*%
X97790000Y-50800000D03*
%TD*%
D10*
%TO.P,REF\u002A\u002A,1*%
%TO.N,N/C*%
X124459999Y-109210964D03*
%TD*%
%TO.P,REF\u002A\u002A,1*%
%TO.N,N/C*%
X114300000Y-66040000D03*
%TD*%
%TO.P,REF\u002A\u002A,1*%
%TO.N,N/C*%
X132080000Y-73660000D03*
%TD*%
%TO.P,REF\u002A\u002A,1*%
%TO.N,N/C*%
X104139999Y-68570964D03*
%TD*%
%TO.P,REF\u002A\u002A,1*%
%TO.N,N/C*%
X129540000Y-73660000D03*
%TD*%
%TO.P,REF\u002A\u002A,1*%
%TO.N,N/C*%
X111760000Y-86360000D03*
%TD*%
%TO.P,REF\u002A\u002A,1*%
%TO.N,N/C*%
X114358021Y-76350442D03*
%TD*%
%TO.P,REF\u002A\u002A,1*%
%TO.N,N/C*%
X116840000Y-45720000D03*
%TD*%
%TO.P,REF\u002A\u002A,1*%
%TO.N,N/C*%
X104140000Y-106680000D03*
%TD*%
%TO.P,REF\u002A\u002A,1*%
%TO.N,N/C*%
X114299999Y-101599999D03*
%TD*%
%TO.P,REF\u002A\u002A,1*%
%TO.N,N/C*%
X116840000Y-81280000D03*
%TD*%
%TO.P,REF\u002A\u002A,1*%
%TO.N,N/C*%
X116840000Y-88900000D03*
%TD*%
D15*
%TO.P,R5,1*%
%TO.N,Net-(R5-Pad1)*%
X74676000Y-109474000D03*
D12*
%TO.P,R5,2*%
%TO.N,/DP4*%
X72136000Y-109474000D03*
%TD*%
D10*
%TO.P,REF\u002A\u002A,1*%
%TO.N,N/C*%
X114299999Y-111760000D03*
%TD*%
%TO.P,REF\u002A\u002A,1*%
%TO.N,N/C*%
X119380000Y-66040000D03*
%TD*%
%TO.P,REF\u002A\u002A,1*%
%TO.N,N/C*%
X116848164Y-101667056D03*
%TD*%
%TO.P,REF\u002A\u002A,1*%
%TO.N,N/C*%
X129540000Y-99060000D03*
%TD*%
%TO.P,REF\u002A\u002A,1*%
%TO.N,N/C*%
X129531835Y-76183671D03*
%TD*%
%TO.P,REF\u002A\u002A,1*%
%TO.N,N/C*%
X119380000Y-111769036D03*
%TD*%
%TO.P,REF\u002A\u002A,1*%
%TO.N,N/C*%
X114299999Y-99050964D03*
%TD*%
%TO.P,REF\u002A\u002A,1*%
%TO.N,N/C*%
X116840000Y-104140000D03*
%TD*%
%TO.P,REF\u002A\u002A,1*%
%TO.N,N/C*%
X132138021Y-96670442D03*
%TD*%
%TO.P,REF\u002A\u002A,1*%
%TO.N,N/C*%
X132046471Y-70986756D03*
%TD*%
%TO.P,REF\u002A\u002A,1*%
%TO.N,N/C*%
X106688164Y-91507056D03*
%TD*%
%TO.P,REF\u002A\u002A,1*%
%TO.N,N/C*%
X111742800Y-73634635D03*
%TD*%
%TO.P,REF\u002A\u002A,1*%
%TO.N,N/C*%
X104106471Y-63541692D03*
%TD*%
%TO.P,REF\u002A\u002A,1*%
%TO.N,N/C*%
X101600000Y-99060000D03*
%TD*%
D16*
%TO.P,J7,1,Pin_1*%
%TO.N,Net-(U1-Pad31)*%
X96520000Y-75565000D03*
%TD*%
D10*
%TO.P,REF\u002A\u002A,1*%
%TO.N,N/C*%
X121920000Y-63500000D03*
%TD*%
%TO.P,REF\u002A\u002A,1*%
%TO.N,N/C*%
X121920000Y-109220000D03*
%TD*%
D16*
%TO.P,J9,1,Pin_1*%
%TO.N,Net-(U1-Pad36)*%
X96520000Y-64135000D03*
%TD*%
D10*
%TO.P,REF\u002A\u002A,1*%
%TO.N,N/C*%
X99060000Y-63500000D03*
%TD*%
%TO.P,REF\u002A\u002A,1*%
%TO.N,N/C*%
X129540000Y-88900000D03*
%TD*%
%TO.P,REF\u002A\u002A,1*%
%TO.N,N/C*%
X129540000Y-96520000D03*
%TD*%
%TO.P,REF\u002A\u002A,1*%
%TO.N,N/C*%
X104139999Y-109210964D03*
%TD*%
%TO.P,REF\u002A\u002A,1*%
%TO.N,N/C*%
X109220000Y-99060000D03*
%TD*%
%TO.P,REF\u002A\u002A,1*%
%TO.N,N/C*%
X121902800Y-73634635D03*
%TD*%
D15*
%TO.P,R7,1*%
%TO.N,Net-(R7-Pad1)*%
X85090000Y-109474000D03*
D12*
%TO.P,R7,2*%
%TO.N,/DP2*%
X82550000Y-109474000D03*
%TD*%
D11*
%TO.P,C6,1*%
%TO.N,+5V*%
X102322621Y-46990000D03*
D15*
%TO.P,C6,2*%
%TO.N,GND*%
X104822621Y-46990000D03*
%TD*%
D10*
%TO.P,REF\u002A\u002A,1*%
%TO.N,N/C*%
X116840000Y-53340000D03*
%TD*%
%TO.P,REF\u002A\u002A,1*%
%TO.N,N/C*%
X119380000Y-99060000D03*
%TD*%
%TO.P,REF\u002A\u002A,1*%
%TO.N,N/C*%
X124459999Y-99050964D03*
%TD*%
%TO.P,REF\u002A\u002A,1*%
%TO.N,N/C*%
X109219999Y-81279999D03*
%TD*%
%TO.P,REF\u002A\u002A,1*%
%TO.N,N/C*%
X109220000Y-96520000D03*
%TD*%
%TO.P,REF\u002A\u002A,1*%
%TO.N,N/C*%
X111760000Y-104140000D03*
%TD*%
%TO.P,REF\u002A\u002A,1*%
%TO.N,N/C*%
X114300000Y-73660000D03*
%TD*%
%TO.P,REF\u002A\u002A,1*%
%TO.N,N/C*%
X121920000Y-45720000D03*
%TD*%
%TO.P,REF\u002A\u002A,1*%
%TO.N,N/C*%
X119380000Y-109220000D03*
%TD*%
D15*
%TO.P,C4,1*%
%TO.N,Net-(C4-Pad1)*%
X94020000Y-83820000D03*
%TO.P,C4,2*%
%TO.N,Net-(C4-Pad2)*%
X99020000Y-83820000D03*
%TD*%
D10*
%TO.P,REF\u002A\u002A,1*%
%TO.N,N/C*%
X121920000Y-99060000D03*
%TD*%
D16*
%TO.P,J10,1,Pin_1*%
%TO.N,Net-(U1-Pad35)*%
X96520000Y-67945000D03*
%TD*%
D10*
%TO.P,REF\u002A\u002A,1*%
%TO.N,N/C*%
X106688164Y-61027056D03*
%TD*%
D15*
%TO.P,R1,1*%
%TO.N,Net-(R1-Pad1)*%
X92710000Y-87630000D03*
D12*
%TO.P,R1,2*%
%TO.N,Net-(C4-Pad2)*%
X102870000Y-87630000D03*
%TD*%
D10*
%TO.P,REF\u002A\u002A,1*%
%TO.N,N/C*%
X124460000Y-45720000D03*
%TD*%
%TO.P,REF\u002A\u002A,1*%
%TO.N,N/C*%
X104140000Y-66040000D03*
%TD*%
%TO.P,REF\u002A\u002A,1*%
%TO.N,N/C*%
X119380000Y-58420000D03*
%TD*%
%TO.P,REF\u002A\u002A,1*%
%TO.N,N/C*%
X132080000Y-86360000D03*
%TD*%
%TO.P,REF\u002A\u002A,1*%
%TO.N,N/C*%
X127000000Y-96520000D03*
%TD*%
D15*
%TO.P,R6,1*%
%TO.N,Net-(R6-Pad1)*%
X79883000Y-109474000D03*
D12*
%TO.P,R6,2*%
%TO.N,/DP3*%
X77343000Y-109474000D03*
%TD*%
D10*
%TO.P,REF\u002A\u002A,1*%
%TO.N,N/C*%
X111760000Y-101600000D03*
%TD*%
%TO.P,REF\u002A\u002A,1*%
%TO.N,N/C*%
X99060000Y-58420000D03*
%TD*%
%TO.P,REF\u002A\u002A,1*%
%TO.N,N/C*%
X101600000Y-63500000D03*
%TD*%
%TO.P,REF\u002A\u002A,1*%
%TO.N,N/C*%
X114282800Y-81279999D03*
%TD*%
%TO.P,REF\u002A\u002A,1*%
%TO.N,N/C*%
X132080000Y-104140000D03*
%TD*%
%TO.P,REF\u002A\u002A,1*%
%TO.N,N/C*%
X114300000Y-106680000D03*
%TD*%
%TO.P,REF\u002A\u002A,1*%
%TO.N,N/C*%
X129540000Y-83820000D03*
%TD*%
D13*
%TO.P,J11,1,Pin_1*%
%TO.N,GND*%
X98410000Y-107310000D03*
D14*
%TO.P,J11,2,Pin_2*%
%TO.N,Net-(R7-Pad1)*%
X98410000Y-109850000D03*
%TO.P,J11,3,Pin_3*%
%TO.N,GND*%
X95870000Y-107310000D03*
%TO.P,J11,4,Pin_4*%
%TO.N,Net-(R6-Pad1)*%
X95870000Y-109850000D03*
%TO.P,J11,5,Pin_5*%
%TO.N,GND*%
X93330000Y-107310000D03*
%TO.P,J11,6,Pin_6*%
%TO.N,Net-(R5-Pad1)*%
X93330000Y-109850000D03*
%TD*%
D10*
%TO.P,REF\u002A\u002A,1*%
%TO.N,N/C*%
X119362800Y-93954635D03*
%TD*%
%TO.P,REF\u002A\u002A,1*%
%TO.N,N/C*%
X121902800Y-71119999D03*
%TD*%
D15*
%TO.P,R2,1*%
%TO.N,Net-(C3-Pad1)*%
X93980000Y-49530000D03*
D12*
%TO.P,R2,2*%
%TO.N,Net-(R2-Pad2)*%
X93980000Y-59690000D03*
%TD*%
D10*
%TO.P,REF\u002A\u002A,1*%
%TO.N,N/C*%
X119362800Y-63474635D03*
%TD*%
%TO.P,REF\u002A\u002A,1*%
%TO.N,N/C*%
X106680000Y-53340000D03*
%TD*%
%TO.P,REF\u002A\u002A,1*%
%TO.N,N/C*%
X104140000Y-58420000D03*
%TD*%
%TO.P,REF\u002A\u002A,1*%
%TO.N,N/C*%
X111818021Y-106830442D03*
%TD*%
%TO.P,REF\u002A\u002A,1*%
%TO.N,N/C*%
X129464778Y-81279999D03*
%TD*%
%TO.P,REF\u002A\u002A,1*%
%TO.N,N/C*%
X119380000Y-86360000D03*
%TD*%
%TO.P,REF\u002A\u002A,1*%
%TO.N,N/C*%
X109186471Y-83861692D03*
%TD*%
%TO.P,REF\u002A\u002A,1*%
%TO.N,N/C*%
X124459999Y-91439999D03*
%TD*%
D15*
%TO.P,C5,1*%
%TO.N,Net-(C5-Pad1)*%
X94020000Y-91440000D03*
%TO.P,C5,2*%
%TO.N,Net-(C4-Pad2)*%
X99020000Y-91440000D03*
%TD*%
D10*
%TO.P,REF\u002A\u002A,1*%
%TO.N,N/C*%
X106680000Y-86360000D03*
%TD*%
%TO.P,REF\u002A\u002A,1*%
%TO.N,N/C*%
X106680000Y-81280000D03*
%TD*%
%TO.P,REF\u002A\u002A,1*%
%TO.N,N/C*%
X121920000Y-88900000D03*
%TD*%
%TO.P,REF\u002A\u002A,1*%
%TO.N,N/C*%
X109202800Y-60959999D03*
%TD*%
%TO.P,REF\u002A\u002A,1*%
%TO.N,N/C*%
X111760000Y-88900000D03*
%TD*%
%TO.P,REF\u002A\u002A,1*%
%TO.N,N/C*%
X101600000Y-96520000D03*
%TD*%
%TO.P,REF\u002A\u002A,1*%
%TO.N,N/C*%
X104130065Y-76209934D03*
%TD*%
%TO.P,REF\u002A\u002A,1*%
%TO.N,N/C*%
X106680000Y-63500000D03*
%TD*%
%TO.P,REF\u002A\u002A,1*%
%TO.N,N/C*%
X116839999Y-71119999D03*
%TD*%
%TO.P,REF\u002A\u002A,1*%
%TO.N,N/C*%
X114282800Y-83794635D03*
%TD*%
%TO.P,REF\u002A\u002A,1*%
%TO.N,N/C*%
X111742800Y-71119999D03*
%TD*%
%TO.P,REF\u002A\u002A,1*%
%TO.N,N/C*%
X111809857Y-58419999D03*
%TD*%
%TO.P,REF\u002A\u002A,1*%
%TO.N,N/C*%
X127000000Y-99060000D03*
%TD*%
%TO.P,REF\u002A\u002A,1*%
%TO.N,N/C*%
X104140000Y-96520000D03*
%TD*%
%TO.P,REF\u002A\u002A,1*%
%TO.N,N/C*%
X129522800Y-93954635D03*
%TD*%
%TO.P,REF\u002A\u002A,1*%
%TO.N,N/C*%
X124460000Y-88900000D03*
%TD*%
%TO.P,REF\u002A\u002A,1*%
%TO.N,N/C*%
X109202800Y-101599999D03*
%TD*%
%TO.P,REF\u002A\u002A,1*%
%TO.N,N/C*%
X124460000Y-48260000D03*
%TD*%
%TO.P,REF\u002A\u002A,1*%
%TO.N,N/C*%
X114300000Y-96520000D03*
%TD*%
%TO.P,REF\u002A\u002A,1*%
%TO.N,N/C*%
X116848164Y-50867056D03*
%TD*%
%TO.P,REF\u002A\u002A,1*%
%TO.N,N/C*%
X114300000Y-55880000D03*
%TD*%
%TO.P,REF\u002A\u002A,1*%
%TO.N,N/C*%
X109220000Y-86360000D03*
%TD*%
%TO.P,REF\u002A\u002A,1*%
%TO.N,N/C*%
X114299999Y-50799999D03*
%TD*%
D17*
%TO.P,C7,1*%
%TO.N,Net-(C7-Pad1)*%
X68199000Y-47033401D03*
D18*
%TO.P,C7,2*%
%TO.N,Net-(C7-Pad2)*%
X68199000Y-49033401D03*
%TD*%
D10*
%TO.P,REF\u002A\u002A,1*%
%TO.N,N/C*%
X104139999Y-60959999D03*
%TD*%
%TO.P,REF\u002A\u002A,1*%
%TO.N,N/C*%
X119380000Y-76200000D03*
%TD*%
%TO.P,REF\u002A\u002A,1*%
%TO.N,N/C*%
X119380000Y-45720000D03*
%TD*%
D11*
%TO.P,D1,1,K*%
%TO.N,/Anode*%
X66040000Y-43053000D03*
D12*
%TO.P,D1,2,A*%
%TO.N,Net-(D1-Pad2)*%
X73660000Y-43053000D03*
%TD*%
D19*
%TO.P,J18,1,1*%
%TO.N,Net-(J17-Pad1)*%
X130360000Y-66862500D03*
D20*
%TO.P,J18,2,2*%
%TO.N,Net-(J14-Pad1)*%
X130360000Y-61862500D03*
%TO.P,J18,3,3*%
%TO.N,Net-(J15-Pad1)*%
X130360000Y-56862500D03*
%TO.P,J18,4,4*%
%TO.N,Net-(J16-Pad1)*%
X130360000Y-51862500D03*
%TD*%
D10*
%TO.P,REF\u002A\u002A,1*%
%TO.N,N/C*%
X116840000Y-111769036D03*
%TD*%
%TO.P,REF\u002A\u002A,1*%
%TO.N,N/C*%
X101600000Y-78740000D03*
%TD*%
%TO.P,REF\u002A\u002A,1*%
%TO.N,N/C*%
X121920000Y-53340000D03*
%TD*%
%TO.P,REF\u002A\u002A,1*%
%TO.N,N/C*%
X109220000Y-66040000D03*
%TD*%
%TO.P,REF\u002A\u002A,1*%
%TO.N,N/C*%
X127000000Y-104140000D03*
%TD*%
%TO.P,REF\u002A\u002A,1*%
%TO.N,N/C*%
X129540000Y-71120000D03*
%TD*%
%TO.P,REF\u002A\u002A,1*%
%TO.N,N/C*%
X101600000Y-58420000D03*
%TD*%
%TO.P,REF\u002A\u002A,1*%
%TO.N,N/C*%
X106680000Y-68580000D03*
%TD*%
%TO.P,REF\u002A\u002A,1*%
%TO.N,N/C*%
X124459999Y-111760000D03*
%TD*%
%TO.P,REF\u002A\u002A,1*%
%TO.N,N/C*%
X106679999Y-71119999D03*
%TD*%
%TO.P,REF\u002A\u002A,1*%
%TO.N,N/C*%
X121978021Y-66190442D03*
%TD*%
%TO.P,REF\u002A\u002A,1*%
%TO.N,N/C*%
X132080000Y-99060000D03*
%TD*%
%TO.P,REF\u002A\u002A,1*%
%TO.N,N/C*%
X121920000Y-101600000D03*
%TD*%
%TO.P,REF\u002A\u002A,1*%
%TO.N,N/C*%
X101600000Y-76200000D03*
%TD*%
%TO.P,REF\u002A\u002A,1*%
%TO.N,N/C*%
X106680000Y-104140000D03*
%TD*%
%TO.P,REF\u002A\u002A,1*%
%TO.N,N/C*%
X101547130Y-65942426D03*
%TD*%
%TO.P,REF\u002A\u002A,1*%
%TO.N,N/C*%
X116848164Y-91507056D03*
%TD*%
%TO.P,REF\u002A\u002A,1*%
%TO.N,N/C*%
X116840000Y-96520000D03*
%TD*%
%TO.P,REF\u002A\u002A,1*%
%TO.N,N/C*%
X104125098Y-83819999D03*
%TD*%
%TO.P,REF\u002A\u002A,1*%
%TO.N,N/C*%
X104139999Y-111760000D03*
%TD*%
%TO.P,REF\u002A\u002A,1*%
%TO.N,N/C*%
X109202800Y-104114635D03*
%TD*%
%TO.P,REF\u002A\u002A,1*%
%TO.N,N/C*%
X106814113Y-58386471D03*
%TD*%
%TO.P,REF\u002A\u002A,1*%
%TO.N,N/C*%
X106679999Y-78730964D03*
%TD*%
%TO.P,REF\u002A\u002A,1*%
%TO.N,N/C*%
X111760000Y-111769036D03*
%TD*%
%TO.P,REF\u002A\u002A,1*%
%TO.N,N/C*%
X111760000Y-83820000D03*
%TD*%
%TO.P,REF\u002A\u002A,1*%
%TO.N,N/C*%
X127008164Y-91507056D03*
%TD*%
%TO.P,REF\u002A\u002A,1*%
%TO.N,N/C*%
X121928164Y-81347056D03*
%TD*%
%TO.P,REF\u002A\u002A,1*%
%TO.N,N/C*%
X114300000Y-48260000D03*
%TD*%
%TO.P,REF\u002A\u002A,1*%
%TO.N,N/C*%
X106688164Y-101667056D03*
%TD*%
%TO.P,REF\u002A\u002A,1*%
%TO.N,N/C*%
X129531835Y-86342800D03*
%TD*%
%TO.P,REF\u002A\u002A,1*%
%TO.N,N/C*%
X101600000Y-104140000D03*
%TD*%
%TO.P,REF\u002A\u002A,1*%
%TO.N,N/C*%
X99060000Y-53340000D03*
%TD*%
%TO.P,REF\u002A\u002A,1*%
%TO.N,N/C*%
X116840000Y-93980000D03*
%TD*%
%TO.P,REF\u002A\u002A,1*%
%TO.N,N/C*%
X127000000Y-71120000D03*
%TD*%
%TO.P,REF\u002A\u002A,1*%
%TO.N,N/C*%
X119380000Y-55880000D03*
%TD*%
%TO.P,REF\u002A\u002A,1*%
%TO.N,N/C*%
X114299999Y-60959999D03*
%TD*%
%TO.P,REF\u002A\u002A,1*%
%TO.N,N/C*%
X116840000Y-66040000D03*
%TD*%
%TO.P,REF\u002A\u002A,1*%
%TO.N,N/C*%
X124442800Y-81279999D03*
%TD*%
%TO.P,REF\u002A\u002A,1*%
%TO.N,N/C*%
X132080000Y-93980000D03*
%TD*%
%TO.P,REF\u002A\u002A,1*%
%TO.N,N/C*%
X127000000Y-78740000D03*
%TD*%
%TO.P,REF\u002A\u002A,1*%
%TO.N,N/C*%
X119379999Y-88890964D03*
%TD*%
%TO.P,REF\u002A\u002A,1*%
%TO.N,N/C*%
X119380000Y-106680000D03*
%TD*%
%TO.P,REF\u002A\u002A,1*%
%TO.N,N/C*%
X127000000Y-76200000D03*
%TD*%
D16*
%TO.P,J14,1,Pin_1*%
%TO.N,Net-(J14-Pad1)*%
X125095000Y-62230000D03*
%TD*%
D10*
%TO.P,REF\u002A\u002A,1*%
%TO.N,N/C*%
X114300000Y-45720000D03*
%TD*%
D16*
%TO.P,J17,1,Pin_1*%
%TO.N,Net-(J17-Pad1)*%
X125095000Y-66675000D03*
%TD*%
D10*
%TO.P,REF\u002A\u002A,1*%
%TO.N,N/C*%
X111768164Y-81347056D03*
%TD*%
%TO.P,REF\u002A\u002A,1*%
%TO.N,N/C*%
X116806471Y-73701692D03*
%TD*%
%TO.P,REF\u002A\u002A,1*%
%TO.N,N/C*%
X119380000Y-73660000D03*
%TD*%
%TO.P,REF\u002A\u002A,1*%
%TO.N,N/C*%
X121920000Y-91440000D03*
%TD*%
%TO.P,REF\u002A\u002A,1*%
%TO.N,N/C*%
X111760000Y-109220000D03*
%TD*%
%TO.P,REF\u002A\u002A,1*%
%TO.N,N/C*%
X127000000Y-88900000D03*
%TD*%
%TO.P,REF\u002A\u002A,1*%
%TO.N,N/C*%
X116840000Y-99060000D03*
%TD*%
%TO.P,REF\u002A\u002A,1*%
%TO.N,N/C*%
X116840000Y-68580000D03*
%TD*%
%TO.P,REF\u002A\u002A,1*%
%TO.N,N/C*%
X124460000Y-78740000D03*
%TD*%
%TO.P,REF\u002A\u002A,1*%
%TO.N,N/C*%
X119362800Y-104114635D03*
%TD*%
%TO.P,REF\u002A\u002A,1*%
%TO.N,N/C*%
X119380000Y-48260000D03*
%TD*%
%TO.P,REF\u002A\u002A,1*%
%TO.N,N/C*%
X132180585Y-83794635D03*
%TD*%
%TO.P,REF\u002A\u002A,1*%
%TO.N,N/C*%
X111818021Y-96670442D03*
%TD*%
%TO.P,REF\u002A\u002A,1*%
%TO.N,N/C*%
X106680000Y-99060000D03*
%TD*%
D13*
%TO.P,J13,1,Pin_1*%
%TO.N,/Anode*%
X62795000Y-43175000D03*
D14*
%TO.P,J13,2,Pin_2*%
%TO.N,/C1*%
X62795000Y-45715000D03*
%TO.P,J13,3,Pin_3*%
%TO.N,/D1*%
X62795000Y-48255000D03*
%TO.P,J13,4,Pin_4*%
%TO.N,/E1*%
X62795000Y-50795000D03*
%TO.P,J13,5,Pin_5*%
%TO.N,/B1*%
X62795000Y-53335000D03*
%TO.P,J13,6,Pin_6*%
%TO.N,/A1*%
X62795000Y-55875000D03*
%TO.P,J13,7,Pin_7*%
%TO.N,/DP2*%
X62795000Y-58415000D03*
%TO.P,J13,8,Pin_8*%
%TO.N,/F1*%
X62795000Y-60955000D03*
%TO.P,J13,9,Pin_9*%
%TO.N,/G1*%
X62795000Y-63495000D03*
%TO.P,J13,10,Pin_10*%
%TO.N,/B2*%
X62795000Y-66035000D03*
%TO.P,J13,11,Pin_11*%
%TO.N,/A2*%
X62795000Y-68575000D03*
%TO.P,J13,12,Pin_12*%
%TO.N,/C2*%
X62795000Y-71115000D03*
%TO.P,J13,13,Pin_13*%
%TO.N,/D2*%
X62795000Y-73655000D03*
%TO.P,J13,14,Pin_14*%
%TO.N,/F2*%
X62795000Y-76195000D03*
%TO.P,J13,15,Pin_15*%
%TO.N,/G2*%
X62795000Y-78735000D03*
%TO.P,J13,16,Pin_16*%
%TO.N,/B3*%
X62795000Y-81275000D03*
%TO.P,J13,17,Pin_17*%
%TO.N,/A3*%
X62795000Y-83815000D03*
%TO.P,J13,18,Pin_18*%
%TO.N,/E2*%
X62795000Y-86355000D03*
%TO.P,J13,19,Pin_19*%
%TO.N,/F3*%
X62795000Y-88895000D03*
%TO.P,J13,20,Pin_20*%
%TO.N,/G3*%
X62795000Y-91435000D03*
%TO.P,J13,21,Pin_21*%
%TO.N,/DP3*%
X62795000Y-93975000D03*
%TO.P,J13,22,Pin_22*%
%TO.N,/C3*%
X62795000Y-96515000D03*
%TO.P,J13,23,Pin_23*%
%TO.N,/D3*%
X62795000Y-99055000D03*
%TO.P,J13,24,Pin_24*%
%TO.N,/E3*%
X62795000Y-101595000D03*
%TO.P,J13,25,Pin_25*%
%TO.N,/DP4*%
X62795000Y-104135000D03*
%TO.P,J13,26,Pin_26*%
%TO.N,/BC4*%
X62795000Y-106675000D03*
%TO.P,J13,27,Pin_27*%
%TO.N,/POL*%
X62795000Y-109215000D03*
%TD*%
D21*
%TO.N,GND*%
X79375000Y-52070000D03*
%TO.N,/D3*%
X76073000Y-98044000D03*
X76200000Y-104140000D03*
%TD*%
D22*
%TO.N,GND*%
X79375000Y-52070000D02*
X79375000Y-95895000D01*
D23*
X103794480Y-44830489D02*
X82169511Y-44830489D01*
X79375000Y-95895000D02*
X88895000Y-105415000D01*
X104822621Y-45858630D02*
X103794480Y-44830489D01*
X104822621Y-46990000D02*
X104822621Y-45858630D01*
X79375000Y-51435000D02*
X79375000Y-95895000D01*
X79375000Y-47625000D02*
X79375000Y-51435000D01*
X82169511Y-44830489D02*
X79375000Y-47625000D01*
X79375000Y-51435000D02*
X79375000Y-52070000D01*
D22*
%TO.N,Net-(U1-Pad37)*%
X87591511Y-51391511D02*
X86873000Y-50673000D01*
X88895000Y-64775000D02*
X87591511Y-63471511D01*
X87591511Y-63471511D02*
X87591511Y-51391511D01*
%TO.N,/D3*%
X76073000Y-98044000D02*
X76073000Y-104013000D01*
X76073000Y-104013000D02*
X76200000Y-104140000D01*
%TD*%
M02*
