%TF.GenerationSoftware,KiCad,Pcbnew,(6.0.0)*%
%TF.CreationDate,2022-03-13T21:04:06-04:00*%
%TF.ProjectId,panel meter v1,70616e65-6c20-46d6-9574-65722076312e,rev?*%
%TF.SameCoordinates,Original*%
%TF.FileFunction,Legend,Bot*%
%TF.FilePolarity,Positive*%
%FSLAX46Y46*%
G04 Gerber Fmt 4.6, Leading zero omitted, Abs format (unit mm)*
G04 Created by KiCad (PCBNEW (6.0.0)) date 2022-03-13 21:04:06*
%MOMM*%
%LPD*%
G01*
G04 APERTURE LIST*
%ADD10C,0.150000*%
%ADD11C,0.120000*%
%ADD12C,1.700000*%
%ADD13R,1.600000X1.600000*%
%ADD14O,1.600000X1.600000*%
%ADD15R,1.700000X1.700000*%
%ADD16O,1.700000X1.700000*%
%ADD17C,1.600000*%
%ADD18C,2.000000*%
%ADD19R,1.200000X1.200000*%
%ADD20C,1.200000*%
%ADD21C,3.200000*%
%ADD22R,1.800000X1.800000*%
%ADD23C,1.800000*%
G04 APERTURE END LIST*
D10*
X84272380Y-59722857D02*
X83748571Y-59722857D01*
X83653333Y-59675238D01*
X83605714Y-59580000D01*
X83605714Y-59389523D01*
X83653333Y-59294285D01*
X84224761Y-59722857D02*
X84272380Y-59627619D01*
X84272380Y-59389523D01*
X84224761Y-59294285D01*
X84129523Y-59246666D01*
X84034285Y-59246666D01*
X83939047Y-59294285D01*
X83891428Y-59389523D01*
X83891428Y-59627619D01*
X83843809Y-59722857D01*
X84272380Y-60199047D02*
X83272380Y-60199047D01*
X83653333Y-60199047D02*
X83605714Y-60294285D01*
X83605714Y-60484761D01*
X83653333Y-60580000D01*
X83700952Y-60627619D01*
X83796190Y-60675238D01*
X84081904Y-60675238D01*
X84177142Y-60627619D01*
X84224761Y-60580000D01*
X84272380Y-60484761D01*
X84272380Y-60294285D01*
X84224761Y-60199047D01*
X83605714Y-61008571D02*
X83605714Y-61532380D01*
X84272380Y-61008571D01*
X84272380Y-61532380D01*
X84272380Y-61913333D02*
X83605714Y-61913333D01*
X83700952Y-61913333D02*
X83653333Y-61960952D01*
X83605714Y-62056190D01*
X83605714Y-62199047D01*
X83653333Y-62294285D01*
X83748571Y-62341904D01*
X84272380Y-62341904D01*
X83748571Y-62341904D02*
X83653333Y-62389523D01*
X83605714Y-62484761D01*
X83605714Y-62627619D01*
X83653333Y-62722857D01*
X83748571Y-62770476D01*
X84272380Y-62770476D01*
X84272380Y-63675238D02*
X83748571Y-63675238D01*
X83653333Y-63627619D01*
X83605714Y-63532380D01*
X83605714Y-63341904D01*
X83653333Y-63246666D01*
X84224761Y-63675238D02*
X84272380Y-63580000D01*
X84272380Y-63341904D01*
X84224761Y-63246666D01*
X84129523Y-63199047D01*
X84034285Y-63199047D01*
X83939047Y-63246666D01*
X83891428Y-63341904D01*
X83891428Y-63580000D01*
X83843809Y-63675238D01*
X83605714Y-64151428D02*
X84272380Y-64151428D01*
X83700952Y-64151428D02*
X83653333Y-64199047D01*
X83605714Y-64294285D01*
X83605714Y-64437142D01*
X83653333Y-64532380D01*
X83748571Y-64580000D01*
X84272380Y-64580000D01*
X83367619Y-65008571D02*
X83320000Y-65056190D01*
X83272380Y-65151428D01*
X83272380Y-65389523D01*
X83320000Y-65484761D01*
X83367619Y-65532380D01*
X83462857Y-65580000D01*
X83558095Y-65580000D01*
X83700952Y-65532380D01*
X84272380Y-64960952D01*
X84272380Y-65580000D01*
X84272380Y-66008571D02*
X83272380Y-66008571D01*
X83891428Y-66103809D02*
X84272380Y-66389523D01*
X83605714Y-66389523D02*
X83986666Y-66008571D01*
X84177142Y-66818095D02*
X84224761Y-66865714D01*
X84272380Y-66818095D01*
X84224761Y-66770476D01*
X84177142Y-66818095D01*
X84272380Y-66818095D01*
X83605714Y-67199047D02*
X84272380Y-67389523D01*
X83796190Y-67580000D01*
X84272380Y-67770476D01*
X83605714Y-67960952D01*
X84272380Y-68484761D02*
X84224761Y-68389523D01*
X84177142Y-68341904D01*
X84081904Y-68294285D01*
X83796190Y-68294285D01*
X83700952Y-68341904D01*
X83653333Y-68389523D01*
X83605714Y-68484761D01*
X83605714Y-68627619D01*
X83653333Y-68722857D01*
X83700952Y-68770476D01*
X83796190Y-68818095D01*
X84081904Y-68818095D01*
X84177142Y-68770476D01*
X84224761Y-68722857D01*
X84272380Y-68627619D01*
X84272380Y-68484761D01*
X84272380Y-69246666D02*
X83605714Y-69246666D01*
X83796190Y-69246666D02*
X83700952Y-69294285D01*
X83653333Y-69341904D01*
X83605714Y-69437142D01*
X83605714Y-69532380D01*
X84272380Y-70294285D02*
X83272380Y-70294285D01*
X84224761Y-70294285D02*
X84272380Y-70199047D01*
X84272380Y-70008571D01*
X84224761Y-69913333D01*
X84177142Y-69865714D01*
X84081904Y-69818095D01*
X83796190Y-69818095D01*
X83700952Y-69865714D01*
X83653333Y-69913333D01*
X83605714Y-70008571D01*
X83605714Y-70199047D01*
X83653333Y-70294285D01*
X83605714Y-70770476D02*
X84605714Y-70770476D01*
X83653333Y-70770476D02*
X83605714Y-70865714D01*
X83605714Y-71056190D01*
X83653333Y-71151428D01*
X83700952Y-71199047D01*
X83796190Y-71246666D01*
X84081904Y-71246666D01*
X84177142Y-71199047D01*
X84224761Y-71151428D01*
X84272380Y-71056190D01*
X84272380Y-70865714D01*
X84224761Y-70770476D01*
X84272380Y-71675238D02*
X83605714Y-71675238D01*
X83796190Y-71675238D02*
X83700952Y-71722857D01*
X83653333Y-71770476D01*
X83605714Y-71865714D01*
X83605714Y-71960952D01*
X84224761Y-72675238D02*
X84272380Y-72580000D01*
X84272380Y-72389523D01*
X84224761Y-72294285D01*
X84129523Y-72246666D01*
X83748571Y-72246666D01*
X83653333Y-72294285D01*
X83605714Y-72389523D01*
X83605714Y-72580000D01*
X83653333Y-72675238D01*
X83748571Y-72722857D01*
X83843809Y-72722857D01*
X83939047Y-72246666D01*
X84224761Y-73103809D02*
X84272380Y-73199047D01*
X84272380Y-73389523D01*
X84224761Y-73484761D01*
X84129523Y-73532380D01*
X84081904Y-73532380D01*
X83986666Y-73484761D01*
X83939047Y-73389523D01*
X83939047Y-73246666D01*
X83891428Y-73151428D01*
X83796190Y-73103809D01*
X83748571Y-73103809D01*
X83653333Y-73151428D01*
X83605714Y-73246666D01*
X83605714Y-73389523D01*
X83653333Y-73484761D01*
X84224761Y-73913333D02*
X84272380Y-74008571D01*
X84272380Y-74199047D01*
X84224761Y-74294285D01*
X84129523Y-74341904D01*
X84081904Y-74341904D01*
X83986666Y-74294285D01*
X83939047Y-74199047D01*
X83939047Y-74056190D01*
X83891428Y-73960952D01*
X83796190Y-73913333D01*
X83748571Y-73913333D01*
X83653333Y-73960952D01*
X83605714Y-74056190D01*
X83605714Y-74199047D01*
X83653333Y-74294285D01*
X84177142Y-74770476D02*
X84224761Y-74818095D01*
X84272380Y-74770476D01*
X84224761Y-74722857D01*
X84177142Y-74770476D01*
X84272380Y-74770476D01*
X84224761Y-75675238D02*
X84272380Y-75580000D01*
X84272380Y-75389523D01*
X84224761Y-75294285D01*
X84177142Y-75246666D01*
X84081904Y-75199047D01*
X83796190Y-75199047D01*
X83700952Y-75246666D01*
X83653333Y-75294285D01*
X83605714Y-75389523D01*
X83605714Y-75580000D01*
X83653333Y-75675238D01*
X84272380Y-76246666D02*
X84224761Y-76151428D01*
X84177142Y-76103809D01*
X84081904Y-76056190D01*
X83796190Y-76056190D01*
X83700952Y-76103809D01*
X83653333Y-76151428D01*
X83605714Y-76246666D01*
X83605714Y-76389523D01*
X83653333Y-76484761D01*
X83700952Y-76532380D01*
X83796190Y-76580000D01*
X84081904Y-76580000D01*
X84177142Y-76532380D01*
X84224761Y-76484761D01*
X84272380Y-76389523D01*
X84272380Y-76246666D01*
X84272380Y-77008571D02*
X83605714Y-77008571D01*
X83700952Y-77008571D02*
X83653333Y-77056190D01*
X83605714Y-77151428D01*
X83605714Y-77294285D01*
X83653333Y-77389523D01*
X83748571Y-77437142D01*
X84272380Y-77437142D01*
X83748571Y-77437142D02*
X83653333Y-77484761D01*
X83605714Y-77580000D01*
X83605714Y-77722857D01*
X83653333Y-77818095D01*
X83748571Y-77865714D01*
X84272380Y-77865714D01*
X76128571Y-77883809D02*
X76176190Y-78026666D01*
X76223809Y-78074285D01*
X76319047Y-78121904D01*
X76461904Y-78121904D01*
X76557142Y-78074285D01*
X76604761Y-78026666D01*
X76652380Y-77931428D01*
X76652380Y-77550476D01*
X75652380Y-77550476D01*
X75652380Y-77883809D01*
X75700000Y-77979047D01*
X75747619Y-78026666D01*
X75842857Y-78074285D01*
X75938095Y-78074285D01*
X76033333Y-78026666D01*
X76080952Y-77979047D01*
X76128571Y-77883809D01*
X76128571Y-77550476D01*
X76652380Y-78979047D02*
X76128571Y-78979047D01*
X76033333Y-78931428D01*
X75985714Y-78836190D01*
X75985714Y-78645714D01*
X76033333Y-78550476D01*
X76604761Y-78979047D02*
X76652380Y-78883809D01*
X76652380Y-78645714D01*
X76604761Y-78550476D01*
X76509523Y-78502857D01*
X76414285Y-78502857D01*
X76319047Y-78550476D01*
X76271428Y-78645714D01*
X76271428Y-78883809D01*
X76223809Y-78979047D01*
X76604761Y-79407619D02*
X76652380Y-79502857D01*
X76652380Y-79693333D01*
X76604761Y-79788571D01*
X76509523Y-79836190D01*
X76461904Y-79836190D01*
X76366666Y-79788571D01*
X76319047Y-79693333D01*
X76319047Y-79550476D01*
X76271428Y-79455238D01*
X76176190Y-79407619D01*
X76128571Y-79407619D01*
X76033333Y-79455238D01*
X75985714Y-79550476D01*
X75985714Y-79693333D01*
X76033333Y-79788571D01*
X76604761Y-80645714D02*
X76652380Y-80550476D01*
X76652380Y-80360000D01*
X76604761Y-80264761D01*
X76509523Y-80217142D01*
X76128571Y-80217142D01*
X76033333Y-80264761D01*
X75985714Y-80360000D01*
X75985714Y-80550476D01*
X76033333Y-80645714D01*
X76128571Y-80693333D01*
X76223809Y-80693333D01*
X76319047Y-80217142D01*
X76652380Y-81550476D02*
X75652380Y-81550476D01*
X76604761Y-81550476D02*
X76652380Y-81455238D01*
X76652380Y-81264761D01*
X76604761Y-81169523D01*
X76557142Y-81121904D01*
X76461904Y-81074285D01*
X76176190Y-81074285D01*
X76080952Y-81121904D01*
X76033333Y-81169523D01*
X75985714Y-81264761D01*
X75985714Y-81455238D01*
X76033333Y-81550476D01*
X76652380Y-82931428D02*
X76604761Y-82836190D01*
X76557142Y-82788571D01*
X76461904Y-82740952D01*
X76176190Y-82740952D01*
X76080952Y-82788571D01*
X76033333Y-82836190D01*
X75985714Y-82931428D01*
X75985714Y-83074285D01*
X76033333Y-83169523D01*
X76080952Y-83217142D01*
X76176190Y-83264761D01*
X76461904Y-83264761D01*
X76557142Y-83217142D01*
X76604761Y-83169523D01*
X76652380Y-83074285D01*
X76652380Y-82931428D01*
X75985714Y-83693333D02*
X76652380Y-83693333D01*
X76080952Y-83693333D02*
X76033333Y-83740952D01*
X75985714Y-83836190D01*
X75985714Y-83979047D01*
X76033333Y-84074285D01*
X76128571Y-84121904D01*
X76652380Y-84121904D01*
X76652380Y-85360000D02*
X75652380Y-85360000D01*
X76271428Y-85455238D02*
X76652380Y-85740952D01*
X75985714Y-85740952D02*
X76366666Y-85360000D01*
X76652380Y-86169523D02*
X75985714Y-86169523D01*
X75652380Y-86169523D02*
X75700000Y-86121904D01*
X75747619Y-86169523D01*
X75700000Y-86217142D01*
X75652380Y-86169523D01*
X75747619Y-86169523D01*
X75985714Y-86502857D02*
X75985714Y-86883809D01*
X75652380Y-86645714D02*
X76509523Y-86645714D01*
X76604761Y-86693333D01*
X76652380Y-86788571D01*
X76652380Y-86883809D01*
X76604761Y-87169523D02*
X76652380Y-87264761D01*
X76652380Y-87455238D01*
X76604761Y-87550476D01*
X76509523Y-87598095D01*
X76461904Y-87598095D01*
X76366666Y-87550476D01*
X76319047Y-87455238D01*
X76319047Y-87312380D01*
X76271428Y-87217142D01*
X76176190Y-87169523D01*
X76128571Y-87169523D01*
X76033333Y-87217142D01*
X75985714Y-87312380D01*
X75985714Y-87455238D01*
X76033333Y-87550476D01*
X76652380Y-88026666D02*
X75985714Y-88026666D01*
X76176190Y-88026666D02*
X76080952Y-88074285D01*
X76033333Y-88121904D01*
X75985714Y-88217142D01*
X75985714Y-88312380D01*
X75985714Y-89074285D02*
X76652380Y-89074285D01*
X75985714Y-88645714D02*
X76509523Y-88645714D01*
X76604761Y-88693333D01*
X76652380Y-88788571D01*
X76652380Y-88931428D01*
X76604761Y-89026666D01*
X76557142Y-89074285D01*
X76604761Y-89502857D02*
X76652380Y-89598095D01*
X76652380Y-89788571D01*
X76604761Y-89883809D01*
X76509523Y-89931428D01*
X76461904Y-89931428D01*
X76366666Y-89883809D01*
X76319047Y-89788571D01*
X76319047Y-89645714D01*
X76271428Y-89550476D01*
X76176190Y-89502857D01*
X76128571Y-89502857D01*
X76033333Y-89550476D01*
X75985714Y-89645714D01*
X75985714Y-89788571D01*
X76033333Y-89883809D01*
X76652380Y-91121904D02*
X75652380Y-91121904D01*
X76271428Y-91217142D02*
X76652380Y-91502857D01*
X75985714Y-91502857D02*
X76366666Y-91121904D01*
X76652380Y-91931428D02*
X75985714Y-91931428D01*
X75652380Y-91931428D02*
X75700000Y-91883809D01*
X75747619Y-91931428D01*
X75700000Y-91979047D01*
X75652380Y-91931428D01*
X75747619Y-91931428D01*
X75985714Y-92264761D02*
X75985714Y-92645714D01*
X75652380Y-92407619D02*
X76509523Y-92407619D01*
X76604761Y-92455238D01*
X76652380Y-92550476D01*
X76652380Y-92645714D01*
X75652380Y-94169523D02*
X75652380Y-93979047D01*
X75700000Y-93883809D01*
X75747619Y-93836190D01*
X75890476Y-93740952D01*
X76080952Y-93693333D01*
X76461904Y-93693333D01*
X76557142Y-93740952D01*
X76604761Y-93788571D01*
X76652380Y-93883809D01*
X76652380Y-94074285D01*
X76604761Y-94169523D01*
X76557142Y-94217142D01*
X76461904Y-94264761D01*
X76223809Y-94264761D01*
X76128571Y-94217142D01*
X76080952Y-94169523D01*
X76033333Y-94074285D01*
X76033333Y-93883809D01*
X76080952Y-93788571D01*
X76128571Y-93740952D01*
X76223809Y-93693333D01*
X76652380Y-95217142D02*
X76652380Y-94645714D01*
X76652380Y-94931428D02*
X75652380Y-94931428D01*
X75795238Y-94836190D01*
X75890476Y-94740952D01*
X75938095Y-94645714D01*
X76652380Y-57071428D02*
X75652380Y-57071428D01*
X76557142Y-58119047D02*
X76604761Y-58071428D01*
X76652380Y-57928571D01*
X76652380Y-57833333D01*
X76604761Y-57690476D01*
X76509523Y-57595238D01*
X76414285Y-57547619D01*
X76223809Y-57500000D01*
X76080952Y-57500000D01*
X75890476Y-57547619D01*
X75795238Y-57595238D01*
X75700000Y-57690476D01*
X75652380Y-57833333D01*
X75652380Y-57928571D01*
X75700000Y-58071428D01*
X75747619Y-58119047D01*
X76652380Y-59023809D02*
X76652380Y-58547619D01*
X75652380Y-58547619D01*
X75652380Y-59261904D02*
X75652380Y-59928571D01*
X76652380Y-59500000D01*
X76652380Y-60833333D02*
X76652380Y-60261904D01*
X76652380Y-60547619D02*
X75652380Y-60547619D01*
X75795238Y-60452380D01*
X75890476Y-60357142D01*
X75938095Y-60261904D01*
X75652380Y-61452380D02*
X75652380Y-61547619D01*
X75700000Y-61642857D01*
X75747619Y-61690476D01*
X75842857Y-61738095D01*
X76033333Y-61785714D01*
X76271428Y-61785714D01*
X76461904Y-61738095D01*
X76557142Y-61690476D01*
X76604761Y-61642857D01*
X76652380Y-61547619D01*
X76652380Y-61452380D01*
X76604761Y-61357142D01*
X76557142Y-61309523D01*
X76461904Y-61261904D01*
X76271428Y-61214285D01*
X76033333Y-61214285D01*
X75842857Y-61261904D01*
X75747619Y-61309523D01*
X75700000Y-61357142D01*
X75652380Y-61452380D01*
X75652380Y-62119047D02*
X75652380Y-62785714D01*
X76652380Y-62357142D01*
X76652380Y-63928571D02*
X75652380Y-63928571D01*
X76033333Y-63928571D02*
X75985714Y-64023809D01*
X75985714Y-64214285D01*
X76033333Y-64309523D01*
X76080952Y-64357142D01*
X76176190Y-64404761D01*
X76461904Y-64404761D01*
X76557142Y-64357142D01*
X76604761Y-64309523D01*
X76652380Y-64214285D01*
X76652380Y-64023809D01*
X76604761Y-63928571D01*
X76652380Y-64833333D02*
X75985714Y-64833333D01*
X76176190Y-64833333D02*
X76080952Y-64880952D01*
X76033333Y-64928571D01*
X75985714Y-65023809D01*
X75985714Y-65119047D01*
X76604761Y-65833333D02*
X76652380Y-65738095D01*
X76652380Y-65547619D01*
X76604761Y-65452380D01*
X76509523Y-65404761D01*
X76128571Y-65404761D01*
X76033333Y-65452380D01*
X75985714Y-65547619D01*
X75985714Y-65738095D01*
X76033333Y-65833333D01*
X76128571Y-65880952D01*
X76223809Y-65880952D01*
X76319047Y-65404761D01*
X76652380Y-66738095D02*
X76128571Y-66738095D01*
X76033333Y-66690476D01*
X75985714Y-66595238D01*
X75985714Y-66404761D01*
X76033333Y-66309523D01*
X76604761Y-66738095D02*
X76652380Y-66642857D01*
X76652380Y-66404761D01*
X76604761Y-66309523D01*
X76509523Y-66261904D01*
X76414285Y-66261904D01*
X76319047Y-66309523D01*
X76271428Y-66404761D01*
X76271428Y-66642857D01*
X76223809Y-66738095D01*
X76652380Y-67214285D02*
X75652380Y-67214285D01*
X76271428Y-67309523D02*
X76652380Y-67595238D01*
X75985714Y-67595238D02*
X76366666Y-67214285D01*
X76652380Y-68166666D02*
X76604761Y-68071428D01*
X76557142Y-68023809D01*
X76461904Y-67976190D01*
X76176190Y-67976190D01*
X76080952Y-68023809D01*
X76033333Y-68071428D01*
X75985714Y-68166666D01*
X75985714Y-68309523D01*
X76033333Y-68404761D01*
X76080952Y-68452380D01*
X76176190Y-68500000D01*
X76461904Y-68500000D01*
X76557142Y-68452380D01*
X76604761Y-68404761D01*
X76652380Y-68309523D01*
X76652380Y-68166666D01*
X75985714Y-69357142D02*
X76652380Y-69357142D01*
X75985714Y-68928571D02*
X76509523Y-68928571D01*
X76604761Y-68976190D01*
X76652380Y-69071428D01*
X76652380Y-69214285D01*
X76604761Y-69309523D01*
X76557142Y-69357142D01*
X75985714Y-69690476D02*
X75985714Y-70071428D01*
X75652380Y-69833333D02*
X76509523Y-69833333D01*
X76604761Y-69880952D01*
X76652380Y-69976190D01*
X76652380Y-70071428D01*
D11*
%TO.C,J13*%
X61752071Y-80895000D02*
X61355000Y-80895000D01*
X58695000Y-41845000D02*
X61355000Y-41845000D01*
X52695000Y-98675000D02*
X52695000Y-99435000D01*
X61752071Y-91055000D02*
X61355000Y-91055000D01*
X61752071Y-101215000D02*
X61355000Y-101215000D01*
X52695000Y-86735000D02*
X58695000Y-86735000D01*
X52695000Y-50415000D02*
X52695000Y-51175000D01*
X58695000Y-91055000D02*
X52695000Y-91055000D01*
X52695000Y-63875000D02*
X58695000Y-63875000D01*
X52695000Y-65655000D02*
X52695000Y-66415000D01*
X52695000Y-71495000D02*
X58695000Y-71495000D01*
X52695000Y-68955000D02*
X58695000Y-68955000D01*
X58695000Y-58035000D02*
X52695000Y-58035000D01*
X58695000Y-108835000D02*
X52695000Y-108835000D01*
X52695000Y-68195000D02*
X52695000Y-68955000D01*
X52695000Y-75815000D02*
X52695000Y-76575000D01*
X61355000Y-105405000D02*
X58695000Y-105405000D01*
X61355000Y-57145000D02*
X58695000Y-57145000D01*
X61355000Y-107945000D02*
X58695000Y-107945000D01*
X61355000Y-41845000D02*
X61355000Y-110545000D01*
X61752071Y-66415000D02*
X61355000Y-66415000D01*
X52695000Y-83435000D02*
X52695000Y-84195000D01*
X61355000Y-72385000D02*
X58695000Y-72385000D01*
X58695000Y-75815000D02*
X52695000Y-75815000D01*
X61355000Y-46985000D02*
X58695000Y-46985000D01*
X61752071Y-55495000D02*
X61355000Y-55495000D01*
X61752071Y-71495000D02*
X61355000Y-71495000D01*
X61752071Y-75815000D02*
X61355000Y-75815000D01*
X52695000Y-109595000D02*
X58695000Y-109595000D01*
X58695000Y-85975000D02*
X52695000Y-85975000D01*
X58695000Y-110545000D02*
X58695000Y-41845000D01*
X52695000Y-93595000D02*
X52695000Y-94355000D01*
X58695000Y-101215000D02*
X52695000Y-101215000D01*
X61355000Y-82545000D02*
X58695000Y-82545000D01*
X58695000Y-78355000D02*
X52695000Y-78355000D01*
X61685000Y-43555000D02*
X61355000Y-43555000D01*
X52695000Y-96895000D02*
X58695000Y-96895000D01*
X58695000Y-55495000D02*
X52695000Y-55495000D01*
X52695000Y-61335000D02*
X58695000Y-61335000D01*
X61355000Y-95245000D02*
X58695000Y-95245000D01*
X58695000Y-43335000D02*
X52695000Y-43335000D01*
X58695000Y-43455000D02*
X52695000Y-43455000D01*
X52695000Y-56255000D02*
X58695000Y-56255000D01*
X52695000Y-42795000D02*
X52695000Y-43555000D01*
X61752071Y-61335000D02*
X61355000Y-61335000D01*
X52695000Y-55495000D02*
X52695000Y-56255000D01*
X58695000Y-103755000D02*
X52695000Y-103755000D01*
X52695000Y-76575000D02*
X58695000Y-76575000D01*
X64065000Y-43175000D02*
X64065000Y-41905000D01*
X52695000Y-108835000D02*
X52695000Y-109595000D01*
X52695000Y-106295000D02*
X52695000Y-107055000D01*
X61752071Y-88515000D02*
X61355000Y-88515000D01*
X61752071Y-103755000D02*
X61355000Y-103755000D01*
X61752071Y-78355000D02*
X61355000Y-78355000D01*
X52695000Y-47875000D02*
X52695000Y-48635000D01*
X61355000Y-100325000D02*
X58695000Y-100325000D01*
X61752071Y-96895000D02*
X61355000Y-96895000D01*
X58695000Y-68195000D02*
X52695000Y-68195000D01*
X61355000Y-90165000D02*
X58695000Y-90165000D01*
X61355000Y-92705000D02*
X58695000Y-92705000D01*
X52695000Y-58795000D02*
X58695000Y-58795000D01*
X52695000Y-89275000D02*
X58695000Y-89275000D01*
X61355000Y-110545000D02*
X58695000Y-110545000D01*
X58695000Y-42975000D02*
X52695000Y-42975000D01*
X61752071Y-104515000D02*
X61355000Y-104515000D01*
X52695000Y-84195000D02*
X58695000Y-84195000D01*
X61752071Y-93595000D02*
X61355000Y-93595000D01*
X61752071Y-53715000D02*
X61355000Y-53715000D01*
X61752071Y-47875000D02*
X61355000Y-47875000D01*
X61355000Y-62225000D02*
X58695000Y-62225000D01*
X52695000Y-96135000D02*
X52695000Y-96895000D01*
X61752071Y-107055000D02*
X61355000Y-107055000D01*
X58695000Y-52955000D02*
X52695000Y-52955000D01*
X58695000Y-96135000D02*
X52695000Y-96135000D01*
X61752071Y-73275000D02*
X61355000Y-73275000D01*
X52695000Y-45335000D02*
X52695000Y-46095000D01*
X61752071Y-51175000D02*
X61355000Y-51175000D01*
X52695000Y-51175000D02*
X58695000Y-51175000D01*
X58695000Y-65655000D02*
X52695000Y-65655000D01*
X58695000Y-93595000D02*
X52695000Y-93595000D01*
X61752071Y-70735000D02*
X61355000Y-70735000D01*
X52695000Y-43555000D02*
X58695000Y-43555000D01*
X61355000Y-97785000D02*
X58695000Y-97785000D01*
X52695000Y-63115000D02*
X52695000Y-63875000D01*
X52695000Y-104515000D02*
X58695000Y-104515000D01*
X61355000Y-67305000D02*
X58695000Y-67305000D01*
X61752071Y-91815000D02*
X61355000Y-91815000D01*
X61752071Y-48635000D02*
X61355000Y-48635000D01*
X61752071Y-101975000D02*
X61355000Y-101975000D01*
X61355000Y-52065000D02*
X58695000Y-52065000D01*
X61752071Y-60575000D02*
X61355000Y-60575000D01*
X61752071Y-96135000D02*
X61355000Y-96135000D01*
X52695000Y-79115000D02*
X58695000Y-79115000D01*
X61752071Y-46095000D02*
X61355000Y-46095000D01*
X58695000Y-98675000D02*
X52695000Y-98675000D01*
X61752071Y-58795000D02*
X61355000Y-58795000D01*
X58695000Y-83435000D02*
X52695000Y-83435000D01*
X52695000Y-80895000D02*
X52695000Y-81655000D01*
X58695000Y-42855000D02*
X52695000Y-42855000D01*
X61752071Y-98675000D02*
X61355000Y-98675000D01*
X52695000Y-48635000D02*
X58695000Y-48635000D01*
X61752071Y-108835000D02*
X61355000Y-108835000D01*
X64065000Y-41905000D02*
X62795000Y-41905000D01*
X58695000Y-47875000D02*
X52695000Y-47875000D01*
X52695000Y-94355000D02*
X58695000Y-94355000D01*
X61752071Y-76575000D02*
X61355000Y-76575000D01*
X61752071Y-94355000D02*
X61355000Y-94355000D01*
X61752071Y-79115000D02*
X61355000Y-79115000D01*
X52695000Y-66415000D02*
X58695000Y-66415000D01*
X58695000Y-60575000D02*
X52695000Y-60575000D01*
X61685000Y-42795000D02*
X61355000Y-42795000D01*
X61355000Y-85085000D02*
X58695000Y-85085000D01*
X61752071Y-56255000D02*
X61355000Y-56255000D01*
X61752071Y-45335000D02*
X61355000Y-45335000D01*
X52695000Y-99435000D02*
X58695000Y-99435000D01*
X58695000Y-45335000D02*
X52695000Y-45335000D01*
X61752071Y-68955000D02*
X61355000Y-68955000D01*
X61355000Y-44445000D02*
X58695000Y-44445000D01*
X52695000Y-88515000D02*
X52695000Y-89275000D01*
X61355000Y-102865000D02*
X58695000Y-102865000D01*
X58695000Y-63115000D02*
X52695000Y-63115000D01*
X52695000Y-85975000D02*
X52695000Y-86735000D01*
X61355000Y-87625000D02*
X58695000Y-87625000D01*
X58695000Y-50415000D02*
X52695000Y-50415000D01*
X58695000Y-80895000D02*
X52695000Y-80895000D01*
X61752071Y-99435000D02*
X61355000Y-99435000D01*
X61752071Y-52955000D02*
X61355000Y-52955000D01*
X52695000Y-58035000D02*
X52695000Y-58795000D01*
X61752071Y-65655000D02*
X61355000Y-65655000D01*
X58695000Y-70735000D02*
X52695000Y-70735000D01*
X52695000Y-74035000D02*
X58695000Y-74035000D01*
X52695000Y-53715000D02*
X58695000Y-53715000D01*
X58695000Y-106295000D02*
X52695000Y-106295000D01*
X61355000Y-69845000D02*
X58695000Y-69845000D01*
X52695000Y-46095000D02*
X58695000Y-46095000D01*
X61752071Y-89275000D02*
X61355000Y-89275000D01*
X61752071Y-85975000D02*
X61355000Y-85975000D01*
X61355000Y-77465000D02*
X58695000Y-77465000D01*
X61752071Y-106295000D02*
X61355000Y-106295000D01*
X61752071Y-83435000D02*
X61355000Y-83435000D01*
X58695000Y-43095000D02*
X52695000Y-43095000D01*
X61752071Y-81655000D02*
X61355000Y-81655000D01*
X52695000Y-103755000D02*
X52695000Y-104515000D01*
X58695000Y-42795000D02*
X52695000Y-42795000D01*
X61752071Y-63115000D02*
X61355000Y-63115000D01*
X61752071Y-109595000D02*
X61355000Y-109595000D01*
X58695000Y-88515000D02*
X52695000Y-88515000D01*
X61752071Y-58035000D02*
X61355000Y-58035000D01*
X61355000Y-59685000D02*
X58695000Y-59685000D01*
X61752071Y-68195000D02*
X61355000Y-68195000D01*
X61355000Y-64765000D02*
X58695000Y-64765000D01*
X61752071Y-86735000D02*
X61355000Y-86735000D01*
X61355000Y-74925000D02*
X58695000Y-74925000D01*
X58695000Y-73275000D02*
X52695000Y-73275000D01*
X52695000Y-91815000D02*
X58695000Y-91815000D01*
X61752071Y-74035000D02*
X61355000Y-74035000D01*
X61752071Y-50415000D02*
X61355000Y-50415000D01*
X52695000Y-73275000D02*
X52695000Y-74035000D01*
X61355000Y-80005000D02*
X58695000Y-80005000D01*
X58695000Y-43215000D02*
X52695000Y-43215000D01*
X52695000Y-107055000D02*
X58695000Y-107055000D01*
X52695000Y-101975000D02*
X58695000Y-101975000D01*
X61752071Y-63875000D02*
X61355000Y-63875000D01*
X61752071Y-84195000D02*
X61355000Y-84195000D01*
X61355000Y-49525000D02*
X58695000Y-49525000D01*
X52695000Y-52955000D02*
X52695000Y-53715000D01*
X52695000Y-101215000D02*
X52695000Y-101975000D01*
X52695000Y-81655000D02*
X58695000Y-81655000D01*
X52695000Y-70735000D02*
X52695000Y-71495000D01*
X52695000Y-60575000D02*
X52695000Y-61335000D01*
X52695000Y-91055000D02*
X52695000Y-91815000D01*
X61355000Y-54605000D02*
X58695000Y-54605000D01*
X52695000Y-78355000D02*
X52695000Y-79115000D01*
%TO.C,G\u002A\u002A\u002A*%
G36*
X82801558Y-105689743D02*
G01*
X82852106Y-105702320D01*
X82896354Y-105722355D01*
X82932062Y-105749283D01*
X82938200Y-105755687D01*
X82962577Y-105788798D01*
X82981771Y-105827084D01*
X82992867Y-105864997D01*
X82996394Y-105888978D01*
X82997908Y-105916670D01*
X82995074Y-105941901D01*
X82987619Y-105970201D01*
X82983538Y-105982013D01*
X82967273Y-106017092D01*
X82946747Y-106049455D01*
X82924882Y-106074257D01*
X82915808Y-106081684D01*
X82908513Y-106082232D01*
X82898459Y-106074257D01*
X82894658Y-106070622D01*
X82881044Y-106056005D01*
X82866782Y-106039038D01*
X82848296Y-106015728D01*
X82865423Y-105993273D01*
X82869027Y-105988332D01*
X82886417Y-105954322D01*
X82893831Y-105918431D01*
X82891672Y-105882967D01*
X82880349Y-105850235D01*
X82860264Y-105822541D01*
X82831825Y-105802192D01*
X82830244Y-105801424D01*
X82813391Y-105794469D01*
X82795822Y-105790301D01*
X82773618Y-105788284D01*
X82742860Y-105787784D01*
X82733915Y-105787823D01*
X82706334Y-105788651D01*
X82686228Y-105791075D01*
X82669631Y-105795785D01*
X82652574Y-105803468D01*
X82627155Y-105820104D01*
X82606800Y-105844968D01*
X82595986Y-105876789D01*
X82594096Y-105916761D01*
X82594829Y-105928017D01*
X82598086Y-105950578D01*
X82604754Y-105968529D01*
X82616636Y-105987527D01*
X82636942Y-106016336D01*
X82618697Y-106039342D01*
X82614039Y-106045083D01*
X82599426Y-106061847D01*
X82587195Y-106074316D01*
X82585144Y-106076160D01*
X82576479Y-106082440D01*
X82569261Y-106081071D01*
X82558254Y-106071551D01*
X82555425Y-106068813D01*
X82530751Y-106038014D01*
X82509886Y-105999930D01*
X82495443Y-105959236D01*
X82492973Y-105949168D01*
X82488847Y-105925509D01*
X82488690Y-105903430D01*
X82492238Y-105876129D01*
X82501047Y-105838008D01*
X82521097Y-105791166D01*
X82550091Y-105752973D01*
X82588168Y-105723298D01*
X82635468Y-105702010D01*
X82692132Y-105688978D01*
X82746952Y-105685187D01*
X82801558Y-105689743D01*
G37*
G36*
X83774364Y-105340295D02*
G01*
X83610261Y-105340305D01*
X83577446Y-105340338D01*
X83533757Y-105340559D01*
X83500000Y-105341070D01*
X83474591Y-105341964D01*
X83455944Y-105343335D01*
X83442474Y-105345277D01*
X83432595Y-105347882D01*
X83424722Y-105351245D01*
X83409290Y-105361153D01*
X83388292Y-105384887D01*
X83376753Y-105413879D01*
X83375525Y-105445401D01*
X83385462Y-105476728D01*
X83398221Y-105501206D01*
X83354346Y-105537301D01*
X83353397Y-105538080D01*
X83331992Y-105555049D01*
X83317879Y-105564490D01*
X83309283Y-105567377D01*
X83304426Y-105564685D01*
X83285579Y-105528657D01*
X83275391Y-105486050D01*
X83275800Y-105442323D01*
X83286756Y-105400140D01*
X83308210Y-105362163D01*
X83324889Y-105340295D01*
X83280492Y-105340295D01*
X83280492Y-105240271D01*
X83774364Y-105240271D01*
X83774364Y-105340295D01*
G37*
G36*
X80637380Y-102295797D02*
G01*
X80698530Y-102295837D01*
X80748474Y-102295979D01*
X80788368Y-102296272D01*
X80819366Y-102296766D01*
X80842623Y-102297511D01*
X80859295Y-102298556D01*
X80870537Y-102299952D01*
X80877504Y-102301747D01*
X80881351Y-102303992D01*
X80883233Y-102306736D01*
X80885385Y-102315039D01*
X80889547Y-102334235D01*
X80895416Y-102362843D01*
X80902702Y-102399411D01*
X80911116Y-102442488D01*
X80920369Y-102490623D01*
X80930173Y-102542366D01*
X80935726Y-102571755D01*
X80946767Y-102629136D01*
X80956034Y-102675523D01*
X80963736Y-102711839D01*
X80970085Y-102739007D01*
X80975289Y-102757950D01*
X80979560Y-102769591D01*
X80983108Y-102774853D01*
X80984600Y-102775744D01*
X80996358Y-102781317D01*
X81017708Y-102790638D01*
X81047110Y-102803062D01*
X81083027Y-102817942D01*
X81123920Y-102834635D01*
X81168250Y-102852495D01*
X81208008Y-102868286D01*
X81258836Y-102887969D01*
X81298990Y-102902786D01*
X81328911Y-102912889D01*
X81349039Y-102918435D01*
X81359813Y-102919576D01*
X81367173Y-102916348D01*
X81384078Y-102906653D01*
X81408802Y-102891351D01*
X81440050Y-102871274D01*
X81476529Y-102847256D01*
X81516944Y-102820129D01*
X81560001Y-102790726D01*
X81598495Y-102764383D01*
X81638662Y-102737266D01*
X81674781Y-102713271D01*
X81705609Y-102693204D01*
X81729907Y-102677871D01*
X81746434Y-102668080D01*
X81753948Y-102664637D01*
X81754879Y-102664934D01*
X81763668Y-102671386D01*
X81779950Y-102685549D01*
X81802715Y-102706468D01*
X81830948Y-102733186D01*
X81863639Y-102764750D01*
X81899775Y-102800205D01*
X81938343Y-102838595D01*
X81966412Y-102866776D01*
X82006395Y-102907169D01*
X82038566Y-102940090D01*
X82063638Y-102966321D01*
X82082324Y-102986647D01*
X82095336Y-103001852D01*
X82103387Y-103012720D01*
X82107190Y-103020034D01*
X82107458Y-103024578D01*
X82104169Y-103030464D01*
X82094400Y-103045918D01*
X82079073Y-103069333D01*
X82059033Y-103099443D01*
X82035125Y-103134980D01*
X82008193Y-103174677D01*
X81979082Y-103217267D01*
X81954526Y-103253302D01*
X81927542Y-103293503D01*
X81903644Y-103329761D01*
X81883642Y-103360813D01*
X81868350Y-103385396D01*
X81858579Y-103402246D01*
X81855141Y-103410100D01*
X81855687Y-103413031D01*
X81860812Y-103426659D01*
X81870468Y-103447967D01*
X81883594Y-103474676D01*
X81899128Y-103504504D01*
X81906123Y-103517773D01*
X81920502Y-103546394D01*
X81931838Y-103570850D01*
X81939117Y-103588888D01*
X81941325Y-103598256D01*
X81940138Y-103600152D01*
X81933986Y-103604712D01*
X81922039Y-103611383D01*
X81903651Y-103620450D01*
X81878179Y-103632197D01*
X81844977Y-103646907D01*
X81803400Y-103664866D01*
X81752804Y-103686357D01*
X81692543Y-103711664D01*
X81621973Y-103741071D01*
X81540449Y-103774862D01*
X81497880Y-103792443D01*
X81432673Y-103819260D01*
X81371273Y-103844376D01*
X81314647Y-103867403D01*
X81263760Y-103887953D01*
X81219580Y-103905637D01*
X81183075Y-103920067D01*
X81155210Y-103930855D01*
X81136954Y-103937612D01*
X81129273Y-103939951D01*
X81126090Y-103939398D01*
X81113750Y-103930766D01*
X81100067Y-103913382D01*
X81097721Y-103909788D01*
X81084425Y-103890222D01*
X81067478Y-103866114D01*
X81049960Y-103841860D01*
X81020131Y-103804829D01*
X80963696Y-103749853D01*
X80900520Y-103704528D01*
X80831825Y-103669328D01*
X80758831Y-103644726D01*
X80682763Y-103631194D01*
X80604841Y-103629205D01*
X80526288Y-103639233D01*
X80505870Y-103643907D01*
X80432745Y-103668525D01*
X80364523Y-103703850D01*
X80302286Y-103748869D01*
X80247119Y-103802567D01*
X80200104Y-103863930D01*
X80162327Y-103931943D01*
X80134870Y-104005592D01*
X80129961Y-104025475D01*
X80122619Y-104074236D01*
X80119439Y-104128444D01*
X80120421Y-104183790D01*
X80125565Y-104235965D01*
X80134870Y-104280660D01*
X80150173Y-104326639D01*
X80179533Y-104389487D01*
X80217993Y-104447189D01*
X80267248Y-104502589D01*
X80275386Y-104510644D01*
X80315485Y-104547393D01*
X80353186Y-104576112D01*
X80391811Y-104599103D01*
X80434684Y-104618669D01*
X80500314Y-104640391D01*
X80577516Y-104654458D01*
X80654636Y-104656842D01*
X80730501Y-104647874D01*
X80803939Y-104627886D01*
X80873777Y-104597213D01*
X80938842Y-104556184D01*
X80997961Y-104505133D01*
X81049960Y-104444392D01*
X81054131Y-104438684D01*
X81071793Y-104414060D01*
X81088132Y-104390656D01*
X81100067Y-104372870D01*
X81104321Y-104366657D01*
X81117847Y-104351759D01*
X81129273Y-104346301D01*
X81132824Y-104347237D01*
X81147276Y-104352403D01*
X81171694Y-104361743D01*
X81205111Y-104374869D01*
X81246561Y-104391393D01*
X81295076Y-104410927D01*
X81349689Y-104433081D01*
X81409434Y-104457469D01*
X81473343Y-104483701D01*
X81540449Y-104511390D01*
X81592472Y-104532935D01*
X81667107Y-104563967D01*
X81731190Y-104590790D01*
X81785365Y-104613691D01*
X81830276Y-104632951D01*
X81866569Y-104648857D01*
X81894888Y-104661691D01*
X81915879Y-104671738D01*
X81930185Y-104679281D01*
X81938452Y-104684606D01*
X81941325Y-104687996D01*
X81941047Y-104690887D01*
X81936494Y-104704329D01*
X81927313Y-104725454D01*
X81914520Y-104752011D01*
X81899128Y-104781747D01*
X81892219Y-104794814D01*
X81877591Y-104823579D01*
X81865827Y-104848245D01*
X81857990Y-104866529D01*
X81855141Y-104876152D01*
X81857601Y-104882149D01*
X81866434Y-104897673D01*
X81880915Y-104921128D01*
X81900232Y-104951250D01*
X81923574Y-104986776D01*
X81950128Y-105026442D01*
X81979082Y-105068985D01*
X82003514Y-105104708D01*
X82030865Y-105144970D01*
X82055330Y-105181281D01*
X82076066Y-105212375D01*
X82092229Y-105236983D01*
X82102975Y-105253838D01*
X82107458Y-105261673D01*
X82107681Y-105264115D01*
X82105376Y-105270229D01*
X82099106Y-105279583D01*
X82088161Y-105292962D01*
X82071827Y-105311149D01*
X82049390Y-105334928D01*
X82020140Y-105365083D01*
X81983362Y-105402398D01*
X81938343Y-105447656D01*
X81928165Y-105457840D01*
X81890130Y-105495561D01*
X81854790Y-105530098D01*
X81823158Y-105560498D01*
X81796246Y-105585804D01*
X81775065Y-105605062D01*
X81760628Y-105617317D01*
X81753948Y-105621615D01*
X81747635Y-105618828D01*
X81731972Y-105609648D01*
X81708411Y-105594844D01*
X81678192Y-105575223D01*
X81642557Y-105551592D01*
X81602746Y-105524757D01*
X81560001Y-105495526D01*
X81522226Y-105469704D01*
X81481409Y-105442245D01*
X81444366Y-105417791D01*
X81412391Y-105397175D01*
X81386777Y-105381228D01*
X81368820Y-105370784D01*
X81359813Y-105366675D01*
X81353701Y-105366947D01*
X81336780Y-105370988D01*
X81310215Y-105379535D01*
X81273565Y-105392743D01*
X81226390Y-105410766D01*
X81168250Y-105433757D01*
X81153684Y-105439600D01*
X81110294Y-105457154D01*
X81070836Y-105473333D01*
X81036850Y-105487493D01*
X81009875Y-105498987D01*
X80991448Y-105507171D01*
X80983108Y-105511399D01*
X80981601Y-105513017D01*
X80977757Y-105521011D01*
X80973095Y-105535796D01*
X80967406Y-105558294D01*
X80960480Y-105589429D01*
X80952106Y-105630124D01*
X80942073Y-105681302D01*
X80930173Y-105743886D01*
X80920496Y-105794964D01*
X80911233Y-105843156D01*
X80902806Y-105886310D01*
X80895504Y-105922973D01*
X80889615Y-105951696D01*
X80885428Y-105971027D01*
X80883233Y-105979515D01*
X80883069Y-105979881D01*
X80881007Y-105982561D01*
X80876839Y-105984748D01*
X80869409Y-105986492D01*
X80857563Y-105987842D01*
X80840144Y-105988848D01*
X80815997Y-105989559D01*
X80783969Y-105990026D01*
X80742903Y-105990298D01*
X80691644Y-105990424D01*
X80629037Y-105990455D01*
X80379510Y-105990455D01*
X80373600Y-105976389D01*
X80371378Y-105968209D01*
X80367099Y-105948892D01*
X80361158Y-105920144D01*
X80353851Y-105883453D01*
X80345474Y-105840311D01*
X80336325Y-105792208D01*
X80326699Y-105740633D01*
X80317689Y-105692676D01*
X80308311Y-105644392D01*
X80299570Y-105601017D01*
X80291780Y-105564031D01*
X80285253Y-105534912D01*
X80280301Y-105515142D01*
X80277235Y-105506200D01*
X80273343Y-105502960D01*
X80258900Y-105494636D01*
X80235799Y-105482962D01*
X80205833Y-105468714D01*
X80170794Y-105452669D01*
X80132476Y-105435604D01*
X80092672Y-105418294D01*
X80053174Y-105401517D01*
X80015776Y-105386049D01*
X79982271Y-105372667D01*
X79954451Y-105362147D01*
X79934109Y-105355265D01*
X79923039Y-105352798D01*
X79922674Y-105352815D01*
X79911809Y-105357018D01*
X79891026Y-105368595D01*
X79860440Y-105387476D01*
X79820165Y-105413586D01*
X79770317Y-105446854D01*
X79711009Y-105487207D01*
X79705138Y-105491227D01*
X79661082Y-105521147D01*
X79620031Y-105548600D01*
X79583195Y-105572809D01*
X79551784Y-105592993D01*
X79527008Y-105608375D01*
X79510076Y-105618175D01*
X79502199Y-105621615D01*
X79497539Y-105619040D01*
X79484664Y-105608659D01*
X79465176Y-105591411D01*
X79440271Y-105568472D01*
X79411147Y-105541015D01*
X79378999Y-105510218D01*
X79345023Y-105477254D01*
X79310415Y-105443298D01*
X79276373Y-105409527D01*
X79244092Y-105377115D01*
X79214767Y-105347237D01*
X79189596Y-105321068D01*
X79169775Y-105299784D01*
X79156500Y-105284560D01*
X79150967Y-105276570D01*
X79150499Y-105275120D01*
X79149597Y-105271639D01*
X79149616Y-105267709D01*
X79151169Y-105262342D01*
X79154870Y-105254552D01*
X79161336Y-105243353D01*
X79171181Y-105227759D01*
X79185019Y-105206782D01*
X79203465Y-105179437D01*
X79227134Y-105144738D01*
X79256641Y-105101697D01*
X79292601Y-105049329D01*
X79313294Y-105019103D01*
X79348517Y-104967064D01*
X79376719Y-104924477D01*
X79398158Y-104890931D01*
X79413093Y-104866018D01*
X79421783Y-104849327D01*
X79424485Y-104840449D01*
X79423981Y-104837546D01*
X79419611Y-104823374D01*
X79411387Y-104800463D01*
X79400071Y-104770669D01*
X79386422Y-104735846D01*
X79371200Y-104697848D01*
X79355166Y-104658530D01*
X79339079Y-104619746D01*
X79323700Y-104583352D01*
X79309788Y-104551202D01*
X79298103Y-104525149D01*
X79289406Y-104507050D01*
X79284457Y-104498759D01*
X79283946Y-104498407D01*
X79274161Y-104495165D01*
X79253705Y-104490050D01*
X79223968Y-104483355D01*
X79186339Y-104475379D01*
X79142209Y-104466416D01*
X79092967Y-104456763D01*
X79040004Y-104446715D01*
X79031196Y-104445068D01*
X78978520Y-104435095D01*
X78929621Y-104425633D01*
X78885921Y-104416971D01*
X78848839Y-104409398D01*
X78819795Y-104403204D01*
X78800210Y-104398678D01*
X78791505Y-104396108D01*
X78790010Y-104395235D01*
X78787228Y-104392686D01*
X78784980Y-104388246D01*
X78783207Y-104380734D01*
X78781854Y-104368972D01*
X78780864Y-104351781D01*
X78780181Y-104327982D01*
X78779748Y-104296396D01*
X78779508Y-104255844D01*
X78779406Y-104205147D01*
X78779385Y-104143126D01*
X78779388Y-104110631D01*
X78779442Y-104054430D01*
X78779603Y-104008962D01*
X78779928Y-103973048D01*
X78780476Y-103945510D01*
X78781302Y-103925166D01*
X78782464Y-103910837D01*
X78784019Y-103901345D01*
X78786024Y-103895509D01*
X78788535Y-103892149D01*
X78791610Y-103890087D01*
X78792217Y-103889818D01*
X78802783Y-103886906D01*
X78824002Y-103882091D01*
X78854450Y-103875659D01*
X78892706Y-103867901D01*
X78937349Y-103859106D01*
X78986957Y-103849562D01*
X79040108Y-103839559D01*
X79049436Y-103837818D01*
X79101856Y-103827836D01*
X79150320Y-103818288D01*
X79193436Y-103809470D01*
X79229812Y-103801680D01*
X79258058Y-103795213D01*
X79276782Y-103790367D01*
X79284591Y-103787437D01*
X79286118Y-103785342D01*
X79292716Y-103772773D01*
X79302748Y-103751153D01*
X79315451Y-103722340D01*
X79330066Y-103688190D01*
X79345832Y-103650561D01*
X79361987Y-103611311D01*
X79377772Y-103572298D01*
X79392425Y-103535379D01*
X79405186Y-103502412D01*
X79415293Y-103475254D01*
X79421986Y-103455764D01*
X79424505Y-103445797D01*
X79423922Y-103442440D01*
X79418311Y-103429772D01*
X79406554Y-103409052D01*
X79388396Y-103379878D01*
X79363582Y-103341848D01*
X79331858Y-103294558D01*
X79292970Y-103237606D01*
X79281042Y-103220252D01*
X79247091Y-103170830D01*
X79219409Y-103130424D01*
X79197381Y-103098047D01*
X79180393Y-103072712D01*
X79167831Y-103053434D01*
X79159079Y-103039224D01*
X79153523Y-103029096D01*
X79150549Y-103022065D01*
X79149541Y-103017143D01*
X79149885Y-103013344D01*
X79150967Y-103009682D01*
X79154512Y-103004196D01*
X79166125Y-102990520D01*
X79184557Y-102970516D01*
X79208611Y-102945359D01*
X79237093Y-102916224D01*
X79268804Y-102884287D01*
X79302550Y-102850722D01*
X79337134Y-102816706D01*
X79371359Y-102783412D01*
X79404030Y-102752016D01*
X79433950Y-102723693D01*
X79459924Y-102699619D01*
X79480754Y-102680968D01*
X79495244Y-102668916D01*
X79502199Y-102664637D01*
X79502667Y-102664697D01*
X79511787Y-102669005D01*
X79529805Y-102679573D01*
X79555510Y-102695622D01*
X79587693Y-102716372D01*
X79625143Y-102741045D01*
X79666652Y-102768863D01*
X79711009Y-102799045D01*
X79715208Y-102801922D01*
X79773896Y-102841810D01*
X79823116Y-102874608D01*
X79862756Y-102900244D01*
X79892699Y-102918645D01*
X79912831Y-102929739D01*
X79923039Y-102933453D01*
X79929070Y-102932397D01*
X79946357Y-102926978D01*
X79971753Y-102917648D01*
X80003465Y-102905183D01*
X80039699Y-102890360D01*
X80078663Y-102873955D01*
X80118564Y-102856744D01*
X80157609Y-102839504D01*
X80194004Y-102823012D01*
X80225958Y-102808044D01*
X80251676Y-102795377D01*
X80269366Y-102785787D01*
X80277235Y-102780051D01*
X80280017Y-102772119D01*
X80284846Y-102753070D01*
X80291271Y-102724567D01*
X80298982Y-102688090D01*
X80307665Y-102645120D01*
X80317008Y-102597136D01*
X80326699Y-102545618D01*
X80335626Y-102497759D01*
X80344820Y-102449347D01*
X80353264Y-102405787D01*
X80360660Y-102368568D01*
X80366713Y-102339181D01*
X80371125Y-102319116D01*
X80373600Y-102309862D01*
X80379510Y-102295796D01*
X80629037Y-102295796D01*
X80637380Y-102295797D01*
G37*
G36*
X82992921Y-103313890D02*
G01*
X82825693Y-103315906D01*
X82789193Y-103316361D01*
X82746886Y-103316999D01*
X82714355Y-103317755D01*
X82690000Y-103318768D01*
X82672222Y-103320179D01*
X82659420Y-103322127D01*
X82649994Y-103324752D01*
X82642343Y-103328193D01*
X82634869Y-103332592D01*
X82630537Y-103335404D01*
X82608786Y-103355657D01*
X82596614Y-103381441D01*
X82592823Y-103415109D01*
X82596765Y-103447501D01*
X82609841Y-103473871D01*
X82632742Y-103493681D01*
X82639182Y-103497038D01*
X82647755Y-103499933D01*
X82659551Y-103502209D01*
X82676116Y-103503989D01*
X82698997Y-103505394D01*
X82729741Y-103506549D01*
X82769895Y-103507575D01*
X82821004Y-103508595D01*
X82989796Y-103511720D01*
X82991619Y-103563787D01*
X82993443Y-103615853D01*
X82807199Y-103613799D01*
X82804587Y-103613770D01*
X82751735Y-103613146D01*
X82709759Y-103612497D01*
X82677104Y-103611704D01*
X82652211Y-103610651D01*
X82633524Y-103609218D01*
X82619486Y-103607289D01*
X82608541Y-103604745D01*
X82599130Y-103601470D01*
X82589697Y-103597344D01*
X82557025Y-103578806D01*
X82529184Y-103552855D01*
X82506819Y-103517972D01*
X82503112Y-103510102D01*
X82492882Y-103474442D01*
X82490572Y-103436247D01*
X82495800Y-103398838D01*
X82508183Y-103365534D01*
X82527339Y-103339655D01*
X82536500Y-103330349D01*
X82541696Y-103320851D01*
X82535629Y-103316096D01*
X82517804Y-103314797D01*
X82492798Y-103314797D01*
X82492798Y-103214772D01*
X82992921Y-103214772D01*
X82992921Y-103313890D01*
G37*
G36*
X82816582Y-104367654D02*
G01*
X82854055Y-104373981D01*
X82882669Y-104383063D01*
X82920762Y-104406048D01*
X82954331Y-104439489D01*
X82978832Y-104480169D01*
X82992858Y-104526256D01*
X82994265Y-104536045D01*
X82995441Y-104575970D01*
X82990546Y-104616214D01*
X82980182Y-104650858D01*
X82965797Y-104676615D01*
X82939539Y-104708392D01*
X82908013Y-104735370D01*
X82875035Y-104753811D01*
X82864799Y-104757674D01*
X82849735Y-104762143D01*
X82833039Y-104765118D01*
X82811993Y-104766898D01*
X82783881Y-104767784D01*
X82745986Y-104768076D01*
X82732509Y-104768061D01*
X82687476Y-104766988D01*
X82651867Y-104763824D01*
X82623289Y-104757932D01*
X82599350Y-104748676D01*
X82577655Y-104735421D01*
X82555813Y-104717529D01*
X82526796Y-104685192D01*
X82504438Y-104644966D01*
X82491922Y-104601715D01*
X82489733Y-104568771D01*
X82592823Y-104568771D01*
X82592825Y-104569487D01*
X82598568Y-104604170D01*
X82615289Y-104632888D01*
X82642856Y-104655414D01*
X82643891Y-104656015D01*
X82654874Y-104661345D01*
X82667566Y-104664888D01*
X82684662Y-104666989D01*
X82708861Y-104667996D01*
X82742860Y-104668255D01*
X82765778Y-104668048D01*
X82800510Y-104666256D01*
X82826462Y-104662008D01*
X82846017Y-104654564D01*
X82861558Y-104643187D01*
X82875466Y-104627136D01*
X82886316Y-104608176D01*
X82893735Y-104575133D01*
X82889881Y-104538593D01*
X82889820Y-104538355D01*
X82880895Y-104512675D01*
X82867919Y-104493484D01*
X82849248Y-104479962D01*
X82823237Y-104471290D01*
X82788243Y-104466648D01*
X82742622Y-104465217D01*
X82713170Y-104465393D01*
X82688809Y-104466430D01*
X82671081Y-104468778D01*
X82656870Y-104472871D01*
X82643059Y-104479146D01*
X82635788Y-104483209D01*
X82611670Y-104504344D01*
X82597473Y-104532643D01*
X82592823Y-104568771D01*
X82489733Y-104568771D01*
X82488968Y-104557257D01*
X82495294Y-104513414D01*
X82510621Y-104472002D01*
X82534667Y-104434843D01*
X82567152Y-104403754D01*
X82607796Y-104380555D01*
X82613404Y-104378405D01*
X82645000Y-104370502D01*
X82684460Y-104365506D01*
X82728440Y-104363386D01*
X82742622Y-104363614D01*
X82773596Y-104364112D01*
X82816582Y-104367654D01*
G37*
G36*
X83774364Y-103333552D02*
G01*
X83613148Y-103333552D01*
X83591833Y-103333557D01*
X83547135Y-103333657D01*
X83512579Y-103333980D01*
X83486483Y-103334651D01*
X83467165Y-103335797D01*
X83452943Y-103337541D01*
X83442136Y-103340009D01*
X83433062Y-103343326D01*
X83424039Y-103347618D01*
X83403807Y-103361596D01*
X83384808Y-103386211D01*
X83375030Y-103415339D01*
X83375323Y-103446073D01*
X83386539Y-103475510D01*
X83398766Y-103495564D01*
X83357025Y-103530211D01*
X83349116Y-103536699D01*
X83330800Y-103551104D01*
X83316956Y-103561110D01*
X83310103Y-103564859D01*
X83306371Y-103561637D01*
X83298697Y-103549721D01*
X83289643Y-103532038D01*
X83284084Y-103518604D01*
X83274588Y-103476320D01*
X83275965Y-103433812D01*
X83287909Y-103393677D01*
X83310115Y-103358510D01*
X83331479Y-103333552D01*
X83280492Y-103333552D01*
X83280492Y-103233527D01*
X83774364Y-103233527D01*
X83774364Y-103333552D01*
G37*
G36*
X82800644Y-101766611D02*
G01*
X82844692Y-101773113D01*
X82881065Y-101784568D01*
X82911840Y-101801617D01*
X82939091Y-101824899D01*
X82953032Y-101840457D01*
X82978863Y-101881470D01*
X82993036Y-101926458D01*
X82995788Y-101961686D01*
X82993121Y-102002255D01*
X82985277Y-102039483D01*
X82974783Y-102065070D01*
X82949732Y-102102097D01*
X82916289Y-102133178D01*
X82876896Y-102155695D01*
X82863802Y-102160041D01*
X82832798Y-102166031D01*
X82794595Y-102169834D01*
X82752443Y-102171445D01*
X82709595Y-102170863D01*
X82669300Y-102168084D01*
X82634811Y-102163106D01*
X82609377Y-102155926D01*
X82589878Y-102146497D01*
X82552228Y-102119243D01*
X82522967Y-102084871D01*
X82502456Y-102045176D01*
X82491056Y-102001955D01*
X82490199Y-101981961D01*
X82592361Y-101981961D01*
X82600271Y-102011431D01*
X82617171Y-102037162D01*
X82643059Y-102056675D01*
X82655271Y-102062328D01*
X82669273Y-102066657D01*
X82686421Y-102069189D01*
X82709832Y-102070359D01*
X82742622Y-102070604D01*
X82771827Y-102069991D01*
X82811015Y-102066390D01*
X82840494Y-102059182D01*
X82861791Y-102047929D01*
X82876431Y-102032193D01*
X82876454Y-102032158D01*
X82889496Y-102002301D01*
X82893697Y-101969090D01*
X82889083Y-101936617D01*
X82875678Y-101908969D01*
X82868094Y-101899509D01*
X82853574Y-101886023D01*
X82836180Y-101876830D01*
X82813524Y-101871187D01*
X82783214Y-101868347D01*
X82742860Y-101867566D01*
X82739198Y-101867568D01*
X82706228Y-101867882D01*
X82682807Y-101868976D01*
X82666236Y-101871198D01*
X82653818Y-101874893D01*
X82642856Y-101880407D01*
X82622609Y-101895882D01*
X82603528Y-101921709D01*
X82593446Y-101951228D01*
X82592361Y-101981961D01*
X82490199Y-101981961D01*
X82489129Y-101957003D01*
X82497034Y-101912116D01*
X82515134Y-101869089D01*
X82543789Y-101829719D01*
X82552975Y-101820248D01*
X82579849Y-101798249D01*
X82610103Y-101782378D01*
X82645908Y-101771924D01*
X82689437Y-101766174D01*
X82742860Y-101764416D01*
X82746846Y-101764424D01*
X82800644Y-101766611D01*
G37*
G36*
X83492044Y-105576669D02*
G01*
X83547588Y-105575588D01*
X83600463Y-105581521D01*
X83647828Y-105593988D01*
X83686842Y-105612506D01*
X83708242Y-105627364D01*
X83735475Y-105653273D01*
X83755912Y-105684568D01*
X83772229Y-105724765D01*
X83777181Y-105746808D01*
X83779604Y-105782902D01*
X83777480Y-105822094D01*
X83771135Y-105859620D01*
X83760895Y-105890716D01*
X83757955Y-105896807D01*
X83745974Y-105917925D01*
X83732124Y-105938413D01*
X83718394Y-105955698D01*
X83706774Y-105967209D01*
X83699256Y-105970374D01*
X83699097Y-105970301D01*
X83692625Y-105964471D01*
X83680762Y-105951777D01*
X83665952Y-105934828D01*
X83637278Y-105901080D01*
X83652629Y-105882837D01*
X83666108Y-105861300D01*
X83677553Y-105831054D01*
X83683929Y-105799311D01*
X83683702Y-105771567D01*
X83672814Y-105738449D01*
X83652784Y-105710246D01*
X83625845Y-105689956D01*
X83594091Y-105679723D01*
X83568063Y-105676232D01*
X83568063Y-105985777D01*
X83496836Y-105983051D01*
X83491763Y-105982853D01*
X83460901Y-105981280D01*
X83438369Y-105978949D01*
X83420495Y-105975105D01*
X83403609Y-105968994D01*
X83384040Y-105959860D01*
X83348225Y-105937934D01*
X83314336Y-105904865D01*
X83290766Y-105864924D01*
X83277762Y-105818552D01*
X83276518Y-105788808D01*
X83369240Y-105788808D01*
X83377018Y-105821408D01*
X83395292Y-105848100D01*
X83423287Y-105867943D01*
X83460224Y-105879995D01*
X83480541Y-105883867D01*
X83480541Y-105676232D01*
X83454513Y-105679723D01*
X83423679Y-105688919D01*
X83397012Y-105708280D01*
X83378467Y-105735879D01*
X83369577Y-105770083D01*
X83369240Y-105788808D01*
X83276518Y-105788808D01*
X83275572Y-105766192D01*
X83276027Y-105759924D01*
X83285742Y-105711421D01*
X83305773Y-105669701D01*
X83335736Y-105635117D01*
X83375243Y-105608023D01*
X83423909Y-105588771D01*
X83480541Y-105577871D01*
X83481349Y-105577715D01*
X83492044Y-105576669D01*
G37*
G36*
X83284205Y-104021252D02*
G01*
X83291929Y-104023528D01*
X83309824Y-104029056D01*
X83336349Y-104037348D01*
X83369962Y-104047914D01*
X83409123Y-104060265D01*
X83452290Y-104073913D01*
X83497923Y-104088369D01*
X83544480Y-104103143D01*
X83590421Y-104117747D01*
X83634204Y-104131692D01*
X83674289Y-104144488D01*
X83709135Y-104155648D01*
X83737200Y-104164681D01*
X83756944Y-104171099D01*
X83766825Y-104174413D01*
X83767237Y-104174583D01*
X83771492Y-104181095D01*
X83773366Y-104196579D01*
X83773076Y-104222726D01*
X83771238Y-104268123D01*
X83604291Y-104317643D01*
X83598166Y-104319463D01*
X83555454Y-104332337D01*
X83517276Y-104344155D01*
X83485128Y-104354431D01*
X83460504Y-104362679D01*
X83444899Y-104368412D01*
X83439806Y-104371145D01*
X83439938Y-104371274D01*
X83447492Y-104374366D01*
X83465325Y-104380436D01*
X83491880Y-104388992D01*
X83525601Y-104399537D01*
X83564932Y-104411580D01*
X83608315Y-104424625D01*
X83774364Y-104474124D01*
X83774364Y-104564272D01*
X83647770Y-104604824D01*
X83610180Y-104616855D01*
X83557832Y-104633585D01*
X83503767Y-104650840D01*
X83452526Y-104667173D01*
X83408649Y-104681133D01*
X83408288Y-104681248D01*
X83372513Y-104692638D01*
X83340618Y-104702836D01*
X83314612Y-104711194D01*
X83296505Y-104717068D01*
X83288306Y-104719810D01*
X83285595Y-104719557D01*
X83282595Y-104712722D01*
X83280977Y-104696597D01*
X83280492Y-104669593D01*
X83280495Y-104667263D01*
X83281390Y-104638142D01*
X83283953Y-104620500D01*
X83288306Y-104613463D01*
X83294707Y-104611522D01*
X83311867Y-104606664D01*
X83337913Y-104599434D01*
X83371149Y-104590300D01*
X83409880Y-104579730D01*
X83452409Y-104568192D01*
X83490260Y-104557867D01*
X83529124Y-104547070D01*
X83562524Y-104537581D01*
X83588806Y-104529879D01*
X83606314Y-104524441D01*
X83613395Y-104521744D01*
X83613400Y-104521434D01*
X83606638Y-104517813D01*
X83589696Y-104511048D01*
X83564018Y-104501658D01*
X83531047Y-104490158D01*
X83492228Y-104477066D01*
X83449002Y-104462897D01*
X83279911Y-104408219D01*
X83281764Y-104369839D01*
X83283618Y-104331459D01*
X83450724Y-104277927D01*
X83457491Y-104275757D01*
X83500207Y-104261936D01*
X83538542Y-104249330D01*
X83570989Y-104238449D01*
X83596040Y-104229805D01*
X83612185Y-104223908D01*
X83617917Y-104221270D01*
X83614573Y-104219701D01*
X83600741Y-104215165D01*
X83577694Y-104208258D01*
X83547062Y-104199456D01*
X83510475Y-104189233D01*
X83469565Y-104178065D01*
X83440819Y-104170303D01*
X83400316Y-104159362D01*
X83364124Y-104149582D01*
X83334182Y-104141486D01*
X83312430Y-104135600D01*
X83300810Y-104132448D01*
X83280492Y-104126909D01*
X83280492Y-104074065D01*
X83280550Y-104064526D01*
X83281203Y-104042387D01*
X83282426Y-104026992D01*
X83284029Y-104021221D01*
X83284205Y-104021252D01*
G37*
G36*
X82991611Y-105410625D02*
G01*
X82989796Y-105462200D01*
X82817878Y-105465326D01*
X82791424Y-105465813D01*
X82743364Y-105466830D01*
X82705612Y-105468058D01*
X82676674Y-105469791D01*
X82655055Y-105472320D01*
X82639263Y-105475940D01*
X82627801Y-105480943D01*
X82619178Y-105487622D01*
X82611898Y-105496270D01*
X82604468Y-105507180D01*
X82597232Y-105523775D01*
X82593181Y-105550885D01*
X82595096Y-105579575D01*
X82603054Y-105604512D01*
X82613286Y-105624297D01*
X82585863Y-105648309D01*
X82574505Y-105658083D01*
X82556055Y-105673374D01*
X82541784Y-105684520D01*
X82525129Y-105696720D01*
X82512421Y-105676158D01*
X82499594Y-105648683D01*
X82491486Y-105611295D01*
X82491265Y-105572384D01*
X82498593Y-105534995D01*
X82513131Y-105502175D01*
X82534542Y-105476969D01*
X82535481Y-105476185D01*
X82539819Y-105470912D01*
X82535413Y-105467804D01*
X82520400Y-105465326D01*
X82495924Y-105462200D01*
X82494108Y-105410625D01*
X82492293Y-105359050D01*
X82993427Y-105359050D01*
X82991611Y-105410625D01*
G37*
G36*
X82773025Y-106115549D02*
G01*
X82807379Y-106118012D01*
X82833969Y-106122300D01*
X82872741Y-106134903D01*
X82916724Y-106159298D01*
X82951624Y-106192048D01*
X82977074Y-106232788D01*
X82992708Y-106281152D01*
X82993295Y-106284130D01*
X82997426Y-106338105D01*
X82989787Y-106391452D01*
X82970941Y-106441918D01*
X82941447Y-106487250D01*
X82935882Y-106493731D01*
X82924868Y-106504910D01*
X82918207Y-106509333D01*
X82917966Y-106509302D01*
X82911179Y-106504211D01*
X82899098Y-106492093D01*
X82884170Y-106475388D01*
X82855169Y-106441443D01*
X82870524Y-106418816D01*
X82872850Y-106415265D01*
X82884624Y-106394103D01*
X82893217Y-106373955D01*
X82895786Y-106364095D01*
X82898513Y-106336681D01*
X82896956Y-106307149D01*
X82891555Y-106280254D01*
X82882748Y-106260750D01*
X82866790Y-106245184D01*
X82843823Y-106230490D01*
X82819144Y-106219703D01*
X82797799Y-106215511D01*
X82780369Y-106215511D01*
X82780369Y-106523186D01*
X82710039Y-106520622D01*
X82664718Y-106517417D01*
X82627731Y-106510639D01*
X82597451Y-106499270D01*
X82571071Y-106482249D01*
X82545789Y-106458516D01*
X82517394Y-106420916D01*
X82497477Y-106376096D01*
X82489200Y-106328392D01*
X82489910Y-106319202D01*
X82586571Y-106319202D01*
X82586768Y-106326051D01*
X82594359Y-106359667D01*
X82612311Y-106387028D01*
X82639713Y-106407114D01*
X82675656Y-106418909D01*
X82699099Y-106423203D01*
X82699099Y-106215511D01*
X82681328Y-106215511D01*
X82662786Y-106218550D01*
X82637124Y-106229765D01*
X82613933Y-106246437D01*
X82598170Y-106265581D01*
X82597698Y-106266480D01*
X82589620Y-106290697D01*
X82586571Y-106319202D01*
X82489910Y-106319202D01*
X82492995Y-106279267D01*
X82506291Y-106236671D01*
X82530633Y-106196169D01*
X82564780Y-106163239D01*
X82608495Y-106138106D01*
X82661537Y-106120994D01*
X82669494Y-106119460D01*
X82699099Y-106116278D01*
X82699472Y-106116238D01*
X82735519Y-106114946D01*
X82773025Y-106115549D01*
G37*
G36*
X82680344Y-104855833D02*
G01*
X82686771Y-104855835D01*
X82738487Y-104855886D01*
X82779436Y-104856080D01*
X82811183Y-104856523D01*
X82835292Y-104857318D01*
X82853328Y-104858569D01*
X82866855Y-104860383D01*
X82877436Y-104862862D01*
X82886638Y-104866111D01*
X82896022Y-104870235D01*
X82913573Y-104879395D01*
X82949845Y-104907647D01*
X82976638Y-104943802D01*
X82993307Y-104987083D01*
X82995289Y-104996687D01*
X82996291Y-105038322D01*
X82985917Y-105080748D01*
X82964650Y-105121699D01*
X82943754Y-105152749D01*
X82992921Y-105152749D01*
X82992921Y-105252774D01*
X82492798Y-105252774D01*
X82492798Y-105152749D01*
X82654014Y-105152749D01*
X82675468Y-105152744D01*
X82720131Y-105152644D01*
X82754655Y-105152321D01*
X82780721Y-105151649D01*
X82800008Y-105150504D01*
X82814197Y-105148759D01*
X82824969Y-105146291D01*
X82834003Y-105142974D01*
X82842980Y-105138683D01*
X82851387Y-105134032D01*
X82875627Y-105113314D01*
X82889554Y-105086195D01*
X82893845Y-105051515D01*
X82893738Y-105046631D01*
X82889097Y-105018753D01*
X82876186Y-104996121D01*
X82852994Y-104974967D01*
X82849993Y-104972831D01*
X82843882Y-104969445D01*
X82835918Y-104966814D01*
X82824580Y-104964819D01*
X82808346Y-104963342D01*
X82785694Y-104962263D01*
X82755104Y-104961463D01*
X82715054Y-104960826D01*
X82664023Y-104960230D01*
X82492302Y-104958384D01*
X82494113Y-104907092D01*
X82495924Y-104855801D01*
X82680344Y-104855833D01*
G37*
G36*
X83675740Y-102730723D02*
G01*
X83695757Y-102739078D01*
X83727802Y-102762420D01*
X83753586Y-102795089D01*
X83771616Y-102835455D01*
X83777020Y-102860842D01*
X83779812Y-102895582D01*
X83778875Y-102930599D01*
X83774088Y-102959828D01*
X83773657Y-102961309D01*
X83764380Y-102982683D01*
X83751687Y-103002026D01*
X83735743Y-103020975D01*
X83774364Y-103020975D01*
X83774364Y-103128349D01*
X83585255Y-103125792D01*
X83582355Y-103125753D01*
X83521620Y-103124725D01*
X83472473Y-103123452D01*
X83434040Y-103121887D01*
X83405444Y-103119988D01*
X83385811Y-103117708D01*
X83374265Y-103115002D01*
X83346681Y-103101557D01*
X83317763Y-103076718D01*
X83295477Y-103042099D01*
X83291171Y-103032947D01*
X83284373Y-103015213D01*
X83279986Y-102996330D01*
X83277268Y-102972514D01*
X83275479Y-102939980D01*
X83274870Y-102913568D01*
X83277008Y-102869985D01*
X83284034Y-102834575D01*
X83296543Y-102804909D01*
X83315132Y-102778560D01*
X83324729Y-102767830D01*
X83336123Y-102756539D01*
X83342491Y-102752159D01*
X83343031Y-102752307D01*
X83349955Y-102758389D01*
X83361767Y-102771604D01*
X83376248Y-102789496D01*
X83405244Y-102826834D01*
X83390518Y-102842723D01*
X83383351Y-102851730D01*
X83374342Y-102870847D01*
X83369474Y-102896413D01*
X83368014Y-102931310D01*
X83368657Y-102946706D01*
X83374125Y-102976852D01*
X83384349Y-103000268D01*
X83398331Y-103014220D01*
X83405205Y-103016660D01*
X83423354Y-103019762D01*
X83445065Y-103020975D01*
X83479179Y-103020975D01*
X83567094Y-103020975D01*
X83602272Y-103020975D01*
X83616452Y-103020396D01*
X83644494Y-103015275D01*
X83665439Y-103005665D01*
X83676712Y-102992549D01*
X83677600Y-102989845D01*
X83680827Y-102971831D01*
X83682946Y-102946829D01*
X83683796Y-102919293D01*
X83683214Y-102893672D01*
X83681036Y-102874418D01*
X83678911Y-102866359D01*
X83666711Y-102843535D01*
X83648733Y-102828156D01*
X83627599Y-102821257D01*
X83605929Y-102823873D01*
X83586344Y-102837039D01*
X83580676Y-102843659D01*
X83576213Y-102851613D01*
X83573238Y-102862551D01*
X83571340Y-102878852D01*
X83570111Y-102902897D01*
X83569141Y-102937063D01*
X83567094Y-103020975D01*
X83479179Y-103020975D01*
X83481805Y-102928765D01*
X83483565Y-102885996D01*
X83486623Y-102851170D01*
X83491508Y-102824320D01*
X83498814Y-102803137D01*
X83509137Y-102785312D01*
X83523071Y-102768538D01*
X83535966Y-102757051D01*
X83567197Y-102739497D01*
X83603625Y-102728583D01*
X83627599Y-102726501D01*
X83641167Y-102725322D01*
X83675740Y-102730723D01*
G37*
G36*
X83774364Y-102357566D02*
G01*
X83607135Y-102359502D01*
X83577512Y-102359855D01*
X83533597Y-102360481D01*
X83499697Y-102361217D01*
X83474222Y-102362195D01*
X83455577Y-102363549D01*
X83442172Y-102365413D01*
X83432412Y-102367920D01*
X83424706Y-102371203D01*
X83417461Y-102375397D01*
X83416494Y-102376008D01*
X83394799Y-102396851D01*
X83380771Y-102424488D01*
X83375062Y-102455479D01*
X83378325Y-102486380D01*
X83391214Y-102513751D01*
X83399294Y-102524018D01*
X83408344Y-102532756D01*
X83419322Y-102539472D01*
X83433738Y-102544429D01*
X83453103Y-102547893D01*
X83478927Y-102550127D01*
X83512721Y-102551397D01*
X83555995Y-102551966D01*
X83610261Y-102552100D01*
X83774364Y-102552109D01*
X83774364Y-102652646D01*
X83582129Y-102650827D01*
X83571827Y-102650729D01*
X83516085Y-102650129D01*
X83471100Y-102649314D01*
X83435373Y-102648002D01*
X83407404Y-102645912D01*
X83385694Y-102642760D01*
X83368744Y-102638265D01*
X83355054Y-102632145D01*
X83343126Y-102624116D01*
X83331460Y-102613897D01*
X83318557Y-102601206D01*
X83305508Y-102586044D01*
X83285927Y-102550329D01*
X83275566Y-102510208D01*
X83274657Y-102468609D01*
X83283430Y-102428462D01*
X83302116Y-102392695D01*
X83303586Y-102390666D01*
X83313746Y-102376225D01*
X83320376Y-102366126D01*
X83320602Y-102365299D01*
X83317698Y-102363180D01*
X83308631Y-102361508D01*
X83292346Y-102360239D01*
X83267785Y-102359329D01*
X83233893Y-102358734D01*
X83189612Y-102358410D01*
X83133886Y-102358312D01*
X82942781Y-102358312D01*
X82964443Y-102391132D01*
X82973433Y-102406338D01*
X82985327Y-102431560D01*
X82992693Y-102453771D01*
X82996451Y-102484806D01*
X82991887Y-102526864D01*
X82976972Y-102565758D01*
X82952870Y-102599496D01*
X82920746Y-102626086D01*
X82881763Y-102643536D01*
X82878742Y-102644348D01*
X82854146Y-102648505D01*
X82820661Y-102651441D01*
X82781333Y-102653156D01*
X82739209Y-102653651D01*
X82697334Y-102652928D01*
X82658754Y-102650986D01*
X82626517Y-102647827D01*
X82603668Y-102643452D01*
X82584939Y-102636756D01*
X82549125Y-102615352D01*
X82521222Y-102586270D01*
X82501821Y-102551328D01*
X82491514Y-102512346D01*
X82490892Y-102471145D01*
X82491589Y-102468142D01*
X82593596Y-102468142D01*
X82599064Y-102498605D01*
X82612914Y-102521298D01*
X82635828Y-102537714D01*
X82647489Y-102542425D01*
X82661916Y-102545669D01*
X82681514Y-102547677D01*
X82708724Y-102548699D01*
X82745986Y-102548984D01*
X82784380Y-102548502D01*
X82816556Y-102546518D01*
X82840193Y-102542468D01*
X82857347Y-102535790D01*
X82870073Y-102525924D01*
X82880429Y-102512309D01*
X82888480Y-102495244D01*
X82894127Y-102465777D01*
X82892293Y-102435349D01*
X82883372Y-102407881D01*
X82867764Y-102387296D01*
X82859379Y-102381301D01*
X82831046Y-102369033D01*
X82795414Y-102361243D01*
X82755623Y-102357912D01*
X82714815Y-102359021D01*
X82676130Y-102364551D01*
X82642709Y-102374484D01*
X82617694Y-102388800D01*
X82607959Y-102397655D01*
X82600372Y-102408522D01*
X82596336Y-102423125D01*
X82594032Y-102445847D01*
X82593596Y-102468142D01*
X82491589Y-102468142D01*
X82500547Y-102429543D01*
X82521070Y-102389362D01*
X82541965Y-102358312D01*
X82492798Y-102358312D01*
X82492798Y-102258287D01*
X83774364Y-102258287D01*
X83774364Y-102357566D01*
G37*
G36*
X83687519Y-104740896D02*
G01*
X83721522Y-104761830D01*
X83749309Y-104792546D01*
X83769415Y-104832277D01*
X83769592Y-104832775D01*
X83776670Y-104863050D01*
X83779914Y-104899335D01*
X83779122Y-104935789D01*
X83774088Y-104966572D01*
X83773657Y-104968052D01*
X83764380Y-104989426D01*
X83751687Y-105008770D01*
X83735743Y-105027718D01*
X83774364Y-105027718D01*
X83774364Y-105127743D01*
X83588380Y-105127708D01*
X83553627Y-105127618D01*
X83499609Y-105127087D01*
X83453939Y-105126110D01*
X83417654Y-105124719D01*
X83391792Y-105122948D01*
X83377391Y-105120832D01*
X83373610Y-105119686D01*
X83345853Y-105104895D01*
X83320037Y-105080988D01*
X83298802Y-105050910D01*
X83284788Y-105017603D01*
X83280206Y-104997099D01*
X83275574Y-104957431D01*
X83274642Y-104914894D01*
X83277434Y-104874419D01*
X83283971Y-104840934D01*
X83285500Y-104836323D01*
X83294593Y-104816592D01*
X83307137Y-104795931D01*
X83320921Y-104777395D01*
X83333735Y-104764034D01*
X83343369Y-104758902D01*
X83343840Y-104759007D01*
X83350775Y-104764878D01*
X83362545Y-104777957D01*
X83376889Y-104795759D01*
X83381106Y-104801263D01*
X83393615Y-104818425D01*
X83399431Y-104829094D01*
X83399568Y-104835803D01*
X83395041Y-104841083D01*
X83385698Y-104851791D01*
X83374890Y-104876017D01*
X83368970Y-104906142D01*
X83367950Y-104938722D01*
X83371843Y-104970317D01*
X83380661Y-104997483D01*
X83394416Y-105016778D01*
X83398986Y-105020080D01*
X83416354Y-105025906D01*
X83443151Y-105027718D01*
X83479395Y-105027718D01*
X83568063Y-105027718D01*
X83598914Y-105027718D01*
X83601370Y-105027708D01*
X83633220Y-105024746D01*
X83655765Y-105016007D01*
X83671041Y-105000727D01*
X83671552Y-104999897D01*
X83677004Y-104984592D01*
X83681400Y-104961737D01*
X83684227Y-104935875D01*
X83684973Y-104911551D01*
X83683129Y-104893310D01*
X83680948Y-104884019D01*
X83677062Y-104866582D01*
X83668436Y-104847430D01*
X83650406Y-104832943D01*
X83625890Y-104827868D01*
X83620813Y-104827994D01*
X83601719Y-104830887D01*
X83587699Y-104838704D01*
X83578037Y-104852942D01*
X83572020Y-104875100D01*
X83568933Y-104906674D01*
X83568063Y-104949163D01*
X83568063Y-105027718D01*
X83479395Y-105027718D01*
X83481639Y-104935508D01*
X83481901Y-104925272D01*
X83483178Y-104889625D01*
X83484992Y-104863330D01*
X83487665Y-104843849D01*
X83491518Y-104828641D01*
X83496873Y-104815166D01*
X83518461Y-104780470D01*
X83548661Y-104753204D01*
X83585731Y-104736160D01*
X83606733Y-104731442D01*
X83625890Y-104731018D01*
X83648767Y-104730511D01*
X83687519Y-104740896D01*
G37*
G36*
X83617442Y-103574886D02*
G01*
X83639143Y-103575897D01*
X83655095Y-103577615D01*
X83667291Y-103580223D01*
X83677724Y-103583907D01*
X83688388Y-103588851D01*
X83695791Y-103592805D01*
X83727005Y-103616302D01*
X83753135Y-103646657D01*
X83770505Y-103679795D01*
X83772243Y-103685202D01*
X83777683Y-103710154D01*
X83780122Y-103734978D01*
X83779651Y-103746487D01*
X83774859Y-103774078D01*
X83766148Y-103802305D01*
X83755019Y-103826795D01*
X83742975Y-103843171D01*
X83738290Y-103847648D01*
X83731470Y-103857775D01*
X83736086Y-103863274D01*
X83752483Y-103864932D01*
X83774364Y-103864932D01*
X83774364Y-103964957D01*
X83073665Y-103964957D01*
X83075491Y-103916508D01*
X83077317Y-103868058D01*
X83200785Y-103866363D01*
X83207201Y-103866268D01*
X83244317Y-103865420D01*
X83276464Y-103864193D01*
X83301758Y-103862695D01*
X83318315Y-103861033D01*
X83324253Y-103859314D01*
X83322273Y-103854540D01*
X83313881Y-103845380D01*
X83310796Y-103842526D01*
X83297342Y-103823405D01*
X83285674Y-103797133D01*
X83279874Y-103776662D01*
X83374486Y-103776662D01*
X83381665Y-103805259D01*
X83397231Y-103830249D01*
X83421152Y-103848875D01*
X83422958Y-103849794D01*
X83435206Y-103855003D01*
X83449052Y-103858476D01*
X83467222Y-103860547D01*
X83492439Y-103861546D01*
X83527428Y-103861805D01*
X83529233Y-103861804D01*
X83571573Y-103860976D01*
X83603550Y-103858121D01*
X83627164Y-103852537D01*
X83644413Y-103843519D01*
X83657296Y-103830363D01*
X83667811Y-103812365D01*
X83675832Y-103792004D01*
X83679449Y-103761227D01*
X83672097Y-103728451D01*
X83669566Y-103722281D01*
X83654740Y-103701431D01*
X83631685Y-103686300D01*
X83599552Y-103676603D01*
X83557486Y-103672056D01*
X83504638Y-103672372D01*
X83469000Y-103674862D01*
X83438902Y-103679445D01*
X83419312Y-103686028D01*
X83403578Y-103696776D01*
X83385411Y-103719665D01*
X83375724Y-103747212D01*
X83374486Y-103776662D01*
X83279874Y-103776662D01*
X83277443Y-103768083D01*
X83274302Y-103740627D01*
X83274433Y-103731283D01*
X83279481Y-103692105D01*
X83292925Y-103658730D01*
X83316230Y-103627188D01*
X83331443Y-103611274D01*
X83346465Y-103598704D01*
X83362877Y-103589322D01*
X83382528Y-103582671D01*
X83407270Y-103578295D01*
X83438955Y-103575735D01*
X83479432Y-103574534D01*
X83530554Y-103574236D01*
X83548820Y-103574244D01*
X83557486Y-103574278D01*
X83587999Y-103574396D01*
X83617442Y-103574886D01*
G37*
G36*
X82759975Y-102722797D02*
G01*
X82811625Y-102728068D01*
X82860000Y-102740207D01*
X82902730Y-102759244D01*
X82937443Y-102785209D01*
X82956949Y-102808373D01*
X82978874Y-102847452D01*
X82992715Y-102890516D01*
X82995811Y-102918307D01*
X82994766Y-102956941D01*
X82989114Y-102996580D01*
X82979376Y-103031701D01*
X82973062Y-103045673D01*
X82958007Y-103070872D01*
X82940966Y-103092857D01*
X82914777Y-103121349D01*
X82885185Y-103085488D01*
X82878494Y-103077330D01*
X82866362Y-103061584D01*
X82860842Y-103051438D01*
X82860788Y-103044121D01*
X82865052Y-103036864D01*
X82867275Y-103033796D01*
X82887592Y-102996179D01*
X82897834Y-102956307D01*
X82897639Y-102916809D01*
X82886645Y-102880314D01*
X82868031Y-102855116D01*
X82839670Y-102835862D01*
X82803812Y-102824532D01*
X82780369Y-102820359D01*
X82780369Y-103133502D01*
X82741297Y-103133455D01*
X82716930Y-103132960D01*
X82663407Y-103127514D01*
X82618594Y-103115600D01*
X82580759Y-103096648D01*
X82548165Y-103070090D01*
X82525489Y-103042717D01*
X82504044Y-103001787D01*
X82492312Y-102957448D01*
X82490532Y-102916499D01*
X82586741Y-102916499D01*
X82588494Y-102948414D01*
X82598170Y-102977156D01*
X82609653Y-102992195D01*
X82631635Y-103009667D01*
X82657179Y-103022339D01*
X82681328Y-103027226D01*
X82699099Y-103027226D01*
X82699099Y-102821238D01*
X82678781Y-102824906D01*
X82653361Y-102831796D01*
X82622597Y-102848016D01*
X82600720Y-102870299D01*
X82592794Y-102886371D01*
X82586741Y-102916499D01*
X82490532Y-102916499D01*
X82490332Y-102911907D01*
X82498143Y-102867372D01*
X82515782Y-102826052D01*
X82543288Y-102790152D01*
X82568073Y-102769798D01*
X82609101Y-102747894D01*
X82656342Y-102732740D01*
X82699099Y-102725729D01*
X82707424Y-102724364D01*
X82759975Y-102722797D01*
G37*
G36*
X82907685Y-103884020D02*
G01*
X82916242Y-103891159D01*
X82928355Y-103906168D01*
X82942200Y-103926422D01*
X82955956Y-103949295D01*
X82967800Y-103972164D01*
X82976572Y-103993134D01*
X82986252Y-104021655D01*
X82992356Y-104046227D01*
X82994276Y-104058821D01*
X82996589Y-104109133D01*
X82990800Y-104157563D01*
X82977634Y-104202152D01*
X82957812Y-104240943D01*
X82932060Y-104271979D01*
X82901098Y-104293302D01*
X82873604Y-104301763D01*
X82837819Y-104304401D01*
X82801406Y-104300066D01*
X82769383Y-104288924D01*
X82767092Y-104287725D01*
X82744241Y-104272663D01*
X82726351Y-104253596D01*
X82712699Y-104228838D01*
X82702565Y-104196705D01*
X82695225Y-104155511D01*
X82689958Y-104103572D01*
X82689950Y-104103470D01*
X82686876Y-104077941D01*
X82682231Y-104054993D01*
X82677017Y-104039585D01*
X82667077Y-104026354D01*
X82649409Y-104016969D01*
X82629678Y-104017470D01*
X82610755Y-104027593D01*
X82595511Y-104047074D01*
X82589058Y-104066099D01*
X82586109Y-104097299D01*
X82588912Y-104132288D01*
X82597083Y-104167154D01*
X82610241Y-104197984D01*
X82629826Y-104232687D01*
X82596261Y-104261362D01*
X82595233Y-104262238D01*
X82578032Y-104276270D01*
X82564483Y-104286224D01*
X82557442Y-104289994D01*
X82555712Y-104289498D01*
X82547151Y-104281357D01*
X82535807Y-104265322D01*
X82523462Y-104244117D01*
X82511902Y-104220464D01*
X82503958Y-104197668D01*
X82496275Y-104164637D01*
X82490866Y-104128993D01*
X82488432Y-104095511D01*
X82489672Y-104068966D01*
X82494969Y-104041948D01*
X82510908Y-103996194D01*
X82534083Y-103960596D01*
X82564461Y-103935189D01*
X82602007Y-103920006D01*
X82646686Y-103915082D01*
X82654215Y-103915411D01*
X82679819Y-103919509D01*
X82702225Y-103926760D01*
X82713849Y-103932707D01*
X82737793Y-103950437D01*
X82756253Y-103974083D01*
X82770022Y-104005236D01*
X82779892Y-104045491D01*
X82786656Y-104096439D01*
X82788527Y-104114366D01*
X82793525Y-104148711D01*
X82799940Y-104172918D01*
X82808542Y-104188649D01*
X82820105Y-104197565D01*
X82835399Y-104201327D01*
X82851094Y-104201179D01*
X82872300Y-104192679D01*
X82887297Y-104173687D01*
X82896206Y-104144015D01*
X82899148Y-104103478D01*
X82899144Y-104101777D01*
X82895304Y-104057364D01*
X82883264Y-104018532D01*
X82861552Y-103980459D01*
X82842204Y-103952338D01*
X82872239Y-103918092D01*
X82874063Y-103916020D01*
X82888995Y-103899719D01*
X82900578Y-103888172D01*
X82906437Y-103883766D01*
X82907685Y-103884020D01*
G37*
G36*
X82477494Y-79372374D02*
G01*
X82478627Y-79373185D01*
X82499078Y-79388527D01*
X82526827Y-79410144D01*
X82556208Y-79433627D01*
X82562662Y-79438853D01*
X82592214Y-79462702D01*
X82629937Y-79493064D01*
X82671657Y-79526581D01*
X82713199Y-79559895D01*
X82731803Y-79574828D01*
X82767155Y-79603383D01*
X82797006Y-79627724D01*
X82818665Y-79645649D01*
X82829438Y-79654957D01*
X82842040Y-79665597D01*
X82861991Y-79679990D01*
X82882475Y-79693412D01*
X82882475Y-80614123D01*
X82853083Y-80658425D01*
X82825761Y-80703039D01*
X82795198Y-80759151D01*
X82766823Y-80816897D01*
X82744578Y-80868640D01*
X82737316Y-80888765D01*
X82723387Y-80932702D01*
X82709030Y-80983279D01*
X82695772Y-81034734D01*
X82685141Y-81081307D01*
X82678664Y-81117235D01*
X82676453Y-81130983D01*
X82671601Y-81150716D01*
X82667038Y-81158469D01*
X82664953Y-81157025D01*
X82652216Y-81145533D01*
X82629185Y-81123632D01*
X82597168Y-81092603D01*
X82557474Y-81053723D01*
X82511411Y-81008271D01*
X82460287Y-80957525D01*
X82405411Y-80902765D01*
X82149817Y-80647062D01*
X82178898Y-80579406D01*
X82179075Y-80578994D01*
X82198224Y-80536624D01*
X82220444Y-80490563D01*
X82240960Y-80450710D01*
X82273942Y-80389670D01*
X82243454Y-80350881D01*
X82231099Y-80335250D01*
X82211992Y-80311377D01*
X82198318Y-80294660D01*
X82195766Y-80291609D01*
X82176657Y-80268389D01*
X82149561Y-80235074D01*
X82116837Y-80194603D01*
X82080845Y-80149915D01*
X82043943Y-80103947D01*
X82008493Y-80059637D01*
X81976852Y-80019924D01*
X81951380Y-79987745D01*
X81934436Y-79966039D01*
X81893540Y-79912775D01*
X82451602Y-79353937D01*
X82477494Y-79372374D01*
G37*
G36*
X83774859Y-80699920D02*
G01*
X83883477Y-80699601D01*
X83987408Y-80712215D01*
X84085020Y-80737204D01*
X84174683Y-80774009D01*
X84254762Y-80822071D01*
X84323628Y-80880831D01*
X84379647Y-80949732D01*
X84384074Y-80956505D01*
X84422187Y-81025402D01*
X84452088Y-81098983D01*
X84470755Y-81169948D01*
X84473331Y-81191441D01*
X84475520Y-81228701D01*
X84476519Y-81273101D01*
X84476126Y-81319064D01*
X84475533Y-81338925D01*
X84472992Y-81385496D01*
X84468480Y-81422676D01*
X84461109Y-81456336D01*
X84449994Y-81492349D01*
X84448405Y-81496965D01*
X84408702Y-81584735D01*
X84354289Y-81664021D01*
X84286246Y-81733496D01*
X84205656Y-81791836D01*
X84155979Y-81821888D01*
X84122542Y-81784209D01*
X84102277Y-81759019D01*
X84091219Y-81736374D01*
X84093128Y-81717853D01*
X84107417Y-81700194D01*
X84126027Y-81681418D01*
X84156290Y-81645452D01*
X84187265Y-81603747D01*
X84214771Y-81562029D01*
X84234626Y-81526023D01*
X84238676Y-81517242D01*
X84247626Y-81495332D01*
X84253375Y-81474274D01*
X84256620Y-81449514D01*
X84258056Y-81416502D01*
X84258380Y-81370685D01*
X84258233Y-81328966D01*
X84257181Y-81296302D01*
X84254312Y-81271826D01*
X84248715Y-81250778D01*
X84239478Y-81228396D01*
X84225690Y-81199920D01*
X84205049Y-81163617D01*
X84156123Y-81103197D01*
X84095660Y-81053917D01*
X84025712Y-81017001D01*
X83948333Y-80993673D01*
X83865575Y-80985158D01*
X83828681Y-80984853D01*
X83828681Y-81783086D01*
X83806905Y-81797355D01*
X83795497Y-81802636D01*
X83764590Y-81809876D01*
X83723038Y-81814633D01*
X83674999Y-81816775D01*
X83624630Y-81816166D01*
X83576089Y-81812673D01*
X83533534Y-81806162D01*
X83496304Y-81796860D01*
X83413253Y-81764966D01*
X83338467Y-81720304D01*
X83274327Y-81664465D01*
X83223214Y-81599036D01*
X83221419Y-81596167D01*
X83188449Y-81536005D01*
X83165862Y-81476180D01*
X83152002Y-81411080D01*
X83145209Y-81335094D01*
X83144277Y-81309764D01*
X83311305Y-81309764D01*
X83316932Y-81363130D01*
X83332458Y-81408402D01*
X83344184Y-81428782D01*
X83385575Y-81480132D01*
X83436158Y-81518921D01*
X83493517Y-81543583D01*
X83555236Y-81552557D01*
X83584768Y-81551229D01*
X83622702Y-81541398D01*
X83648391Y-81521190D01*
X83663536Y-81489617D01*
X83665656Y-81475387D01*
X83667846Y-81444943D01*
X83669695Y-81401809D01*
X83671122Y-81348483D01*
X83672044Y-81287461D01*
X83672378Y-81221240D01*
X83672427Y-80984523D01*
X83652895Y-80988962D01*
X83644802Y-80990773D01*
X83619636Y-80996280D01*
X83590233Y-81002611D01*
X83560827Y-81010141D01*
X83490999Y-81038478D01*
X83428330Y-81078713D01*
X83375970Y-81128567D01*
X83337067Y-81185764D01*
X83329245Y-81203078D01*
X83315451Y-81254386D01*
X83311305Y-81309764D01*
X83144277Y-81309764D01*
X83143736Y-81295080D01*
X83143961Y-81258898D01*
X83146919Y-81228279D01*
X83153276Y-81196888D01*
X83163691Y-81158393D01*
X83173108Y-81128082D01*
X83209972Y-81040991D01*
X83259793Y-80962627D01*
X83324742Y-80889365D01*
X83344349Y-80870703D01*
X83418627Y-80810915D01*
X83497170Y-80765479D01*
X83583491Y-80732630D01*
X83672427Y-80712564D01*
X83681108Y-80710605D01*
X83774859Y-80699920D01*
G37*
G36*
X84979976Y-81422402D02*
G01*
X84992503Y-81433297D01*
X85015304Y-81454630D01*
X85047090Y-81485146D01*
X85086568Y-81523595D01*
X85132451Y-81568722D01*
X85183448Y-81619277D01*
X85238269Y-81674007D01*
X85494575Y-81930751D01*
X85472591Y-81980820D01*
X85468220Y-81990601D01*
X85451928Y-82025580D01*
X85432184Y-82066514D01*
X85412326Y-82106444D01*
X85374045Y-82182000D01*
X85428208Y-82249647D01*
X85442318Y-82267248D01*
X85466016Y-82296712D01*
X85485249Y-82320508D01*
X85496832Y-82334686D01*
X85499745Y-82338231D01*
X85513456Y-82355094D01*
X85535486Y-82382306D01*
X85564046Y-82417653D01*
X85597347Y-82458922D01*
X85633599Y-82503898D01*
X85755908Y-82655717D01*
X85476337Y-82935386D01*
X85454643Y-82957053D01*
X85390463Y-83020697D01*
X85333655Y-83076320D01*
X85285004Y-83123179D01*
X85245294Y-83160534D01*
X85215309Y-83187643D01*
X85195835Y-83203764D01*
X85187656Y-83208157D01*
X85180794Y-83202746D01*
X85162160Y-83187883D01*
X85134434Y-83165696D01*
X85100025Y-83138121D01*
X85061344Y-83107093D01*
X85020801Y-83074547D01*
X84980806Y-83042418D01*
X84943769Y-83012640D01*
X84912100Y-82987148D01*
X84888210Y-82967877D01*
X84874508Y-82956763D01*
X84858910Y-82944167D01*
X84834886Y-82924961D01*
X84807643Y-82903309D01*
X84758347Y-82864245D01*
X84757937Y-82418051D01*
X84757526Y-81971858D01*
X84799601Y-81905885D01*
X84826905Y-81861033D01*
X84889530Y-81737178D01*
X84935751Y-81609993D01*
X84965102Y-81480679D01*
X84969860Y-81453511D01*
X84974624Y-81431287D01*
X84977957Y-81421269D01*
X84979976Y-81422402D01*
G37*
G36*
X82358359Y-81151944D02*
G01*
X82680563Y-81475318D01*
X82695648Y-81540424D01*
X82700608Y-81560993D01*
X82742275Y-81693706D01*
X82798675Y-81819310D01*
X82868755Y-81935400D01*
X82881776Y-81954270D01*
X82899881Y-81980792D01*
X82912347Y-81999435D01*
X82917030Y-82007017D01*
X82914690Y-82007264D01*
X82897930Y-82007710D01*
X82866546Y-82008117D01*
X82822329Y-82008473D01*
X82767074Y-82008770D01*
X82702574Y-82008994D01*
X82630622Y-82009137D01*
X82553011Y-82009187D01*
X82188824Y-82009187D01*
X82172531Y-81972294D01*
X82168315Y-81962044D01*
X82157674Y-81933739D01*
X82144318Y-81896397D01*
X82129895Y-81854794D01*
X82116049Y-81813708D01*
X82104428Y-81777913D01*
X82096677Y-81752188D01*
X82095136Y-81750418D01*
X82080435Y-81745264D01*
X82053289Y-81740438D01*
X82017320Y-81736648D01*
X81993277Y-81734622D01*
X81944312Y-81729928D01*
X81890838Y-81724273D01*
X81840780Y-81718475D01*
X81814929Y-81715369D01*
X81757018Y-81708705D01*
X81697369Y-81702149D01*
X81645462Y-81696757D01*
X81614954Y-81693654D01*
X81573914Y-81689266D01*
X81539651Y-81685364D01*
X81517420Y-81682529D01*
X81484867Y-81677791D01*
X81484867Y-80890891D01*
X81517420Y-80886152D01*
X81531815Y-80884265D01*
X81563163Y-80880603D01*
X81602796Y-80876287D01*
X81645462Y-80871900D01*
X81674705Y-80868925D01*
X81731621Y-80862918D01*
X81791411Y-80856396D01*
X81845120Y-80850327D01*
X81883732Y-80845868D01*
X81928232Y-80840754D01*
X81966377Y-80836397D01*
X81992722Y-80833419D01*
X82036154Y-80828569D01*
X82358359Y-81151944D01*
G37*
G36*
X84537016Y-82202387D02*
G01*
X84537825Y-82218940D01*
X84538563Y-82250137D01*
X84539211Y-82294183D01*
X84539748Y-82349278D01*
X84540156Y-82413625D01*
X84540415Y-82485427D01*
X84540506Y-82562884D01*
X84540506Y-82925603D01*
X84481911Y-82948156D01*
X84455666Y-82957917D01*
X84412770Y-82973054D01*
X84366966Y-82988543D01*
X84324643Y-83002236D01*
X84292188Y-83011983D01*
X84290413Y-83013536D01*
X84285262Y-83028259D01*
X84280436Y-83055411D01*
X84276648Y-83091362D01*
X84274622Y-83115404D01*
X84269928Y-83164369D01*
X84264273Y-83217843D01*
X84258475Y-83267902D01*
X84255369Y-83293753D01*
X84248705Y-83351664D01*
X84242149Y-83411312D01*
X84236757Y-83463220D01*
X84233654Y-83493727D01*
X84229266Y-83534768D01*
X84225364Y-83569030D01*
X84222529Y-83591261D01*
X84217791Y-83623814D01*
X83430891Y-83623814D01*
X83426152Y-83591261D01*
X83424265Y-83576867D01*
X83420603Y-83545518D01*
X83416287Y-83505885D01*
X83411900Y-83463220D01*
X83408922Y-83433969D01*
X83402902Y-83377055D01*
X83396358Y-83317268D01*
X83390261Y-83263562D01*
X83385885Y-83225770D01*
X83380542Y-83179141D01*
X83375882Y-83137968D01*
X83372576Y-83108143D01*
X83367016Y-83056894D01*
X83682442Y-82741379D01*
X83694783Y-82729041D01*
X83775950Y-82648298D01*
X83845258Y-82580118D01*
X83902761Y-82524450D01*
X83948513Y-82481242D01*
X83982569Y-82450443D01*
X84004983Y-82432001D01*
X84015809Y-82425865D01*
X84033149Y-82423903D01*
X84064955Y-82417337D01*
X84105114Y-82407274D01*
X84149289Y-82394879D01*
X84193143Y-82381314D01*
X84232338Y-82367745D01*
X84244711Y-82363020D01*
X84324100Y-82327866D01*
X84404605Y-82284905D01*
X84477471Y-82238742D01*
X84483602Y-82234474D01*
X84509212Y-82217032D01*
X84528113Y-82204786D01*
X84536582Y-82200164D01*
X84537016Y-82202387D01*
G37*
G36*
X85475386Y-79632344D02*
G01*
X85497053Y-79654038D01*
X85560697Y-79718218D01*
X85616320Y-79775026D01*
X85663179Y-79823678D01*
X85700534Y-79863388D01*
X85727643Y-79893372D01*
X85743764Y-79912847D01*
X85748157Y-79921026D01*
X85746981Y-79922539D01*
X85736657Y-79935529D01*
X85717690Y-79959245D01*
X85691793Y-79991548D01*
X85660679Y-80030303D01*
X85626060Y-80073370D01*
X85618643Y-80082593D01*
X85582607Y-80127424D01*
X85548961Y-80169317D01*
X85519827Y-80205625D01*
X85497331Y-80233701D01*
X85483595Y-80250898D01*
X85476459Y-80259804D01*
X85452902Y-80288552D01*
X85431558Y-80313834D01*
X85406787Y-80342475D01*
X84497644Y-80342475D01*
X84438462Y-80304190D01*
X84367138Y-80262255D01*
X84249660Y-80208231D01*
X84123415Y-80166590D01*
X83991446Y-80138458D01*
X83985466Y-80137414D01*
X83966527Y-80132335D01*
X83958893Y-80127177D01*
X83960216Y-80125224D01*
X83971474Y-80112687D01*
X83993163Y-80089836D01*
X84023999Y-80057985D01*
X84062702Y-80018445D01*
X84107987Y-79972531D01*
X84158573Y-79921554D01*
X84213178Y-79866829D01*
X84467463Y-79612653D01*
X84519176Y-79635364D01*
X84528989Y-79639746D01*
X84564696Y-79656356D01*
X84606217Y-79676361D01*
X84646444Y-79696355D01*
X84722000Y-79734637D01*
X84789647Y-79680473D01*
X84807248Y-79666363D01*
X84836712Y-79642666D01*
X84860508Y-79623433D01*
X84874686Y-79611850D01*
X84878231Y-79608936D01*
X84895094Y-79595226D01*
X84922306Y-79573196D01*
X84957653Y-79544636D01*
X84998922Y-79511335D01*
X85043898Y-79475082D01*
X85195717Y-79352774D01*
X85475386Y-79632344D01*
G37*
G36*
X83209904Y-82263988D02*
G01*
X83275571Y-82303524D01*
X83342207Y-82337099D01*
X83416343Y-82367529D01*
X83447113Y-82378420D01*
X83491092Y-82392381D01*
X83536170Y-82405275D01*
X83577975Y-82415934D01*
X83612138Y-82423187D01*
X83634288Y-82425865D01*
X83647365Y-82426758D01*
X83667376Y-82431134D01*
X83674224Y-82434518D01*
X83681108Y-82442041D01*
X83680003Y-82443674D01*
X83669202Y-82455652D01*
X83647931Y-82477993D01*
X83617478Y-82509381D01*
X83579133Y-82548496D01*
X83534185Y-82594023D01*
X83483923Y-82644643D01*
X83429637Y-82699038D01*
X83178166Y-82950397D01*
X83145341Y-82938810D01*
X83127804Y-82931741D01*
X83097103Y-82918017D01*
X83059476Y-82900311D01*
X83019481Y-82880728D01*
X82926447Y-82834234D01*
X82858917Y-82888303D01*
X82841426Y-82902322D01*
X82811974Y-82925996D01*
X82788179Y-82945205D01*
X82773995Y-82956763D01*
X82763821Y-82965056D01*
X82742128Y-82982595D01*
X82712029Y-83006857D01*
X82675962Y-83035885D01*
X82636363Y-83067723D01*
X82595668Y-83100413D01*
X82556313Y-83131999D01*
X82520735Y-83160523D01*
X82491371Y-83184029D01*
X82470655Y-83200559D01*
X82461026Y-83208157D01*
X82459709Y-83208081D01*
X82447875Y-83199901D01*
X82424993Y-83180226D01*
X82391850Y-83149798D01*
X82349228Y-83109359D01*
X82297914Y-83059650D01*
X82238691Y-83001412D01*
X82172344Y-82935386D01*
X81892774Y-82655717D01*
X82015230Y-82503898D01*
X82029073Y-82486733D01*
X82065870Y-82441081D01*
X82099896Y-82398834D01*
X82129119Y-82362517D01*
X82151504Y-82334658D01*
X82165018Y-82317783D01*
X82172197Y-82308846D01*
X82195779Y-82280112D01*
X82217123Y-82254847D01*
X82241895Y-82226207D01*
X83151038Y-82226207D01*
X83209904Y-82263988D01*
G37*
G36*
X85476151Y-80596388D02*
G01*
X85480367Y-80606637D01*
X85491008Y-80634942D01*
X85504363Y-80672284D01*
X85518787Y-80713887D01*
X85532632Y-80754974D01*
X85544254Y-80790768D01*
X85552004Y-80816493D01*
X85553545Y-80818264D01*
X85568247Y-80823417D01*
X85595393Y-80828244D01*
X85631362Y-80832034D01*
X85655404Y-80834060D01*
X85704369Y-80838754D01*
X85757843Y-80844408D01*
X85807902Y-80850207D01*
X85833753Y-80853313D01*
X85891664Y-80859977D01*
X85951312Y-80866532D01*
X86003220Y-80871925D01*
X86033727Y-80875027D01*
X86074768Y-80879415D01*
X86109030Y-80883318D01*
X86131261Y-80886152D01*
X86163814Y-80890891D01*
X86163814Y-81677791D01*
X86131261Y-81682529D01*
X86116867Y-81684417D01*
X86085518Y-81688078D01*
X86045885Y-81692394D01*
X86003220Y-81696782D01*
X85973977Y-81699756D01*
X85917060Y-81705764D01*
X85857271Y-81712285D01*
X85803562Y-81718354D01*
X85765338Y-81722772D01*
X85719812Y-81728018D01*
X85680214Y-81732565D01*
X85652204Y-81735761D01*
X85605016Y-81741108D01*
X85285441Y-81421620D01*
X85262728Y-81398880D01*
X85202520Y-81338255D01*
X85146618Y-81281477D01*
X85096168Y-81229740D01*
X85052318Y-81184240D01*
X85016216Y-81146174D01*
X84989008Y-81116736D01*
X84971842Y-81097124D01*
X84965865Y-81088532D01*
X84965837Y-81087311D01*
X84962782Y-81067073D01*
X84955502Y-81035119D01*
X84945177Y-80995759D01*
X84932990Y-80953303D01*
X84920119Y-80912061D01*
X84907745Y-80876343D01*
X84900426Y-80857436D01*
X84865821Y-80780439D01*
X84824323Y-80702943D01*
X84780574Y-80633796D01*
X84778838Y-80631311D01*
X84760119Y-80604321D01*
X84745189Y-80582492D01*
X84737143Y-80570346D01*
X84737310Y-80568546D01*
X84743565Y-80566110D01*
X84758265Y-80564123D01*
X84782686Y-80562548D01*
X84818100Y-80561346D01*
X84865781Y-80560478D01*
X84927002Y-80559906D01*
X85003036Y-80559591D01*
X85095158Y-80559495D01*
X85459858Y-80559495D01*
X85476151Y-80596388D01*
G37*
G36*
X84222529Y-78977420D02*
G01*
X84224419Y-78991816D01*
X84228088Y-79023165D01*
X84232417Y-79062797D01*
X84236820Y-79105462D01*
X84239678Y-79133716D01*
X84243340Y-79168864D01*
X84247427Y-79206779D01*
X84252261Y-79250357D01*
X84258164Y-79302492D01*
X84265458Y-79366079D01*
X84274464Y-79444013D01*
X84276805Y-79465774D01*
X84278782Y-79487373D01*
X84277666Y-79490159D01*
X84266807Y-79504485D01*
X84245534Y-79528874D01*
X84215246Y-79561914D01*
X84177343Y-79602196D01*
X84133225Y-79648307D01*
X84084292Y-79698838D01*
X84031943Y-79752377D01*
X83977578Y-79807513D01*
X83922597Y-79862836D01*
X83868400Y-79916934D01*
X83816385Y-79968396D01*
X83767954Y-80015813D01*
X83724505Y-80057772D01*
X83687439Y-80092862D01*
X83658154Y-80119674D01*
X83638052Y-80136796D01*
X83628532Y-80142816D01*
X83627311Y-80142844D01*
X83607073Y-80145900D01*
X83575119Y-80153180D01*
X83535759Y-80163504D01*
X83493303Y-80175692D01*
X83452061Y-80188563D01*
X83416343Y-80200936D01*
X83397436Y-80208255D01*
X83320439Y-80242861D01*
X83242943Y-80284358D01*
X83173796Y-80328108D01*
X83171311Y-80329843D01*
X83144321Y-80348563D01*
X83122492Y-80363493D01*
X83110346Y-80371538D01*
X83108546Y-80371371D01*
X83106110Y-80365117D01*
X83104123Y-80350416D01*
X83102548Y-80325996D01*
X83101346Y-80290582D01*
X83100478Y-80242901D01*
X83099906Y-80181680D01*
X83099591Y-80105645D01*
X83099495Y-80013523D01*
X83099495Y-79648824D01*
X83136388Y-79632531D01*
X83146637Y-79628315D01*
X83174942Y-79617674D01*
X83212284Y-79604318D01*
X83253887Y-79589895D01*
X83294974Y-79576049D01*
X83330768Y-79564428D01*
X83356493Y-79556677D01*
X83358264Y-79555136D01*
X83363417Y-79540435D01*
X83368244Y-79513289D01*
X83372034Y-79477320D01*
X83374060Y-79453277D01*
X83378754Y-79404312D01*
X83384408Y-79350838D01*
X83390207Y-79300780D01*
X83393313Y-79274929D01*
X83399977Y-79217018D01*
X83406532Y-79157369D01*
X83411925Y-79105462D01*
X83415027Y-79074954D01*
X83419415Y-79033914D01*
X83423318Y-78999651D01*
X83426152Y-78977420D01*
X83430891Y-78944867D01*
X84217791Y-78944867D01*
X84222529Y-78977420D01*
G37*
%TD*%
%LPC*%
D12*
%TO.C,REF\u002A\u002A*%
X114300000Y-88900000D03*
%TD*%
%TO.C,REF\u002A\u002A*%
X111760000Y-60960000D03*
%TD*%
%TO.C,REF\u002A\u002A*%
X127058021Y-86510442D03*
%TD*%
%TO.C,REF\u002A\u002A*%
X106680000Y-96520000D03*
%TD*%
%TO.C,REF\u002A\u002A*%
X109202800Y-91439999D03*
%TD*%
%TO.C,REF\u002A\u002A*%
X116840000Y-106680000D03*
%TD*%
%TO.C,REF\u002A\u002A*%
X114300000Y-86360000D03*
%TD*%
%TO.C,REF\u002A\u002A*%
X104140000Y-78740000D03*
%TD*%
%TO.C,REF\u002A\u002A*%
X106646471Y-73701692D03*
%TD*%
%TO.C,REF\u002A\u002A*%
X132080000Y-101600000D03*
%TD*%
%TO.C,REF\u002A\u002A*%
X106680000Y-111769036D03*
%TD*%
%TO.C,REF\u002A\u002A*%
X99060000Y-66040000D03*
%TD*%
%TO.C,REF\u002A\u002A*%
X132080000Y-76200000D03*
%TD*%
%TO.C,REF\u002A\u002A*%
X106680000Y-55880000D03*
%TD*%
%TO.C,REF\u002A\u002A*%
X124460000Y-73660000D03*
%TD*%
%TO.C,REF\u002A\u002A*%
X124442800Y-83794635D03*
%TD*%
D13*
%TO.C,U1*%
X73655000Y-57155000D03*
D14*
X73655000Y-59695000D03*
X73655000Y-62235000D03*
X73655000Y-64775000D03*
X73655000Y-67315000D03*
X73655000Y-69855000D03*
X73655000Y-72395000D03*
X73655000Y-74935000D03*
X73655000Y-77475000D03*
X73655000Y-80015000D03*
X73655000Y-82555000D03*
X73655000Y-85095000D03*
X73655000Y-87635000D03*
X73655000Y-90175000D03*
X73655000Y-92715000D03*
X73655000Y-95255000D03*
X73655000Y-97795000D03*
X73655000Y-100335000D03*
X73655000Y-102875000D03*
X73655000Y-105415000D03*
X88895000Y-105415000D03*
X88895000Y-102875000D03*
X88895000Y-100335000D03*
X88895000Y-97795000D03*
X88895000Y-95255000D03*
X88895000Y-92715000D03*
X88895000Y-90175000D03*
X88895000Y-87635000D03*
X88895000Y-85095000D03*
X88895000Y-82555000D03*
X88895000Y-80015000D03*
X88895000Y-77475000D03*
X88895000Y-74935000D03*
X88895000Y-72395000D03*
X88895000Y-69855000D03*
X88895000Y-67315000D03*
X88895000Y-64775000D03*
X88895000Y-62235000D03*
X88895000Y-59695000D03*
X88895000Y-57155000D03*
%TD*%
D12*
%TO.C,REF\u002A\u002A*%
X116848164Y-61027056D03*
%TD*%
%TO.C,REF\u002A\u002A*%
X116840000Y-58420000D03*
%TD*%
%TO.C,REF\u002A\u002A*%
X119380000Y-96520000D03*
%TD*%
%TO.C,REF\u002A\u002A*%
X106680000Y-109220000D03*
%TD*%
%TO.C,REF\u002A\u002A*%
X114299999Y-58410964D03*
%TD*%
%TO.C,REF\u002A\u002A*%
X104140000Y-53340000D03*
%TD*%
D13*
%TO.C,D2*%
X73660000Y-45974000D03*
D14*
X73660000Y-53594000D03*
%TD*%
D12*
%TO.C,REF\u002A\u002A*%
X109220000Y-55880000D03*
%TD*%
D15*
%TO.C,J1*%
X95235000Y-46380000D03*
D16*
X92695000Y-46380000D03*
X90155000Y-46380000D03*
%TD*%
D12*
%TO.C,REF\u002A\u002A*%
X121920000Y-83820000D03*
%TD*%
%TO.C,REF\u002A\u002A*%
X109220000Y-53340000D03*
%TD*%
%TO.C,REF\u002A\u002A*%
X127000000Y-93980000D03*
%TD*%
%TO.C,REF\u002A\u002A*%
X111760000Y-91440000D03*
%TD*%
%TO.C,REF\u002A\u002A*%
X101600000Y-55880000D03*
%TD*%
%TO.C,REF\u002A\u002A*%
X121920000Y-104140000D03*
%TD*%
%TO.C,REF\u002A\u002A*%
X99060000Y-76200000D03*
%TD*%
%TO.C,REF\u002A\u002A*%
X106673262Y-83819999D03*
%TD*%
%TO.C,REF\u002A\u002A*%
X111760000Y-76200000D03*
%TD*%
%TO.C,REF\u002A\u002A*%
X109220000Y-109220000D03*
%TD*%
%TO.C,REF\u002A\u002A*%
X114266471Y-53381692D03*
%TD*%
%TO.C,REF\u002A\u002A*%
X124460000Y-71120000D03*
%TD*%
%TO.C,REF\u002A\u002A*%
X129522800Y-104114635D03*
%TD*%
D17*
%TO.C,C1*%
X91440000Y-72410000D03*
X91440000Y-74910000D03*
%TD*%
D12*
%TO.C,REF\u002A\u002A*%
X121920000Y-58420000D03*
%TD*%
%TO.C,REF\u002A\u002A*%
X119362800Y-91439999D03*
%TD*%
%TO.C,REF\u002A\u002A*%
X109220000Y-111769036D03*
%TD*%
%TO.C,REF\u002A\u002A*%
X111760000Y-68580000D03*
%TD*%
%TO.C,REF\u002A\u002A*%
X119380000Y-68580000D03*
%TD*%
%TO.C,REF\u002A\u002A*%
X114266471Y-104181692D03*
%TD*%
%TO.C,REF\u002A\u002A*%
X116898021Y-86510442D03*
%TD*%
%TO.C,REF\u002A\u002A*%
X101600000Y-71120000D03*
%TD*%
%TO.C,REF\u002A\u002A*%
X119379999Y-81279999D03*
%TD*%
D18*
%TO.C,J16*%
X125095000Y-52070000D03*
%TD*%
D12*
%TO.C,REF\u002A\u002A*%
X101600000Y-53340000D03*
%TD*%
D18*
%TO.C,J4*%
X111125000Y-48895000D03*
%TD*%
D15*
%TO.C,J2*%
X109220000Y-43815000D03*
D16*
X111760000Y-43815000D03*
%TD*%
D12*
%TO.C,REF\u002A\u002A*%
X124426471Y-104181692D03*
%TD*%
%TO.C,REF\u002A\u002A*%
X124518021Y-76350442D03*
%TD*%
%TO.C,REF\u002A\u002A*%
X119362800Y-101599999D03*
%TD*%
%TO.C,REF\u002A\u002A*%
X116840000Y-63500000D03*
%TD*%
%TO.C,REF\u002A\u002A*%
X101600000Y-106680000D03*
%TD*%
%TO.C,REF\u002A\u002A*%
X104139999Y-101599999D03*
%TD*%
%TO.C,REF\u002A\u002A*%
X116840000Y-48260000D03*
%TD*%
%TO.C,REF\u002A\u002A*%
X101591835Y-60957859D03*
%TD*%
D17*
%TO.C,C3*%
X86467000Y-54229000D03*
X83967000Y-54229000D03*
%TD*%
D12*
%TO.C,REF\u002A\u002A*%
X109219999Y-88890964D03*
%TD*%
%TO.C,REF\u002A\u002A*%
X124426471Y-94021692D03*
%TD*%
%TO.C,REF\u002A\u002A*%
X101600000Y-68580000D03*
%TD*%
%TO.C,REF\u002A\u002A*%
X124460000Y-106680000D03*
%TD*%
%TO.C,REF\u002A\u002A*%
X132080000Y-81280000D03*
%TD*%
%TO.C,REF\u002A\u002A*%
X109228164Y-71187056D03*
%TD*%
%TO.C,REF\u002A\u002A*%
X111818021Y-66190442D03*
%TD*%
%TO.C,REF\u002A\u002A*%
X121920000Y-68580000D03*
%TD*%
%TO.C,REF\u002A\u002A*%
X124460000Y-86360000D03*
%TD*%
%TO.C,REF\u002A\u002A*%
X119362800Y-60959999D03*
%TD*%
%TO.C,REF\u002A\u002A*%
X106680000Y-76200000D03*
%TD*%
%TO.C,REF\u002A\u002A*%
X129540000Y-78740000D03*
%TD*%
%TO.C,REF\u002A\u002A*%
X116840000Y-83820000D03*
%TD*%
%TO.C,REF\u002A\u002A*%
X114299999Y-109210964D03*
%TD*%
%TO.C,REF\u002A\u002A*%
X104139999Y-71105812D03*
%TD*%
%TO.C,REF\u002A\u002A*%
X106688164Y-88900000D03*
%TD*%
D19*
%TO.C,C8*%
X94107000Y-98889600D03*
D20*
X94107000Y-96889600D03*
%TD*%
D12*
%TO.C,REF\u002A\u002A*%
X114300000Y-78740000D03*
%TD*%
%TO.C,REF\u002A\u002A*%
X119362800Y-50799999D03*
%TD*%
%TO.C,REF\u002A\u002A*%
X114266471Y-94021692D03*
%TD*%
%TO.C,REF\u002A\u002A*%
X111760000Y-93980000D03*
%TD*%
%TO.C,REF\u002A\u002A*%
X132080000Y-78740000D03*
%TD*%
%TO.C,REF\u002A\u002A*%
X101600000Y-109220000D03*
%TD*%
%TO.C,REF\u002A\u002A*%
X121978021Y-106830442D03*
%TD*%
%TO.C,REF\u002A\u002A*%
X109220000Y-106680000D03*
%TD*%
%TO.C,REF\u002A\u002A*%
X104106471Y-104181692D03*
%TD*%
%TO.C,REF\u002A\u002A*%
X126983671Y-73601978D03*
%TD*%
%TO.C,REF\u002A\u002A*%
X119388164Y-71187056D03*
%TD*%
%TO.C,REF\u002A\u002A*%
X129522800Y-101599999D03*
%TD*%
%TO.C,REF\u002A\u002A*%
X121920000Y-50800000D03*
%TD*%
%TO.C,REF\u002A\u002A*%
X111760000Y-99060000D03*
%TD*%
%TO.C,REF\u002A\u002A*%
X119362800Y-53314635D03*
%TD*%
%TO.C,REF\u002A\u002A*%
X109220000Y-78740000D03*
%TD*%
%TO.C,REF\u002A\u002A*%
X124460000Y-96520000D03*
%TD*%
%TO.C,REF\u002A\u002A*%
X109220000Y-73660000D03*
%TD*%
%TO.C,REF\u002A\u002A*%
X114300000Y-71120000D03*
%TD*%
D18*
%TO.C,J15*%
X125095000Y-57150000D03*
%TD*%
D12*
%TO.C,REF\u002A\u002A*%
X101600000Y-101600000D03*
%TD*%
%TO.C,REF\u002A\u002A*%
X121920000Y-86360000D03*
%TD*%
%TO.C,REF\u002A\u002A*%
X127000000Y-81280000D03*
%TD*%
%TO.C,REF\u002A\u002A*%
X121920000Y-78740000D03*
%TD*%
D15*
%TO.C,J12*%
X89413000Y-50673000D03*
D16*
X86873000Y-50673000D03*
%TD*%
D12*
%TO.C,REF\u002A\u002A*%
X121978021Y-96670442D03*
%TD*%
%TO.C,REF\u002A\u002A*%
X121920000Y-60960000D03*
%TD*%
%TO.C,REF\u002A\u002A*%
X99060000Y-68580000D03*
%TD*%
%TO.C,REF\u002A\u002A*%
X104130065Y-73626999D03*
%TD*%
%TO.C,REF\u002A\u002A*%
X111760000Y-53340000D03*
%TD*%
D18*
%TO.C,J6*%
X96520000Y-71755000D03*
%TD*%
D12*
%TO.C,REF\u002A\u002A*%
X109220000Y-68580000D03*
%TD*%
%TO.C,REF\u002A\u002A*%
X109202800Y-63474635D03*
%TD*%
%TO.C,REF\u002A\u002A*%
X99060000Y-55880000D03*
%TD*%
%TO.C,REF\u002A\u002A*%
X99060000Y-60960000D03*
%TD*%
%TO.C,REF\u002A\u002A*%
X111760000Y-55880000D03*
%TD*%
%TO.C,REF\u002A\u002A*%
X104139999Y-91439999D03*
%TD*%
%TO.C,REF\u002A\u002A*%
X109220000Y-58420000D03*
%TD*%
%TO.C,REF\u002A\u002A*%
X111760000Y-63500000D03*
%TD*%
%TO.C,REF\u002A\u002A*%
X116840000Y-109220000D03*
%TD*%
%TO.C,REF\u002A\u002A*%
X101600000Y-73660000D03*
%TD*%
%TO.C,REF\u002A\u002A*%
X119346471Y-83861692D03*
%TD*%
%TO.C,REF\u002A\u002A*%
X111760000Y-78740000D03*
%TD*%
%TO.C,REF\u002A\u002A*%
X132080000Y-91440000D03*
%TD*%
%TO.C,REF\u002A\u002A*%
X132080000Y-88900000D03*
%TD*%
%TO.C,REF\u002A\u002A*%
X129522800Y-91439999D03*
%TD*%
%TO.C,REF\u002A\u002A*%
X104139999Y-99050964D03*
%TD*%
%TO.C,REF\u002A\u002A*%
X104106471Y-94021692D03*
%TD*%
%TO.C,REF\u002A\u002A*%
X104198892Y-55871835D03*
%TD*%
%TO.C,REF\u002A\u002A*%
X106680000Y-50800000D03*
%TD*%
%TO.C,REF\u002A\u002A*%
X109220000Y-76200000D03*
%TD*%
D18*
%TO.C,J5*%
X98298000Y-94869000D03*
%TD*%
D12*
%TO.C,REF\u002A\u002A*%
X106680000Y-106680000D03*
%TD*%
%TO.C,REF\u002A\u002A*%
X127008164Y-101667056D03*
%TD*%
%TO.C,REF\u002A\u002A*%
X116839999Y-78730964D03*
%TD*%
%TO.C,REF\u002A\u002A*%
X106680000Y-66040000D03*
%TD*%
%TO.C,REF\u002A\u002A*%
X119380000Y-78740000D03*
%TD*%
%TO.C,REF\u002A\u002A*%
X114266471Y-63541692D03*
%TD*%
%TO.C,REF\u002A\u002A*%
X121920000Y-111769036D03*
%TD*%
%TO.C,REF\u002A\u002A*%
X121978021Y-56030442D03*
%TD*%
%TO.C,REF\u002A\u002A*%
X127000000Y-83820000D03*
%TD*%
%TO.C,REF\u002A\u002A*%
X114299999Y-68570964D03*
%TD*%
%TO.C,REF\u002A\u002A*%
X114299999Y-91439999D03*
%TD*%
%TO.C,REF\u002A\u002A*%
X121920000Y-93980000D03*
%TD*%
%TO.C,REF\u002A\u002A*%
X106680000Y-93980000D03*
%TD*%
%TO.C,REF\u002A\u002A*%
X104133262Y-81288164D03*
%TD*%
%TO.C,REF\u002A\u002A*%
X116840000Y-76200000D03*
%TD*%
%TO.C,REF\u002A\u002A*%
X109202800Y-93954635D03*
%TD*%
%TO.C,REF\u002A\u002A*%
X121920000Y-76200000D03*
%TD*%
%TO.C,REF\u002A\u002A*%
X101600000Y-111760000D03*
%TD*%
D18*
%TO.C,J8*%
X96520000Y-79375000D03*
%TD*%
D12*
%TO.C,REF\u002A\u002A*%
X121920000Y-48260000D03*
%TD*%
%TO.C,REF\u002A\u002A*%
X124459999Y-101599999D03*
%TD*%
%TO.C,REF\u002A\u002A*%
X116840000Y-55880000D03*
%TD*%
D18*
%TO.C,J3*%
X97790000Y-50800000D03*
%TD*%
D12*
%TO.C,REF\u002A\u002A*%
X124459999Y-109210964D03*
%TD*%
%TO.C,REF\u002A\u002A*%
X114300000Y-66040000D03*
%TD*%
%TO.C,REF\u002A\u002A*%
X132080000Y-73660000D03*
%TD*%
%TO.C,REF\u002A\u002A*%
X104139999Y-68570964D03*
%TD*%
%TO.C,REF\u002A\u002A*%
X129540000Y-73660000D03*
%TD*%
%TO.C,REF\u002A\u002A*%
X111760000Y-86360000D03*
%TD*%
%TO.C,REF\u002A\u002A*%
X114358021Y-76350442D03*
%TD*%
%TO.C,REF\u002A\u002A*%
X116840000Y-45720000D03*
%TD*%
%TO.C,REF\u002A\u002A*%
X104140000Y-106680000D03*
%TD*%
%TO.C,REF\u002A\u002A*%
X114299999Y-101599999D03*
%TD*%
%TO.C,REF\u002A\u002A*%
X116840000Y-81280000D03*
%TD*%
%TO.C,REF\u002A\u002A*%
X116840000Y-88900000D03*
%TD*%
D17*
%TO.C,R5*%
X74676000Y-109474000D03*
D14*
X72136000Y-109474000D03*
%TD*%
D12*
%TO.C,REF\u002A\u002A*%
X114299999Y-111760000D03*
%TD*%
%TO.C,REF\u002A\u002A*%
X119380000Y-66040000D03*
%TD*%
%TO.C,REF\u002A\u002A*%
X116848164Y-101667056D03*
%TD*%
%TO.C,REF\u002A\u002A*%
X129540000Y-99060000D03*
%TD*%
%TO.C,REF\u002A\u002A*%
X129531835Y-76183671D03*
%TD*%
%TO.C,REF\u002A\u002A*%
X119380000Y-111769036D03*
%TD*%
%TO.C,REF\u002A\u002A*%
X114299999Y-99050964D03*
%TD*%
%TO.C,REF\u002A\u002A*%
X116840000Y-104140000D03*
%TD*%
%TO.C,REF\u002A\u002A*%
X132138021Y-96670442D03*
%TD*%
%TO.C,REF\u002A\u002A*%
X132046471Y-70986756D03*
%TD*%
%TO.C,REF\u002A\u002A*%
X106688164Y-91507056D03*
%TD*%
%TO.C,REF\u002A\u002A*%
X111742800Y-73634635D03*
%TD*%
%TO.C,REF\u002A\u002A*%
X104106471Y-63541692D03*
%TD*%
%TO.C,REF\u002A\u002A*%
X101600000Y-99060000D03*
%TD*%
D18*
%TO.C,J7*%
X96520000Y-75565000D03*
%TD*%
D12*
%TO.C,REF\u002A\u002A*%
X121920000Y-63500000D03*
%TD*%
%TO.C,REF\u002A\u002A*%
X121920000Y-109220000D03*
%TD*%
D18*
%TO.C,J9*%
X96520000Y-64135000D03*
%TD*%
D12*
%TO.C,REF\u002A\u002A*%
X99060000Y-63500000D03*
%TD*%
%TO.C,REF\u002A\u002A*%
X129540000Y-88900000D03*
%TD*%
%TO.C,REF\u002A\u002A*%
X129540000Y-96520000D03*
%TD*%
%TO.C,REF\u002A\u002A*%
X104139999Y-109210964D03*
%TD*%
%TO.C,REF\u002A\u002A*%
X109220000Y-99060000D03*
%TD*%
%TO.C,REF\u002A\u002A*%
X121902800Y-73634635D03*
%TD*%
D17*
%TO.C,R7*%
X85090000Y-109474000D03*
D14*
X82550000Y-109474000D03*
%TD*%
D13*
%TO.C,C6*%
X102322621Y-46990000D03*
D17*
X104822621Y-46990000D03*
%TD*%
D12*
%TO.C,REF\u002A\u002A*%
X116840000Y-53340000D03*
%TD*%
%TO.C,REF\u002A\u002A*%
X119380000Y-99060000D03*
%TD*%
%TO.C,REF\u002A\u002A*%
X124459999Y-99050964D03*
%TD*%
%TO.C,REF\u002A\u002A*%
X109219999Y-81279999D03*
%TD*%
%TO.C,REF\u002A\u002A*%
X109220000Y-96520000D03*
%TD*%
%TO.C,REF\u002A\u002A*%
X111760000Y-104140000D03*
%TD*%
%TO.C,REF\u002A\u002A*%
X114300000Y-73660000D03*
%TD*%
%TO.C,REF\u002A\u002A*%
X121920000Y-45720000D03*
%TD*%
%TO.C,REF\u002A\u002A*%
X119380000Y-109220000D03*
%TD*%
D17*
%TO.C,C4*%
X94020000Y-83820000D03*
X99020000Y-83820000D03*
%TD*%
D12*
%TO.C,REF\u002A\u002A*%
X121920000Y-99060000D03*
%TD*%
D18*
%TO.C,J10*%
X96520000Y-67945000D03*
%TD*%
D12*
%TO.C,REF\u002A\u002A*%
X106688164Y-61027056D03*
%TD*%
D17*
%TO.C,R1*%
X92710000Y-87630000D03*
D14*
X102870000Y-87630000D03*
%TD*%
D12*
%TO.C,REF\u002A\u002A*%
X124460000Y-45720000D03*
%TD*%
%TO.C,REF\u002A\u002A*%
X104140000Y-66040000D03*
%TD*%
%TO.C,REF\u002A\u002A*%
X119380000Y-58420000D03*
%TD*%
%TO.C,REF\u002A\u002A*%
X132080000Y-86360000D03*
%TD*%
%TO.C,REF\u002A\u002A*%
X127000000Y-96520000D03*
%TD*%
D17*
%TO.C,R6*%
X79883000Y-109474000D03*
D14*
X77343000Y-109474000D03*
%TD*%
D12*
%TO.C,REF\u002A\u002A*%
X111760000Y-101600000D03*
%TD*%
%TO.C,REF\u002A\u002A*%
X99060000Y-58420000D03*
%TD*%
%TO.C,REF\u002A\u002A*%
X101600000Y-63500000D03*
%TD*%
%TO.C,REF\u002A\u002A*%
X114282800Y-81279999D03*
%TD*%
%TO.C,REF\u002A\u002A*%
X132080000Y-104140000D03*
%TD*%
%TO.C,REF\u002A\u002A*%
X114300000Y-106680000D03*
%TD*%
%TO.C,REF\u002A\u002A*%
X129540000Y-83820000D03*
%TD*%
D15*
%TO.C,J11*%
X98410000Y-107310000D03*
D16*
X98410000Y-109850000D03*
X95870000Y-107310000D03*
X95870000Y-109850000D03*
X93330000Y-107310000D03*
X93330000Y-109850000D03*
%TD*%
D12*
%TO.C,REF\u002A\u002A*%
X119362800Y-93954635D03*
%TD*%
%TO.C,REF\u002A\u002A*%
X121902800Y-71119999D03*
%TD*%
D17*
%TO.C,R2*%
X93980000Y-49530000D03*
D14*
X93980000Y-59690000D03*
%TD*%
D12*
%TO.C,REF\u002A\u002A*%
X119362800Y-63474635D03*
%TD*%
%TO.C,REF\u002A\u002A*%
X106680000Y-53340000D03*
%TD*%
%TO.C,REF\u002A\u002A*%
X104140000Y-58420000D03*
%TD*%
%TO.C,REF\u002A\u002A*%
X111818021Y-106830442D03*
%TD*%
D21*
%TO.C,REF\u002A\u002A*%
X129540000Y-45720000D03*
%TD*%
D12*
%TO.C,REF\u002A\u002A*%
X129464778Y-81279999D03*
%TD*%
%TO.C,REF\u002A\u002A*%
X119380000Y-86360000D03*
%TD*%
%TO.C,REF\u002A\u002A*%
X109186471Y-83861692D03*
%TD*%
%TO.C,REF\u002A\u002A*%
X124459999Y-91439999D03*
%TD*%
D17*
%TO.C,C5*%
X94020000Y-91440000D03*
X99020000Y-91440000D03*
%TD*%
D21*
%TO.C,REF\u002A\u002A*%
X129540000Y-109220000D03*
%TD*%
D12*
%TO.C,REF\u002A\u002A*%
X106680000Y-86360000D03*
%TD*%
%TO.C,REF\u002A\u002A*%
X106680000Y-81280000D03*
%TD*%
%TO.C,REF\u002A\u002A*%
X121920000Y-88900000D03*
%TD*%
%TO.C,REF\u002A\u002A*%
X109202800Y-60959999D03*
%TD*%
%TO.C,REF\u002A\u002A*%
X111760000Y-88900000D03*
%TD*%
%TO.C,REF\u002A\u002A*%
X101600000Y-96520000D03*
%TD*%
%TO.C,REF\u002A\u002A*%
X104130065Y-76209934D03*
%TD*%
%TO.C,REF\u002A\u002A*%
X106680000Y-63500000D03*
%TD*%
%TO.C,REF\u002A\u002A*%
X116839999Y-71119999D03*
%TD*%
%TO.C,REF\u002A\u002A*%
X114282800Y-83794635D03*
%TD*%
%TO.C,REF\u002A\u002A*%
X111742800Y-71119999D03*
%TD*%
%TO.C,REF\u002A\u002A*%
X111809857Y-58419999D03*
%TD*%
%TO.C,REF\u002A\u002A*%
X127000000Y-99060000D03*
%TD*%
%TO.C,REF\u002A\u002A*%
X104140000Y-96520000D03*
%TD*%
%TO.C,REF\u002A\u002A*%
X129522800Y-93954635D03*
%TD*%
%TO.C,REF\u002A\u002A*%
X124460000Y-88900000D03*
%TD*%
%TO.C,REF\u002A\u002A*%
X109202800Y-101599999D03*
%TD*%
%TO.C,REF\u002A\u002A*%
X124460000Y-48260000D03*
%TD*%
%TO.C,REF\u002A\u002A*%
X114300000Y-96520000D03*
%TD*%
%TO.C,REF\u002A\u002A*%
X116848164Y-50867056D03*
%TD*%
%TO.C,REF\u002A\u002A*%
X114300000Y-55880000D03*
%TD*%
%TO.C,REF\u002A\u002A*%
X109220000Y-86360000D03*
%TD*%
%TO.C,REF\u002A\u002A*%
X114299999Y-50799999D03*
%TD*%
D19*
%TO.C,C7*%
X68199000Y-47033401D03*
D20*
X68199000Y-49033401D03*
%TD*%
D12*
%TO.C,REF\u002A\u002A*%
X104139999Y-60959999D03*
%TD*%
%TO.C,REF\u002A\u002A*%
X119380000Y-76200000D03*
%TD*%
%TO.C,REF\u002A\u002A*%
X119380000Y-45720000D03*
%TD*%
D13*
%TO.C,D1*%
X66040000Y-43053000D03*
D14*
X73660000Y-43053000D03*
%TD*%
D22*
%TO.C,J18*%
X130360000Y-66862500D03*
D23*
X130360000Y-61862500D03*
X130360000Y-56862500D03*
X130360000Y-51862500D03*
%TD*%
D12*
%TO.C,REF\u002A\u002A*%
X116840000Y-111769036D03*
%TD*%
%TO.C,REF\u002A\u002A*%
X101600000Y-78740000D03*
%TD*%
%TO.C,REF\u002A\u002A*%
X121920000Y-53340000D03*
%TD*%
%TO.C,REF\u002A\u002A*%
X109220000Y-66040000D03*
%TD*%
%TO.C,REF\u002A\u002A*%
X127000000Y-104140000D03*
%TD*%
%TO.C,REF\u002A\u002A*%
X129540000Y-71120000D03*
%TD*%
%TO.C,REF\u002A\u002A*%
X101600000Y-58420000D03*
%TD*%
%TO.C,REF\u002A\u002A*%
X106680000Y-68580000D03*
%TD*%
%TO.C,REF\u002A\u002A*%
X124459999Y-111760000D03*
%TD*%
%TO.C,REF\u002A\u002A*%
X106679999Y-71119999D03*
%TD*%
%TO.C,REF\u002A\u002A*%
X121978021Y-66190442D03*
%TD*%
%TO.C,REF\u002A\u002A*%
X132080000Y-99060000D03*
%TD*%
%TO.C,REF\u002A\u002A*%
X121920000Y-101600000D03*
%TD*%
%TO.C,REF\u002A\u002A*%
X101600000Y-76200000D03*
%TD*%
%TO.C,REF\u002A\u002A*%
X106680000Y-104140000D03*
%TD*%
%TO.C,REF\u002A\u002A*%
X101547130Y-65942426D03*
%TD*%
%TO.C,REF\u002A\u002A*%
X116848164Y-91507056D03*
%TD*%
%TO.C,REF\u002A\u002A*%
X116840000Y-96520000D03*
%TD*%
%TO.C,REF\u002A\u002A*%
X104125098Y-83819999D03*
%TD*%
%TO.C,REF\u002A\u002A*%
X104139999Y-111760000D03*
%TD*%
%TO.C,REF\u002A\u002A*%
X109202800Y-104114635D03*
%TD*%
%TO.C,REF\u002A\u002A*%
X106814113Y-58386471D03*
%TD*%
%TO.C,REF\u002A\u002A*%
X106679999Y-78730964D03*
%TD*%
%TO.C,REF\u002A\u002A*%
X111760000Y-111769036D03*
%TD*%
%TO.C,REF\u002A\u002A*%
X111760000Y-83820000D03*
%TD*%
%TO.C,REF\u002A\u002A*%
X127008164Y-91507056D03*
%TD*%
%TO.C,REF\u002A\u002A*%
X121928164Y-81347056D03*
%TD*%
%TO.C,REF\u002A\u002A*%
X114300000Y-48260000D03*
%TD*%
%TO.C,REF\u002A\u002A*%
X106688164Y-101667056D03*
%TD*%
%TO.C,REF\u002A\u002A*%
X129531835Y-86342800D03*
%TD*%
%TO.C,REF\u002A\u002A*%
X101600000Y-104140000D03*
%TD*%
%TO.C,REF\u002A\u002A*%
X99060000Y-53340000D03*
%TD*%
%TO.C,REF\u002A\u002A*%
X116840000Y-93980000D03*
%TD*%
%TO.C,REF\u002A\u002A*%
X127000000Y-71120000D03*
%TD*%
%TO.C,REF\u002A\u002A*%
X119380000Y-55880000D03*
%TD*%
%TO.C,REF\u002A\u002A*%
X114299999Y-60959999D03*
%TD*%
%TO.C,REF\u002A\u002A*%
X116840000Y-66040000D03*
%TD*%
%TO.C,REF\u002A\u002A*%
X124442800Y-81279999D03*
%TD*%
%TO.C,REF\u002A\u002A*%
X132080000Y-93980000D03*
%TD*%
%TO.C,REF\u002A\u002A*%
X127000000Y-78740000D03*
%TD*%
%TO.C,REF\u002A\u002A*%
X119379999Y-88890964D03*
%TD*%
%TO.C,REF\u002A\u002A*%
X119380000Y-106680000D03*
%TD*%
%TO.C,REF\u002A\u002A*%
X127000000Y-76200000D03*
%TD*%
D18*
%TO.C,J14*%
X125095000Y-62230000D03*
%TD*%
D12*
%TO.C,REF\u002A\u002A*%
X114300000Y-45720000D03*
%TD*%
D18*
%TO.C,J17*%
X125095000Y-66675000D03*
%TD*%
D12*
%TO.C,REF\u002A\u002A*%
X111768164Y-81347056D03*
%TD*%
%TO.C,REF\u002A\u002A*%
X116806471Y-73701692D03*
%TD*%
%TO.C,REF\u002A\u002A*%
X119380000Y-73660000D03*
%TD*%
%TO.C,REF\u002A\u002A*%
X121920000Y-91440000D03*
%TD*%
%TO.C,REF\u002A\u002A*%
X111760000Y-109220000D03*
%TD*%
%TO.C,REF\u002A\u002A*%
X127000000Y-88900000D03*
%TD*%
%TO.C,REF\u002A\u002A*%
X116840000Y-99060000D03*
%TD*%
%TO.C,REF\u002A\u002A*%
X116840000Y-68580000D03*
%TD*%
%TO.C,REF\u002A\u002A*%
X124460000Y-78740000D03*
%TD*%
%TO.C,REF\u002A\u002A*%
X119362800Y-104114635D03*
%TD*%
%TO.C,REF\u002A\u002A*%
X119380000Y-48260000D03*
%TD*%
%TO.C,REF\u002A\u002A*%
X132180585Y-83794635D03*
%TD*%
%TO.C,REF\u002A\u002A*%
X111818021Y-96670442D03*
%TD*%
%TO.C,REF\u002A\u002A*%
X106680000Y-99060000D03*
%TD*%
D15*
%TO.C,J13*%
X62795000Y-43175000D03*
D16*
X62795000Y-45715000D03*
X62795000Y-48255000D03*
X62795000Y-50795000D03*
X62795000Y-53335000D03*
X62795000Y-55875000D03*
X62795000Y-58415000D03*
X62795000Y-60955000D03*
X62795000Y-63495000D03*
X62795000Y-66035000D03*
X62795000Y-68575000D03*
X62795000Y-71115000D03*
X62795000Y-73655000D03*
X62795000Y-76195000D03*
X62795000Y-78735000D03*
X62795000Y-81275000D03*
X62795000Y-83815000D03*
X62795000Y-86355000D03*
X62795000Y-88895000D03*
X62795000Y-91435000D03*
X62795000Y-93975000D03*
X62795000Y-96515000D03*
X62795000Y-99055000D03*
X62795000Y-101595000D03*
X62795000Y-104135000D03*
X62795000Y-106675000D03*
X62795000Y-109215000D03*
%TD*%
M02*
