%TF.GenerationSoftware,KiCad,Pcbnew,(6.0.0)*%
%TF.CreationDate,2022-03-13T21:04:06-04:00*%
%TF.ProjectId,panel meter v1,70616e65-6c20-46d6-9574-65722076312e,rev?*%
%TF.SameCoordinates,Original*%
%TF.FileFunction,Copper,L1,Top*%
%TF.FilePolarity,Positive*%
%FSLAX46Y46*%
G04 Gerber Fmt 4.6, Leading zero omitted, Abs format (unit mm)*
G04 Created by KiCad (PCBNEW (6.0.0)) date 2022-03-13 21:04:06*
%MOMM*%
%LPD*%
G01*
G04 APERTURE LIST*
G04 Aperture macros list*
%AMRoundRect*
0 Rectangle with rounded corners*
0 $1 Rounding radius*
0 $2 $3 $4 $5 $6 $7 $8 $9 X,Y pos of 4 corners*
0 Add a 4 corners polygon primitive as box body*
4,1,4,$2,$3,$4,$5,$6,$7,$8,$9,$2,$3,0*
0 Add four circle primitives for the rounded corners*
1,1,$1+$1,$2,$3*
1,1,$1+$1,$4,$5*
1,1,$1+$1,$6,$7*
1,1,$1+$1,$8,$9*
0 Add four rect primitives between the rounded corners*
20,1,$1+$1,$2,$3,$4,$5,0*
20,1,$1+$1,$4,$5,$6,$7,0*
20,1,$1+$1,$6,$7,$8,$9,0*
20,1,$1+$1,$8,$9,$2,$3,0*%
G04 Aperture macros list end*
%TA.AperFunction,ComponentPad*%
%ADD10C,1.700000*%
%TD*%
%TA.AperFunction,ComponentPad*%
%ADD11R,1.600000X1.600000*%
%TD*%
%TA.AperFunction,ComponentPad*%
%ADD12O,1.600000X1.600000*%
%TD*%
%TA.AperFunction,ComponentPad*%
%ADD13R,1.700000X1.700000*%
%TD*%
%TA.AperFunction,ComponentPad*%
%ADD14O,1.700000X1.700000*%
%TD*%
%TA.AperFunction,ComponentPad*%
%ADD15C,1.600000*%
%TD*%
%TA.AperFunction,ComponentPad*%
%ADD16C,2.000000*%
%TD*%
%TA.AperFunction,ComponentPad*%
%ADD17R,1.200000X1.200000*%
%TD*%
%TA.AperFunction,ComponentPad*%
%ADD18C,1.200000*%
%TD*%
%TA.AperFunction,ComponentPad*%
%ADD19R,1.800000X1.800000*%
%TD*%
%TA.AperFunction,ComponentPad*%
%ADD20C,1.800000*%
%TD*%
%TA.AperFunction,SMDPad,CuDef*%
%ADD21RoundRect,0.100000X-0.637500X-0.100000X0.637500X-0.100000X0.637500X0.100000X-0.637500X0.100000X0*%
%TD*%
%TA.AperFunction,ViaPad*%
%ADD22C,0.800000*%
%TD*%
%TA.AperFunction,Conductor*%
%ADD23C,1.000000*%
%TD*%
%TA.AperFunction,Conductor*%
%ADD24C,0.250000*%
%TD*%
G04 APERTURE END LIST*
D10*
%TO.P,REF\u002A\u002A,1*%
%TO.N,N/C*%
X114300000Y-88900000D03*
%TD*%
%TO.P,REF\u002A\u002A,1*%
%TO.N,N/C*%
X111760000Y-60960000D03*
%TD*%
%TO.P,REF\u002A\u002A,1*%
%TO.N,N/C*%
X127058021Y-86510442D03*
%TD*%
%TO.P,REF\u002A\u002A,1*%
%TO.N,N/C*%
X106680000Y-96520000D03*
%TD*%
%TO.P,REF\u002A\u002A,1*%
%TO.N,N/C*%
X109202800Y-91439999D03*
%TD*%
%TO.P,REF\u002A\u002A,1*%
%TO.N,N/C*%
X116840000Y-106680000D03*
%TD*%
%TO.P,REF\u002A\u002A,1*%
%TO.N,N/C*%
X114300000Y-86360000D03*
%TD*%
%TO.P,REF\u002A\u002A,1*%
%TO.N,N/C*%
X104140000Y-78740000D03*
%TD*%
%TO.P,REF\u002A\u002A,1*%
%TO.N,N/C*%
X106646471Y-73701692D03*
%TD*%
%TO.P,REF\u002A\u002A,1*%
%TO.N,N/C*%
X132080000Y-101600000D03*
%TD*%
%TO.P,REF\u002A\u002A,1*%
%TO.N,N/C*%
X106680000Y-111769036D03*
%TD*%
%TO.P,REF\u002A\u002A,1*%
%TO.N,N/C*%
X99060000Y-66040000D03*
%TD*%
%TO.P,REF\u002A\u002A,1*%
%TO.N,N/C*%
X132080000Y-76200000D03*
%TD*%
%TO.P,REF\u002A\u002A,1*%
%TO.N,N/C*%
X106680000Y-55880000D03*
%TD*%
%TO.P,REF\u002A\u002A,1*%
%TO.N,N/C*%
X124460000Y-73660000D03*
%TD*%
%TO.P,REF\u002A\u002A,1*%
%TO.N,N/C*%
X124442800Y-83794635D03*
%TD*%
D11*
%TO.P,U1,1,V+*%
%TO.N,+5V*%
X73655000Y-57155000D03*
D12*
%TO.P,U1,2,D1*%
%TO.N,/D1*%
X73655000Y-59695000D03*
%TO.P,U1,3,C1*%
%TO.N,/C1*%
X73655000Y-62235000D03*
%TO.P,U1,4,B1*%
%TO.N,/B1*%
X73655000Y-64775000D03*
%TO.P,U1,5,A1*%
%TO.N,/A1*%
X73655000Y-67315000D03*
%TO.P,U1,6,F1*%
%TO.N,/F1*%
X73655000Y-69855000D03*
%TO.P,U1,7,G1*%
%TO.N,/G1*%
X73655000Y-72395000D03*
%TO.P,U1,8,E1*%
%TO.N,/E1*%
X73655000Y-74935000D03*
%TO.P,U1,9,D2*%
%TO.N,/D2*%
X73655000Y-77475000D03*
%TO.P,U1,10,C2*%
%TO.N,/C2*%
X73655000Y-80015000D03*
%TO.P,U1,11,B2*%
%TO.N,/B2*%
X73655000Y-82555000D03*
%TO.P,U1,12,A2*%
%TO.N,/A2*%
X73655000Y-85095000D03*
%TO.P,U1,13,F2*%
%TO.N,/F2*%
X73655000Y-87635000D03*
%TO.P,U1,14,E2*%
%TO.N,/E2*%
X73655000Y-90175000D03*
%TO.P,U1,15,D3*%
%TO.N,/D3*%
X73655000Y-92715000D03*
%TO.P,U1,16,B3*%
%TO.N,/B3*%
X73655000Y-95255000D03*
%TO.P,U1,17,F3*%
%TO.N,/F3*%
X73655000Y-97795000D03*
%TO.P,U1,18,E3*%
%TO.N,/E3*%
X73655000Y-100335000D03*
%TO.P,U1,19,AB4*%
%TO.N,/BC4*%
X73655000Y-102875000D03*
%TO.P,U1,20,POL*%
%TO.N,/POL*%
X73655000Y-105415000D03*
%TO.P,U1,21,BP/GND*%
%TO.N,GND*%
X88895000Y-105415000D03*
%TO.P,U1,22,G3*%
%TO.N,/G3*%
X88895000Y-102875000D03*
%TO.P,U1,23,A3*%
%TO.N,/A3*%
X88895000Y-100335000D03*
%TO.P,U1,24,C3*%
%TO.N,/C3*%
X88895000Y-97795000D03*
%TO.P,U1,25,G2*%
%TO.N,/G2*%
X88895000Y-95255000D03*
%TO.P,U1,26,V-*%
%TO.N,/V-*%
X88895000Y-92715000D03*
%TO.P,U1,27,INT*%
%TO.N,Net-(C5-Pad1)*%
X88895000Y-90175000D03*
%TO.P,U1,28,BUFF*%
%TO.N,Net-(R1-Pad1)*%
X88895000Y-87635000D03*
%TO.P,U1,29,A-Z*%
%TO.N,Net-(C4-Pad1)*%
X88895000Y-85095000D03*
%TO.P,U1,30,IN_LO*%
%TO.N,Net-(U1-Pad30)*%
X88895000Y-82555000D03*
%TO.P,U1,31,IN_HI*%
%TO.N,Net-(U1-Pad31)*%
X88895000Y-80015000D03*
%TO.P,U1,32,COMMON*%
%TO.N,Net-(U1-Pad32)*%
X88895000Y-77475000D03*
%TO.P,U1,33,CREF-*%
%TO.N,Net-(C1-Pad2)*%
X88895000Y-74935000D03*
%TO.P,U1,34,CREF+*%
%TO.N,Net-(C1-Pad1)*%
X88895000Y-72395000D03*
%TO.P,U1,35,REF_LO*%
%TO.N,Net-(U1-Pad35)*%
X88895000Y-69855000D03*
%TO.P,U1,36,REF_HI*%
%TO.N,Net-(U1-Pad36)*%
X88895000Y-67315000D03*
%TO.P,U1,37,TEST*%
%TO.N,Net-(U1-Pad37)*%
X88895000Y-64775000D03*
%TO.P,U1,38,OSC3*%
%TO.N,Net-(C3-Pad2)*%
X88895000Y-62235000D03*
%TO.P,U1,39,OSC2*%
%TO.N,Net-(R2-Pad2)*%
X88895000Y-59695000D03*
%TO.P,U1,40,OSC1*%
%TO.N,Net-(C3-Pad1)*%
X88895000Y-57155000D03*
%TD*%
D10*
%TO.P,REF\u002A\u002A,1*%
%TO.N,N/C*%
X116848164Y-61027056D03*
%TD*%
%TO.P,REF\u002A\u002A,1*%
%TO.N,N/C*%
X116840000Y-58420000D03*
%TD*%
%TO.P,REF\u002A\u002A,1*%
%TO.N,N/C*%
X119380000Y-96520000D03*
%TD*%
%TO.P,REF\u002A\u002A,1*%
%TO.N,N/C*%
X106680000Y-109220000D03*
%TD*%
%TO.P,REF\u002A\u002A,1*%
%TO.N,N/C*%
X114299999Y-58410964D03*
%TD*%
%TO.P,REF\u002A\u002A,1*%
%TO.N,N/C*%
X104140000Y-53340000D03*
%TD*%
D11*
%TO.P,D2,1,K*%
%TO.N,Net-(D1-Pad2)*%
X73660000Y-45974000D03*
D12*
%TO.P,D2,2,A*%
%TO.N,+5V*%
X73660000Y-53594000D03*
%TD*%
D10*
%TO.P,REF\u002A\u002A,1*%
%TO.N,N/C*%
X109220000Y-55880000D03*
%TD*%
D13*
%TO.P,J1,1,Pin_1*%
%TO.N,+5V*%
X95235000Y-46380000D03*
D14*
%TO.P,J1,2,Pin_2*%
%TO.N,/Input*%
X92695000Y-46380000D03*
%TO.P,J1,3,Pin_3*%
%TO.N,unconnected-(J1-Pad3)*%
X90155000Y-46380000D03*
%TD*%
D10*
%TO.P,REF\u002A\u002A,1*%
%TO.N,N/C*%
X121920000Y-83820000D03*
%TD*%
%TO.P,REF\u002A\u002A,1*%
%TO.N,N/C*%
X109220000Y-53340000D03*
%TD*%
%TO.P,REF\u002A\u002A,1*%
%TO.N,N/C*%
X127000000Y-93980000D03*
%TD*%
%TO.P,REF\u002A\u002A,1*%
%TO.N,N/C*%
X111760000Y-91440000D03*
%TD*%
%TO.P,REF\u002A\u002A,1*%
%TO.N,N/C*%
X101600000Y-55880000D03*
%TD*%
%TO.P,REF\u002A\u002A,1*%
%TO.N,N/C*%
X121920000Y-104140000D03*
%TD*%
%TO.P,REF\u002A\u002A,1*%
%TO.N,N/C*%
X99060000Y-76200000D03*
%TD*%
%TO.P,REF\u002A\u002A,1*%
%TO.N,N/C*%
X106673262Y-83819999D03*
%TD*%
%TO.P,REF\u002A\u002A,1*%
%TO.N,N/C*%
X111760000Y-76200000D03*
%TD*%
%TO.P,REF\u002A\u002A,1*%
%TO.N,N/C*%
X109220000Y-109220000D03*
%TD*%
%TO.P,REF\u002A\u002A,1*%
%TO.N,N/C*%
X114266471Y-53381692D03*
%TD*%
%TO.P,REF\u002A\u002A,1*%
%TO.N,N/C*%
X124460000Y-71120000D03*
%TD*%
%TO.P,REF\u002A\u002A,1*%
%TO.N,N/C*%
X129522800Y-104114635D03*
%TD*%
D15*
%TO.P,C1,1*%
%TO.N,Net-(C1-Pad1)*%
X91440000Y-72410000D03*
%TO.P,C1,2*%
%TO.N,Net-(C1-Pad2)*%
X91440000Y-74910000D03*
%TD*%
D10*
%TO.P,REF\u002A\u002A,1*%
%TO.N,N/C*%
X121920000Y-58420000D03*
%TD*%
%TO.P,REF\u002A\u002A,1*%
%TO.N,N/C*%
X119362800Y-91439999D03*
%TD*%
%TO.P,REF\u002A\u002A,1*%
%TO.N,N/C*%
X109220000Y-111769036D03*
%TD*%
%TO.P,REF\u002A\u002A,1*%
%TO.N,N/C*%
X111760000Y-68580000D03*
%TD*%
%TO.P,REF\u002A\u002A,1*%
%TO.N,N/C*%
X119380000Y-68580000D03*
%TD*%
%TO.P,REF\u002A\u002A,1*%
%TO.N,N/C*%
X114266471Y-104181692D03*
%TD*%
%TO.P,REF\u002A\u002A,1*%
%TO.N,N/C*%
X116898021Y-86510442D03*
%TD*%
%TO.P,REF\u002A\u002A,1*%
%TO.N,N/C*%
X101600000Y-71120000D03*
%TD*%
%TO.P,REF\u002A\u002A,1*%
%TO.N,N/C*%
X119379999Y-81279999D03*
%TD*%
D16*
%TO.P,J16,1,Pin_1*%
%TO.N,Net-(J16-Pad1)*%
X125095000Y-52070000D03*
%TD*%
D10*
%TO.P,REF\u002A\u002A,1*%
%TO.N,N/C*%
X101600000Y-53340000D03*
%TD*%
D16*
%TO.P,J4,1,Pin_1*%
%TO.N,GND*%
X111125000Y-48895000D03*
%TD*%
D13*
%TO.P,J2,1,Pin_1*%
%TO.N,/Input*%
X109220000Y-43815000D03*
D14*
%TO.P,J2,2,Pin_2*%
%TO.N,GND*%
X111760000Y-43815000D03*
%TD*%
D10*
%TO.P,REF\u002A\u002A,1*%
%TO.N,N/C*%
X124426471Y-104181692D03*
%TD*%
%TO.P,REF\u002A\u002A,1*%
%TO.N,N/C*%
X124518021Y-76350442D03*
%TD*%
%TO.P,REF\u002A\u002A,1*%
%TO.N,N/C*%
X119362800Y-101599999D03*
%TD*%
%TO.P,REF\u002A\u002A,1*%
%TO.N,N/C*%
X116840000Y-63500000D03*
%TD*%
%TO.P,REF\u002A\u002A,1*%
%TO.N,N/C*%
X101600000Y-106680000D03*
%TD*%
%TO.P,REF\u002A\u002A,1*%
%TO.N,N/C*%
X104139999Y-101599999D03*
%TD*%
%TO.P,REF\u002A\u002A,1*%
%TO.N,N/C*%
X116840000Y-48260000D03*
%TD*%
%TO.P,REF\u002A\u002A,1*%
%TO.N,N/C*%
X101591835Y-60957859D03*
%TD*%
D15*
%TO.P,C3,1*%
%TO.N,Net-(C3-Pad1)*%
X86467000Y-54229000D03*
%TO.P,C3,2*%
%TO.N,Net-(C3-Pad2)*%
X83967000Y-54229000D03*
%TD*%
D10*
%TO.P,REF\u002A\u002A,1*%
%TO.N,N/C*%
X109219999Y-88890964D03*
%TD*%
%TO.P,REF\u002A\u002A,1*%
%TO.N,N/C*%
X124426471Y-94021692D03*
%TD*%
%TO.P,REF\u002A\u002A,1*%
%TO.N,N/C*%
X101600000Y-68580000D03*
%TD*%
%TO.P,REF\u002A\u002A,1*%
%TO.N,N/C*%
X124460000Y-106680000D03*
%TD*%
%TO.P,REF\u002A\u002A,1*%
%TO.N,N/C*%
X132080000Y-81280000D03*
%TD*%
%TO.P,REF\u002A\u002A,1*%
%TO.N,N/C*%
X109228164Y-71187056D03*
%TD*%
%TO.P,REF\u002A\u002A,1*%
%TO.N,N/C*%
X111818021Y-66190442D03*
%TD*%
%TO.P,REF\u002A\u002A,1*%
%TO.N,N/C*%
X121920000Y-68580000D03*
%TD*%
%TO.P,REF\u002A\u002A,1*%
%TO.N,N/C*%
X124460000Y-86360000D03*
%TD*%
%TO.P,REF\u002A\u002A,1*%
%TO.N,N/C*%
X119362800Y-60959999D03*
%TD*%
%TO.P,REF\u002A\u002A,1*%
%TO.N,N/C*%
X106680000Y-76200000D03*
%TD*%
%TO.P,REF\u002A\u002A,1*%
%TO.N,N/C*%
X129540000Y-78740000D03*
%TD*%
%TO.P,REF\u002A\u002A,1*%
%TO.N,N/C*%
X116840000Y-83820000D03*
%TD*%
%TO.P,REF\u002A\u002A,1*%
%TO.N,N/C*%
X114299999Y-109210964D03*
%TD*%
%TO.P,REF\u002A\u002A,1*%
%TO.N,N/C*%
X104139999Y-71105812D03*
%TD*%
%TO.P,REF\u002A\u002A,1*%
%TO.N,N/C*%
X106688164Y-88900000D03*
%TD*%
D17*
%TO.P,C8,1*%
%TO.N,GND*%
X94107000Y-98889600D03*
D18*
%TO.P,C8,2*%
%TO.N,/V-*%
X94107000Y-96889600D03*
%TD*%
D10*
%TO.P,REF\u002A\u002A,1*%
%TO.N,N/C*%
X114300000Y-78740000D03*
%TD*%
%TO.P,REF\u002A\u002A,1*%
%TO.N,N/C*%
X119362800Y-50799999D03*
%TD*%
%TO.P,REF\u002A\u002A,1*%
%TO.N,N/C*%
X114266471Y-94021692D03*
%TD*%
%TO.P,REF\u002A\u002A,1*%
%TO.N,N/C*%
X111760000Y-93980000D03*
%TD*%
%TO.P,REF\u002A\u002A,1*%
%TO.N,N/C*%
X132080000Y-78740000D03*
%TD*%
%TO.P,REF\u002A\u002A,1*%
%TO.N,N/C*%
X101600000Y-109220000D03*
%TD*%
%TO.P,REF\u002A\u002A,1*%
%TO.N,N/C*%
X121978021Y-106830442D03*
%TD*%
%TO.P,REF\u002A\u002A,1*%
%TO.N,N/C*%
X109220000Y-106680000D03*
%TD*%
%TO.P,REF\u002A\u002A,1*%
%TO.N,N/C*%
X104106471Y-104181692D03*
%TD*%
%TO.P,REF\u002A\u002A,1*%
%TO.N,N/C*%
X126983671Y-73601978D03*
%TD*%
%TO.P,REF\u002A\u002A,1*%
%TO.N,N/C*%
X119388164Y-71187056D03*
%TD*%
%TO.P,REF\u002A\u002A,1*%
%TO.N,N/C*%
X129522800Y-101599999D03*
%TD*%
%TO.P,REF\u002A\u002A,1*%
%TO.N,N/C*%
X121920000Y-50800000D03*
%TD*%
%TO.P,REF\u002A\u002A,1*%
%TO.N,N/C*%
X111760000Y-99060000D03*
%TD*%
%TO.P,REF\u002A\u002A,1*%
%TO.N,N/C*%
X119362800Y-53314635D03*
%TD*%
%TO.P,REF\u002A\u002A,1*%
%TO.N,N/C*%
X109220000Y-78740000D03*
%TD*%
%TO.P,REF\u002A\u002A,1*%
%TO.N,N/C*%
X124460000Y-96520000D03*
%TD*%
%TO.P,REF\u002A\u002A,1*%
%TO.N,N/C*%
X109220000Y-73660000D03*
%TD*%
%TO.P,REF\u002A\u002A,1*%
%TO.N,N/C*%
X114300000Y-71120000D03*
%TD*%
D16*
%TO.P,J15,1,Pin_1*%
%TO.N,Net-(J15-Pad1)*%
X125095000Y-57150000D03*
%TD*%
D10*
%TO.P,REF\u002A\u002A,1*%
%TO.N,N/C*%
X101600000Y-101600000D03*
%TD*%
%TO.P,REF\u002A\u002A,1*%
%TO.N,N/C*%
X121920000Y-86360000D03*
%TD*%
%TO.P,REF\u002A\u002A,1*%
%TO.N,N/C*%
X127000000Y-81280000D03*
%TD*%
%TO.P,REF\u002A\u002A,1*%
%TO.N,N/C*%
X121920000Y-78740000D03*
%TD*%
D13*
%TO.P,J12,1,Pin_1*%
%TO.N,+5V*%
X89413000Y-50673000D03*
D14*
%TO.P,J12,2,Pin_2*%
%TO.N,Net-(U1-Pad37)*%
X86873000Y-50673000D03*
%TD*%
D10*
%TO.P,REF\u002A\u002A,1*%
%TO.N,N/C*%
X121978021Y-96670442D03*
%TD*%
%TO.P,REF\u002A\u002A,1*%
%TO.N,N/C*%
X121920000Y-60960000D03*
%TD*%
%TO.P,REF\u002A\u002A,1*%
%TO.N,N/C*%
X99060000Y-68580000D03*
%TD*%
%TO.P,REF\u002A\u002A,1*%
%TO.N,N/C*%
X104130065Y-73626999D03*
%TD*%
%TO.P,REF\u002A\u002A,1*%
%TO.N,N/C*%
X111760000Y-53340000D03*
%TD*%
D16*
%TO.P,J6,1,Pin_1*%
%TO.N,Net-(U1-Pad32)*%
X96520000Y-71755000D03*
%TD*%
D10*
%TO.P,REF\u002A\u002A,1*%
%TO.N,N/C*%
X109220000Y-68580000D03*
%TD*%
%TO.P,REF\u002A\u002A,1*%
%TO.N,N/C*%
X109202800Y-63474635D03*
%TD*%
%TO.P,REF\u002A\u002A,1*%
%TO.N,N/C*%
X99060000Y-55880000D03*
%TD*%
%TO.P,REF\u002A\u002A,1*%
%TO.N,N/C*%
X99060000Y-60960000D03*
%TD*%
%TO.P,REF\u002A\u002A,1*%
%TO.N,N/C*%
X111760000Y-55880000D03*
%TD*%
%TO.P,REF\u002A\u002A,1*%
%TO.N,N/C*%
X104139999Y-91439999D03*
%TD*%
%TO.P,REF\u002A\u002A,1*%
%TO.N,N/C*%
X109220000Y-58420000D03*
%TD*%
%TO.P,REF\u002A\u002A,1*%
%TO.N,N/C*%
X111760000Y-63500000D03*
%TD*%
%TO.P,REF\u002A\u002A,1*%
%TO.N,N/C*%
X116840000Y-109220000D03*
%TD*%
%TO.P,REF\u002A\u002A,1*%
%TO.N,N/C*%
X101600000Y-73660000D03*
%TD*%
%TO.P,REF\u002A\u002A,1*%
%TO.N,N/C*%
X119346471Y-83861692D03*
%TD*%
%TO.P,REF\u002A\u002A,1*%
%TO.N,N/C*%
X111760000Y-78740000D03*
%TD*%
%TO.P,REF\u002A\u002A,1*%
%TO.N,N/C*%
X132080000Y-91440000D03*
%TD*%
%TO.P,REF\u002A\u002A,1*%
%TO.N,N/C*%
X132080000Y-88900000D03*
%TD*%
%TO.P,REF\u002A\u002A,1*%
%TO.N,N/C*%
X129522800Y-91439999D03*
%TD*%
%TO.P,REF\u002A\u002A,1*%
%TO.N,N/C*%
X104139999Y-99050964D03*
%TD*%
%TO.P,REF\u002A\u002A,1*%
%TO.N,N/C*%
X104106471Y-94021692D03*
%TD*%
%TO.P,REF\u002A\u002A,1*%
%TO.N,N/C*%
X104198892Y-55871835D03*
%TD*%
%TO.P,REF\u002A\u002A,1*%
%TO.N,N/C*%
X106680000Y-50800000D03*
%TD*%
%TO.P,REF\u002A\u002A,1*%
%TO.N,N/C*%
X109220000Y-76200000D03*
%TD*%
D16*
%TO.P,J5,1,Pin_1*%
%TO.N,/V-*%
X98298000Y-94869000D03*
%TD*%
D10*
%TO.P,REF\u002A\u002A,1*%
%TO.N,N/C*%
X106680000Y-106680000D03*
%TD*%
%TO.P,REF\u002A\u002A,1*%
%TO.N,N/C*%
X127008164Y-101667056D03*
%TD*%
%TO.P,REF\u002A\u002A,1*%
%TO.N,N/C*%
X116839999Y-78730964D03*
%TD*%
%TO.P,REF\u002A\u002A,1*%
%TO.N,N/C*%
X106680000Y-66040000D03*
%TD*%
%TO.P,REF\u002A\u002A,1*%
%TO.N,N/C*%
X119380000Y-78740000D03*
%TD*%
%TO.P,REF\u002A\u002A,1*%
%TO.N,N/C*%
X114266471Y-63541692D03*
%TD*%
%TO.P,REF\u002A\u002A,1*%
%TO.N,N/C*%
X121920000Y-111769036D03*
%TD*%
%TO.P,REF\u002A\u002A,1*%
%TO.N,N/C*%
X121978021Y-56030442D03*
%TD*%
%TO.P,REF\u002A\u002A,1*%
%TO.N,N/C*%
X127000000Y-83820000D03*
%TD*%
%TO.P,REF\u002A\u002A,1*%
%TO.N,N/C*%
X114299999Y-68570964D03*
%TD*%
%TO.P,REF\u002A\u002A,1*%
%TO.N,N/C*%
X114299999Y-91439999D03*
%TD*%
%TO.P,REF\u002A\u002A,1*%
%TO.N,N/C*%
X121920000Y-93980000D03*
%TD*%
%TO.P,REF\u002A\u002A,1*%
%TO.N,N/C*%
X106680000Y-93980000D03*
%TD*%
%TO.P,REF\u002A\u002A,1*%
%TO.N,N/C*%
X104133262Y-81288164D03*
%TD*%
%TO.P,REF\u002A\u002A,1*%
%TO.N,N/C*%
X116840000Y-76200000D03*
%TD*%
%TO.P,REF\u002A\u002A,1*%
%TO.N,N/C*%
X109202800Y-93954635D03*
%TD*%
%TO.P,REF\u002A\u002A,1*%
%TO.N,N/C*%
X121920000Y-76200000D03*
%TD*%
%TO.P,REF\u002A\u002A,1*%
%TO.N,N/C*%
X101600000Y-111760000D03*
%TD*%
D16*
%TO.P,J8,1,Pin_1*%
%TO.N,Net-(U1-Pad30)*%
X96520000Y-79375000D03*
%TD*%
D10*
%TO.P,REF\u002A\u002A,1*%
%TO.N,N/C*%
X121920000Y-48260000D03*
%TD*%
%TO.P,REF\u002A\u002A,1*%
%TO.N,N/C*%
X124459999Y-101599999D03*
%TD*%
%TO.P,REF\u002A\u002A,1*%
%TO.N,N/C*%
X116840000Y-55880000D03*
%TD*%
D16*
%TO.P,J3,1,Pin_1*%
%TO.N,+5V*%
X97790000Y-50800000D03*
%TD*%
D10*
%TO.P,REF\u002A\u002A,1*%
%TO.N,N/C*%
X124459999Y-109210964D03*
%TD*%
%TO.P,REF\u002A\u002A,1*%
%TO.N,N/C*%
X114300000Y-66040000D03*
%TD*%
%TO.P,REF\u002A\u002A,1*%
%TO.N,N/C*%
X132080000Y-73660000D03*
%TD*%
%TO.P,REF\u002A\u002A,1*%
%TO.N,N/C*%
X104139999Y-68570964D03*
%TD*%
%TO.P,REF\u002A\u002A,1*%
%TO.N,N/C*%
X129540000Y-73660000D03*
%TD*%
%TO.P,REF\u002A\u002A,1*%
%TO.N,N/C*%
X111760000Y-86360000D03*
%TD*%
%TO.P,REF\u002A\u002A,1*%
%TO.N,N/C*%
X114358021Y-76350442D03*
%TD*%
%TO.P,REF\u002A\u002A,1*%
%TO.N,N/C*%
X116840000Y-45720000D03*
%TD*%
%TO.P,REF\u002A\u002A,1*%
%TO.N,N/C*%
X104140000Y-106680000D03*
%TD*%
%TO.P,REF\u002A\u002A,1*%
%TO.N,N/C*%
X114299999Y-101599999D03*
%TD*%
%TO.P,REF\u002A\u002A,1*%
%TO.N,N/C*%
X116840000Y-81280000D03*
%TD*%
%TO.P,REF\u002A\u002A,1*%
%TO.N,N/C*%
X116840000Y-88900000D03*
%TD*%
D15*
%TO.P,R5,1*%
%TO.N,Net-(R5-Pad1)*%
X74676000Y-109474000D03*
D12*
%TO.P,R5,2*%
%TO.N,/DP4*%
X72136000Y-109474000D03*
%TD*%
D10*
%TO.P,REF\u002A\u002A,1*%
%TO.N,N/C*%
X114299999Y-111760000D03*
%TD*%
%TO.P,REF\u002A\u002A,1*%
%TO.N,N/C*%
X119380000Y-66040000D03*
%TD*%
%TO.P,REF\u002A\u002A,1*%
%TO.N,N/C*%
X116848164Y-101667056D03*
%TD*%
%TO.P,REF\u002A\u002A,1*%
%TO.N,N/C*%
X129540000Y-99060000D03*
%TD*%
%TO.P,REF\u002A\u002A,1*%
%TO.N,N/C*%
X129531835Y-76183671D03*
%TD*%
%TO.P,REF\u002A\u002A,1*%
%TO.N,N/C*%
X119380000Y-111769036D03*
%TD*%
%TO.P,REF\u002A\u002A,1*%
%TO.N,N/C*%
X114299999Y-99050964D03*
%TD*%
%TO.P,REF\u002A\u002A,1*%
%TO.N,N/C*%
X116840000Y-104140000D03*
%TD*%
%TO.P,REF\u002A\u002A,1*%
%TO.N,N/C*%
X132138021Y-96670442D03*
%TD*%
%TO.P,REF\u002A\u002A,1*%
%TO.N,N/C*%
X132046471Y-70986756D03*
%TD*%
%TO.P,REF\u002A\u002A,1*%
%TO.N,N/C*%
X106688164Y-91507056D03*
%TD*%
%TO.P,REF\u002A\u002A,1*%
%TO.N,N/C*%
X111742800Y-73634635D03*
%TD*%
%TO.P,REF\u002A\u002A,1*%
%TO.N,N/C*%
X104106471Y-63541692D03*
%TD*%
%TO.P,REF\u002A\u002A,1*%
%TO.N,N/C*%
X101600000Y-99060000D03*
%TD*%
D16*
%TO.P,J7,1,Pin_1*%
%TO.N,Net-(U1-Pad31)*%
X96520000Y-75565000D03*
%TD*%
D10*
%TO.P,REF\u002A\u002A,1*%
%TO.N,N/C*%
X121920000Y-63500000D03*
%TD*%
%TO.P,REF\u002A\u002A,1*%
%TO.N,N/C*%
X121920000Y-109220000D03*
%TD*%
D16*
%TO.P,J9,1,Pin_1*%
%TO.N,Net-(U1-Pad36)*%
X96520000Y-64135000D03*
%TD*%
D10*
%TO.P,REF\u002A\u002A,1*%
%TO.N,N/C*%
X99060000Y-63500000D03*
%TD*%
%TO.P,REF\u002A\u002A,1*%
%TO.N,N/C*%
X129540000Y-88900000D03*
%TD*%
%TO.P,REF\u002A\u002A,1*%
%TO.N,N/C*%
X129540000Y-96520000D03*
%TD*%
%TO.P,REF\u002A\u002A,1*%
%TO.N,N/C*%
X104139999Y-109210964D03*
%TD*%
%TO.P,REF\u002A\u002A,1*%
%TO.N,N/C*%
X109220000Y-99060000D03*
%TD*%
%TO.P,REF\u002A\u002A,1*%
%TO.N,N/C*%
X121902800Y-73634635D03*
%TD*%
D15*
%TO.P,R7,1*%
%TO.N,Net-(R7-Pad1)*%
X85090000Y-109474000D03*
D12*
%TO.P,R7,2*%
%TO.N,/DP2*%
X82550000Y-109474000D03*
%TD*%
D11*
%TO.P,C6,1*%
%TO.N,+5V*%
X102322621Y-46990000D03*
D15*
%TO.P,C6,2*%
%TO.N,GND*%
X104822621Y-46990000D03*
%TD*%
D10*
%TO.P,REF\u002A\u002A,1*%
%TO.N,N/C*%
X116840000Y-53340000D03*
%TD*%
%TO.P,REF\u002A\u002A,1*%
%TO.N,N/C*%
X119380000Y-99060000D03*
%TD*%
%TO.P,REF\u002A\u002A,1*%
%TO.N,N/C*%
X124459999Y-99050964D03*
%TD*%
%TO.P,REF\u002A\u002A,1*%
%TO.N,N/C*%
X109219999Y-81279999D03*
%TD*%
%TO.P,REF\u002A\u002A,1*%
%TO.N,N/C*%
X109220000Y-96520000D03*
%TD*%
%TO.P,REF\u002A\u002A,1*%
%TO.N,N/C*%
X111760000Y-104140000D03*
%TD*%
%TO.P,REF\u002A\u002A,1*%
%TO.N,N/C*%
X114300000Y-73660000D03*
%TD*%
%TO.P,REF\u002A\u002A,1*%
%TO.N,N/C*%
X121920000Y-45720000D03*
%TD*%
%TO.P,REF\u002A\u002A,1*%
%TO.N,N/C*%
X119380000Y-109220000D03*
%TD*%
D15*
%TO.P,C4,1*%
%TO.N,Net-(C4-Pad1)*%
X94020000Y-83820000D03*
%TO.P,C4,2*%
%TO.N,Net-(C4-Pad2)*%
X99020000Y-83820000D03*
%TD*%
D10*
%TO.P,REF\u002A\u002A,1*%
%TO.N,N/C*%
X121920000Y-99060000D03*
%TD*%
D16*
%TO.P,J10,1,Pin_1*%
%TO.N,Net-(U1-Pad35)*%
X96520000Y-67945000D03*
%TD*%
D10*
%TO.P,REF\u002A\u002A,1*%
%TO.N,N/C*%
X106688164Y-61027056D03*
%TD*%
D15*
%TO.P,R1,1*%
%TO.N,Net-(R1-Pad1)*%
X92710000Y-87630000D03*
D12*
%TO.P,R1,2*%
%TO.N,Net-(C4-Pad2)*%
X102870000Y-87630000D03*
%TD*%
D10*
%TO.P,REF\u002A\u002A,1*%
%TO.N,N/C*%
X124460000Y-45720000D03*
%TD*%
%TO.P,REF\u002A\u002A,1*%
%TO.N,N/C*%
X104140000Y-66040000D03*
%TD*%
%TO.P,REF\u002A\u002A,1*%
%TO.N,N/C*%
X119380000Y-58420000D03*
%TD*%
%TO.P,REF\u002A\u002A,1*%
%TO.N,N/C*%
X132080000Y-86360000D03*
%TD*%
%TO.P,REF\u002A\u002A,1*%
%TO.N,N/C*%
X127000000Y-96520000D03*
%TD*%
D15*
%TO.P,R6,1*%
%TO.N,Net-(R6-Pad1)*%
X79883000Y-109474000D03*
D12*
%TO.P,R6,2*%
%TO.N,/DP3*%
X77343000Y-109474000D03*
%TD*%
D10*
%TO.P,REF\u002A\u002A,1*%
%TO.N,N/C*%
X111760000Y-101600000D03*
%TD*%
%TO.P,REF\u002A\u002A,1*%
%TO.N,N/C*%
X99060000Y-58420000D03*
%TD*%
%TO.P,REF\u002A\u002A,1*%
%TO.N,N/C*%
X101600000Y-63500000D03*
%TD*%
%TO.P,REF\u002A\u002A,1*%
%TO.N,N/C*%
X114282800Y-81279999D03*
%TD*%
%TO.P,REF\u002A\u002A,1*%
%TO.N,N/C*%
X132080000Y-104140000D03*
%TD*%
%TO.P,REF\u002A\u002A,1*%
%TO.N,N/C*%
X114300000Y-106680000D03*
%TD*%
%TO.P,REF\u002A\u002A,1*%
%TO.N,N/C*%
X129540000Y-83820000D03*
%TD*%
D13*
%TO.P,J11,1,Pin_1*%
%TO.N,GND*%
X98410000Y-107310000D03*
D14*
%TO.P,J11,2,Pin_2*%
%TO.N,Net-(R7-Pad1)*%
X98410000Y-109850000D03*
%TO.P,J11,3,Pin_3*%
%TO.N,GND*%
X95870000Y-107310000D03*
%TO.P,J11,4,Pin_4*%
%TO.N,Net-(R6-Pad1)*%
X95870000Y-109850000D03*
%TO.P,J11,5,Pin_5*%
%TO.N,GND*%
X93330000Y-107310000D03*
%TO.P,J11,6,Pin_6*%
%TO.N,Net-(R5-Pad1)*%
X93330000Y-109850000D03*
%TD*%
D10*
%TO.P,REF\u002A\u002A,1*%
%TO.N,N/C*%
X119362800Y-93954635D03*
%TD*%
%TO.P,REF\u002A\u002A,1*%
%TO.N,N/C*%
X121902800Y-71119999D03*
%TD*%
D15*
%TO.P,R2,1*%
%TO.N,Net-(C3-Pad1)*%
X93980000Y-49530000D03*
D12*
%TO.P,R2,2*%
%TO.N,Net-(R2-Pad2)*%
X93980000Y-59690000D03*
%TD*%
D10*
%TO.P,REF\u002A\u002A,1*%
%TO.N,N/C*%
X119362800Y-63474635D03*
%TD*%
%TO.P,REF\u002A\u002A,1*%
%TO.N,N/C*%
X106680000Y-53340000D03*
%TD*%
%TO.P,REF\u002A\u002A,1*%
%TO.N,N/C*%
X104140000Y-58420000D03*
%TD*%
%TO.P,REF\u002A\u002A,1*%
%TO.N,N/C*%
X111818021Y-106830442D03*
%TD*%
%TO.P,REF\u002A\u002A,1*%
%TO.N,N/C*%
X129464778Y-81279999D03*
%TD*%
%TO.P,REF\u002A\u002A,1*%
%TO.N,N/C*%
X119380000Y-86360000D03*
%TD*%
%TO.P,REF\u002A\u002A,1*%
%TO.N,N/C*%
X109186471Y-83861692D03*
%TD*%
%TO.P,REF\u002A\u002A,1*%
%TO.N,N/C*%
X124459999Y-91439999D03*
%TD*%
D15*
%TO.P,C5,1*%
%TO.N,Net-(C5-Pad1)*%
X94020000Y-91440000D03*
%TO.P,C5,2*%
%TO.N,Net-(C4-Pad2)*%
X99020000Y-91440000D03*
%TD*%
D10*
%TO.P,REF\u002A\u002A,1*%
%TO.N,N/C*%
X106680000Y-86360000D03*
%TD*%
%TO.P,REF\u002A\u002A,1*%
%TO.N,N/C*%
X106680000Y-81280000D03*
%TD*%
%TO.P,REF\u002A\u002A,1*%
%TO.N,N/C*%
X121920000Y-88900000D03*
%TD*%
%TO.P,REF\u002A\u002A,1*%
%TO.N,N/C*%
X109202800Y-60959999D03*
%TD*%
%TO.P,REF\u002A\u002A,1*%
%TO.N,N/C*%
X111760000Y-88900000D03*
%TD*%
%TO.P,REF\u002A\u002A,1*%
%TO.N,N/C*%
X101600000Y-96520000D03*
%TD*%
%TO.P,REF\u002A\u002A,1*%
%TO.N,N/C*%
X104130065Y-76209934D03*
%TD*%
%TO.P,REF\u002A\u002A,1*%
%TO.N,N/C*%
X106680000Y-63500000D03*
%TD*%
%TO.P,REF\u002A\u002A,1*%
%TO.N,N/C*%
X116839999Y-71119999D03*
%TD*%
%TO.P,REF\u002A\u002A,1*%
%TO.N,N/C*%
X114282800Y-83794635D03*
%TD*%
%TO.P,REF\u002A\u002A,1*%
%TO.N,N/C*%
X111742800Y-71119999D03*
%TD*%
%TO.P,REF\u002A\u002A,1*%
%TO.N,N/C*%
X111809857Y-58419999D03*
%TD*%
%TO.P,REF\u002A\u002A,1*%
%TO.N,N/C*%
X127000000Y-99060000D03*
%TD*%
%TO.P,REF\u002A\u002A,1*%
%TO.N,N/C*%
X104140000Y-96520000D03*
%TD*%
%TO.P,REF\u002A\u002A,1*%
%TO.N,N/C*%
X129522800Y-93954635D03*
%TD*%
%TO.P,REF\u002A\u002A,1*%
%TO.N,N/C*%
X124460000Y-88900000D03*
%TD*%
%TO.P,REF\u002A\u002A,1*%
%TO.N,N/C*%
X109202800Y-101599999D03*
%TD*%
%TO.P,REF\u002A\u002A,1*%
%TO.N,N/C*%
X124460000Y-48260000D03*
%TD*%
%TO.P,REF\u002A\u002A,1*%
%TO.N,N/C*%
X114300000Y-96520000D03*
%TD*%
%TO.P,REF\u002A\u002A,1*%
%TO.N,N/C*%
X116848164Y-50867056D03*
%TD*%
%TO.P,REF\u002A\u002A,1*%
%TO.N,N/C*%
X114300000Y-55880000D03*
%TD*%
%TO.P,REF\u002A\u002A,1*%
%TO.N,N/C*%
X109220000Y-86360000D03*
%TD*%
%TO.P,REF\u002A\u002A,1*%
%TO.N,N/C*%
X114299999Y-50799999D03*
%TD*%
D17*
%TO.P,C7,1*%
%TO.N,Net-(C7-Pad1)*%
X68199000Y-47033401D03*
D18*
%TO.P,C7,2*%
%TO.N,Net-(C7-Pad2)*%
X68199000Y-49033401D03*
%TD*%
D10*
%TO.P,REF\u002A\u002A,1*%
%TO.N,N/C*%
X104139999Y-60959999D03*
%TD*%
%TO.P,REF\u002A\u002A,1*%
%TO.N,N/C*%
X119380000Y-76200000D03*
%TD*%
%TO.P,REF\u002A\u002A,1*%
%TO.N,N/C*%
X119380000Y-45720000D03*
%TD*%
D11*
%TO.P,D1,1,K*%
%TO.N,/Anode*%
X66040000Y-43053000D03*
D12*
%TO.P,D1,2,A*%
%TO.N,Net-(D1-Pad2)*%
X73660000Y-43053000D03*
%TD*%
D19*
%TO.P,J18,1,1*%
%TO.N,Net-(J17-Pad1)*%
X130360000Y-66862500D03*
D20*
%TO.P,J18,2,2*%
%TO.N,Net-(J14-Pad1)*%
X130360000Y-61862500D03*
%TO.P,J18,3,3*%
%TO.N,Net-(J15-Pad1)*%
X130360000Y-56862500D03*
%TO.P,J18,4,4*%
%TO.N,Net-(J16-Pad1)*%
X130360000Y-51862500D03*
%TD*%
D10*
%TO.P,REF\u002A\u002A,1*%
%TO.N,N/C*%
X116840000Y-111769036D03*
%TD*%
%TO.P,REF\u002A\u002A,1*%
%TO.N,N/C*%
X101600000Y-78740000D03*
%TD*%
%TO.P,REF\u002A\u002A,1*%
%TO.N,N/C*%
X121920000Y-53340000D03*
%TD*%
%TO.P,REF\u002A\u002A,1*%
%TO.N,N/C*%
X109220000Y-66040000D03*
%TD*%
%TO.P,REF\u002A\u002A,1*%
%TO.N,N/C*%
X127000000Y-104140000D03*
%TD*%
%TO.P,REF\u002A\u002A,1*%
%TO.N,N/C*%
X129540000Y-71120000D03*
%TD*%
%TO.P,REF\u002A\u002A,1*%
%TO.N,N/C*%
X101600000Y-58420000D03*
%TD*%
%TO.P,REF\u002A\u002A,1*%
%TO.N,N/C*%
X106680000Y-68580000D03*
%TD*%
%TO.P,REF\u002A\u002A,1*%
%TO.N,N/C*%
X124459999Y-111760000D03*
%TD*%
D21*
%TO.P,U2,1,NC*%
%TO.N,unconnected-(U2-Pad1)*%
X77655500Y-48047000D03*
%TO.P,U2,2,CAP+*%
%TO.N,Net-(C7-Pad1)*%
X77655500Y-48697000D03*
%TO.P,U2,3,GND*%
%TO.N,GND*%
X77655500Y-49347000D03*
%TO.P,U2,4,CAP-*%
%TO.N,Net-(C7-Pad2)*%
X77655500Y-49997000D03*
%TO.P,U2,5,VOUT*%
%TO.N,/V-*%
X83380500Y-49997000D03*
%TO.P,U2,6,LV*%
%TO.N,unconnected-(U2-Pad6)*%
X83380500Y-49347000D03*
%TO.P,U2,7,OSC*%
%TO.N,unconnected-(U2-Pad7)*%
X83380500Y-48697000D03*
%TO.P,U2,8,V+*%
%TO.N,+5V*%
X83380500Y-48047000D03*
%TD*%
D10*
%TO.P,REF\u002A\u002A,1*%
%TO.N,N/C*%
X106679999Y-71119999D03*
%TD*%
%TO.P,REF\u002A\u002A,1*%
%TO.N,N/C*%
X121978021Y-66190442D03*
%TD*%
%TO.P,REF\u002A\u002A,1*%
%TO.N,N/C*%
X132080000Y-99060000D03*
%TD*%
%TO.P,REF\u002A\u002A,1*%
%TO.N,N/C*%
X121920000Y-101600000D03*
%TD*%
%TO.P,REF\u002A\u002A,1*%
%TO.N,N/C*%
X101600000Y-76200000D03*
%TD*%
%TO.P,REF\u002A\u002A,1*%
%TO.N,N/C*%
X106680000Y-104140000D03*
%TD*%
%TO.P,REF\u002A\u002A,1*%
%TO.N,N/C*%
X101547130Y-65942426D03*
%TD*%
%TO.P,REF\u002A\u002A,1*%
%TO.N,N/C*%
X116848164Y-91507056D03*
%TD*%
%TO.P,REF\u002A\u002A,1*%
%TO.N,N/C*%
X116840000Y-96520000D03*
%TD*%
%TO.P,REF\u002A\u002A,1*%
%TO.N,N/C*%
X104125098Y-83819999D03*
%TD*%
%TO.P,REF\u002A\u002A,1*%
%TO.N,N/C*%
X104139999Y-111760000D03*
%TD*%
%TO.P,REF\u002A\u002A,1*%
%TO.N,N/C*%
X109202800Y-104114635D03*
%TD*%
%TO.P,REF\u002A\u002A,1*%
%TO.N,N/C*%
X106814113Y-58386471D03*
%TD*%
%TO.P,REF\u002A\u002A,1*%
%TO.N,N/C*%
X106679999Y-78730964D03*
%TD*%
%TO.P,REF\u002A\u002A,1*%
%TO.N,N/C*%
X111760000Y-111769036D03*
%TD*%
%TO.P,REF\u002A\u002A,1*%
%TO.N,N/C*%
X111760000Y-83820000D03*
%TD*%
%TO.P,REF\u002A\u002A,1*%
%TO.N,N/C*%
X127008164Y-91507056D03*
%TD*%
%TO.P,REF\u002A\u002A,1*%
%TO.N,N/C*%
X121928164Y-81347056D03*
%TD*%
%TO.P,REF\u002A\u002A,1*%
%TO.N,N/C*%
X114300000Y-48260000D03*
%TD*%
%TO.P,REF\u002A\u002A,1*%
%TO.N,N/C*%
X106688164Y-101667056D03*
%TD*%
%TO.P,REF\u002A\u002A,1*%
%TO.N,N/C*%
X129531835Y-86342800D03*
%TD*%
%TO.P,REF\u002A\u002A,1*%
%TO.N,N/C*%
X101600000Y-104140000D03*
%TD*%
%TO.P,REF\u002A\u002A,1*%
%TO.N,N/C*%
X99060000Y-53340000D03*
%TD*%
%TO.P,REF\u002A\u002A,1*%
%TO.N,N/C*%
X116840000Y-93980000D03*
%TD*%
%TO.P,REF\u002A\u002A,1*%
%TO.N,N/C*%
X127000000Y-71120000D03*
%TD*%
%TO.P,REF\u002A\u002A,1*%
%TO.N,N/C*%
X119380000Y-55880000D03*
%TD*%
%TO.P,REF\u002A\u002A,1*%
%TO.N,N/C*%
X114299999Y-60959999D03*
%TD*%
%TO.P,REF\u002A\u002A,1*%
%TO.N,N/C*%
X116840000Y-66040000D03*
%TD*%
%TO.P,REF\u002A\u002A,1*%
%TO.N,N/C*%
X124442800Y-81279999D03*
%TD*%
%TO.P,REF\u002A\u002A,1*%
%TO.N,N/C*%
X132080000Y-93980000D03*
%TD*%
%TO.P,REF\u002A\u002A,1*%
%TO.N,N/C*%
X127000000Y-78740000D03*
%TD*%
%TO.P,REF\u002A\u002A,1*%
%TO.N,N/C*%
X119379999Y-88890964D03*
%TD*%
%TO.P,REF\u002A\u002A,1*%
%TO.N,N/C*%
X119380000Y-106680000D03*
%TD*%
%TO.P,REF\u002A\u002A,1*%
%TO.N,N/C*%
X127000000Y-76200000D03*
%TD*%
D16*
%TO.P,J14,1,Pin_1*%
%TO.N,Net-(J14-Pad1)*%
X125095000Y-62230000D03*
%TD*%
D10*
%TO.P,REF\u002A\u002A,1*%
%TO.N,N/C*%
X114300000Y-45720000D03*
%TD*%
D16*
%TO.P,J17,1,Pin_1*%
%TO.N,Net-(J17-Pad1)*%
X125095000Y-66675000D03*
%TD*%
D10*
%TO.P,REF\u002A\u002A,1*%
%TO.N,N/C*%
X111768164Y-81347056D03*
%TD*%
%TO.P,REF\u002A\u002A,1*%
%TO.N,N/C*%
X116806471Y-73701692D03*
%TD*%
%TO.P,REF\u002A\u002A,1*%
%TO.N,N/C*%
X119380000Y-73660000D03*
%TD*%
%TO.P,REF\u002A\u002A,1*%
%TO.N,N/C*%
X121920000Y-91440000D03*
%TD*%
%TO.P,REF\u002A\u002A,1*%
%TO.N,N/C*%
X111760000Y-109220000D03*
%TD*%
%TO.P,REF\u002A\u002A,1*%
%TO.N,N/C*%
X127000000Y-88900000D03*
%TD*%
%TO.P,REF\u002A\u002A,1*%
%TO.N,N/C*%
X116840000Y-99060000D03*
%TD*%
%TO.P,REF\u002A\u002A,1*%
%TO.N,N/C*%
X116840000Y-68580000D03*
%TD*%
%TO.P,REF\u002A\u002A,1*%
%TO.N,N/C*%
X124460000Y-78740000D03*
%TD*%
%TO.P,REF\u002A\u002A,1*%
%TO.N,N/C*%
X119362800Y-104114635D03*
%TD*%
%TO.P,REF\u002A\u002A,1*%
%TO.N,N/C*%
X119380000Y-48260000D03*
%TD*%
%TO.P,REF\u002A\u002A,1*%
%TO.N,N/C*%
X132180585Y-83794635D03*
%TD*%
%TO.P,REF\u002A\u002A,1*%
%TO.N,N/C*%
X111818021Y-96670442D03*
%TD*%
%TO.P,REF\u002A\u002A,1*%
%TO.N,N/C*%
X106680000Y-99060000D03*
%TD*%
D13*
%TO.P,J13,1,Pin_1*%
%TO.N,/Anode*%
X62795000Y-43175000D03*
D14*
%TO.P,J13,2,Pin_2*%
%TO.N,/C1*%
X62795000Y-45715000D03*
%TO.P,J13,3,Pin_3*%
%TO.N,/D1*%
X62795000Y-48255000D03*
%TO.P,J13,4,Pin_4*%
%TO.N,/E1*%
X62795000Y-50795000D03*
%TO.P,J13,5,Pin_5*%
%TO.N,/B1*%
X62795000Y-53335000D03*
%TO.P,J13,6,Pin_6*%
%TO.N,/A1*%
X62795000Y-55875000D03*
%TO.P,J13,7,Pin_7*%
%TO.N,/DP2*%
X62795000Y-58415000D03*
%TO.P,J13,8,Pin_8*%
%TO.N,/F1*%
X62795000Y-60955000D03*
%TO.P,J13,9,Pin_9*%
%TO.N,/G1*%
X62795000Y-63495000D03*
%TO.P,J13,10,Pin_10*%
%TO.N,/B2*%
X62795000Y-66035000D03*
%TO.P,J13,11,Pin_11*%
%TO.N,/A2*%
X62795000Y-68575000D03*
%TO.P,J13,12,Pin_12*%
%TO.N,/C2*%
X62795000Y-71115000D03*
%TO.P,J13,13,Pin_13*%
%TO.N,/D2*%
X62795000Y-73655000D03*
%TO.P,J13,14,Pin_14*%
%TO.N,/F2*%
X62795000Y-76195000D03*
%TO.P,J13,15,Pin_15*%
%TO.N,/G2*%
X62795000Y-78735000D03*
%TO.P,J13,16,Pin_16*%
%TO.N,/B3*%
X62795000Y-81275000D03*
%TO.P,J13,17,Pin_17*%
%TO.N,/A3*%
X62795000Y-83815000D03*
%TO.P,J13,18,Pin_18*%
%TO.N,/E2*%
X62795000Y-86355000D03*
%TO.P,J13,19,Pin_19*%
%TO.N,/F3*%
X62795000Y-88895000D03*
%TO.P,J13,20,Pin_20*%
%TO.N,/G3*%
X62795000Y-91435000D03*
%TO.P,J13,21,Pin_21*%
%TO.N,/DP3*%
X62795000Y-93975000D03*
%TO.P,J13,22,Pin_22*%
%TO.N,/C3*%
X62795000Y-96515000D03*
%TO.P,J13,23,Pin_23*%
%TO.N,/D3*%
X62795000Y-99055000D03*
%TO.P,J13,24,Pin_24*%
%TO.N,/E3*%
X62795000Y-101595000D03*
%TO.P,J13,25,Pin_25*%
%TO.N,/DP4*%
X62795000Y-104135000D03*
%TO.P,J13,26,Pin_26*%
%TO.N,/BC4*%
X62795000Y-106675000D03*
%TO.P,J13,27,Pin_27*%
%TO.N,/POL*%
X62795000Y-109215000D03*
%TD*%
D22*
%TO.N,GND*%
X79375000Y-52070000D03*
%TO.N,/D3*%
X76073000Y-98044000D03*
X76200000Y-104140000D03*
%TD*%
D23*
%TO.N,/V-*%
X95250000Y-94869000D02*
X94107000Y-96012000D01*
X98298000Y-94869000D02*
X95250000Y-94869000D01*
X90810000Y-92715000D02*
X94107000Y-96012000D01*
X94107000Y-96012000D02*
X94107000Y-96889600D01*
%TO.N,GND*%
X93330000Y-107310000D02*
X93330000Y-99666600D01*
X93330000Y-99666600D02*
X94107000Y-98889600D01*
D24*
%TO.N,Net-(C1-Pad1)*%
X88910000Y-72410000D02*
X88895000Y-72395000D01*
X91440000Y-72410000D02*
X88910000Y-72410000D01*
%TO.N,Net-(C1-Pad2)*%
X91440000Y-74910000D02*
X88920000Y-74910000D01*
X88920000Y-74910000D02*
X88895000Y-74935000D01*
%TO.N,Net-(C3-Pad1)*%
X88895000Y-57155000D02*
X87635000Y-57155000D01*
X93980000Y-51435000D02*
X93980000Y-49530000D01*
X86467000Y-54229000D02*
X91186000Y-54229000D01*
X91186000Y-54229000D02*
X93980000Y-51435000D01*
X87635000Y-57155000D02*
X86467000Y-55987000D01*
X86467000Y-55987000D02*
X86467000Y-54229000D01*
%TO.N,Net-(C3-Pad2)*%
X88895000Y-62235000D02*
X83967000Y-57307000D01*
X83967000Y-57307000D02*
X83967000Y-54229000D01*
%TO.N,Net-(C4-Pad1)*%
X90165000Y-85095000D02*
X88895000Y-85095000D01*
X91440000Y-83820000D02*
X90165000Y-85095000D01*
X94020000Y-83820000D02*
X91440000Y-83820000D01*
%TO.N,Net-(C4-Pad2)*%
X99060000Y-83820000D02*
X99020000Y-83820000D01*
X99020000Y-83820000D02*
X99020000Y-91440000D01*
X102830000Y-87630000D02*
X102870000Y-87630000D01*
X102870000Y-87630000D02*
X99060000Y-83820000D01*
X99020000Y-91440000D02*
X102830000Y-87630000D01*
%TO.N,Net-(C5-Pad1)*%
X95290000Y-92710000D02*
X100330000Y-92710000D01*
X100330000Y-82550000D02*
X96520000Y-82550000D01*
X94020000Y-91440000D02*
X95290000Y-92710000D01*
X90170000Y-90170000D02*
X90165000Y-90175000D01*
X100330000Y-92710000D02*
X104140000Y-88900000D01*
X90165000Y-90175000D02*
X88895000Y-90175000D01*
X104140000Y-86360000D02*
X100330000Y-82550000D01*
X91440000Y-91440000D02*
X90170000Y-90170000D01*
X94020000Y-91440000D02*
X91440000Y-91440000D01*
X104140000Y-88900000D02*
X104140000Y-86360000D01*
X96520000Y-82550000D02*
X96520000Y-83820000D01*
D23*
%TO.N,+5V*%
X82550000Y-47625000D02*
X80927319Y-49247681D01*
X86787000Y-48047000D02*
X85303000Y-48047000D01*
D24*
X82692639Y-48047000D02*
X83380500Y-48047000D01*
D23*
X79405944Y-53594000D02*
X80927319Y-52072625D01*
X80927319Y-49247681D02*
X80927319Y-49812319D01*
X73655000Y-57155000D02*
X73655000Y-53599000D01*
X82550000Y-47625000D02*
X84881000Y-47625000D01*
X97790000Y-50800000D02*
X97790000Y-47625000D01*
X97790000Y-47625000D02*
X97155000Y-46990000D01*
D24*
X83380500Y-48047000D02*
X85303000Y-48047000D01*
X80927319Y-49812319D02*
X82692639Y-48047000D01*
D23*
X73655000Y-53599000D02*
X73660000Y-53594000D01*
X95235000Y-46380000D02*
X93685489Y-47929511D01*
X84881000Y-47625000D02*
X85303000Y-48047000D01*
X80927319Y-52072625D02*
X80927319Y-49812319D01*
X92156489Y-47929511D02*
X89413000Y-50673000D01*
X93685489Y-47929511D02*
X92156489Y-47929511D01*
X89413000Y-50673000D02*
X86787000Y-48047000D01*
X97155000Y-46990000D02*
X95845000Y-46990000D01*
X95845000Y-46990000D02*
X95235000Y-46380000D01*
X73660000Y-53594000D02*
X79405944Y-53594000D01*
X102322621Y-46990000D02*
X97155000Y-46990000D01*
%TO.N,GND*%
X111760000Y-43815000D02*
X111760000Y-46990000D01*
X90795000Y-107315000D02*
X90800000Y-107310000D01*
D24*
X77655500Y-49347000D02*
X78343361Y-49347000D01*
D23*
X104822621Y-46990000D02*
X111760000Y-46990000D01*
D24*
X79375000Y-50378639D02*
X79375000Y-52070000D01*
D23*
X96139000Y-107041000D02*
X95870000Y-107310000D01*
X88895000Y-105415000D02*
X90795000Y-107315000D01*
X111760000Y-48260000D02*
X111125000Y-48895000D01*
X111760000Y-46990000D02*
X111760000Y-48260000D01*
D24*
X78343361Y-49347000D02*
X79375000Y-50378639D01*
D23*
X90800000Y-107310000D02*
X98410000Y-107310000D01*
D24*
%TO.N,Net-(C7-Pad1)*%
X69862599Y-48697000D02*
X77655500Y-48697000D01*
X68199000Y-47033401D02*
X69862599Y-48697000D01*
%TO.N,Net-(C7-Pad2)*%
X68199000Y-49033401D02*
X69162599Y-49997000D01*
X69162599Y-49997000D02*
X77655500Y-49997000D01*
%TO.N,/V-*%
X83380500Y-49997000D02*
X83380500Y-50604500D01*
D23*
X88895000Y-92715000D02*
X81280000Y-85100000D01*
X81280000Y-53975000D02*
X83380500Y-51874500D01*
X88895000Y-92715000D02*
X90810000Y-92715000D01*
X83380500Y-50604500D02*
X83380500Y-50246520D01*
X81280000Y-85100000D02*
X81280000Y-53975000D01*
X83380500Y-51874500D02*
X83380500Y-50604500D01*
D24*
%TO.N,/Anode*%
X65918000Y-43175000D02*
X66040000Y-43053000D01*
X62795000Y-43175000D02*
X65918000Y-43175000D01*
%TO.N,Net-(D1-Pad2)*%
X73660000Y-43053000D02*
X73660000Y-45974000D01*
D23*
%TO.N,/Input*%
X94057919Y-43815000D02*
X92695000Y-45177919D01*
X109220000Y-43815000D02*
X94057919Y-43815000D01*
X92695000Y-45177919D02*
X92695000Y-46380000D01*
D24*
%TO.N,Net-(U1-Pad32)*%
X91435000Y-77475000D02*
X93980000Y-74930000D01*
X95250000Y-71755000D02*
X96520000Y-71755000D01*
X93980000Y-74930000D02*
X93980000Y-73025000D01*
X93980000Y-73025000D02*
X95250000Y-71755000D01*
X88895000Y-77475000D02*
X91435000Y-77475000D01*
%TO.N,Net-(U1-Pad31)*%
X91435000Y-80015000D02*
X88895000Y-80015000D01*
X96520000Y-75565000D02*
X95885000Y-76200000D01*
X95250000Y-76200000D02*
X91435000Y-80015000D01*
X95885000Y-76200000D02*
X95250000Y-76200000D01*
%TO.N,Net-(U1-Pad30)*%
X96520000Y-79375000D02*
X94615000Y-79375000D01*
X91435000Y-82555000D02*
X88895000Y-82555000D01*
X94615000Y-79375000D02*
X91435000Y-82555000D01*
%TO.N,Net-(U1-Pad36)*%
X91435000Y-67315000D02*
X88895000Y-67315000D01*
X94615000Y-64135000D02*
X91435000Y-67315000D01*
X96520000Y-64135000D02*
X94615000Y-64135000D01*
%TO.N,Net-(U1-Pad35)*%
X93350000Y-69855000D02*
X88895000Y-69855000D01*
X95250000Y-67945000D02*
X93350000Y-69845000D01*
X96520000Y-67945000D02*
X95250000Y-67945000D01*
X93350000Y-69845000D02*
X93350000Y-69855000D01*
%TO.N,Net-(R5-Pad1)*%
X76327000Y-107823000D02*
X86868000Y-107823000D01*
X86868000Y-107823000D02*
X88900000Y-109855000D01*
X74676000Y-109474000D02*
X76327000Y-107823000D01*
X88905000Y-109850000D02*
X93330000Y-109850000D01*
X88900000Y-109855000D02*
X88905000Y-109850000D01*
%TO.N,Net-(R6-Pad1)*%
X79883000Y-109474000D02*
X81007511Y-108349489D01*
X85555789Y-108349489D02*
X88331300Y-111125000D01*
X88331300Y-111125000D02*
X94595000Y-111125000D01*
X81007511Y-108349489D02*
X85555789Y-108349489D01*
X94595000Y-111125000D02*
X95870000Y-109850000D01*
%TO.N,Net-(R7-Pad1)*%
X85090000Y-109474000D02*
X87190520Y-111574520D01*
X98410000Y-111110000D02*
X98410000Y-109850000D01*
X97945480Y-111574520D02*
X98410000Y-111110000D01*
X87190520Y-111574520D02*
X97945480Y-111574520D01*
%TO.N,/C1*%
X74930000Y-60960000D02*
X73655000Y-62235000D01*
X62795000Y-45715000D02*
X66421000Y-49341000D01*
X74930000Y-59379700D02*
X74930000Y-60960000D01*
X66421000Y-49341000D02*
X66421000Y-50673000D01*
X73970300Y-58420000D02*
X74930000Y-59379700D01*
X66421000Y-50673000D02*
X72085989Y-56337989D01*
X72085989Y-57835011D02*
X72670978Y-58420000D01*
X72085989Y-56337989D02*
X72085989Y-57835011D01*
X72670978Y-58420000D02*
X73970300Y-58420000D01*
%TO.N,/D1*%
X65590480Y-51975220D02*
X73310260Y-59695000D01*
X73310260Y-59695000D02*
X73655000Y-59695000D01*
X65590480Y-51050480D02*
X65590480Y-51975220D01*
X62795000Y-48255000D02*
X65590480Y-51050480D01*
%TO.N,/E1*%
X75819000Y-64135000D02*
X75819000Y-72771000D01*
X62795000Y-50795000D02*
X71468500Y-59468500D01*
X71468500Y-59468500D02*
X71468500Y-62197500D01*
X75819000Y-72771000D02*
X73655000Y-74935000D01*
X72644000Y-63373000D02*
X75057000Y-63373000D01*
X71468500Y-62197500D02*
X72644000Y-63373000D01*
X75057000Y-63373000D02*
X75819000Y-64135000D01*
%TO.N,/B1*%
X73655000Y-64775000D02*
X73396000Y-64516000D01*
X62795000Y-53915000D02*
X62795000Y-53335000D01*
X70162500Y-62034500D02*
X70162500Y-61282500D01*
X72644000Y-64516000D02*
X70162500Y-62034500D01*
X70162500Y-61282500D02*
X62795000Y-53915000D01*
X73396000Y-64516000D02*
X72644000Y-64516000D01*
%TO.N,/A1*%
X73655000Y-67315000D02*
X62795000Y-56455000D01*
X62795000Y-56455000D02*
X62795000Y-55875000D01*
%TO.N,/DP2*%
X61662803Y-111320520D02*
X60060960Y-109718677D01*
X60060960Y-109718677D02*
X60060960Y-61149040D01*
X60060960Y-61149040D02*
X62795000Y-58415000D01*
X82550000Y-109474000D02*
X80703480Y-111320520D01*
X80703480Y-111320520D02*
X61662803Y-111320520D01*
%TO.N,/F1*%
X64755000Y-60955000D02*
X73655000Y-69855000D01*
X62795000Y-60955000D02*
X64755000Y-60955000D01*
%TO.N,/G1*%
X64755000Y-63495000D02*
X73655000Y-72395000D01*
X62795000Y-63495000D02*
X64755000Y-63495000D01*
%TO.N,/B2*%
X70325500Y-73565500D02*
X62795000Y-66035000D01*
X73655000Y-82555000D02*
X70325500Y-79225500D01*
X70325500Y-79225500D02*
X70325500Y-73565500D01*
%TO.N,/A2*%
X62795000Y-68575000D02*
X69029520Y-74809520D01*
X69029520Y-74809520D02*
X69029520Y-80469520D01*
X69029520Y-80469520D02*
X73655000Y-85095000D01*
%TO.N,/C2*%
X73655000Y-80015000D02*
X71432141Y-77792141D01*
X61620489Y-69940489D02*
X62795000Y-71115000D01*
X71432141Y-77792141D02*
X71432141Y-72194141D01*
X62230000Y-64770000D02*
X61620489Y-65379511D01*
X71432141Y-72194141D02*
X64008000Y-64770000D01*
X61620489Y-65379511D02*
X61620489Y-69940489D01*
X64008000Y-64770000D02*
X62230000Y-64770000D01*
%TO.N,/D2*%
X68078861Y-78938861D02*
X68078861Y-80651861D01*
X73980300Y-86360000D02*
X74779511Y-85560789D01*
X72263000Y-84836000D02*
X68078861Y-80651861D01*
X73038722Y-86360000D02*
X73980300Y-86360000D01*
X74779511Y-78599511D02*
X73655000Y-77475000D01*
X73038722Y-86360000D02*
X72263000Y-85584278D01*
X74779511Y-85560789D02*
X74779511Y-78599511D01*
X62795000Y-73655000D02*
X68078861Y-78938861D01*
X72263000Y-85584278D02*
X72263000Y-84836000D01*
%TO.N,/F2*%
X67145480Y-81125480D02*
X67145480Y-80545480D01*
X73655000Y-87635000D02*
X67145480Y-81125480D01*
X67145480Y-80545480D02*
X62795000Y-76195000D01*
%TO.N,/G2*%
X77620489Y-89050489D02*
X83825000Y-95255000D01*
X73110489Y-89050489D02*
X77620489Y-89050489D01*
X62795000Y-78735000D02*
X73110489Y-89050489D01*
X83825000Y-95255000D02*
X88895000Y-95255000D01*
%TO.N,/B3*%
X61170969Y-89110969D02*
X62320489Y-90260489D01*
X63281499Y-90260489D02*
X68276010Y-95255000D01*
X68276010Y-95255000D02*
X73655000Y-95255000D01*
X62795000Y-81275000D02*
X61170969Y-82899031D01*
X61170969Y-82899031D02*
X61170969Y-89110969D01*
X62320489Y-90260489D02*
X63281499Y-90260489D01*
%TO.N,/A3*%
X62408990Y-87630000D02*
X65404282Y-87630000D01*
X65404282Y-87630000D02*
X69214282Y-91440000D01*
X61620489Y-86841499D02*
X62408990Y-87630000D01*
X78740000Y-91440000D02*
X87635000Y-100335000D01*
X61620489Y-84989511D02*
X61620489Y-86841499D01*
X69214282Y-91440000D02*
X78740000Y-91440000D01*
X87635000Y-100335000D02*
X88895000Y-100335000D01*
X62795000Y-83815000D02*
X61620489Y-84989511D01*
%TO.N,/E2*%
X62795000Y-86355000D02*
X66152000Y-86355000D01*
X66152000Y-86355000D02*
X69972000Y-90175000D01*
X69972000Y-90175000D02*
X73655000Y-90175000D01*
%TO.N,/F3*%
X74930000Y-96520000D02*
X73655000Y-97795000D01*
X64765000Y-88895000D02*
X69850000Y-93980000D01*
X62795000Y-88895000D02*
X64765000Y-88895000D01*
X69850000Y-93980000D02*
X74930000Y-93980000D01*
X74930000Y-93980000D02*
X74930000Y-96520000D01*
%TO.N,/G3*%
X82550000Y-99060000D02*
X70420000Y-99060000D01*
X88895000Y-102875000D02*
X86365000Y-102875000D01*
X86365000Y-102875000D02*
X82550000Y-99060000D01*
X70420000Y-99060000D02*
X62795000Y-91435000D01*
%TO.N,/DP3*%
X60510480Y-96259520D02*
X60510480Y-109532480D01*
X75946000Y-110871000D02*
X77343000Y-109474000D01*
X61849000Y-110871000D02*
X75946000Y-110871000D01*
X60510480Y-109532480D02*
X61849000Y-110871000D01*
X62795000Y-93975000D02*
X60510480Y-96259520D01*
%TO.N,/C3*%
X88895000Y-97795000D02*
X90170000Y-99070000D01*
X90170000Y-99070000D02*
X90170000Y-104140000D01*
X85090000Y-104140000D02*
X82550000Y-101600000D01*
X90170000Y-104140000D02*
X85090000Y-104140000D01*
X82550000Y-101600000D02*
X69850000Y-101600000D01*
X64765000Y-96515000D02*
X62795000Y-96515000D01*
X69850000Y-101600000D02*
X64765000Y-96515000D01*
%TO.N,/D3*%
X66035000Y-99055000D02*
X71120000Y-104140000D01*
X76073000Y-94001630D02*
X76073000Y-98044000D01*
X73655000Y-92715000D02*
X74786370Y-92715000D01*
X71120000Y-104140000D02*
X76200000Y-104140000D01*
X62795000Y-99055000D02*
X64765000Y-99055000D01*
X64765000Y-99055000D02*
X66035000Y-99055000D01*
X74786370Y-92715000D02*
X76073000Y-94001630D01*
%TO.N,/E3*%
X60960000Y-99760000D02*
X62795000Y-101595000D01*
X62230000Y-95250000D02*
X60960000Y-96520000D01*
X65024000Y-95250000D02*
X62230000Y-95250000D01*
X70109000Y-100335000D02*
X65024000Y-95250000D01*
X60960000Y-96520000D02*
X60960000Y-99760000D01*
X73655000Y-100335000D02*
X70109000Y-100335000D01*
%TO.N,/DP4*%
X62129511Y-110389511D02*
X71220489Y-110389511D01*
X61087000Y-109347000D02*
X62129511Y-110389511D01*
X62795000Y-104135000D02*
X61087000Y-105843000D01*
X71220489Y-110389511D02*
X72136000Y-109474000D01*
X61087000Y-105843000D02*
X61087000Y-109347000D01*
%TO.N,/BC4*%
X62795000Y-106675000D02*
X74689614Y-106675000D01*
X77089000Y-104275614D02*
X77089000Y-104004386D01*
X75959614Y-102875000D02*
X73655000Y-102875000D01*
X77089000Y-104004386D02*
X75959614Y-102875000D01*
X74689614Y-106675000D02*
X77089000Y-104275614D01*
%TO.N,/POL*%
X62225000Y-105415000D02*
X61620489Y-106019511D01*
X61620489Y-106019511D02*
X61620489Y-108040489D01*
X73655000Y-105415000D02*
X62225000Y-105415000D01*
X61620489Y-108040489D02*
X62795000Y-109215000D01*
%TO.N,Net-(R1-Pad1)*%
X92710000Y-87630000D02*
X88900000Y-87630000D01*
X88900000Y-87630000D02*
X88895000Y-87635000D01*
%TO.N,Net-(R2-Pad2)*%
X88895000Y-59695000D02*
X93975000Y-59695000D01*
X93975000Y-59695000D02*
X93980000Y-59690000D01*
D23*
%TO.N,Net-(J14-Pad1)*%
X130360000Y-61862500D02*
X125462500Y-61862500D01*
X125462500Y-61862500D02*
X125095000Y-62230000D01*
%TO.N,Net-(J15-Pad1)*%
X125382500Y-56862500D02*
X125095000Y-57150000D01*
X130360000Y-56862500D02*
X125382500Y-56862500D01*
%TO.N,Net-(J16-Pad1)*%
X130360000Y-51862500D02*
X125302500Y-51862500D01*
X125302500Y-51862500D02*
X125095000Y-52070000D01*
%TO.N,Net-(J17-Pad1)*%
X125282500Y-66862500D02*
X125095000Y-66675000D01*
X130360000Y-66862500D02*
X125282500Y-66862500D01*
%TD*%
%TA.AperFunction,Conductor*%
%TO.N,Net-(C5-Pad1)*%
G36*
X96462121Y-90190002D02*
G01*
X96508614Y-90243658D01*
X96520000Y-90296000D01*
X96520000Y-92584000D01*
X96499998Y-92652121D01*
X96446342Y-92698614D01*
X96394000Y-92710000D01*
X94144031Y-92710000D01*
X94075910Y-92689998D01*
X94029417Y-92636342D01*
X94018047Y-92585984D01*
X93982015Y-90297984D01*
X94000942Y-90229557D01*
X94053858Y-90182225D01*
X94107999Y-90170000D01*
X96394000Y-90170000D01*
X96462121Y-90190002D01*
G37*
%TD.AperFunction*%
%TD*%
%TA.AperFunction,Conductor*%
%TO.N,Net-(C4-Pad1)*%
G36*
X95827121Y-82570002D02*
G01*
X95873614Y-82623658D01*
X95885000Y-82676000D01*
X95885000Y-84964000D01*
X95864998Y-85032121D01*
X95811342Y-85078614D01*
X95759000Y-85090000D01*
X94144031Y-85090000D01*
X94075910Y-85069998D01*
X94029417Y-85016342D01*
X94018047Y-84965984D01*
X93982015Y-82677984D01*
X94000942Y-82609557D01*
X94053858Y-82562225D01*
X94107999Y-82550000D01*
X95759000Y-82550000D01*
X95827121Y-82570002D01*
G37*
%TD.AperFunction*%
%TD*%
%TA.AperFunction,Conductor*%
%TO.N,Net-(R1-Pad1)*%
G36*
X96462121Y-86380002D02*
G01*
X96508614Y-86433658D01*
X96520000Y-86486000D01*
X96520000Y-88774000D01*
X96499998Y-88842121D01*
X96446342Y-88888614D01*
X96394000Y-88900000D01*
X92836000Y-88900000D01*
X92767879Y-88879998D01*
X92721386Y-88826342D01*
X92710000Y-88774000D01*
X92710000Y-86486000D01*
X92730002Y-86417879D01*
X92783658Y-86371386D01*
X92836000Y-86360000D01*
X96394000Y-86360000D01*
X96462121Y-86380002D01*
G37*
%TD.AperFunction*%
%TD*%
%TA.AperFunction,Conductor*%
%TO.N,Net-(C4-Pad2)*%
G36*
X99075931Y-83840002D02*
G01*
X99096905Y-83856905D01*
X102780905Y-87540905D01*
X102814931Y-87603217D01*
X102809866Y-87674032D01*
X102780905Y-87719095D01*
X99096905Y-91403095D01*
X99034593Y-91437121D01*
X99007810Y-91440000D01*
X97916000Y-91440000D01*
X97847879Y-91419998D01*
X97801386Y-91366342D01*
X97790000Y-91314000D01*
X97790000Y-83946000D01*
X97810002Y-83877879D01*
X97863658Y-83831386D01*
X97916000Y-83820000D01*
X99007810Y-83820000D01*
X99075931Y-83840002D01*
G37*
%TD.AperFunction*%
%TD*%
M02*
