M48
; DRILL file {KiCad (6.0.0)} date Sun Mar 13 21:04:09 2022
; FORMAT={-:-/ absolute / metric / decimal}
; #@! TF.CreationDate,2022-03-13T21:04:09-04:00
; #@! TF.GenerationSoftware,Kicad,Pcbnew,(6.0.0)
; #@! TF.FileFunction,Plated,1,2,PTH
FMAT,2
METRIC
; #@! TA.AperFunction,Plated,PTH,ViaDrill
T1C0.400
; #@! TA.AperFunction,Plated,PTH,ComponentDrill
T2C0.600
; #@! TA.AperFunction,Plated,PTH,ComponentDrill
T3C0.800
; #@! TA.AperFunction,Plated,PTH,ComponentDrill
T4C1.000
; #@! TA.AperFunction,Plated,PTH,ComponentDrill
T5C1.200
%
G90
G05
T1
X76.073Y-98.044
X76.2Y-104.14
X79.375Y-52.07
T2
X68.199Y-47.033
X68.199Y-49.033
X94.107Y-96.89
X94.107Y-98.89
T3
X66.04Y-43.053
X72.136Y-109.474
X73.655Y-57.155
X73.655Y-59.695
X73.655Y-62.235
X73.655Y-64.775
X73.655Y-67.315
X73.655Y-69.855
X73.655Y-72.395
X73.655Y-74.935
X73.655Y-77.475
X73.655Y-80.015
X73.655Y-82.555
X73.655Y-85.095
X73.655Y-87.635
X73.655Y-90.175
X73.655Y-92.715
X73.655Y-95.255
X73.655Y-97.795
X73.655Y-100.335
X73.655Y-102.875
X73.655Y-105.415
X73.66Y-43.053
X73.66Y-45.974
X73.66Y-53.594
X74.676Y-109.474
X77.343Y-109.474
X79.883Y-109.474
X82.55Y-109.474
X83.967Y-54.229
X85.09Y-109.474
X86.467Y-54.229
X88.895Y-57.155
X88.895Y-59.695
X88.895Y-62.235
X88.895Y-64.775
X88.895Y-67.315
X88.895Y-69.855
X88.895Y-72.395
X88.895Y-74.935
X88.895Y-77.475
X88.895Y-80.015
X88.895Y-82.555
X88.895Y-85.095
X88.895Y-87.635
X88.895Y-90.175
X88.895Y-92.715
X88.895Y-95.255
X88.895Y-97.795
X88.895Y-100.335
X88.895Y-102.875
X88.895Y-105.415
X91.44Y-72.41
X91.44Y-74.91
X92.71Y-87.63
X93.98Y-49.53
X93.98Y-59.69
X94.02Y-83.82
X94.02Y-91.44
X99.02Y-83.82
X99.02Y-91.44
X102.323Y-46.99
X102.87Y-87.63
X104.823Y-46.99
T4
X62.795Y-43.175
X62.795Y-45.715
X62.795Y-48.255
X62.795Y-50.795
X62.795Y-53.335
X62.795Y-55.875
X62.795Y-58.415
X62.795Y-60.955
X62.795Y-63.495
X62.795Y-66.035
X62.795Y-68.575
X62.795Y-71.115
X62.795Y-73.655
X62.795Y-76.195
X62.795Y-78.735
X62.795Y-81.275
X62.795Y-83.815
X62.795Y-86.355
X62.795Y-88.895
X62.795Y-91.435
X62.795Y-93.975
X62.795Y-96.515
X62.795Y-99.055
X62.795Y-101.595
X62.795Y-104.135
X62.795Y-106.675
X62.795Y-109.215
X86.873Y-50.673
X89.413Y-50.673
X90.155Y-46.38
X92.695Y-46.38
X93.33Y-107.31
X93.33Y-109.85
X95.235Y-46.38
X95.87Y-107.31
X95.87Y-109.85
X96.52Y-64.135
X96.52Y-67.945
X96.52Y-71.755
X96.52Y-75.565
X96.52Y-79.375
X97.79Y-50.8
X98.298Y-94.869
X98.41Y-107.31
X98.41Y-109.85
X99.06Y-53.34
X99.06Y-55.88
X99.06Y-58.42
X99.06Y-60.96
X99.06Y-63.5
X99.06Y-66.04
X99.06Y-68.58
X99.06Y-76.2
X101.547Y-65.942
X101.592Y-60.958
X101.6Y-53.34
X101.6Y-55.88
X101.6Y-58.42
X101.6Y-63.5
X101.6Y-68.58
X101.6Y-71.12
X101.6Y-73.66
X101.6Y-76.2
X101.6Y-78.74
X101.6Y-96.52
X101.6Y-99.06
X101.6Y-101.6
X101.6Y-104.14
X101.6Y-106.68
X101.6Y-109.22
X101.6Y-111.76
X104.106Y-63.542
X104.106Y-94.022
X104.106Y-104.182
X104.125Y-83.82
X104.13Y-73.627
X104.13Y-76.21
X104.133Y-81.288
X104.14Y-60.96
X104.14Y-68.571
X104.14Y-71.106
X104.14Y-91.44
X104.14Y-99.051
X104.14Y-101.6
X104.14Y-109.211
X104.14Y-111.76
X104.14Y-53.34
X104.14Y-58.42
X104.14Y-66.04
X104.14Y-78.74
X104.14Y-96.52
X104.14Y-106.68
X104.199Y-55.872
X106.646Y-73.702
X106.673Y-83.82
X106.68Y-71.12
X106.68Y-78.731
X106.68Y-50.8
X106.68Y-53.34
X106.68Y-55.88
X106.68Y-63.5
X106.68Y-66.04
X106.68Y-68.58
X106.68Y-76.2
X106.68Y-81.28
X106.68Y-86.36
X106.68Y-93.98
X106.68Y-96.52
X106.68Y-99.06
X106.68Y-104.14
X106.68Y-106.68
X106.68Y-109.22
X106.68Y-111.769
X106.688Y-61.027
X106.688Y-88.9
X106.688Y-91.507
X106.688Y-101.667
X106.814Y-58.386
X109.186Y-83.862
X109.203Y-60.96
X109.203Y-63.475
X109.203Y-91.44
X109.203Y-93.955
X109.203Y-101.6
X109.203Y-104.115
X109.22Y-81.28
X109.22Y-88.891
X109.22Y-43.815
X109.22Y-53.34
X109.22Y-55.88
X109.22Y-58.42
X109.22Y-66.04
X109.22Y-68.58
X109.22Y-73.66
X109.22Y-76.2
X109.22Y-78.74
X109.22Y-86.36
X109.22Y-96.52
X109.22Y-99.06
X109.22Y-106.68
X109.22Y-109.22
X109.22Y-111.769
X109.228Y-71.187
X111.125Y-48.895
X111.743Y-71.12
X111.743Y-73.635
X111.76Y-43.815
X111.76Y-53.34
X111.76Y-55.88
X111.76Y-60.96
X111.76Y-63.5
X111.76Y-68.58
X111.76Y-76.2
X111.76Y-78.74
X111.76Y-83.82
X111.76Y-86.36
X111.76Y-88.9
X111.76Y-91.44
X111.76Y-93.98
X111.76Y-99.06
X111.76Y-101.6
X111.76Y-104.14
X111.76Y-109.22
X111.76Y-111.769
X111.768Y-81.347
X111.81Y-58.42
X111.818Y-66.19
X111.818Y-96.67
X111.818Y-106.83
X114.266Y-53.382
X114.266Y-63.542
X114.266Y-94.022
X114.266Y-104.182
X114.283Y-81.28
X114.283Y-83.795
X114.3Y-50.8
X114.3Y-58.411
X114.3Y-60.96
X114.3Y-68.571
X114.3Y-91.44
X114.3Y-99.051
X114.3Y-101.6
X114.3Y-109.211
X114.3Y-111.76
X114.3Y-45.72
X114.3Y-48.26
X114.3Y-55.88
X114.3Y-66.04
X114.3Y-71.12
X114.3Y-73.66
X114.3Y-78.74
X114.3Y-86.36
X114.3Y-88.9
X114.3Y-96.52
X114.3Y-106.68
X114.358Y-76.35
X116.806Y-73.702
X116.84Y-71.12
X116.84Y-78.731
X116.84Y-45.72
X116.84Y-48.26
X116.84Y-53.34
X116.84Y-55.88
X116.84Y-58.42
X116.84Y-63.5
X116.84Y-66.04
X116.84Y-68.58
X116.84Y-76.2
X116.84Y-81.28
X116.84Y-83.82
X116.84Y-88.9
X116.84Y-93.98
X116.84Y-96.52
X116.84Y-99.06
X116.84Y-104.14
X116.84Y-106.68
X116.84Y-109.22
X116.84Y-111.769
X116.848Y-50.867
X116.848Y-61.027
X116.848Y-91.507
X116.848Y-101.667
X116.898Y-86.51
X119.346Y-83.862
X119.363Y-50.8
X119.363Y-53.315
X119.363Y-60.96
X119.363Y-63.475
X119.363Y-91.44
X119.363Y-93.955
X119.363Y-101.6
X119.363Y-104.115
X119.38Y-81.28
X119.38Y-88.891
X119.38Y-45.72
X119.38Y-48.26
X119.38Y-55.88
X119.38Y-58.42
X119.38Y-66.04
X119.38Y-68.58
X119.38Y-73.66
X119.38Y-76.2
X119.38Y-78.74
X119.38Y-86.36
X119.38Y-96.52
X119.38Y-99.06
X119.38Y-106.68
X119.38Y-109.22
X119.38Y-111.769
X119.388Y-71.187
X121.903Y-71.12
X121.903Y-73.635
X121.92Y-45.72
X121.92Y-48.26
X121.92Y-50.8
X121.92Y-53.34
X121.92Y-58.42
X121.92Y-60.96
X121.92Y-63.5
X121.92Y-68.58
X121.92Y-76.2
X121.92Y-78.74
X121.92Y-83.82
X121.92Y-86.36
X121.92Y-88.9
X121.92Y-91.44
X121.92Y-93.98
X121.92Y-99.06
X121.92Y-101.6
X121.92Y-104.14
X121.92Y-109.22
X121.92Y-111.769
X121.928Y-81.347
X121.978Y-56.03
X121.978Y-66.19
X121.978Y-96.67
X121.978Y-106.83
X124.426Y-94.022
X124.426Y-104.182
X124.443Y-81.28
X124.443Y-83.795
X124.46Y-91.44
X124.46Y-99.051
X124.46Y-101.6
X124.46Y-109.211
X124.46Y-111.76
X124.46Y-45.72
X124.46Y-48.26
X124.46Y-71.12
X124.46Y-73.66
X124.46Y-78.74
X124.46Y-86.36
X124.46Y-88.9
X124.46Y-96.52
X124.46Y-106.68
X124.518Y-76.35
X125.095Y-52.07
X125.095Y-57.15
X125.095Y-62.23
X125.095Y-66.675
X126.984Y-73.602
X127.0Y-71.12
X127.0Y-76.2
X127.0Y-78.74
X127.0Y-81.28
X127.0Y-83.82
X127.0Y-88.9
X127.0Y-93.98
X127.0Y-96.52
X127.0Y-99.06
X127.0Y-104.14
X127.008Y-91.507
X127.008Y-101.667
X127.058Y-86.51
X129.465Y-81.28
X129.523Y-91.44
X129.523Y-93.955
X129.523Y-101.6
X129.523Y-104.115
X129.532Y-76.184
X129.532Y-86.343
X129.54Y-71.12
X129.54Y-73.66
X129.54Y-78.74
X129.54Y-83.82
X129.54Y-88.9
X129.54Y-96.52
X129.54Y-99.06
X132.046Y-70.987
X132.08Y-73.66
X132.08Y-76.2
X132.08Y-78.74
X132.08Y-81.28
X132.08Y-86.36
X132.08Y-88.9
X132.08Y-91.44
X132.08Y-93.98
X132.08Y-99.06
X132.08Y-101.6
X132.08Y-104.14
X132.138Y-96.67
X132.181Y-83.795
T5
X130.36Y-51.862
X130.36Y-56.862
X130.36Y-61.862
X130.36Y-66.862
T0
M30
