M48
; DRILL file {KiCad (6.0.0)} date Sun Mar 13 21:01:21 2022
; FORMAT={-:-/ absolute / metric / decimal}
; #@! TF.CreationDate,2022-03-13T21:01:21-04:00
; #@! TF.GenerationSoftware,Kicad,Pcbnew,(6.0.0)
; #@! TF.FileFunction,Plated,1,2,PTH
FMAT,2
METRIC
; #@! TA.AperFunction,Plated,PTH,ComponentDrill
T1C0.700
; #@! TA.AperFunction,Plated,PTH,ComponentDrill
T2C1.000
%
G90
G05
T1
X96.52Y-27.94
X96.52Y-30.48
X96.52Y-33.02
X96.52Y-35.56
X96.52Y-38.1
X96.52Y-40.64
X111.76Y-27.94
X111.76Y-33.02
X111.76Y-35.56
X111.76Y-38.1
X111.76Y-40.64
X111.76Y-43.18
X111.76Y-45.72
X119.38Y-27.94
X119.38Y-30.48
X119.38Y-33.02
X119.38Y-35.56
X119.38Y-38.1
X119.38Y-40.64
X134.62Y-27.94
X134.62Y-33.02
X134.62Y-35.56
X134.62Y-38.1
X134.62Y-40.64
X134.62Y-43.18
X134.62Y-45.72
X142.24Y-27.94
X142.24Y-30.48
X142.24Y-33.02
X142.24Y-35.56
X142.24Y-38.1
X142.24Y-40.64
X157.48Y-27.94
X157.48Y-33.02
X157.48Y-35.56
X157.48Y-38.1
X157.48Y-40.64
X157.48Y-43.18
X157.48Y-45.72
X165.1Y-27.94
X165.1Y-30.48
X165.1Y-33.02
X165.1Y-35.56
X165.1Y-38.1
X165.1Y-40.64
X180.34Y-27.94
X180.34Y-33.02
X180.34Y-35.56
X180.34Y-38.1
X180.34Y-40.64
X180.34Y-43.18
X180.34Y-45.72
T2
X106.68Y-24.13
X109.22Y-24.13
X111.76Y-24.13
X114.3Y-24.13
X116.84Y-24.13
X119.38Y-24.13
X121.92Y-24.13
X124.46Y-24.13
X127.0Y-24.13
X129.54Y-24.13
X132.08Y-24.13
X134.62Y-24.13
X137.16Y-24.13
X139.7Y-24.13
X142.24Y-24.13
X144.78Y-24.13
X147.32Y-24.13
X149.86Y-24.13
X152.4Y-24.13
X154.94Y-24.13
X157.48Y-24.13
X160.02Y-24.13
X162.56Y-24.13
X165.1Y-24.13
X167.64Y-24.13
X170.18Y-24.13
X172.72Y-24.13
T0
M30
