%TF.GenerationSoftware,KiCad,Pcbnew,(6.0.0)*%
%TF.CreationDate,2022-03-13T21:01:20-04:00*%
%TF.ProjectId,panel meter display rev1,70616e65-6c20-46d6-9574-657220646973,rev?*%
%TF.SameCoordinates,Original*%
%TF.FileFunction,Copper,L1,Top*%
%TF.FilePolarity,Positive*%
%FSLAX46Y46*%
G04 Gerber Fmt 4.6, Leading zero omitted, Abs format (unit mm)*
G04 Created by KiCad (PCBNEW (6.0.0)) date 2022-03-13 21:01:20*
%MOMM*%
%LPD*%
G01*
G04 APERTURE LIST*
%TA.AperFunction,ComponentPad*%
%ADD10R,1.200000X1.200000*%
%TD*%
%TA.AperFunction,ComponentPad*%
%ADD11C,1.200000*%
%TD*%
%TA.AperFunction,ComponentPad*%
%ADD12R,1.700000X1.700000*%
%TD*%
%TA.AperFunction,ComponentPad*%
%ADD13O,1.700000X1.700000*%
%TD*%
%TA.AperFunction,Conductor*%
%ADD14C,0.250000*%
%TD*%
G04 APERTURE END LIST*
D10*
%TO.P,DS2,2,CATHODE_A*%
%TO.N,/A2*%
X119380000Y-27940000D03*
D11*
%TO.P,DS2,3,CATHODE_F*%
%TO.N,/F2*%
X119380000Y-30480000D03*
%TO.P,DS2,4,COMMON_ANODE_1*%
%TO.N,/Anode*%
X119380000Y-33020000D03*
%TO.P,DS2,5,CATHODE_E*%
%TO.N,/E2*%
X119380000Y-35560000D03*
%TO.P,DS2,6,COMMON_ANODE_2*%
%TO.N,/Anode*%
X119380000Y-38100000D03*
%TO.P,DS2,7,CATHODE_L.D.P*%
%TO.N,unconnected-(DS2-Pad7)*%
X119380000Y-40640000D03*
%TO.P,DS2,10,CATHODE_R.D.P*%
%TO.N,/DP2*%
X134620000Y-45720000D03*
%TO.P,DS2,11,CATHODE_D*%
%TO.N,/D2*%
X134620000Y-43180000D03*
%TO.P,DS2,12,COMMON_ANODE_3*%
%TO.N,/Anode*%
X134620000Y-40640000D03*
%TO.P,DS2,13,CATHODE_C*%
%TO.N,/C2*%
X134620000Y-38100000D03*
%TO.P,DS2,14,CATHODE_G*%
%TO.N,/G2*%
X134620000Y-35560000D03*
%TO.P,DS2,15,CATHODE_B*%
%TO.N,/B2*%
X134620000Y-33020000D03*
%TO.P,DS2,17,COMMON_ANODE_4*%
%TO.N,/Anode*%
X134620000Y-27940000D03*
%TD*%
D10*
%TO.P,DS4,2,CATHODE_A*%
%TO.N,unconnected-(DS4-Pad2)*%
X165100000Y-27940000D03*
D11*
%TO.P,DS4,3,CATHODE_F*%
%TO.N,unconnected-(DS4-Pad3)*%
X165100000Y-30480000D03*
%TO.P,DS4,4,COMMON_ANODE_1*%
%TO.N,/Anode*%
X165100000Y-33020000D03*
%TO.P,DS4,5,CATHODE_E*%
%TO.N,unconnected-(DS4-Pad5)*%
X165100000Y-35560000D03*
%TO.P,DS4,6,COMMON_ANODE_2*%
%TO.N,/Anode*%
X165100000Y-38100000D03*
%TO.P,DS4,7,CATHODE_L.D.P*%
%TO.N,unconnected-(DS4-Pad7)*%
X165100000Y-40640000D03*
%TO.P,DS4,10,CATHODE_R.D.P*%
%TO.N,/DP4*%
X180340000Y-45720000D03*
%TO.P,DS4,11,CATHODE_D*%
%TO.N,unconnected-(DS4-Pad11)*%
X180340000Y-43180000D03*
%TO.P,DS4,12,COMMON_ANODE_3*%
%TO.N,/Anode*%
X180340000Y-40640000D03*
%TO.P,DS4,13,CATHODE_C*%
%TO.N,/BC4*%
X180340000Y-38100000D03*
%TO.P,DS4,14,CATHODE_G*%
%TO.N,/POL*%
X180340000Y-35560000D03*
%TO.P,DS4,15,CATHODE_B*%
%TO.N,/BC4*%
X180340000Y-33020000D03*
%TO.P,DS4,17,COMMON_ANODE_4*%
%TO.N,/Anode*%
X180340000Y-27940000D03*
%TD*%
D10*
%TO.P,DS1,2,CATHODE_A*%
%TO.N,/A1*%
X96520000Y-27940000D03*
D11*
%TO.P,DS1,3,CATHODE_F*%
%TO.N,/F1*%
X96520000Y-30480000D03*
%TO.P,DS1,4,COMMON_ANODE_1*%
%TO.N,/Anode*%
X96520000Y-33020000D03*
%TO.P,DS1,5,CATHODE_E*%
%TO.N,/E1*%
X96520000Y-35560000D03*
%TO.P,DS1,6,COMMON_ANODE_2*%
%TO.N,/Anode*%
X96520000Y-38100000D03*
%TO.P,DS1,7,CATHODE_L.D.P*%
%TO.N,unconnected-(DS1-Pad7)*%
X96520000Y-40640000D03*
%TO.P,DS1,10,CATHODE_R.D.P*%
%TO.N,unconnected-(DS1-Pad10)*%
X111760000Y-45720000D03*
%TO.P,DS1,11,CATHODE_D*%
%TO.N,/D1*%
X111760000Y-43180000D03*
%TO.P,DS1,12,COMMON_ANODE_3*%
%TO.N,/Anode*%
X111760000Y-40640000D03*
%TO.P,DS1,13,CATHODE_C*%
%TO.N,/C1*%
X111760000Y-38100000D03*
%TO.P,DS1,14,CATHODE_G*%
%TO.N,/G1*%
X111760000Y-35560000D03*
%TO.P,DS1,15,CATHODE_B*%
%TO.N,/B1*%
X111760000Y-33020000D03*
%TO.P,DS1,17,COMMON_ANODE_4*%
%TO.N,/Anode*%
X111760000Y-27940000D03*
%TD*%
D10*
%TO.P,DS3,2,CATHODE_A*%
%TO.N,/A3*%
X142240000Y-27940000D03*
D11*
%TO.P,DS3,3,CATHODE_F*%
%TO.N,/F3*%
X142240000Y-30480000D03*
%TO.P,DS3,4,COMMON_ANODE_1*%
%TO.N,/Anode*%
X142240000Y-33020000D03*
%TO.P,DS3,5,CATHODE_E*%
%TO.N,/E3*%
X142240000Y-35560000D03*
%TO.P,DS3,6,COMMON_ANODE_2*%
%TO.N,/Anode*%
X142240000Y-38100000D03*
%TO.P,DS3,7,CATHODE_L.D.P*%
%TO.N,unconnected-(DS3-Pad7)*%
X142240000Y-40640000D03*
%TO.P,DS3,10,CATHODE_R.D.P*%
%TO.N,/DP3*%
X157480000Y-45720000D03*
%TO.P,DS3,11,CATHODE_D*%
%TO.N,/D3*%
X157480000Y-43180000D03*
%TO.P,DS3,12,COMMON_ANODE_3*%
%TO.N,/Anode*%
X157480000Y-40640000D03*
%TO.P,DS3,13,CATHODE_C*%
%TO.N,/C3*%
X157480000Y-38100000D03*
%TO.P,DS3,14,CATHODE_G*%
%TO.N,/G3*%
X157480000Y-35560000D03*
%TO.P,DS3,15,CATHODE_B*%
%TO.N,/B3*%
X157480000Y-33020000D03*
%TO.P,DS3,17,COMMON_ANODE_4*%
%TO.N,/Anode*%
X157480000Y-27940000D03*
%TD*%
D12*
%TO.P,J1,1,Pin_1*%
%TO.N,/Anode*%
X106680000Y-24130000D03*
D13*
%TO.P,J1,2,Pin_2*%
%TO.N,/C1*%
X109220000Y-24130000D03*
%TO.P,J1,3,Pin_3*%
%TO.N,/D1*%
X111760000Y-24130000D03*
%TO.P,J1,4,Pin_4*%
%TO.N,/E1*%
X114300000Y-24130000D03*
%TO.P,J1,5,Pin_5*%
%TO.N,/B1*%
X116840000Y-24130000D03*
%TO.P,J1,6,Pin_6*%
%TO.N,/A1*%
X119380000Y-24130000D03*
%TO.P,J1,7,Pin_7*%
%TO.N,/DP2*%
X121920000Y-24130000D03*
%TO.P,J1,8,Pin_8*%
%TO.N,/F1*%
X124460000Y-24130000D03*
%TO.P,J1,9,Pin_9*%
%TO.N,/G1*%
X127000000Y-24130000D03*
%TO.P,J1,10,Pin_10*%
%TO.N,/B2*%
X129540000Y-24130000D03*
%TO.P,J1,11,Pin_11*%
%TO.N,/A2*%
X132080000Y-24130000D03*
%TO.P,J1,12,Pin_12*%
%TO.N,/C2*%
X134620000Y-24130000D03*
%TO.P,J1,13,Pin_13*%
%TO.N,/D2*%
X137160000Y-24130000D03*
%TO.P,J1,14,Pin_14*%
%TO.N,/F2*%
X139700000Y-24130000D03*
%TO.P,J1,15,Pin_15*%
%TO.N,/G2*%
X142240000Y-24130000D03*
%TO.P,J1,16,Pin_16*%
%TO.N,/B3*%
X144780000Y-24130000D03*
%TO.P,J1,17,Pin_17*%
%TO.N,/A3*%
X147320000Y-24130000D03*
%TO.P,J1,18,Pin_18*%
%TO.N,/E2*%
X149860000Y-24130000D03*
%TO.P,J1,19,Pin_19*%
%TO.N,/F3*%
X152400000Y-24130000D03*
%TO.P,J1,20,Pin_20*%
%TO.N,/G3*%
X154940000Y-24130000D03*
%TO.P,J1,21,Pin_21*%
%TO.N,/DP3*%
X157480000Y-24130000D03*
%TO.P,J1,22,Pin_22*%
%TO.N,/C3*%
X160020000Y-24130000D03*
%TO.P,J1,23,Pin_23*%
%TO.N,/D3*%
X162560000Y-24130000D03*
%TO.P,J1,24,Pin_24*%
%TO.N,/E3*%
X165100000Y-24130000D03*
%TO.P,J1,25,Pin_25*%
%TO.N,/DP4*%
X167640000Y-24130000D03*
%TO.P,J1,26,Pin_26*%
%TO.N,/BC4*%
X170180000Y-24130000D03*
%TO.P,J1,27,Pin_27*%
%TO.N,/POL*%
X172720000Y-24130000D03*
%TD*%
D14*
%TO.N,/A1*%
X118205489Y-22955489D02*
X101504511Y-22955489D01*
X119380000Y-24130000D02*
X118205489Y-22955489D01*
X101504511Y-22955489D02*
X96520000Y-27940000D01*
%TO.N,/F1*%
X122835969Y-22505969D02*
X99414031Y-22505969D01*
X99414031Y-22505969D02*
X95595489Y-26324511D01*
X95595489Y-26324511D02*
X95595489Y-29555489D01*
X95595489Y-29555489D02*
X96520000Y-30480000D01*
X124460000Y-24130000D02*
X122835969Y-22505969D01*
%TO.N,/D1*%
X114300000Y-26670000D02*
X114300000Y-40640000D01*
X114300000Y-40640000D02*
X111760000Y-43180000D01*
X111760000Y-24130000D02*
X114300000Y-26670000D01*
%TO.N,/C1*%
X109220000Y-24130000D02*
X109220000Y-35560000D01*
X109220000Y-35560000D02*
X111760000Y-38100000D01*
%TO.N,/A2*%
X128270000Y-27940000D02*
X132080000Y-24130000D01*
X119380000Y-27940000D02*
X128270000Y-27940000D01*
%TO.N,/F2*%
X119380000Y-30480000D02*
X127000000Y-30480000D01*
X132080000Y-25400000D02*
X138430000Y-25400000D01*
X127000000Y-30480000D02*
X132080000Y-25400000D01*
X138430000Y-25400000D02*
X139700000Y-24130000D01*
%TO.N,/E2*%
X123190000Y-35560000D02*
X132900480Y-25849520D01*
X148140480Y-25849520D02*
X149860000Y-24130000D01*
X132900480Y-25849520D02*
X148140480Y-25849520D01*
X119380000Y-35560000D02*
X123190000Y-35560000D01*
%TO.N,/A3*%
X147711010Y-27940000D02*
X151130000Y-24521010D01*
X142240000Y-27940000D02*
X147711010Y-27940000D01*
X151130000Y-24521010D02*
X151130000Y-23738990D01*
X148590000Y-22860000D02*
X147320000Y-24130000D01*
X150251010Y-22860000D02*
X148590000Y-22860000D01*
X151130000Y-23738990D02*
X150251010Y-22860000D01*
%TO.N,/F3*%
X142240000Y-30480000D02*
X146050000Y-30480000D01*
X146050000Y-30480000D02*
X152400000Y-24130000D01*
%TO.N,/E3*%
X157703654Y-47439520D02*
X154119520Y-47439520D01*
X154119520Y-47439520D02*
X142240000Y-35560000D01*
X160469520Y-28760480D02*
X160469520Y-44673654D01*
X160469520Y-44673654D02*
X157703654Y-47439520D01*
X165100000Y-24130000D02*
X160469520Y-28760480D01*
%TO.N,/DP3*%
X157480000Y-45720000D02*
X159303551Y-43896449D01*
X159303551Y-25953551D02*
X157480000Y-24130000D01*
X159303551Y-43896449D02*
X159303551Y-25953551D01*
%TO.N,/D3*%
X157480000Y-43180000D02*
X156555489Y-44104511D01*
X156555489Y-46102946D02*
X157442543Y-46990000D01*
X160020000Y-26670000D02*
X162560000Y-24130000D01*
X157442543Y-46990000D02*
X157517457Y-46990000D01*
X156555489Y-44104511D02*
X156555489Y-46102946D01*
X160020000Y-44487457D02*
X160020000Y-26670000D01*
X157517457Y-46990000D02*
X160020000Y-44487457D01*
%TO.N,/C3*%
X158750000Y-22860000D02*
X160020000Y-24130000D01*
X156210000Y-23738990D02*
X157088990Y-22860000D01*
X158854031Y-31854031D02*
X156210000Y-29210000D01*
X157480000Y-38100000D02*
X158854031Y-36725969D01*
X157088990Y-22860000D02*
X158750000Y-22860000D01*
X156210000Y-29210000D02*
X156210000Y-23738990D01*
X158854031Y-36725969D02*
X158854031Y-31854031D01*
%TO.N,/G3*%
X157480000Y-35560000D02*
X158404511Y-34635489D01*
X158404511Y-32637054D02*
X154940000Y-29172543D01*
X158404511Y-34635489D02*
X158404511Y-32637054D01*
X154940000Y-29172543D02*
X154940000Y-24130000D01*
%TO.N,/B3*%
X153574511Y-23643501D02*
X152341490Y-22410480D01*
X153574511Y-29114511D02*
X153574511Y-23643501D01*
X152341490Y-22410480D02*
X146499520Y-22410480D01*
X146499520Y-22410480D02*
X144780000Y-24130000D01*
X157480000Y-33020000D02*
X153574511Y-29114511D01*
%TO.N,/DP4*%
X176530000Y-33020000D02*
X176530000Y-41910000D01*
X176530000Y-41910000D02*
X180340000Y-45720000D01*
X167640000Y-24130000D02*
X176530000Y-33020000D01*
%TO.N,/BC4*%
X179415489Y-37175489D02*
X179415489Y-33944511D01*
X179070000Y-33020000D02*
X180340000Y-33020000D01*
X180340000Y-38100000D02*
X179415489Y-37175489D01*
X179415489Y-33944511D02*
X180340000Y-33020000D01*
X170180000Y-24130000D02*
X179070000Y-33020000D01*
%TO.N,/POL*%
X181264511Y-34635489D02*
X181264511Y-31404511D01*
X173990000Y-24130000D02*
X172720000Y-24130000D01*
X180340000Y-35560000D02*
X181264511Y-34635489D01*
X181264511Y-31404511D02*
X173990000Y-24130000D01*
%TD*%
%TA.AperFunction,Conductor*%
%TO.N,/Anode*%
G36*
X187930057Y-20829500D02*
G01*
X187944858Y-20831805D01*
X187944861Y-20831805D01*
X187953730Y-20833186D01*
X187972411Y-20830743D01*
X187995342Y-20829852D01*
X188298557Y-20845743D01*
X188311665Y-20847120D01*
X188551285Y-20885072D01*
X188640002Y-20899123D01*
X188652902Y-20901865D01*
X188974000Y-20987903D01*
X188986536Y-20991977D01*
X189259358Y-21096703D01*
X189296876Y-21111105D01*
X189308924Y-21116469D01*
X189605120Y-21267388D01*
X189616536Y-21273979D01*
X189895334Y-21455033D01*
X189905996Y-21462779D01*
X190164344Y-21671984D01*
X190174145Y-21680810D01*
X190409190Y-21915855D01*
X190418015Y-21925655D01*
X190560787Y-22101964D01*
X190627221Y-22184004D01*
X190634967Y-22194666D01*
X190816018Y-22473459D01*
X190822612Y-22484880D01*
X190973531Y-22781076D01*
X190978895Y-22793124D01*
X190983053Y-22803955D01*
X191095419Y-23096677D01*
X191098021Y-23103456D01*
X191102097Y-23115999D01*
X191109157Y-23142348D01*
X191188135Y-23437098D01*
X191190877Y-23449998D01*
X191199984Y-23507495D01*
X191236452Y-23737747D01*
X191242879Y-23778329D01*
X191244257Y-23791443D01*
X191254823Y-23993049D01*
X191259764Y-24087330D01*
X191258436Y-24113312D01*
X191258195Y-24114856D01*
X191258195Y-24114860D01*
X191256814Y-24123730D01*
X191257978Y-24132632D01*
X191257978Y-24132635D01*
X191260936Y-24155251D01*
X191262000Y-24171589D01*
X191262000Y-46940672D01*
X191260500Y-46960056D01*
X191256814Y-46983730D01*
X191259257Y-47002410D01*
X191260148Y-47025343D01*
X191244257Y-47328554D01*
X191242880Y-47341665D01*
X191229656Y-47425159D01*
X191190877Y-47670002D01*
X191188135Y-47682902D01*
X191102097Y-48004000D01*
X191098023Y-48016536D01*
X191076318Y-48073082D01*
X190978895Y-48326876D01*
X190973531Y-48338924D01*
X190822612Y-48635120D01*
X190816021Y-48646536D01*
X190634967Y-48925334D01*
X190627224Y-48935992D01*
X190418016Y-49194344D01*
X190409190Y-49204145D01*
X190174145Y-49439190D01*
X190164344Y-49448016D01*
X189905996Y-49657221D01*
X189895334Y-49664967D01*
X189616536Y-49846021D01*
X189605120Y-49852612D01*
X189308924Y-50003531D01*
X189296875Y-50008895D01*
X188986536Y-50128023D01*
X188974000Y-50132097D01*
X188652902Y-50218135D01*
X188640002Y-50220877D01*
X188551285Y-50234928D01*
X188311665Y-50272880D01*
X188298557Y-50274257D01*
X188002666Y-50289764D01*
X187976688Y-50288436D01*
X187975144Y-50288195D01*
X187975140Y-50288195D01*
X187966270Y-50286814D01*
X187957368Y-50287978D01*
X187957365Y-50287978D01*
X187934749Y-50290936D01*
X187918411Y-50292000D01*
X88949328Y-50292000D01*
X88929943Y-50290500D01*
X88915142Y-50288195D01*
X88915139Y-50288195D01*
X88906270Y-50286814D01*
X88887589Y-50289257D01*
X88864658Y-50290148D01*
X88561443Y-50274257D01*
X88548335Y-50272880D01*
X88308715Y-50234928D01*
X88219998Y-50220877D01*
X88207098Y-50218135D01*
X87886000Y-50132097D01*
X87873464Y-50128023D01*
X87563125Y-50008895D01*
X87551076Y-50003531D01*
X87254880Y-49852612D01*
X87243464Y-49846021D01*
X86964666Y-49664967D01*
X86954004Y-49657221D01*
X86695656Y-49448016D01*
X86685855Y-49439190D01*
X86450810Y-49204145D01*
X86441984Y-49194344D01*
X86232776Y-48935992D01*
X86225033Y-48925334D01*
X86043979Y-48646536D01*
X86037388Y-48635120D01*
X85886469Y-48338924D01*
X85881105Y-48326876D01*
X85783682Y-48073082D01*
X85761977Y-48016536D01*
X85757903Y-48004000D01*
X85671865Y-47682902D01*
X85669123Y-47670002D01*
X85630344Y-47425159D01*
X85617120Y-47341665D01*
X85615743Y-47328554D01*
X85605887Y-47140488D01*
X85604955Y-47122703D01*
X86790743Y-47122703D01*
X86828268Y-47407734D01*
X86904129Y-47685036D01*
X86905813Y-47688984D01*
X87014614Y-47944062D01*
X87016923Y-47949476D01*
X87164561Y-48196161D01*
X87344313Y-48420528D01*
X87552851Y-48618423D01*
X87786317Y-48786186D01*
X87790112Y-48788195D01*
X87790113Y-48788196D01*
X87811869Y-48799715D01*
X88040392Y-48920712D01*
X88310373Y-49019511D01*
X88591264Y-49080755D01*
X88619841Y-49083004D01*
X88814282Y-49098307D01*
X88814291Y-49098307D01*
X88816739Y-49098500D01*
X88972271Y-49098500D01*
X88974407Y-49098354D01*
X88974418Y-49098354D01*
X89182548Y-49084165D01*
X89182554Y-49084164D01*
X89186825Y-49083873D01*
X89191020Y-49083004D01*
X89191022Y-49083004D01*
X89327584Y-49054723D01*
X89468342Y-49025574D01*
X89739343Y-48929607D01*
X89994812Y-48797750D01*
X89998313Y-48795289D01*
X89998317Y-48795287D01*
X90112418Y-48715095D01*
X90230023Y-48632441D01*
X90440622Y-48436740D01*
X90622713Y-48214268D01*
X90772927Y-47969142D01*
X90805064Y-47895933D01*
X90886757Y-47709830D01*
X90888483Y-47705898D01*
X90967244Y-47429406D01*
X91007751Y-47144784D01*
X91007845Y-47126951D01*
X91009235Y-46861583D01*
X91009235Y-46861576D01*
X91009257Y-46857297D01*
X91004670Y-46822450D01*
X90980687Y-46640284D01*
X90971732Y-46572266D01*
X90895871Y-46294964D01*
X90864871Y-46222285D01*
X90784763Y-46034476D01*
X90784761Y-46034472D01*
X90783077Y-46030524D01*
X90635439Y-45783839D01*
X90560948Y-45690859D01*
X110647132Y-45690859D01*
X110660457Y-45894151D01*
X110710605Y-46091610D01*
X110795898Y-46276624D01*
X110913479Y-46442997D01*
X110917613Y-46447024D01*
X111045928Y-46572023D01*
X111059410Y-46585157D01*
X111064206Y-46588362D01*
X111064209Y-46588364D01*
X111068042Y-46590925D01*
X111228803Y-46698342D01*
X111234106Y-46700620D01*
X111234109Y-46700622D01*
X111323115Y-46738862D01*
X111415987Y-46778763D01*
X111488817Y-46795243D01*
X111609055Y-46822450D01*
X111609060Y-46822451D01*
X111614692Y-46823725D01*
X111620463Y-46823952D01*
X111620465Y-46823952D01*
X111683470Y-46826427D01*
X111818263Y-46831723D01*
X112019883Y-46802490D01*
X112025347Y-46800635D01*
X112025352Y-46800634D01*
X112207327Y-46738862D01*
X112207332Y-46738860D01*
X112212799Y-46737004D01*
X112235927Y-46724052D01*
X112287567Y-46695132D01*
X112390551Y-46637458D01*
X112547186Y-46507186D01*
X112677458Y-46350551D01*
X112743958Y-46231807D01*
X112774180Y-46177842D01*
X112774181Y-46177840D01*
X112777004Y-46172799D01*
X112778860Y-46167332D01*
X112778862Y-46167327D01*
X112840634Y-45985352D01*
X112840635Y-45985347D01*
X112842490Y-45979883D01*
X112871723Y-45778263D01*
X112873249Y-45720000D01*
X112870571Y-45690859D01*
X133507132Y-45690859D01*
X133520457Y-45894151D01*
X133570605Y-46091610D01*
X133655898Y-46276624D01*
X133773479Y-46442997D01*
X133777613Y-46447024D01*
X133905928Y-46572023D01*
X133919410Y-46585157D01*
X133924206Y-46588362D01*
X133924209Y-46588364D01*
X133928042Y-46590925D01*
X134088803Y-46698342D01*
X134094106Y-46700620D01*
X134094109Y-46700622D01*
X134183115Y-46738862D01*
X134275987Y-46778763D01*
X134348817Y-46795243D01*
X134469055Y-46822450D01*
X134469060Y-46822451D01*
X134474692Y-46823725D01*
X134480463Y-46823952D01*
X134480465Y-46823952D01*
X134543470Y-46826427D01*
X134678263Y-46831723D01*
X134879883Y-46802490D01*
X134885347Y-46800635D01*
X134885352Y-46800634D01*
X135067327Y-46738862D01*
X135067332Y-46738860D01*
X135072799Y-46737004D01*
X135095927Y-46724052D01*
X135147567Y-46695132D01*
X135250551Y-46637458D01*
X135407186Y-46507186D01*
X135537458Y-46350551D01*
X135603958Y-46231807D01*
X135634180Y-46177842D01*
X135634181Y-46177840D01*
X135637004Y-46172799D01*
X135638860Y-46167332D01*
X135638862Y-46167327D01*
X135700634Y-45985352D01*
X135700635Y-45985347D01*
X135702490Y-45979883D01*
X135731723Y-45778263D01*
X135733249Y-45720000D01*
X135717314Y-45546579D01*
X135715137Y-45522880D01*
X135715136Y-45522877D01*
X135714608Y-45517126D01*
X135659307Y-45321047D01*
X135648680Y-45299496D01*
X135571756Y-45143510D01*
X135569201Y-45138329D01*
X135552518Y-45115987D01*
X135450758Y-44979715D01*
X135450758Y-44979714D01*
X135447305Y-44975091D01*
X135346059Y-44881500D01*
X135301943Y-44840719D01*
X135301940Y-44840717D01*
X135297703Y-44836800D01*
X135233847Y-44796510D01*
X135130288Y-44731169D01*
X135130283Y-44731167D01*
X135125404Y-44728088D01*
X134936180Y-44652595D01*
X134736366Y-44612849D01*
X134730592Y-44612773D01*
X134730588Y-44612773D01*
X134627452Y-44611424D01*
X134532655Y-44610183D01*
X134526958Y-44611162D01*
X134526957Y-44611162D01*
X134504656Y-44614994D01*
X134331870Y-44644684D01*
X134140734Y-44715198D01*
X134135773Y-44718150D01*
X134135772Y-44718150D01*
X134063135Y-44761365D01*
X133965649Y-44819363D01*
X133812478Y-44953690D01*
X133808911Y-44958215D01*
X133808906Y-44958220D01*
X133742839Y-45042026D01*
X133686351Y-45113681D01*
X133683662Y-45118792D01*
X133683660Y-45118795D01*
X133651309Y-45180285D01*
X133591492Y-45293978D01*
X133531078Y-45488543D01*
X133507132Y-45690859D01*
X112870571Y-45690859D01*
X112857314Y-45546579D01*
X112855137Y-45522880D01*
X112855136Y-45522877D01*
X112854608Y-45517126D01*
X112799307Y-45321047D01*
X112788680Y-45299496D01*
X112711756Y-45143510D01*
X112709201Y-45138329D01*
X112692518Y-45115987D01*
X112590758Y-44979715D01*
X112590758Y-44979714D01*
X112587305Y-44975091D01*
X112486059Y-44881500D01*
X112441943Y-44840719D01*
X112441940Y-44840717D01*
X112437703Y-44836800D01*
X112373847Y-44796510D01*
X112270288Y-44731169D01*
X112270283Y-44731167D01*
X112265404Y-44728088D01*
X112076180Y-44652595D01*
X111876366Y-44612849D01*
X111870592Y-44612773D01*
X111870588Y-44612773D01*
X111767452Y-44611424D01*
X111672655Y-44610183D01*
X111666958Y-44611162D01*
X111666957Y-44611162D01*
X111644656Y-44614994D01*
X111471870Y-44644684D01*
X111280734Y-44715198D01*
X111275773Y-44718150D01*
X111275772Y-44718150D01*
X111203135Y-44761365D01*
X111105649Y-44819363D01*
X110952478Y-44953690D01*
X110948911Y-44958215D01*
X110948906Y-44958220D01*
X110882839Y-45042026D01*
X110826351Y-45113681D01*
X110823662Y-45118792D01*
X110823660Y-45118795D01*
X110791309Y-45180285D01*
X110731492Y-45293978D01*
X110671078Y-45488543D01*
X110647132Y-45690859D01*
X90560948Y-45690859D01*
X90455687Y-45559472D01*
X90247149Y-45361577D01*
X90013683Y-45193814D01*
X89991843Y-45182250D01*
X89900151Y-45133702D01*
X89759608Y-45059288D01*
X89489627Y-44960489D01*
X89208736Y-44899245D01*
X89177685Y-44896801D01*
X88985718Y-44881693D01*
X88985709Y-44881693D01*
X88983261Y-44881500D01*
X88827729Y-44881500D01*
X88825593Y-44881646D01*
X88825582Y-44881646D01*
X88617452Y-44895835D01*
X88617446Y-44895836D01*
X88613175Y-44896127D01*
X88608980Y-44896996D01*
X88608978Y-44896996D01*
X88552394Y-44908714D01*
X88331658Y-44954426D01*
X88060657Y-45050393D01*
X87805188Y-45182250D01*
X87801687Y-45184711D01*
X87801683Y-45184713D01*
X87791594Y-45191804D01*
X87569977Y-45347559D01*
X87554892Y-45361577D01*
X87393485Y-45511566D01*
X87359378Y-45543260D01*
X87177287Y-45765732D01*
X87027073Y-46010858D01*
X87025347Y-46014791D01*
X87025346Y-46014792D01*
X86983144Y-46110932D01*
X86911517Y-46274102D01*
X86832756Y-46550594D01*
X86818148Y-46653237D01*
X86796907Y-46802490D01*
X86792249Y-46835216D01*
X86792227Y-46839505D01*
X86792226Y-46839512D01*
X86790765Y-47118417D01*
X86790743Y-47122703D01*
X85604955Y-47122703D01*
X85600236Y-47032666D01*
X85601564Y-47006688D01*
X85601805Y-47005144D01*
X85601805Y-47005140D01*
X85603186Y-46996270D01*
X85601547Y-46983730D01*
X85599064Y-46964749D01*
X85598000Y-46948411D01*
X85598000Y-40610859D01*
X95407132Y-40610859D01*
X95420457Y-40814151D01*
X95470605Y-41011610D01*
X95555898Y-41196624D01*
X95673479Y-41362997D01*
X95819410Y-41505157D01*
X95824206Y-41508362D01*
X95824209Y-41508364D01*
X95949227Y-41591898D01*
X95988803Y-41618342D01*
X95994106Y-41620620D01*
X95994109Y-41620622D01*
X96170680Y-41696483D01*
X96175987Y-41698763D01*
X96248817Y-41715243D01*
X96369055Y-41742450D01*
X96369060Y-41742451D01*
X96374692Y-41743725D01*
X96380463Y-41743952D01*
X96380465Y-41743952D01*
X96443470Y-41746427D01*
X96578263Y-41751723D01*
X96779883Y-41722490D01*
X96785347Y-41720635D01*
X96785352Y-41720634D01*
X96967327Y-41658862D01*
X96967332Y-41658860D01*
X96972799Y-41657004D01*
X96978653Y-41653726D01*
X97048354Y-41614691D01*
X97150551Y-41557458D01*
X97307186Y-41427186D01*
X97437458Y-41270551D01*
X97537004Y-41092799D01*
X97538860Y-41087332D01*
X97538862Y-41087327D01*
X97600634Y-40905352D01*
X97600635Y-40905347D01*
X97602490Y-40899883D01*
X97631723Y-40698263D01*
X97633249Y-40640000D01*
X97631102Y-40616638D01*
X110648012Y-40616638D01*
X110660575Y-40808304D01*
X110662376Y-40819674D01*
X110709657Y-41005843D01*
X110713498Y-41016690D01*
X110793916Y-41191130D01*
X110799664Y-41201086D01*
X110805788Y-41209751D01*
X110816377Y-41218140D01*
X110829676Y-41211113D01*
X111387979Y-40652811D01*
X111395592Y-40638868D01*
X111395461Y-40637034D01*
X111391210Y-40630420D01*
X110828538Y-40067749D01*
X110816163Y-40060992D01*
X110810197Y-40065458D01*
X110734645Y-40209058D01*
X110730242Y-40219691D01*
X110673281Y-40403132D01*
X110670891Y-40414376D01*
X110648313Y-40605137D01*
X110648012Y-40616638D01*
X97631102Y-40616638D01*
X97621860Y-40516049D01*
X97615137Y-40442880D01*
X97615136Y-40442877D01*
X97614608Y-40437126D01*
X97559307Y-40241047D01*
X97548776Y-40219691D01*
X97471756Y-40063510D01*
X97469201Y-40058329D01*
X97450796Y-40033681D01*
X97350758Y-39899715D01*
X97350758Y-39899714D01*
X97347305Y-39895091D01*
X97197703Y-39756800D01*
X97105580Y-39698675D01*
X111182788Y-39698675D01*
X111186275Y-39707064D01*
X111747189Y-40267979D01*
X111761132Y-40275592D01*
X111762966Y-40275461D01*
X111769580Y-40271210D01*
X112330285Y-39710504D01*
X112337042Y-39698129D01*
X112331012Y-39690073D01*
X112270061Y-39651616D01*
X112259813Y-39646395D01*
X112081401Y-39575216D01*
X112070373Y-39571949D01*
X111881982Y-39534476D01*
X111870535Y-39533273D01*
X111678477Y-39530759D01*
X111666997Y-39531662D01*
X111477697Y-39564190D01*
X111466577Y-39567170D01*
X111286365Y-39633653D01*
X111275991Y-39638601D01*
X111192385Y-39688342D01*
X111182788Y-39698675D01*
X97105580Y-39698675D01*
X97091947Y-39690073D01*
X97030288Y-39651169D01*
X97030283Y-39651167D01*
X97025404Y-39648088D01*
X96836180Y-39572595D01*
X96661663Y-39537881D01*
X96642032Y-39533976D01*
X96642031Y-39533976D01*
X96636366Y-39532849D01*
X96630592Y-39532773D01*
X96630588Y-39532773D01*
X96527452Y-39531424D01*
X96432655Y-39530183D01*
X96426958Y-39531162D01*
X96426957Y-39531162D01*
X96407671Y-39534476D01*
X96231870Y-39564684D01*
X96040734Y-39635198D01*
X96035773Y-39638150D01*
X96035772Y-39638150D01*
X95919939Y-39707064D01*
X95865649Y-39739363D01*
X95712478Y-39873690D01*
X95708911Y-39878215D01*
X95708906Y-39878220D01*
X95622331Y-39988040D01*
X95586351Y-40033681D01*
X95583662Y-40038792D01*
X95583660Y-40038795D01*
X95569480Y-40065747D01*
X95491492Y-40213978D01*
X95431078Y-40408543D01*
X95407132Y-40610859D01*
X85598000Y-40610859D01*
X85598000Y-39041294D01*
X95943066Y-39041294D01*
X95952948Y-39053783D01*
X95984239Y-39074691D01*
X95994349Y-39080181D01*
X96170835Y-39156005D01*
X96181778Y-39159560D01*
X96369120Y-39201952D01*
X96380530Y-39203454D01*
X96572469Y-39210995D01*
X96583951Y-39210393D01*
X96774045Y-39182832D01*
X96785240Y-39180144D01*
X96967131Y-39118400D01*
X96977628Y-39113726D01*
X97088032Y-39051898D01*
X97097895Y-39041821D01*
X97094940Y-39034151D01*
X96532811Y-38472021D01*
X96518868Y-38464408D01*
X96517034Y-38464539D01*
X96510420Y-38468790D01*
X95949259Y-39029952D01*
X95943066Y-39041294D01*
X85598000Y-39041294D01*
X85598000Y-38076638D01*
X95408012Y-38076638D01*
X95420575Y-38268304D01*
X95422376Y-38279674D01*
X95469657Y-38465843D01*
X95473498Y-38476690D01*
X95553916Y-38651130D01*
X95559664Y-38661086D01*
X95565788Y-38669751D01*
X95576377Y-38678140D01*
X95589676Y-38671113D01*
X96147979Y-38112811D01*
X96154356Y-38101132D01*
X96884408Y-38101132D01*
X96884539Y-38102966D01*
X96888790Y-38109580D01*
X97450239Y-38671028D01*
X97462614Y-38677785D01*
X97469194Y-38672859D01*
X97533726Y-38557628D01*
X97538400Y-38547131D01*
X97600144Y-38365240D01*
X97602832Y-38354045D01*
X97630689Y-38161911D01*
X97631319Y-38154528D01*
X97632650Y-38103704D01*
X97632407Y-38096305D01*
X97614643Y-37902975D01*
X97612545Y-37891654D01*
X97560408Y-37706791D01*
X97556283Y-37696044D01*
X97472163Y-37525465D01*
X97464869Y-37519990D01*
X97452449Y-37526762D01*
X96892021Y-38087189D01*
X96884408Y-38101132D01*
X96154356Y-38101132D01*
X96155592Y-38098868D01*
X96155461Y-38097034D01*
X96151210Y-38090420D01*
X95588538Y-37527749D01*
X95576163Y-37520992D01*
X95570197Y-37525458D01*
X95494645Y-37669058D01*
X95490242Y-37679691D01*
X95433281Y-37863132D01*
X95430891Y-37874376D01*
X95408313Y-38065137D01*
X95408012Y-38076638D01*
X85598000Y-38076638D01*
X85598000Y-37158675D01*
X95942788Y-37158675D01*
X95946275Y-37167064D01*
X96507189Y-37727979D01*
X96521132Y-37735592D01*
X96522966Y-37735461D01*
X96529580Y-37731210D01*
X97090285Y-37170504D01*
X97097042Y-37158129D01*
X97091012Y-37150073D01*
X97030061Y-37111616D01*
X97019813Y-37106395D01*
X96841401Y-37035216D01*
X96830373Y-37031949D01*
X96641982Y-36994476D01*
X96630535Y-36993273D01*
X96438477Y-36990759D01*
X96426997Y-36991662D01*
X96237697Y-37024190D01*
X96226577Y-37027170D01*
X96046365Y-37093653D01*
X96035991Y-37098601D01*
X95952385Y-37148342D01*
X95942788Y-37158675D01*
X85598000Y-37158675D01*
X85598000Y-35530859D01*
X95407132Y-35530859D01*
X95420457Y-35734151D01*
X95470605Y-35931610D01*
X95555898Y-36116624D01*
X95673479Y-36282997D01*
X95819410Y-36425157D01*
X95824206Y-36428362D01*
X95824209Y-36428364D01*
X95876890Y-36463564D01*
X95988803Y-36538342D01*
X95994106Y-36540620D01*
X95994109Y-36540622D01*
X96083115Y-36578862D01*
X96175987Y-36618763D01*
X96228989Y-36630756D01*
X96369055Y-36662450D01*
X96369060Y-36662451D01*
X96374692Y-36663725D01*
X96380463Y-36663952D01*
X96380465Y-36663952D01*
X96442727Y-36666398D01*
X96578263Y-36671723D01*
X96779883Y-36642490D01*
X96785347Y-36640635D01*
X96785352Y-36640634D01*
X96967327Y-36578862D01*
X96967332Y-36578860D01*
X96972799Y-36577004D01*
X97150551Y-36477458D01*
X97307186Y-36347186D01*
X97437458Y-36190551D01*
X97505765Y-36068580D01*
X97534180Y-36017842D01*
X97534181Y-36017840D01*
X97537004Y-36012799D01*
X97538860Y-36007332D01*
X97538862Y-36007327D01*
X97600634Y-35825352D01*
X97600635Y-35825347D01*
X97602490Y-35819883D01*
X97631723Y-35618263D01*
X97633249Y-35560000D01*
X97614608Y-35357126D01*
X97559307Y-35161047D01*
X97548680Y-35139496D01*
X97471756Y-34983510D01*
X97469201Y-34978329D01*
X97460585Y-34966790D01*
X97350758Y-34819715D01*
X97350758Y-34819714D01*
X97347305Y-34815091D01*
X97239589Y-34715519D01*
X97201943Y-34680719D01*
X97201940Y-34680717D01*
X97197703Y-34676800D01*
X97094253Y-34611528D01*
X97030288Y-34571169D01*
X97030283Y-34571167D01*
X97025404Y-34568088D01*
X96836180Y-34492595D01*
X96636366Y-34452849D01*
X96630592Y-34452773D01*
X96630588Y-34452773D01*
X96527452Y-34451424D01*
X96432655Y-34450183D01*
X96426958Y-34451162D01*
X96426957Y-34451162D01*
X96404656Y-34454994D01*
X96231870Y-34484684D01*
X96040734Y-34555198D01*
X96035773Y-34558150D01*
X96035772Y-34558150D01*
X95955993Y-34605614D01*
X95865649Y-34659363D01*
X95712478Y-34793690D01*
X95708911Y-34798215D01*
X95708906Y-34798220D01*
X95657938Y-34862873D01*
X95586351Y-34953681D01*
X95583662Y-34958792D01*
X95583660Y-34958795D01*
X95565635Y-34993055D01*
X95491492Y-35133978D01*
X95431078Y-35328543D01*
X95407132Y-35530859D01*
X85598000Y-35530859D01*
X85598000Y-33961294D01*
X95943066Y-33961294D01*
X95952948Y-33973783D01*
X95984239Y-33994691D01*
X95994349Y-34000181D01*
X96170835Y-34076005D01*
X96181778Y-34079560D01*
X96369120Y-34121952D01*
X96380530Y-34123454D01*
X96572469Y-34130995D01*
X96583951Y-34130393D01*
X96774045Y-34102832D01*
X96785240Y-34100144D01*
X96967131Y-34038400D01*
X96977628Y-34033726D01*
X97088032Y-33971898D01*
X97097895Y-33961821D01*
X97094940Y-33954151D01*
X96532811Y-33392021D01*
X96518868Y-33384408D01*
X96517034Y-33384539D01*
X96510420Y-33388790D01*
X95949259Y-33949952D01*
X95943066Y-33961294D01*
X85598000Y-33961294D01*
X85598000Y-32996638D01*
X95408012Y-32996638D01*
X95420575Y-33188304D01*
X95422376Y-33199674D01*
X95469657Y-33385843D01*
X95473498Y-33396690D01*
X95553916Y-33571130D01*
X95559664Y-33581086D01*
X95565788Y-33589751D01*
X95576377Y-33598140D01*
X95589676Y-33591113D01*
X96147979Y-33032811D01*
X96154356Y-33021132D01*
X96884408Y-33021132D01*
X96884539Y-33022966D01*
X96888790Y-33029580D01*
X97450239Y-33591028D01*
X97462614Y-33597785D01*
X97469194Y-33592859D01*
X97533726Y-33477628D01*
X97538400Y-33467131D01*
X97600144Y-33285240D01*
X97602832Y-33274045D01*
X97630689Y-33081911D01*
X97631319Y-33074528D01*
X97632650Y-33023704D01*
X97632407Y-33016305D01*
X97614643Y-32822975D01*
X97612545Y-32811654D01*
X97560408Y-32626791D01*
X97556283Y-32616044D01*
X97472163Y-32445465D01*
X97464869Y-32439990D01*
X97452449Y-32446762D01*
X96892021Y-33007189D01*
X96884408Y-33021132D01*
X96154356Y-33021132D01*
X96155592Y-33018868D01*
X96155461Y-33017034D01*
X96151210Y-33010420D01*
X95588538Y-32447749D01*
X95576163Y-32440992D01*
X95570197Y-32445458D01*
X95494645Y-32589058D01*
X95490242Y-32599691D01*
X95433281Y-32783132D01*
X95430891Y-32794376D01*
X95408313Y-32985137D01*
X95408012Y-32996638D01*
X85598000Y-32996638D01*
X85598000Y-32078675D01*
X95942788Y-32078675D01*
X95946275Y-32087064D01*
X96507189Y-32647979D01*
X96521132Y-32655592D01*
X96522966Y-32655461D01*
X96529580Y-32651210D01*
X97090285Y-32090504D01*
X97097042Y-32078129D01*
X97091012Y-32070073D01*
X97030061Y-32031616D01*
X97019813Y-32026395D01*
X96841401Y-31955216D01*
X96830373Y-31951949D01*
X96641982Y-31914476D01*
X96630535Y-31913273D01*
X96438477Y-31910759D01*
X96426997Y-31911662D01*
X96237697Y-31944190D01*
X96226577Y-31947170D01*
X96046365Y-32013653D01*
X96035991Y-32018601D01*
X95952385Y-32068342D01*
X95942788Y-32078675D01*
X85598000Y-32078675D01*
X85598000Y-26304454D01*
X94957269Y-26304454D01*
X94958015Y-26312346D01*
X94961430Y-26348472D01*
X94961989Y-26360330D01*
X94961989Y-29476722D01*
X94961462Y-29487905D01*
X94959787Y-29495398D01*
X94960036Y-29503324D01*
X94960036Y-29503325D01*
X94961927Y-29563475D01*
X94961989Y-29567434D01*
X94961989Y-29595345D01*
X94962486Y-29599279D01*
X94962486Y-29599280D01*
X94962494Y-29599345D01*
X94963427Y-29611182D01*
X94964816Y-29655378D01*
X94970467Y-29674828D01*
X94974476Y-29694189D01*
X94977015Y-29714286D01*
X94979934Y-29721657D01*
X94979934Y-29721659D01*
X94993293Y-29755401D01*
X94997138Y-29766631D01*
X95009471Y-29809082D01*
X95013504Y-29815901D01*
X95013506Y-29815906D01*
X95019782Y-29826517D01*
X95028477Y-29844265D01*
X95035937Y-29863106D01*
X95040599Y-29869522D01*
X95040599Y-29869523D01*
X95061925Y-29898876D01*
X95068441Y-29908796D01*
X95090947Y-29946851D01*
X95105268Y-29961172D01*
X95118108Y-29976205D01*
X95130017Y-29992596D01*
X95136122Y-29997647D01*
X95136127Y-29997652D01*
X95164087Y-30020783D01*
X95172865Y-30028770D01*
X95383795Y-30239699D01*
X95417820Y-30302011D01*
X95419827Y-30343603D01*
X95407132Y-30450859D01*
X95420457Y-30654151D01*
X95470605Y-30851610D01*
X95555898Y-31036624D01*
X95673479Y-31202997D01*
X95819410Y-31345157D01*
X95824206Y-31348362D01*
X95824209Y-31348364D01*
X95854523Y-31368619D01*
X95988803Y-31458342D01*
X95994106Y-31460620D01*
X95994109Y-31460622D01*
X96083115Y-31498862D01*
X96175987Y-31538763D01*
X96248817Y-31555243D01*
X96369055Y-31582450D01*
X96369060Y-31582451D01*
X96374692Y-31583725D01*
X96380463Y-31583952D01*
X96380465Y-31583952D01*
X96443470Y-31586427D01*
X96578263Y-31591723D01*
X96779883Y-31562490D01*
X96785347Y-31560635D01*
X96785352Y-31560634D01*
X96967327Y-31498862D01*
X96967332Y-31498860D01*
X96972799Y-31497004D01*
X97150551Y-31397458D01*
X97307186Y-31267186D01*
X97437458Y-31110551D01*
X97505765Y-30988580D01*
X97534180Y-30937842D01*
X97534181Y-30937840D01*
X97537004Y-30932799D01*
X97538860Y-30927332D01*
X97538862Y-30927327D01*
X97600634Y-30745352D01*
X97600635Y-30745347D01*
X97602490Y-30739883D01*
X97631723Y-30538263D01*
X97633249Y-30480000D01*
X97614608Y-30277126D01*
X97559307Y-30081047D01*
X97548680Y-30059496D01*
X97471756Y-29903510D01*
X97469201Y-29898329D01*
X97450796Y-29873681D01*
X97350758Y-29739715D01*
X97350758Y-29739714D01*
X97347305Y-29735091D01*
X97257646Y-29652211D01*
X97201943Y-29600719D01*
X97201940Y-29600717D01*
X97197703Y-29596800D01*
X97134099Y-29556669D01*
X97030288Y-29491169D01*
X97030283Y-29491167D01*
X97025404Y-29488088D01*
X96836180Y-29412595D01*
X96636366Y-29372849D01*
X96630592Y-29372773D01*
X96630588Y-29372773D01*
X96527452Y-29371424D01*
X96432655Y-29370183D01*
X96426962Y-29371161D01*
X96426952Y-29371162D01*
X96388944Y-29377693D01*
X96318420Y-29369515D01*
X96278513Y-29342608D01*
X96265894Y-29329989D01*
X96231868Y-29267677D01*
X96228989Y-29240894D01*
X96228989Y-29174500D01*
X96248991Y-29106379D01*
X96302647Y-29059886D01*
X96354989Y-29048500D01*
X97168134Y-29048500D01*
X97230316Y-29041745D01*
X97366705Y-28990615D01*
X97483261Y-28903261D01*
X97570615Y-28786705D01*
X97621745Y-28650316D01*
X97628500Y-28588134D01*
X97628500Y-27779594D01*
X97648502Y-27711473D01*
X97665405Y-27690499D01*
X100331236Y-25024669D01*
X105322001Y-25024669D01*
X105322371Y-25031490D01*
X105327895Y-25082352D01*
X105331521Y-25097604D01*
X105376676Y-25218054D01*
X105385214Y-25233649D01*
X105461715Y-25335724D01*
X105474276Y-25348285D01*
X105576351Y-25424786D01*
X105591946Y-25433324D01*
X105712394Y-25478478D01*
X105727649Y-25482105D01*
X105778514Y-25487631D01*
X105785328Y-25488000D01*
X106407885Y-25488000D01*
X106423124Y-25483525D01*
X106424329Y-25482135D01*
X106426000Y-25474452D01*
X106426000Y-24402115D01*
X106421525Y-24386876D01*
X106420135Y-24385671D01*
X106412452Y-24384000D01*
X105340116Y-24384000D01*
X105324877Y-24388475D01*
X105323672Y-24389865D01*
X105322001Y-24397548D01*
X105322001Y-25024669D01*
X100331236Y-25024669D01*
X101730011Y-23625894D01*
X101792323Y-23591868D01*
X101819106Y-23588989D01*
X105196000Y-23588989D01*
X105264121Y-23608991D01*
X105310614Y-23662647D01*
X105322000Y-23714989D01*
X105322000Y-23857885D01*
X105326475Y-23873124D01*
X105327865Y-23874329D01*
X105335548Y-23876000D01*
X106808000Y-23876000D01*
X106876121Y-23896002D01*
X106922614Y-23949658D01*
X106934000Y-24002000D01*
X106934000Y-25469884D01*
X106938475Y-25485123D01*
X106939865Y-25486328D01*
X106947548Y-25487999D01*
X107574669Y-25487999D01*
X107581490Y-25487629D01*
X107632352Y-25482105D01*
X107647604Y-25478479D01*
X107768054Y-25433324D01*
X107783649Y-25424786D01*
X107885724Y-25348285D01*
X107898285Y-25335724D01*
X107974786Y-25233649D01*
X107983324Y-25218054D01*
X108024225Y-25108952D01*
X108066867Y-25052188D01*
X108133428Y-25027488D01*
X108202777Y-25042696D01*
X108237444Y-25070684D01*
X108262865Y-25100031D01*
X108262869Y-25100035D01*
X108266250Y-25103938D01*
X108438126Y-25246632D01*
X108442593Y-25249242D01*
X108524070Y-25296853D01*
X108572794Y-25348491D01*
X108586500Y-25405641D01*
X108586500Y-35481233D01*
X108585973Y-35492416D01*
X108584298Y-35499909D01*
X108584547Y-35507835D01*
X108584547Y-35507836D01*
X108586438Y-35567986D01*
X108586500Y-35571945D01*
X108586500Y-35599856D01*
X108586997Y-35603790D01*
X108586997Y-35603791D01*
X108587005Y-35603856D01*
X108587938Y-35615693D01*
X108589327Y-35659889D01*
X108594978Y-35679339D01*
X108598987Y-35698700D01*
X108601526Y-35718797D01*
X108604445Y-35726168D01*
X108604445Y-35726170D01*
X108617804Y-35759912D01*
X108621649Y-35771142D01*
X108633982Y-35813593D01*
X108638015Y-35820412D01*
X108638017Y-35820417D01*
X108644293Y-35831028D01*
X108652988Y-35848776D01*
X108660448Y-35867617D01*
X108665110Y-35874033D01*
X108665110Y-35874034D01*
X108686436Y-35903387D01*
X108692952Y-35913307D01*
X108703777Y-35931610D01*
X108715458Y-35951362D01*
X108729779Y-35965683D01*
X108742619Y-35980716D01*
X108754528Y-35997107D01*
X108788605Y-36025298D01*
X108797384Y-36033288D01*
X110623795Y-37859699D01*
X110657821Y-37922011D01*
X110659827Y-37963602D01*
X110647132Y-38070859D01*
X110660457Y-38274151D01*
X110710605Y-38471610D01*
X110795898Y-38656624D01*
X110913479Y-38822997D01*
X111059410Y-38965157D01*
X111064206Y-38968362D01*
X111064209Y-38968364D01*
X111189227Y-39051898D01*
X111228803Y-39078342D01*
X111234106Y-39080620D01*
X111234109Y-39080622D01*
X111410680Y-39156483D01*
X111415987Y-39158763D01*
X111488817Y-39175243D01*
X111609055Y-39202450D01*
X111609060Y-39202451D01*
X111614692Y-39203725D01*
X111620463Y-39203952D01*
X111620465Y-39203952D01*
X111683470Y-39206427D01*
X111818263Y-39211723D01*
X112019883Y-39182490D01*
X112025347Y-39180635D01*
X112025352Y-39180634D01*
X112207327Y-39118862D01*
X112207332Y-39118860D01*
X112212799Y-39117004D01*
X112218653Y-39113726D01*
X112329054Y-39051898D01*
X112390551Y-39017458D01*
X112547186Y-38887186D01*
X112677458Y-38730551D01*
X112777004Y-38552799D01*
X112778860Y-38547332D01*
X112778862Y-38547327D01*
X112840634Y-38365352D01*
X112840635Y-38365347D01*
X112842490Y-38359883D01*
X112871723Y-38158263D01*
X112873249Y-38100000D01*
X112856895Y-37922011D01*
X112855137Y-37902880D01*
X112855136Y-37902877D01*
X112854608Y-37897126D01*
X112828866Y-37805853D01*
X112800875Y-37706606D01*
X112800874Y-37706604D01*
X112799307Y-37701047D01*
X112788776Y-37679691D01*
X112711756Y-37523510D01*
X112709201Y-37518329D01*
X112690796Y-37493681D01*
X112590758Y-37359715D01*
X112590758Y-37359714D01*
X112587305Y-37355091D01*
X112497646Y-37272211D01*
X112441943Y-37220719D01*
X112441940Y-37220717D01*
X112437703Y-37216800D01*
X112331947Y-37150073D01*
X112270288Y-37111169D01*
X112270283Y-37111167D01*
X112265404Y-37108088D01*
X112076180Y-37032595D01*
X111887150Y-36994994D01*
X111882032Y-36993976D01*
X111882031Y-36993976D01*
X111876366Y-36992849D01*
X111870592Y-36992773D01*
X111870588Y-36992773D01*
X111767452Y-36991424D01*
X111672655Y-36990183D01*
X111666962Y-36991161D01*
X111666952Y-36991162D01*
X111628944Y-36997693D01*
X111558420Y-36989515D01*
X111518513Y-36962608D01*
X111412266Y-36856361D01*
X111378240Y-36794049D01*
X111383305Y-36723234D01*
X111425852Y-36666398D01*
X111492372Y-36641587D01*
X111529167Y-36644373D01*
X111561867Y-36651772D01*
X111609056Y-36662450D01*
X111609059Y-36662450D01*
X111614692Y-36663725D01*
X111620463Y-36663952D01*
X111620465Y-36663952D01*
X111682727Y-36666398D01*
X111818263Y-36671723D01*
X112019883Y-36642490D01*
X112025347Y-36640635D01*
X112025352Y-36640634D01*
X112207327Y-36578862D01*
X112207332Y-36578860D01*
X112212799Y-36577004D01*
X112390551Y-36477458D01*
X112547186Y-36347186D01*
X112677458Y-36190551D01*
X112745765Y-36068580D01*
X112774180Y-36017842D01*
X112774181Y-36017840D01*
X112777004Y-36012799D01*
X112778860Y-36007332D01*
X112778862Y-36007327D01*
X112840634Y-35825352D01*
X112840635Y-35825347D01*
X112842490Y-35819883D01*
X112871723Y-35618263D01*
X112873249Y-35560000D01*
X112854608Y-35357126D01*
X112799307Y-35161047D01*
X112788680Y-35139496D01*
X112711756Y-34983510D01*
X112709201Y-34978329D01*
X112700585Y-34966790D01*
X112590758Y-34819715D01*
X112590758Y-34819714D01*
X112587305Y-34815091D01*
X112479589Y-34715519D01*
X112441943Y-34680719D01*
X112441940Y-34680717D01*
X112437703Y-34676800D01*
X112334253Y-34611528D01*
X112270288Y-34571169D01*
X112270283Y-34571167D01*
X112265404Y-34568088D01*
X112076180Y-34492595D01*
X111876366Y-34452849D01*
X111870592Y-34452773D01*
X111870588Y-34452773D01*
X111767452Y-34451424D01*
X111672655Y-34450183D01*
X111666958Y-34451162D01*
X111666957Y-34451162D01*
X111644656Y-34454994D01*
X111471870Y-34484684D01*
X111280734Y-34555198D01*
X111275773Y-34558150D01*
X111275772Y-34558150D01*
X111195993Y-34605614D01*
X111105649Y-34659363D01*
X110952478Y-34793690D01*
X110948911Y-34798215D01*
X110948906Y-34798220D01*
X110897938Y-34862873D01*
X110826351Y-34953681D01*
X110823662Y-34958792D01*
X110823660Y-34958795D01*
X110805635Y-34993055D01*
X110731492Y-35133978D01*
X110671078Y-35328543D01*
X110647132Y-35530859D01*
X110660457Y-35734151D01*
X110661880Y-35739753D01*
X110661880Y-35739754D01*
X110673758Y-35786525D01*
X110671139Y-35857474D01*
X110630579Y-35915743D01*
X110564954Y-35942834D01*
X110495101Y-35930145D01*
X110462540Y-35906635D01*
X109890405Y-35334500D01*
X109856379Y-35272188D01*
X109853500Y-35245405D01*
X109853500Y-32990859D01*
X110647132Y-32990859D01*
X110660457Y-33194151D01*
X110710605Y-33391610D01*
X110795898Y-33576624D01*
X110913479Y-33742997D01*
X110917613Y-33747024D01*
X111038186Y-33864481D01*
X111059410Y-33885157D01*
X111064206Y-33888362D01*
X111064209Y-33888364D01*
X111184099Y-33968472D01*
X111228803Y-33998342D01*
X111234106Y-34000620D01*
X111234109Y-34000622D01*
X111410680Y-34076483D01*
X111415987Y-34078763D01*
X111488817Y-34095243D01*
X111609055Y-34122450D01*
X111609060Y-34122451D01*
X111614692Y-34123725D01*
X111620463Y-34123952D01*
X111620465Y-34123952D01*
X111683470Y-34126427D01*
X111818263Y-34131723D01*
X112019883Y-34102490D01*
X112025347Y-34100635D01*
X112025352Y-34100634D01*
X112207327Y-34038862D01*
X112207332Y-34038860D01*
X112212799Y-34037004D01*
X112218653Y-34033726D01*
X112288354Y-33994691D01*
X112390551Y-33937458D01*
X112547186Y-33807186D01*
X112677458Y-33650551D01*
X112777004Y-33472799D01*
X112778860Y-33467332D01*
X112778862Y-33467327D01*
X112840634Y-33285352D01*
X112840635Y-33285347D01*
X112842490Y-33279883D01*
X112871723Y-33078263D01*
X112873249Y-33020000D01*
X112856895Y-32842011D01*
X112855137Y-32822880D01*
X112855136Y-32822877D01*
X112854608Y-32817126D01*
X112813624Y-32671810D01*
X112800875Y-32626606D01*
X112800874Y-32626604D01*
X112799307Y-32621047D01*
X112795989Y-32614317D01*
X112711756Y-32443510D01*
X112709201Y-32438329D01*
X112690796Y-32413681D01*
X112590758Y-32279715D01*
X112590758Y-32279714D01*
X112587305Y-32275091D01*
X112437703Y-32136800D01*
X112331947Y-32070073D01*
X112270288Y-32031169D01*
X112270283Y-32031167D01*
X112265404Y-32028088D01*
X112076180Y-31952595D01*
X111900427Y-31917635D01*
X111882032Y-31913976D01*
X111882031Y-31913976D01*
X111876366Y-31912849D01*
X111870592Y-31912773D01*
X111870588Y-31912773D01*
X111767452Y-31911424D01*
X111672655Y-31910183D01*
X111666958Y-31911162D01*
X111666957Y-31911162D01*
X111477567Y-31943705D01*
X111471870Y-31944684D01*
X111280734Y-32015198D01*
X111275773Y-32018150D01*
X111275772Y-32018150D01*
X111159939Y-32087064D01*
X111105649Y-32119363D01*
X110952478Y-32253690D01*
X110948911Y-32258215D01*
X110948906Y-32258220D01*
X110893518Y-32328480D01*
X110826351Y-32413681D01*
X110823662Y-32418792D01*
X110823660Y-32418795D01*
X110808946Y-32446762D01*
X110731492Y-32593978D01*
X110671078Y-32788543D01*
X110647132Y-32990859D01*
X109853500Y-32990859D01*
X109853500Y-28881294D01*
X111183066Y-28881294D01*
X111192948Y-28893783D01*
X111224239Y-28914691D01*
X111234349Y-28920181D01*
X111410835Y-28996005D01*
X111421778Y-28999560D01*
X111609120Y-29041952D01*
X111620530Y-29043454D01*
X111812469Y-29050995D01*
X111823951Y-29050393D01*
X112014045Y-29022832D01*
X112025240Y-29020144D01*
X112207131Y-28958400D01*
X112217628Y-28953726D01*
X112328032Y-28891898D01*
X112337895Y-28881821D01*
X112334940Y-28874151D01*
X111772811Y-28312021D01*
X111758868Y-28304408D01*
X111757034Y-28304539D01*
X111750420Y-28308790D01*
X111189259Y-28869952D01*
X111183066Y-28881294D01*
X109853500Y-28881294D01*
X109853500Y-27916638D01*
X110648012Y-27916638D01*
X110660575Y-28108304D01*
X110662376Y-28119674D01*
X110709657Y-28305843D01*
X110713498Y-28316690D01*
X110793916Y-28491130D01*
X110799664Y-28501086D01*
X110805788Y-28509751D01*
X110816377Y-28518140D01*
X110829676Y-28511113D01*
X111387979Y-27952811D01*
X111394356Y-27941132D01*
X112124408Y-27941132D01*
X112124539Y-27942966D01*
X112128790Y-27949580D01*
X112690239Y-28511028D01*
X112702614Y-28517785D01*
X112709194Y-28512859D01*
X112773726Y-28397628D01*
X112778400Y-28387131D01*
X112840144Y-28205240D01*
X112842832Y-28194045D01*
X112870689Y-28001911D01*
X112871319Y-27994528D01*
X112872650Y-27943704D01*
X112872407Y-27936305D01*
X112854643Y-27742975D01*
X112852545Y-27731654D01*
X112800408Y-27546791D01*
X112796283Y-27536044D01*
X112712163Y-27365465D01*
X112704869Y-27359990D01*
X112692449Y-27366762D01*
X112132021Y-27927189D01*
X112124408Y-27941132D01*
X111394356Y-27941132D01*
X111395592Y-27938868D01*
X111395461Y-27937034D01*
X111391210Y-27930420D01*
X110828538Y-27367749D01*
X110816163Y-27360992D01*
X110810197Y-27365458D01*
X110734645Y-27509058D01*
X110730242Y-27519691D01*
X110673281Y-27703132D01*
X110670891Y-27714376D01*
X110648313Y-27905137D01*
X110648012Y-27916638D01*
X109853500Y-27916638D01*
X109853500Y-26998675D01*
X111182788Y-26998675D01*
X111186275Y-27007064D01*
X111747189Y-27567979D01*
X111761132Y-27575592D01*
X111762966Y-27575461D01*
X111769580Y-27571210D01*
X112330285Y-27010504D01*
X112337042Y-26998129D01*
X112331012Y-26990073D01*
X112270061Y-26951616D01*
X112259813Y-26946395D01*
X112081401Y-26875216D01*
X112070373Y-26871949D01*
X111881982Y-26834476D01*
X111870535Y-26833273D01*
X111678477Y-26830759D01*
X111666997Y-26831662D01*
X111477697Y-26864190D01*
X111466577Y-26867170D01*
X111286365Y-26933653D01*
X111275991Y-26938601D01*
X111192385Y-26988342D01*
X111182788Y-26998675D01*
X109853500Y-26998675D01*
X109853500Y-25410427D01*
X109873502Y-25342306D01*
X109914618Y-25302550D01*
X109917994Y-25300896D01*
X110099860Y-25171173D01*
X110258096Y-25013489D01*
X110388453Y-24832077D01*
X110389776Y-24833028D01*
X110436645Y-24789857D01*
X110506580Y-24777625D01*
X110572026Y-24805144D01*
X110599875Y-24836994D01*
X110659987Y-24935088D01*
X110806250Y-25103938D01*
X110978126Y-25246632D01*
X111171000Y-25359338D01*
X111379692Y-25439030D01*
X111384760Y-25440061D01*
X111384763Y-25440062D01*
X111463436Y-25456068D01*
X111598597Y-25483567D01*
X111603772Y-25483757D01*
X111603774Y-25483757D01*
X111816673Y-25491564D01*
X111816677Y-25491564D01*
X111821837Y-25491753D01*
X111826957Y-25491097D01*
X111826959Y-25491097D01*
X112038288Y-25464025D01*
X112038289Y-25464025D01*
X112043416Y-25463368D01*
X112048367Y-25461883D01*
X112048370Y-25461882D01*
X112089829Y-25449444D01*
X112160825Y-25449028D01*
X112215131Y-25481035D01*
X113629595Y-26895499D01*
X113663621Y-26957811D01*
X113666500Y-26984594D01*
X113666500Y-40325405D01*
X113646498Y-40393526D01*
X113629595Y-40414500D01*
X113058954Y-40985141D01*
X112996642Y-41019167D01*
X112925827Y-41014102D01*
X112868991Y-40971555D01*
X112844180Y-40905035D01*
X112845163Y-40877966D01*
X112870689Y-40701911D01*
X112871319Y-40694528D01*
X112872650Y-40643704D01*
X112872407Y-40636305D01*
X112854643Y-40442975D01*
X112852545Y-40431654D01*
X112800408Y-40246791D01*
X112796283Y-40236044D01*
X112712163Y-40065465D01*
X112704869Y-40059990D01*
X112692449Y-40066762D01*
X111760000Y-40999210D01*
X111189262Y-41569949D01*
X111183067Y-41581294D01*
X111192949Y-41593784D01*
X111224239Y-41614691D01*
X111234349Y-41620181D01*
X111410835Y-41696005D01*
X111421778Y-41699560D01*
X111609120Y-41741952D01*
X111620530Y-41743454D01*
X111812469Y-41750995D01*
X111823951Y-41750393D01*
X111997966Y-41725163D01*
X112068252Y-41735183D01*
X112121963Y-41781612D01*
X112142046Y-41849709D01*
X112122125Y-41917854D01*
X112105141Y-41938954D01*
X112003127Y-42040968D01*
X111940815Y-42074994D01*
X111889447Y-42075451D01*
X111882034Y-42073976D01*
X111882029Y-42073975D01*
X111876366Y-42072849D01*
X111870592Y-42072773D01*
X111870588Y-42072773D01*
X111767452Y-42071424D01*
X111672655Y-42070183D01*
X111666958Y-42071162D01*
X111666957Y-42071162D01*
X111565526Y-42088591D01*
X111471870Y-42104684D01*
X111280734Y-42175198D01*
X111275773Y-42178150D01*
X111275772Y-42178150D01*
X111132637Y-42263307D01*
X111105649Y-42279363D01*
X110952478Y-42413690D01*
X110948911Y-42418215D01*
X110948906Y-42418220D01*
X110862331Y-42528040D01*
X110826351Y-42573681D01*
X110823662Y-42578792D01*
X110823660Y-42578795D01*
X110790636Y-42641564D01*
X110731492Y-42753978D01*
X110671078Y-42948543D01*
X110647132Y-43150859D01*
X110660457Y-43354151D01*
X110710605Y-43551610D01*
X110795898Y-43736624D01*
X110913479Y-43902997D01*
X110917613Y-43907024D01*
X111038186Y-44024481D01*
X111059410Y-44045157D01*
X111064206Y-44048362D01*
X111064209Y-44048364D01*
X111106505Y-44076625D01*
X111228803Y-44158342D01*
X111234106Y-44160620D01*
X111234109Y-44160622D01*
X111323115Y-44198862D01*
X111415987Y-44238763D01*
X111488817Y-44255243D01*
X111609055Y-44282450D01*
X111609060Y-44282451D01*
X111614692Y-44283725D01*
X111620463Y-44283952D01*
X111620465Y-44283952D01*
X111682727Y-44286398D01*
X111818263Y-44291723D01*
X112019883Y-44262490D01*
X112025347Y-44260635D01*
X112025352Y-44260634D01*
X112207327Y-44198862D01*
X112207332Y-44198860D01*
X112212799Y-44197004D01*
X112390551Y-44097458D01*
X112547186Y-43967186D01*
X112677458Y-43810551D01*
X112777004Y-43632799D01*
X112778860Y-43627332D01*
X112778862Y-43627327D01*
X112840634Y-43445352D01*
X112840635Y-43445347D01*
X112842490Y-43439883D01*
X112871723Y-43238263D01*
X112873249Y-43180000D01*
X112870571Y-43150859D01*
X133507132Y-43150859D01*
X133520457Y-43354151D01*
X133570605Y-43551610D01*
X133655898Y-43736624D01*
X133773479Y-43902997D01*
X133777613Y-43907024D01*
X133898186Y-44024481D01*
X133919410Y-44045157D01*
X133924206Y-44048362D01*
X133924209Y-44048364D01*
X133966505Y-44076625D01*
X134088803Y-44158342D01*
X134094106Y-44160620D01*
X134094109Y-44160622D01*
X134183115Y-44198862D01*
X134275987Y-44238763D01*
X134348817Y-44255243D01*
X134469055Y-44282450D01*
X134469060Y-44282451D01*
X134474692Y-44283725D01*
X134480463Y-44283952D01*
X134480465Y-44283952D01*
X134542727Y-44286398D01*
X134678263Y-44291723D01*
X134879883Y-44262490D01*
X134885347Y-44260635D01*
X134885352Y-44260634D01*
X135067327Y-44198862D01*
X135067332Y-44198860D01*
X135072799Y-44197004D01*
X135250551Y-44097458D01*
X135407186Y-43967186D01*
X135537458Y-43810551D01*
X135637004Y-43632799D01*
X135638860Y-43627332D01*
X135638862Y-43627327D01*
X135700634Y-43445352D01*
X135700635Y-43445347D01*
X135702490Y-43439883D01*
X135731723Y-43238263D01*
X135733249Y-43180000D01*
X135714608Y-42977126D01*
X135659307Y-42781047D01*
X135648680Y-42759496D01*
X135571756Y-42603510D01*
X135569201Y-42598329D01*
X135550796Y-42573681D01*
X135450758Y-42439715D01*
X135450758Y-42439714D01*
X135447305Y-42435091D01*
X135325718Y-42322697D01*
X135301943Y-42300719D01*
X135301940Y-42300717D01*
X135297703Y-42296800D01*
X135228897Y-42253387D01*
X135130288Y-42191169D01*
X135130283Y-42191167D01*
X135125404Y-42188088D01*
X134957603Y-42121142D01*
X134941549Y-42114737D01*
X134936180Y-42112595D01*
X134736366Y-42072849D01*
X134730592Y-42072773D01*
X134730588Y-42072773D01*
X134627452Y-42071424D01*
X134532655Y-42070183D01*
X134526958Y-42071162D01*
X134526957Y-42071162D01*
X134425526Y-42088591D01*
X134331870Y-42104684D01*
X134140734Y-42175198D01*
X134135773Y-42178150D01*
X134135772Y-42178150D01*
X133992637Y-42263307D01*
X133965649Y-42279363D01*
X133812478Y-42413690D01*
X133808911Y-42418215D01*
X133808906Y-42418220D01*
X133722331Y-42528040D01*
X133686351Y-42573681D01*
X133683662Y-42578792D01*
X133683660Y-42578795D01*
X133650636Y-42641564D01*
X133591492Y-42753978D01*
X133531078Y-42948543D01*
X133507132Y-43150859D01*
X112870571Y-43150859D01*
X112868369Y-43126894D01*
X112860366Y-43039785D01*
X112874051Y-42970120D01*
X112896742Y-42939162D01*
X114692247Y-41143657D01*
X114700537Y-41136113D01*
X114707018Y-41132000D01*
X114753659Y-41082332D01*
X114756413Y-41079491D01*
X114776134Y-41059770D01*
X114778612Y-41056575D01*
X114786318Y-41047553D01*
X114811158Y-41021101D01*
X114816586Y-41015321D01*
X114826346Y-40997568D01*
X114837199Y-40981045D01*
X114844753Y-40971306D01*
X114849613Y-40965041D01*
X114867176Y-40924457D01*
X114872383Y-40913827D01*
X114893695Y-40875060D01*
X114895666Y-40867383D01*
X114895668Y-40867378D01*
X114898732Y-40855442D01*
X114905138Y-40836730D01*
X114910034Y-40825417D01*
X114913181Y-40818145D01*
X114920097Y-40774481D01*
X114922504Y-40762860D01*
X114931528Y-40727711D01*
X114931528Y-40727710D01*
X114933500Y-40720030D01*
X114933500Y-40699769D01*
X114935051Y-40680058D01*
X114936979Y-40667885D01*
X114938219Y-40660057D01*
X114934059Y-40616046D01*
X114933814Y-40610859D01*
X118267132Y-40610859D01*
X118280457Y-40814151D01*
X118330605Y-41011610D01*
X118415898Y-41196624D01*
X118533479Y-41362997D01*
X118679410Y-41505157D01*
X118684206Y-41508362D01*
X118684209Y-41508364D01*
X118809227Y-41591898D01*
X118848803Y-41618342D01*
X118854106Y-41620620D01*
X118854109Y-41620622D01*
X119030680Y-41696483D01*
X119035987Y-41698763D01*
X119108817Y-41715243D01*
X119229055Y-41742450D01*
X119229060Y-41742451D01*
X119234692Y-41743725D01*
X119240463Y-41743952D01*
X119240465Y-41743952D01*
X119303470Y-41746427D01*
X119438263Y-41751723D01*
X119639883Y-41722490D01*
X119645347Y-41720635D01*
X119645352Y-41720634D01*
X119827327Y-41658862D01*
X119827332Y-41658860D01*
X119832799Y-41657004D01*
X119838653Y-41653726D01*
X119908354Y-41614691D01*
X119967989Y-41581294D01*
X134043066Y-41581294D01*
X134052948Y-41593783D01*
X134084239Y-41614691D01*
X134094349Y-41620181D01*
X134270835Y-41696005D01*
X134281778Y-41699560D01*
X134469120Y-41741952D01*
X134480530Y-41743454D01*
X134672469Y-41750995D01*
X134683951Y-41750393D01*
X134874045Y-41722832D01*
X134885240Y-41720144D01*
X135067131Y-41658400D01*
X135077628Y-41653726D01*
X135188032Y-41591898D01*
X135197895Y-41581821D01*
X135194940Y-41574151D01*
X134632811Y-41012021D01*
X134618868Y-41004408D01*
X134617034Y-41004539D01*
X134610420Y-41008790D01*
X134049259Y-41569952D01*
X134043066Y-41581294D01*
X119967989Y-41581294D01*
X120010551Y-41557458D01*
X120167186Y-41427186D01*
X120297458Y-41270551D01*
X120397004Y-41092799D01*
X120398860Y-41087332D01*
X120398862Y-41087327D01*
X120460634Y-40905352D01*
X120460635Y-40905347D01*
X120462490Y-40899883D01*
X120491723Y-40698263D01*
X120493249Y-40640000D01*
X120491102Y-40616638D01*
X133508012Y-40616638D01*
X133520575Y-40808304D01*
X133522376Y-40819674D01*
X133569657Y-41005843D01*
X133573498Y-41016690D01*
X133653916Y-41191130D01*
X133659664Y-41201086D01*
X133665788Y-41209751D01*
X133676377Y-41218140D01*
X133689676Y-41211113D01*
X134247979Y-40652811D01*
X134254356Y-40641132D01*
X134984408Y-40641132D01*
X134984539Y-40642966D01*
X134988790Y-40649580D01*
X135550239Y-41211028D01*
X135562614Y-41217785D01*
X135569194Y-41212859D01*
X135633726Y-41097628D01*
X135638400Y-41087131D01*
X135700144Y-40905240D01*
X135702832Y-40894045D01*
X135730689Y-40701911D01*
X135731319Y-40694528D01*
X135732650Y-40643704D01*
X135732407Y-40636305D01*
X135730069Y-40610859D01*
X141127132Y-40610859D01*
X141140457Y-40814151D01*
X141190605Y-41011610D01*
X141275898Y-41196624D01*
X141393479Y-41362997D01*
X141539410Y-41505157D01*
X141544206Y-41508362D01*
X141544209Y-41508364D01*
X141669227Y-41591898D01*
X141708803Y-41618342D01*
X141714106Y-41620620D01*
X141714109Y-41620622D01*
X141890680Y-41696483D01*
X141895987Y-41698763D01*
X141968817Y-41715243D01*
X142089055Y-41742450D01*
X142089060Y-41742451D01*
X142094692Y-41743725D01*
X142100463Y-41743952D01*
X142100465Y-41743952D01*
X142163470Y-41746427D01*
X142298263Y-41751723D01*
X142499883Y-41722490D01*
X142505347Y-41720635D01*
X142505352Y-41720634D01*
X142687327Y-41658862D01*
X142687332Y-41658860D01*
X142692799Y-41657004D01*
X142698653Y-41653726D01*
X142768354Y-41614691D01*
X142870551Y-41557458D01*
X143027186Y-41427186D01*
X143157458Y-41270551D01*
X143257004Y-41092799D01*
X143258860Y-41087332D01*
X143258862Y-41087327D01*
X143320634Y-40905352D01*
X143320635Y-40905347D01*
X143322490Y-40899883D01*
X143351723Y-40698263D01*
X143353249Y-40640000D01*
X143341860Y-40516049D01*
X143335137Y-40442880D01*
X143335136Y-40442877D01*
X143334608Y-40437126D01*
X143279307Y-40241047D01*
X143268776Y-40219691D01*
X143191756Y-40063510D01*
X143189201Y-40058329D01*
X143170796Y-40033681D01*
X143070758Y-39899715D01*
X143070758Y-39899714D01*
X143067305Y-39895091D01*
X142917703Y-39756800D01*
X142811947Y-39690073D01*
X142750288Y-39651169D01*
X142750283Y-39651167D01*
X142745404Y-39648088D01*
X142556180Y-39572595D01*
X142381663Y-39537881D01*
X142362032Y-39533976D01*
X142362031Y-39533976D01*
X142356366Y-39532849D01*
X142350592Y-39532773D01*
X142350588Y-39532773D01*
X142247452Y-39531424D01*
X142152655Y-39530183D01*
X142146958Y-39531162D01*
X142146957Y-39531162D01*
X142127671Y-39534476D01*
X141951870Y-39564684D01*
X141760734Y-39635198D01*
X141755773Y-39638150D01*
X141755772Y-39638150D01*
X141639939Y-39707064D01*
X141585649Y-39739363D01*
X141432478Y-39873690D01*
X141428911Y-39878215D01*
X141428906Y-39878220D01*
X141342331Y-39988040D01*
X141306351Y-40033681D01*
X141303662Y-40038792D01*
X141303660Y-40038795D01*
X141289480Y-40065747D01*
X141211492Y-40213978D01*
X141151078Y-40408543D01*
X141127132Y-40610859D01*
X135730069Y-40610859D01*
X135714643Y-40442975D01*
X135712545Y-40431654D01*
X135660408Y-40246791D01*
X135656283Y-40236044D01*
X135572163Y-40065465D01*
X135564869Y-40059990D01*
X135552449Y-40066762D01*
X134992021Y-40627189D01*
X134984408Y-40641132D01*
X134254356Y-40641132D01*
X134255592Y-40638868D01*
X134255461Y-40637034D01*
X134251210Y-40630420D01*
X133688538Y-40067749D01*
X133676163Y-40060992D01*
X133670197Y-40065458D01*
X133594645Y-40209058D01*
X133590242Y-40219691D01*
X133533281Y-40403132D01*
X133530891Y-40414376D01*
X133508313Y-40605137D01*
X133508012Y-40616638D01*
X120491102Y-40616638D01*
X120481860Y-40516049D01*
X120475137Y-40442880D01*
X120475136Y-40442877D01*
X120474608Y-40437126D01*
X120419307Y-40241047D01*
X120408776Y-40219691D01*
X120331756Y-40063510D01*
X120329201Y-40058329D01*
X120310796Y-40033681D01*
X120210758Y-39899715D01*
X120210758Y-39899714D01*
X120207305Y-39895091D01*
X120057703Y-39756800D01*
X119965580Y-39698675D01*
X134042788Y-39698675D01*
X134046275Y-39707064D01*
X134607189Y-40267979D01*
X134621132Y-40275592D01*
X134622966Y-40275461D01*
X134629580Y-40271210D01*
X135190285Y-39710504D01*
X135197042Y-39698129D01*
X135191012Y-39690073D01*
X135130061Y-39651616D01*
X135119813Y-39646395D01*
X134941401Y-39575216D01*
X134930373Y-39571949D01*
X134741982Y-39534476D01*
X134730535Y-39533273D01*
X134538477Y-39530759D01*
X134526997Y-39531662D01*
X134337697Y-39564190D01*
X134326577Y-39567170D01*
X134146365Y-39633653D01*
X134135991Y-39638601D01*
X134052385Y-39688342D01*
X134042788Y-39698675D01*
X119965580Y-39698675D01*
X119951947Y-39690073D01*
X119890288Y-39651169D01*
X119890283Y-39651167D01*
X119885404Y-39648088D01*
X119696180Y-39572595D01*
X119521663Y-39537881D01*
X119502032Y-39533976D01*
X119502031Y-39533976D01*
X119496366Y-39532849D01*
X119490592Y-39532773D01*
X119490588Y-39532773D01*
X119387452Y-39531424D01*
X119292655Y-39530183D01*
X119286958Y-39531162D01*
X119286957Y-39531162D01*
X119267671Y-39534476D01*
X119091870Y-39564684D01*
X118900734Y-39635198D01*
X118895773Y-39638150D01*
X118895772Y-39638150D01*
X118779939Y-39707064D01*
X118725649Y-39739363D01*
X118572478Y-39873690D01*
X118568911Y-39878215D01*
X118568906Y-39878220D01*
X118482331Y-39988040D01*
X118446351Y-40033681D01*
X118443662Y-40038792D01*
X118443660Y-40038795D01*
X118429480Y-40065747D01*
X118351492Y-40213978D01*
X118291078Y-40408543D01*
X118267132Y-40610859D01*
X114933814Y-40610859D01*
X114933500Y-40604189D01*
X114933500Y-39041294D01*
X118803066Y-39041294D01*
X118812948Y-39053783D01*
X118844239Y-39074691D01*
X118854349Y-39080181D01*
X119030835Y-39156005D01*
X119041778Y-39159560D01*
X119229120Y-39201952D01*
X119240530Y-39203454D01*
X119432469Y-39210995D01*
X119443951Y-39210393D01*
X119634045Y-39182832D01*
X119645240Y-39180144D01*
X119827131Y-39118400D01*
X119837628Y-39113726D01*
X119948032Y-39051898D01*
X119957895Y-39041821D01*
X119954940Y-39034151D01*
X119392811Y-38472021D01*
X119378868Y-38464408D01*
X119377034Y-38464539D01*
X119370420Y-38468790D01*
X118809259Y-39029952D01*
X118803066Y-39041294D01*
X114933500Y-39041294D01*
X114933500Y-38076638D01*
X118268012Y-38076638D01*
X118280575Y-38268304D01*
X118282376Y-38279674D01*
X118329657Y-38465843D01*
X118333498Y-38476690D01*
X118413916Y-38651130D01*
X118419664Y-38661086D01*
X118425788Y-38669751D01*
X118436377Y-38678140D01*
X118449676Y-38671113D01*
X119007979Y-38112811D01*
X119014356Y-38101132D01*
X119744408Y-38101132D01*
X119744539Y-38102966D01*
X119748790Y-38109580D01*
X120310239Y-38671028D01*
X120322614Y-38677785D01*
X120329194Y-38672859D01*
X120393726Y-38557628D01*
X120398400Y-38547131D01*
X120460144Y-38365240D01*
X120462832Y-38354045D01*
X120490689Y-38161911D01*
X120491319Y-38154528D01*
X120492650Y-38103704D01*
X120492407Y-38096305D01*
X120490069Y-38070859D01*
X133507132Y-38070859D01*
X133520457Y-38274151D01*
X133570605Y-38471610D01*
X133655898Y-38656624D01*
X133773479Y-38822997D01*
X133919410Y-38965157D01*
X133924206Y-38968362D01*
X133924209Y-38968364D01*
X134049227Y-39051898D01*
X134088803Y-39078342D01*
X134094106Y-39080620D01*
X134094109Y-39080622D01*
X134270680Y-39156483D01*
X134275987Y-39158763D01*
X134348817Y-39175243D01*
X134469055Y-39202450D01*
X134469060Y-39202451D01*
X134474692Y-39203725D01*
X134480463Y-39203952D01*
X134480465Y-39203952D01*
X134543470Y-39206427D01*
X134678263Y-39211723D01*
X134879883Y-39182490D01*
X134885347Y-39180635D01*
X134885352Y-39180634D01*
X135067327Y-39118862D01*
X135067332Y-39118860D01*
X135072799Y-39117004D01*
X135078653Y-39113726D01*
X135189054Y-39051898D01*
X135207989Y-39041294D01*
X141663066Y-39041294D01*
X141672948Y-39053783D01*
X141704239Y-39074691D01*
X141714349Y-39080181D01*
X141890835Y-39156005D01*
X141901778Y-39159560D01*
X142089120Y-39201952D01*
X142100530Y-39203454D01*
X142292469Y-39210995D01*
X142303951Y-39210393D01*
X142494045Y-39182832D01*
X142505240Y-39180144D01*
X142687131Y-39118400D01*
X142697628Y-39113726D01*
X142808032Y-39051898D01*
X142817895Y-39041821D01*
X142814940Y-39034151D01*
X142252811Y-38472021D01*
X142238868Y-38464408D01*
X142237034Y-38464539D01*
X142230420Y-38468790D01*
X141669259Y-39029952D01*
X141663066Y-39041294D01*
X135207989Y-39041294D01*
X135250551Y-39017458D01*
X135407186Y-38887186D01*
X135537458Y-38730551D01*
X135637004Y-38552799D01*
X135638860Y-38547332D01*
X135638862Y-38547327D01*
X135700634Y-38365352D01*
X135700635Y-38365347D01*
X135702490Y-38359883D01*
X135731723Y-38158263D01*
X135733249Y-38100000D01*
X135731102Y-38076638D01*
X141128012Y-38076638D01*
X141140575Y-38268304D01*
X141142376Y-38279674D01*
X141189657Y-38465843D01*
X141193498Y-38476690D01*
X141273916Y-38651130D01*
X141279664Y-38661086D01*
X141285788Y-38669751D01*
X141296377Y-38678140D01*
X141309676Y-38671113D01*
X141867979Y-38112811D01*
X141875592Y-38098868D01*
X141875461Y-38097034D01*
X141871210Y-38090420D01*
X141308538Y-37527749D01*
X141296163Y-37520992D01*
X141290197Y-37525458D01*
X141214645Y-37669058D01*
X141210242Y-37679691D01*
X141153281Y-37863132D01*
X141150891Y-37874376D01*
X141128313Y-38065137D01*
X141128012Y-38076638D01*
X135731102Y-38076638D01*
X135716895Y-37922011D01*
X135715137Y-37902880D01*
X135715136Y-37902877D01*
X135714608Y-37897126D01*
X135688866Y-37805853D01*
X135660875Y-37706606D01*
X135660874Y-37706604D01*
X135659307Y-37701047D01*
X135648776Y-37679691D01*
X135571756Y-37523510D01*
X135569201Y-37518329D01*
X135550796Y-37493681D01*
X135450758Y-37359715D01*
X135450758Y-37359714D01*
X135447305Y-37355091D01*
X135357646Y-37272211D01*
X135301943Y-37220719D01*
X135301940Y-37220717D01*
X135297703Y-37216800D01*
X135191947Y-37150073D01*
X135130288Y-37111169D01*
X135130283Y-37111167D01*
X135125404Y-37108088D01*
X134936180Y-37032595D01*
X134747150Y-36994994D01*
X134742032Y-36993976D01*
X134742031Y-36993976D01*
X134736366Y-36992849D01*
X134730592Y-36992773D01*
X134730588Y-36992773D01*
X134627452Y-36991424D01*
X134532655Y-36990183D01*
X134526958Y-36991162D01*
X134526957Y-36991162D01*
X134488949Y-36997693D01*
X134331870Y-37024684D01*
X134140734Y-37095198D01*
X134135773Y-37098150D01*
X134135772Y-37098150D01*
X133989040Y-37185447D01*
X133965649Y-37199363D01*
X133812478Y-37333690D01*
X133808911Y-37338215D01*
X133808906Y-37338220D01*
X133743276Y-37421472D01*
X133686351Y-37493681D01*
X133683662Y-37498792D01*
X133683660Y-37498795D01*
X133668946Y-37526762D01*
X133591492Y-37673978D01*
X133531078Y-37868543D01*
X133507132Y-38070859D01*
X120490069Y-38070859D01*
X120474643Y-37902975D01*
X120472545Y-37891654D01*
X120420408Y-37706791D01*
X120416283Y-37696044D01*
X120332163Y-37525465D01*
X120324869Y-37519990D01*
X120312449Y-37526762D01*
X119752021Y-38087189D01*
X119744408Y-38101132D01*
X119014356Y-38101132D01*
X119015592Y-38098868D01*
X119015461Y-38097034D01*
X119011210Y-38090420D01*
X118448538Y-37527749D01*
X118436163Y-37520992D01*
X118430197Y-37525458D01*
X118354645Y-37669058D01*
X118350242Y-37679691D01*
X118293281Y-37863132D01*
X118290891Y-37874376D01*
X118268313Y-38065137D01*
X118268012Y-38076638D01*
X114933500Y-38076638D01*
X114933500Y-37158675D01*
X118802788Y-37158675D01*
X118806275Y-37167064D01*
X119367189Y-37727979D01*
X119381132Y-37735592D01*
X119382966Y-37735461D01*
X119389580Y-37731210D01*
X119950285Y-37170504D01*
X119957042Y-37158129D01*
X119951012Y-37150073D01*
X119890061Y-37111616D01*
X119879813Y-37106395D01*
X119701401Y-37035216D01*
X119690373Y-37031949D01*
X119501982Y-36994476D01*
X119490535Y-36993273D01*
X119298477Y-36990759D01*
X119286997Y-36991662D01*
X119097697Y-37024190D01*
X119086577Y-37027170D01*
X118906365Y-37093653D01*
X118895991Y-37098601D01*
X118812385Y-37148342D01*
X118802788Y-37158675D01*
X114933500Y-37158675D01*
X114933500Y-33961294D01*
X118803066Y-33961294D01*
X118812948Y-33973783D01*
X118844239Y-33994691D01*
X118854349Y-34000181D01*
X119030835Y-34076005D01*
X119041778Y-34079560D01*
X119229120Y-34121952D01*
X119240530Y-34123454D01*
X119432469Y-34130995D01*
X119443951Y-34130393D01*
X119634045Y-34102832D01*
X119645240Y-34100144D01*
X119827131Y-34038400D01*
X119837628Y-34033726D01*
X119948032Y-33971898D01*
X119957895Y-33961821D01*
X119954940Y-33954151D01*
X119392811Y-33392021D01*
X119378868Y-33384408D01*
X119377034Y-33384539D01*
X119370420Y-33388790D01*
X118809259Y-33949952D01*
X118803066Y-33961294D01*
X114933500Y-33961294D01*
X114933500Y-32996638D01*
X118268012Y-32996638D01*
X118280575Y-33188304D01*
X118282376Y-33199674D01*
X118329657Y-33385843D01*
X118333498Y-33396690D01*
X118413916Y-33571130D01*
X118419664Y-33581086D01*
X118425788Y-33589751D01*
X118436377Y-33598140D01*
X118449676Y-33591113D01*
X119007979Y-33032811D01*
X119014356Y-33021132D01*
X119744408Y-33021132D01*
X119744539Y-33022966D01*
X119748790Y-33029580D01*
X120310239Y-33591028D01*
X120322614Y-33597785D01*
X120329194Y-33592859D01*
X120393726Y-33477628D01*
X120398400Y-33467131D01*
X120460144Y-33285240D01*
X120462832Y-33274045D01*
X120490689Y-33081911D01*
X120491319Y-33074528D01*
X120492650Y-33023704D01*
X120492407Y-33016305D01*
X120474643Y-32822975D01*
X120472545Y-32811654D01*
X120420408Y-32626791D01*
X120416283Y-32616044D01*
X120332163Y-32445465D01*
X120324869Y-32439990D01*
X120312449Y-32446762D01*
X119752021Y-33007189D01*
X119744408Y-33021132D01*
X119014356Y-33021132D01*
X119015592Y-33018868D01*
X119015461Y-33017034D01*
X119011210Y-33010420D01*
X118448538Y-32447749D01*
X118436163Y-32440992D01*
X118430197Y-32445458D01*
X118354645Y-32589058D01*
X118350242Y-32599691D01*
X118293281Y-32783132D01*
X118290891Y-32794376D01*
X118268313Y-32985137D01*
X118268012Y-32996638D01*
X114933500Y-32996638D01*
X114933500Y-32078675D01*
X118802788Y-32078675D01*
X118806275Y-32087064D01*
X119367189Y-32647979D01*
X119381132Y-32655592D01*
X119382966Y-32655461D01*
X119389580Y-32651210D01*
X119950285Y-32090504D01*
X119957042Y-32078129D01*
X119951012Y-32070073D01*
X119890061Y-32031616D01*
X119879813Y-32026395D01*
X119701401Y-31955216D01*
X119690373Y-31951949D01*
X119501982Y-31914476D01*
X119490535Y-31913273D01*
X119298477Y-31910759D01*
X119286997Y-31911662D01*
X119097697Y-31944190D01*
X119086577Y-31947170D01*
X118906365Y-32013653D01*
X118895991Y-32018601D01*
X118812385Y-32068342D01*
X118802788Y-32078675D01*
X114933500Y-32078675D01*
X114933500Y-26748763D01*
X114934027Y-26737579D01*
X114935701Y-26730091D01*
X114933562Y-26662032D01*
X114933500Y-26658075D01*
X114933500Y-26630144D01*
X114932994Y-26626138D01*
X114932061Y-26614292D01*
X114930922Y-26578037D01*
X114930673Y-26570110D01*
X114925022Y-26550658D01*
X114921014Y-26531306D01*
X114919468Y-26519068D01*
X114919467Y-26519066D01*
X114918474Y-26511203D01*
X114902194Y-26470086D01*
X114898359Y-26458885D01*
X114886018Y-26416406D01*
X114881985Y-26409587D01*
X114881983Y-26409582D01*
X114875707Y-26398971D01*
X114867010Y-26381221D01*
X114859552Y-26362383D01*
X114833571Y-26326623D01*
X114827053Y-26316701D01*
X114808578Y-26285460D01*
X114808574Y-26285455D01*
X114804542Y-26278637D01*
X114790218Y-26264313D01*
X114777376Y-26249278D01*
X114771625Y-26241362D01*
X114765472Y-26232893D01*
X114731406Y-26204711D01*
X114722627Y-26196722D01*
X114231318Y-25705413D01*
X114197292Y-25643101D01*
X114202357Y-25572286D01*
X114244904Y-25515450D01*
X114311424Y-25490639D01*
X114325024Y-25490403D01*
X114341698Y-25491015D01*
X114356674Y-25491564D01*
X114356678Y-25491564D01*
X114361837Y-25491753D01*
X114366957Y-25491097D01*
X114366959Y-25491097D01*
X114578288Y-25464025D01*
X114578289Y-25464025D01*
X114583416Y-25463368D01*
X114622434Y-25451662D01*
X114792429Y-25400661D01*
X114792434Y-25400659D01*
X114797384Y-25399174D01*
X114997994Y-25300896D01*
X115179860Y-25171173D01*
X115338096Y-25013489D01*
X115468453Y-24832077D01*
X115469776Y-24833028D01*
X115516645Y-24789857D01*
X115586580Y-24777625D01*
X115652026Y-24805144D01*
X115679875Y-24836994D01*
X115739987Y-24935088D01*
X115886250Y-25103938D01*
X116058126Y-25246632D01*
X116251000Y-25359338D01*
X116459692Y-25439030D01*
X116464760Y-25440061D01*
X116464763Y-25440062D01*
X116543436Y-25456068D01*
X116678597Y-25483567D01*
X116683772Y-25483757D01*
X116683774Y-25483757D01*
X116896673Y-25491564D01*
X116896677Y-25491564D01*
X116901837Y-25491753D01*
X116906957Y-25491097D01*
X116906959Y-25491097D01*
X117118288Y-25464025D01*
X117118289Y-25464025D01*
X117123416Y-25463368D01*
X117162434Y-25451662D01*
X117332429Y-25400661D01*
X117332434Y-25400659D01*
X117337384Y-25399174D01*
X117537994Y-25300896D01*
X117719860Y-25171173D01*
X117878096Y-25013489D01*
X118008453Y-24832077D01*
X118009776Y-24833028D01*
X118056645Y-24789857D01*
X118126580Y-24777625D01*
X118192026Y-24805144D01*
X118219875Y-24836994D01*
X118279987Y-24935088D01*
X118426250Y-25103938D01*
X118598126Y-25246632D01*
X118791000Y-25359338D01*
X118999692Y-25439030D01*
X119004760Y-25440061D01*
X119004763Y-25440062D01*
X119083436Y-25456068D01*
X119218597Y-25483567D01*
X119223772Y-25483757D01*
X119223774Y-25483757D01*
X119436673Y-25491564D01*
X119436677Y-25491564D01*
X119441837Y-25491753D01*
X119446957Y-25491097D01*
X119446959Y-25491097D01*
X119658288Y-25464025D01*
X119658289Y-25464025D01*
X119663416Y-25463368D01*
X119702434Y-25451662D01*
X119872429Y-25400661D01*
X119872434Y-25400659D01*
X119877384Y-25399174D01*
X120077994Y-25300896D01*
X120259860Y-25171173D01*
X120418096Y-25013489D01*
X120548453Y-24832077D01*
X120549776Y-24833028D01*
X120596645Y-24789857D01*
X120666580Y-24777625D01*
X120732026Y-24805144D01*
X120759875Y-24836994D01*
X120819987Y-24935088D01*
X120966250Y-25103938D01*
X121138126Y-25246632D01*
X121331000Y-25359338D01*
X121539692Y-25439030D01*
X121544760Y-25440061D01*
X121544763Y-25440062D01*
X121623436Y-25456068D01*
X121758597Y-25483567D01*
X121763772Y-25483757D01*
X121763774Y-25483757D01*
X121976673Y-25491564D01*
X121976677Y-25491564D01*
X121981837Y-25491753D01*
X121986957Y-25491097D01*
X121986959Y-25491097D01*
X122198288Y-25464025D01*
X122198289Y-25464025D01*
X122203416Y-25463368D01*
X122242434Y-25451662D01*
X122412429Y-25400661D01*
X122412434Y-25400659D01*
X122417384Y-25399174D01*
X122617994Y-25300896D01*
X122799860Y-25171173D01*
X122958096Y-25013489D01*
X123088453Y-24832077D01*
X123089776Y-24833028D01*
X123136645Y-24789857D01*
X123206580Y-24777625D01*
X123272026Y-24805144D01*
X123299875Y-24836994D01*
X123359987Y-24935088D01*
X123506250Y-25103938D01*
X123678126Y-25246632D01*
X123871000Y-25359338D01*
X124079692Y-25439030D01*
X124084760Y-25440061D01*
X124084763Y-25440062D01*
X124163436Y-25456068D01*
X124298597Y-25483567D01*
X124303772Y-25483757D01*
X124303774Y-25483757D01*
X124516673Y-25491564D01*
X124516677Y-25491564D01*
X124521837Y-25491753D01*
X124526957Y-25491097D01*
X124526959Y-25491097D01*
X124738288Y-25464025D01*
X124738289Y-25464025D01*
X124743416Y-25463368D01*
X124782434Y-25451662D01*
X124952429Y-25400661D01*
X124952434Y-25400659D01*
X124957384Y-25399174D01*
X125157994Y-25300896D01*
X125339860Y-25171173D01*
X125498096Y-25013489D01*
X125628453Y-24832077D01*
X125629776Y-24833028D01*
X125676645Y-24789857D01*
X125746580Y-24777625D01*
X125812026Y-24805144D01*
X125839875Y-24836994D01*
X125899987Y-24935088D01*
X126046250Y-25103938D01*
X126218126Y-25246632D01*
X126411000Y-25359338D01*
X126619692Y-25439030D01*
X126624760Y-25440061D01*
X126624763Y-25440062D01*
X126703436Y-25456068D01*
X126838597Y-25483567D01*
X126843772Y-25483757D01*
X126843774Y-25483757D01*
X127056673Y-25491564D01*
X127056677Y-25491564D01*
X127061837Y-25491753D01*
X127066957Y-25491097D01*
X127066959Y-25491097D01*
X127278288Y-25464025D01*
X127278289Y-25464025D01*
X127283416Y-25463368D01*
X127322434Y-25451662D01*
X127492429Y-25400661D01*
X127492434Y-25400659D01*
X127497384Y-25399174D01*
X127697994Y-25300896D01*
X127879860Y-25171173D01*
X128038096Y-25013489D01*
X128168453Y-24832077D01*
X128169776Y-24833028D01*
X128216645Y-24789857D01*
X128286580Y-24777625D01*
X128352026Y-24805144D01*
X128379875Y-24836994D01*
X128439987Y-24935088D01*
X128586250Y-25103938D01*
X128758126Y-25246632D01*
X128951000Y-25359338D01*
X129159692Y-25439030D01*
X129164760Y-25440061D01*
X129164763Y-25440062D01*
X129243436Y-25456068D01*
X129378597Y-25483567D01*
X129383771Y-25483757D01*
X129383773Y-25483757D01*
X129451293Y-25486233D01*
X129525649Y-25488959D01*
X129592990Y-25511443D01*
X129637486Y-25566767D01*
X129645008Y-25637364D01*
X129610126Y-25703969D01*
X128044500Y-27269595D01*
X127982188Y-27303621D01*
X127955405Y-27306500D01*
X120597870Y-27306500D01*
X120529749Y-27286498D01*
X120483256Y-27232842D01*
X120479888Y-27224730D01*
X120433767Y-27101703D01*
X120430615Y-27093295D01*
X120343261Y-26976739D01*
X120226705Y-26889385D01*
X120090316Y-26838255D01*
X120028134Y-26831500D01*
X118731866Y-26831500D01*
X118669684Y-26838255D01*
X118533295Y-26889385D01*
X118416739Y-26976739D01*
X118329385Y-27093295D01*
X118278255Y-27229684D01*
X118271500Y-27291866D01*
X118271500Y-28588134D01*
X118278255Y-28650316D01*
X118329385Y-28786705D01*
X118416739Y-28903261D01*
X118533295Y-28990615D01*
X118669684Y-29041745D01*
X118731866Y-29048500D01*
X120028134Y-29048500D01*
X120090316Y-29041745D01*
X120226705Y-28990615D01*
X120343261Y-28903261D01*
X120430615Y-28786705D01*
X120479888Y-28655270D01*
X120522530Y-28598506D01*
X120589091Y-28573806D01*
X120597870Y-28573500D01*
X127706405Y-28573500D01*
X127774526Y-28593502D01*
X127821019Y-28647158D01*
X127831123Y-28717432D01*
X127801629Y-28782012D01*
X127795500Y-28788595D01*
X126774500Y-29809595D01*
X126712188Y-29843621D01*
X126685405Y-29846500D01*
X120353663Y-29846500D01*
X120285542Y-29826498D01*
X120252705Y-29795889D01*
X120210758Y-29739715D01*
X120210757Y-29739714D01*
X120207305Y-29735091D01*
X120117646Y-29652211D01*
X120061943Y-29600719D01*
X120061940Y-29600717D01*
X120057703Y-29596800D01*
X119994099Y-29556669D01*
X119890288Y-29491169D01*
X119890283Y-29491167D01*
X119885404Y-29488088D01*
X119696180Y-29412595D01*
X119496366Y-29372849D01*
X119490592Y-29372773D01*
X119490588Y-29372773D01*
X119387452Y-29371424D01*
X119292655Y-29370183D01*
X119286958Y-29371162D01*
X119286957Y-29371162D01*
X119099936Y-29403298D01*
X119091870Y-29404684D01*
X118900734Y-29475198D01*
X118895773Y-29478150D01*
X118895772Y-29478150D01*
X118749040Y-29565447D01*
X118725649Y-29579363D01*
X118572478Y-29713690D01*
X118568911Y-29718215D01*
X118568906Y-29718220D01*
X118507677Y-29795889D01*
X118446351Y-29873681D01*
X118351492Y-30053978D01*
X118291078Y-30248543D01*
X118267132Y-30450859D01*
X118280457Y-30654151D01*
X118330605Y-30851610D01*
X118415898Y-31036624D01*
X118533479Y-31202997D01*
X118679410Y-31345157D01*
X118684206Y-31348362D01*
X118684209Y-31348364D01*
X118714523Y-31368619D01*
X118848803Y-31458342D01*
X118854106Y-31460620D01*
X118854109Y-31460622D01*
X118943115Y-31498862D01*
X119035987Y-31538763D01*
X119108817Y-31555243D01*
X119229055Y-31582450D01*
X119229060Y-31582451D01*
X119234692Y-31583725D01*
X119240463Y-31583952D01*
X119240465Y-31583952D01*
X119303470Y-31586427D01*
X119438263Y-31591723D01*
X119639883Y-31562490D01*
X119645347Y-31560635D01*
X119645352Y-31560634D01*
X119827327Y-31498862D01*
X119827332Y-31498860D01*
X119832799Y-31497004D01*
X120010551Y-31397458D01*
X120167186Y-31267186D01*
X120217222Y-31207024D01*
X120257221Y-31158931D01*
X120316159Y-31119347D01*
X120354095Y-31113500D01*
X126436405Y-31113500D01*
X126504526Y-31133502D01*
X126551019Y-31187158D01*
X126561123Y-31257432D01*
X126531629Y-31322012D01*
X126525500Y-31328595D01*
X122964500Y-34889595D01*
X122902188Y-34923621D01*
X122875405Y-34926500D01*
X120353663Y-34926500D01*
X120285542Y-34906498D01*
X120252705Y-34875889D01*
X120210758Y-34819715D01*
X120210757Y-34819714D01*
X120207305Y-34815091D01*
X120099589Y-34715519D01*
X120061943Y-34680719D01*
X120061940Y-34680717D01*
X120057703Y-34676800D01*
X119954253Y-34611528D01*
X119890288Y-34571169D01*
X119890283Y-34571167D01*
X119885404Y-34568088D01*
X119696180Y-34492595D01*
X119496366Y-34452849D01*
X119490592Y-34452773D01*
X119490588Y-34452773D01*
X119387452Y-34451424D01*
X119292655Y-34450183D01*
X119286958Y-34451162D01*
X119286957Y-34451162D01*
X119264656Y-34454994D01*
X119091870Y-34484684D01*
X118900734Y-34555198D01*
X118895773Y-34558150D01*
X118895772Y-34558150D01*
X118815993Y-34605614D01*
X118725649Y-34659363D01*
X118572478Y-34793690D01*
X118568911Y-34798215D01*
X118568906Y-34798220D01*
X118517938Y-34862873D01*
X118446351Y-34953681D01*
X118443662Y-34958792D01*
X118443660Y-34958795D01*
X118425635Y-34993055D01*
X118351492Y-35133978D01*
X118291078Y-35328543D01*
X118267132Y-35530859D01*
X118280457Y-35734151D01*
X118330605Y-35931610D01*
X118415898Y-36116624D01*
X118533479Y-36282997D01*
X118679410Y-36425157D01*
X118684206Y-36428362D01*
X118684209Y-36428364D01*
X118736890Y-36463564D01*
X118848803Y-36538342D01*
X118854106Y-36540620D01*
X118854109Y-36540622D01*
X118943115Y-36578862D01*
X119035987Y-36618763D01*
X119088989Y-36630756D01*
X119229055Y-36662450D01*
X119229060Y-36662451D01*
X119234692Y-36663725D01*
X119240463Y-36663952D01*
X119240465Y-36663952D01*
X119302727Y-36666398D01*
X119438263Y-36671723D01*
X119639883Y-36642490D01*
X119645347Y-36640635D01*
X119645352Y-36640634D01*
X119827327Y-36578862D01*
X119827332Y-36578860D01*
X119832799Y-36577004D01*
X120010551Y-36477458D01*
X120167186Y-36347186D01*
X120217222Y-36287024D01*
X120257221Y-36238931D01*
X120316159Y-36199347D01*
X120354095Y-36193500D01*
X123111233Y-36193500D01*
X123122416Y-36194027D01*
X123129909Y-36195702D01*
X123137835Y-36195453D01*
X123137836Y-36195453D01*
X123197986Y-36193562D01*
X123201945Y-36193500D01*
X123229856Y-36193500D01*
X123233791Y-36193003D01*
X123233856Y-36192995D01*
X123245693Y-36192062D01*
X123277951Y-36191048D01*
X123281970Y-36190922D01*
X123289889Y-36190673D01*
X123309343Y-36185021D01*
X123328700Y-36181013D01*
X123340930Y-36179468D01*
X123340931Y-36179468D01*
X123348797Y-36178474D01*
X123356168Y-36175555D01*
X123356170Y-36175555D01*
X123389912Y-36162196D01*
X123401142Y-36158351D01*
X123435983Y-36148229D01*
X123435984Y-36148229D01*
X123443593Y-36146018D01*
X123450412Y-36141985D01*
X123450417Y-36141983D01*
X123461028Y-36135707D01*
X123478776Y-36127012D01*
X123497617Y-36119552D01*
X123508867Y-36111379D01*
X123533387Y-36093564D01*
X123543307Y-36087048D01*
X123574535Y-36068580D01*
X123574538Y-36068578D01*
X123581362Y-36064542D01*
X123595683Y-36050221D01*
X123610717Y-36037380D01*
X123620694Y-36030131D01*
X123627107Y-36025472D01*
X123655298Y-35991395D01*
X123663288Y-35982616D01*
X124115045Y-35530859D01*
X133507132Y-35530859D01*
X133520457Y-35734151D01*
X133570605Y-35931610D01*
X133655898Y-36116624D01*
X133773479Y-36282997D01*
X133919410Y-36425157D01*
X133924206Y-36428362D01*
X133924209Y-36428364D01*
X133976890Y-36463564D01*
X134088803Y-36538342D01*
X134094106Y-36540620D01*
X134094109Y-36540622D01*
X134183115Y-36578862D01*
X134275987Y-36618763D01*
X134328989Y-36630756D01*
X134469055Y-36662450D01*
X134469060Y-36662451D01*
X134474692Y-36663725D01*
X134480463Y-36663952D01*
X134480465Y-36663952D01*
X134542727Y-36666398D01*
X134678263Y-36671723D01*
X134879883Y-36642490D01*
X134885347Y-36640635D01*
X134885352Y-36640634D01*
X135067327Y-36578862D01*
X135067332Y-36578860D01*
X135072799Y-36577004D01*
X135250551Y-36477458D01*
X135407186Y-36347186D01*
X135537458Y-36190551D01*
X135605765Y-36068580D01*
X135634180Y-36017842D01*
X135634181Y-36017840D01*
X135637004Y-36012799D01*
X135638860Y-36007332D01*
X135638862Y-36007327D01*
X135700634Y-35825352D01*
X135700635Y-35825347D01*
X135702490Y-35819883D01*
X135731723Y-35618263D01*
X135733249Y-35560000D01*
X135714608Y-35357126D01*
X135659307Y-35161047D01*
X135648680Y-35139496D01*
X135571756Y-34983510D01*
X135569201Y-34978329D01*
X135560585Y-34966790D01*
X135450758Y-34819715D01*
X135450758Y-34819714D01*
X135447305Y-34815091D01*
X135339589Y-34715519D01*
X135301943Y-34680719D01*
X135301940Y-34680717D01*
X135297703Y-34676800D01*
X135194253Y-34611528D01*
X135130288Y-34571169D01*
X135130283Y-34571167D01*
X135125404Y-34568088D01*
X134936180Y-34492595D01*
X134736366Y-34452849D01*
X134730592Y-34452773D01*
X134730588Y-34452773D01*
X134627452Y-34451424D01*
X134532655Y-34450183D01*
X134526958Y-34451162D01*
X134526957Y-34451162D01*
X134504656Y-34454994D01*
X134331870Y-34484684D01*
X134140734Y-34555198D01*
X134135773Y-34558150D01*
X134135772Y-34558150D01*
X134055993Y-34605614D01*
X133965649Y-34659363D01*
X133812478Y-34793690D01*
X133808911Y-34798215D01*
X133808906Y-34798220D01*
X133757938Y-34862873D01*
X133686351Y-34953681D01*
X133683662Y-34958792D01*
X133683660Y-34958795D01*
X133665635Y-34993055D01*
X133591492Y-35133978D01*
X133531078Y-35328543D01*
X133507132Y-35530859D01*
X124115045Y-35530859D01*
X126655045Y-32990859D01*
X133507132Y-32990859D01*
X133520457Y-33194151D01*
X133570605Y-33391610D01*
X133655898Y-33576624D01*
X133773479Y-33742997D01*
X133777613Y-33747024D01*
X133898186Y-33864481D01*
X133919410Y-33885157D01*
X133924206Y-33888362D01*
X133924209Y-33888364D01*
X134044099Y-33968472D01*
X134088803Y-33998342D01*
X134094106Y-34000620D01*
X134094109Y-34000622D01*
X134270680Y-34076483D01*
X134275987Y-34078763D01*
X134348817Y-34095243D01*
X134469055Y-34122450D01*
X134469060Y-34122451D01*
X134474692Y-34123725D01*
X134480463Y-34123952D01*
X134480465Y-34123952D01*
X134543470Y-34126427D01*
X134678263Y-34131723D01*
X134879883Y-34102490D01*
X134885347Y-34100635D01*
X134885352Y-34100634D01*
X135067327Y-34038862D01*
X135067332Y-34038860D01*
X135072799Y-34037004D01*
X135078653Y-34033726D01*
X135148354Y-33994691D01*
X135207989Y-33961294D01*
X141663066Y-33961294D01*
X141672948Y-33973783D01*
X141704239Y-33994691D01*
X141714349Y-34000181D01*
X141890835Y-34076005D01*
X141901778Y-34079560D01*
X142089120Y-34121952D01*
X142100530Y-34123454D01*
X142292469Y-34130995D01*
X142303951Y-34130393D01*
X142494045Y-34102832D01*
X142505240Y-34100144D01*
X142687131Y-34038400D01*
X142697628Y-34033726D01*
X142808032Y-33971898D01*
X142817895Y-33961821D01*
X142814940Y-33954151D01*
X142252811Y-33392021D01*
X142238868Y-33384408D01*
X142237034Y-33384539D01*
X142230420Y-33388790D01*
X141669259Y-33949952D01*
X141663066Y-33961294D01*
X135207989Y-33961294D01*
X135250551Y-33937458D01*
X135407186Y-33807186D01*
X135537458Y-33650551D01*
X135637004Y-33472799D01*
X135638860Y-33467332D01*
X135638862Y-33467327D01*
X135700634Y-33285352D01*
X135700635Y-33285347D01*
X135702490Y-33279883D01*
X135731723Y-33078263D01*
X135733249Y-33020000D01*
X135731102Y-32996638D01*
X141128012Y-32996638D01*
X141140575Y-33188304D01*
X141142376Y-33199674D01*
X141189657Y-33385843D01*
X141193498Y-33396690D01*
X141273916Y-33571130D01*
X141279664Y-33581086D01*
X141285788Y-33589751D01*
X141296377Y-33598140D01*
X141309676Y-33591113D01*
X141867979Y-33032811D01*
X141874356Y-33021132D01*
X142604408Y-33021132D01*
X142604539Y-33022966D01*
X142608790Y-33029580D01*
X143170239Y-33591028D01*
X143182614Y-33597785D01*
X143189194Y-33592859D01*
X143253726Y-33477628D01*
X143258400Y-33467131D01*
X143320144Y-33285240D01*
X143322832Y-33274045D01*
X143350689Y-33081911D01*
X143351319Y-33074528D01*
X143352650Y-33023704D01*
X143352407Y-33016305D01*
X143334643Y-32822975D01*
X143332545Y-32811654D01*
X143280408Y-32626791D01*
X143276283Y-32616044D01*
X143192163Y-32445465D01*
X143184869Y-32439990D01*
X143172449Y-32446762D01*
X142612021Y-33007189D01*
X142604408Y-33021132D01*
X141874356Y-33021132D01*
X141875592Y-33018868D01*
X141875461Y-33017034D01*
X141871210Y-33010420D01*
X141308538Y-32447749D01*
X141296163Y-32440992D01*
X141290197Y-32445458D01*
X141214645Y-32589058D01*
X141210242Y-32599691D01*
X141153281Y-32783132D01*
X141150891Y-32794376D01*
X141128313Y-32985137D01*
X141128012Y-32996638D01*
X135731102Y-32996638D01*
X135716895Y-32842011D01*
X135715137Y-32822880D01*
X135715136Y-32822877D01*
X135714608Y-32817126D01*
X135673624Y-32671810D01*
X135660875Y-32626606D01*
X135660874Y-32626604D01*
X135659307Y-32621047D01*
X135655989Y-32614317D01*
X135571756Y-32443510D01*
X135569201Y-32438329D01*
X135550796Y-32413681D01*
X135450758Y-32279715D01*
X135450758Y-32279714D01*
X135447305Y-32275091D01*
X135297703Y-32136800D01*
X135205580Y-32078675D01*
X141662788Y-32078675D01*
X141666275Y-32087064D01*
X142227189Y-32647979D01*
X142241132Y-32655592D01*
X142242966Y-32655461D01*
X142249580Y-32651210D01*
X142810285Y-32090504D01*
X142817042Y-32078129D01*
X142811012Y-32070073D01*
X142750061Y-32031616D01*
X142739813Y-32026395D01*
X142561401Y-31955216D01*
X142550373Y-31951949D01*
X142361982Y-31914476D01*
X142350535Y-31913273D01*
X142158477Y-31910759D01*
X142146997Y-31911662D01*
X141957697Y-31944190D01*
X141946577Y-31947170D01*
X141766365Y-32013653D01*
X141755991Y-32018601D01*
X141672385Y-32068342D01*
X141662788Y-32078675D01*
X135205580Y-32078675D01*
X135191947Y-32070073D01*
X135130288Y-32031169D01*
X135130283Y-32031167D01*
X135125404Y-32028088D01*
X134936180Y-31952595D01*
X134760427Y-31917635D01*
X134742032Y-31913976D01*
X134742031Y-31913976D01*
X134736366Y-31912849D01*
X134730592Y-31912773D01*
X134730588Y-31912773D01*
X134627452Y-31911424D01*
X134532655Y-31910183D01*
X134526958Y-31911162D01*
X134526957Y-31911162D01*
X134337567Y-31943705D01*
X134331870Y-31944684D01*
X134140734Y-32015198D01*
X134135773Y-32018150D01*
X134135772Y-32018150D01*
X134019939Y-32087064D01*
X133965649Y-32119363D01*
X133812478Y-32253690D01*
X133808911Y-32258215D01*
X133808906Y-32258220D01*
X133753518Y-32328480D01*
X133686351Y-32413681D01*
X133683662Y-32418792D01*
X133683660Y-32418795D01*
X133668946Y-32446762D01*
X133591492Y-32593978D01*
X133531078Y-32788543D01*
X133507132Y-32990859D01*
X126655045Y-32990859D01*
X130764610Y-28881294D01*
X134043066Y-28881294D01*
X134052948Y-28893783D01*
X134084239Y-28914691D01*
X134094349Y-28920181D01*
X134270835Y-28996005D01*
X134281778Y-28999560D01*
X134469120Y-29041952D01*
X134480530Y-29043454D01*
X134672469Y-29050995D01*
X134683951Y-29050393D01*
X134874045Y-29022832D01*
X134885240Y-29020144D01*
X135067131Y-28958400D01*
X135077628Y-28953726D01*
X135188032Y-28891898D01*
X135197895Y-28881821D01*
X135194940Y-28874151D01*
X134632811Y-28312021D01*
X134618868Y-28304408D01*
X134617034Y-28304539D01*
X134610420Y-28308790D01*
X134049259Y-28869952D01*
X134043066Y-28881294D01*
X130764610Y-28881294D01*
X131729266Y-27916638D01*
X133508012Y-27916638D01*
X133520575Y-28108304D01*
X133522376Y-28119674D01*
X133569657Y-28305843D01*
X133573498Y-28316690D01*
X133653916Y-28491130D01*
X133659664Y-28501086D01*
X133665788Y-28509751D01*
X133676377Y-28518140D01*
X133689676Y-28511113D01*
X134247979Y-27952811D01*
X134254356Y-27941132D01*
X134984408Y-27941132D01*
X134984539Y-27942966D01*
X134988790Y-27949580D01*
X135550239Y-28511028D01*
X135562614Y-28517785D01*
X135569194Y-28512859D01*
X135633726Y-28397628D01*
X135638400Y-28387131D01*
X135700144Y-28205240D01*
X135702832Y-28194045D01*
X135730689Y-28001911D01*
X135731319Y-27994528D01*
X135732650Y-27943704D01*
X135732407Y-27936305D01*
X135714643Y-27742975D01*
X135712545Y-27731654D01*
X135660408Y-27546791D01*
X135656283Y-27536044D01*
X135572163Y-27365465D01*
X135564869Y-27359990D01*
X135552449Y-27366762D01*
X134992021Y-27927189D01*
X134984408Y-27941132D01*
X134254356Y-27941132D01*
X134255592Y-27938868D01*
X134255461Y-27937034D01*
X134251210Y-27930420D01*
X133688538Y-27367749D01*
X133676163Y-27360992D01*
X133670197Y-27365458D01*
X133594645Y-27509058D01*
X133590242Y-27519691D01*
X133533281Y-27703132D01*
X133530891Y-27714376D01*
X133508313Y-27905137D01*
X133508012Y-27916638D01*
X131729266Y-27916638D01*
X132647229Y-26998675D01*
X134042788Y-26998675D01*
X134046275Y-27007064D01*
X134607189Y-27567979D01*
X134621132Y-27575592D01*
X134622966Y-27575461D01*
X134629580Y-27571210D01*
X135190285Y-27010504D01*
X135197042Y-26998129D01*
X135191012Y-26990073D01*
X135130061Y-26951616D01*
X135119813Y-26946395D01*
X134941401Y-26875216D01*
X134930373Y-26871949D01*
X134741982Y-26834476D01*
X134730535Y-26833273D01*
X134538477Y-26830759D01*
X134526997Y-26831662D01*
X134337697Y-26864190D01*
X134326577Y-26867170D01*
X134146365Y-26933653D01*
X134135991Y-26938601D01*
X134052385Y-26988342D01*
X134042788Y-26998675D01*
X132647229Y-26998675D01*
X133125979Y-26519925D01*
X133188291Y-26485899D01*
X133215074Y-26483020D01*
X147967895Y-26483020D01*
X148036016Y-26503022D01*
X148082509Y-26556678D01*
X148092613Y-26626952D01*
X148063119Y-26691532D01*
X148056990Y-26698115D01*
X147485510Y-27269595D01*
X147423198Y-27303621D01*
X147396415Y-27306500D01*
X143457870Y-27306500D01*
X143389749Y-27286498D01*
X143343256Y-27232842D01*
X143339888Y-27224730D01*
X143293767Y-27101703D01*
X143290615Y-27093295D01*
X143203261Y-26976739D01*
X143086705Y-26889385D01*
X142950316Y-26838255D01*
X142888134Y-26831500D01*
X141591866Y-26831500D01*
X141529684Y-26838255D01*
X141393295Y-26889385D01*
X141276739Y-26976739D01*
X141189385Y-27093295D01*
X141138255Y-27229684D01*
X141131500Y-27291866D01*
X141131500Y-28588134D01*
X141138255Y-28650316D01*
X141189385Y-28786705D01*
X141276739Y-28903261D01*
X141393295Y-28990615D01*
X141529684Y-29041745D01*
X141591866Y-29048500D01*
X142888134Y-29048500D01*
X142950316Y-29041745D01*
X143086705Y-28990615D01*
X143203261Y-28903261D01*
X143290615Y-28786705D01*
X143339888Y-28655270D01*
X143382530Y-28598506D01*
X143449091Y-28573806D01*
X143457870Y-28573500D01*
X146756405Y-28573500D01*
X146824526Y-28593502D01*
X146871019Y-28647158D01*
X146881123Y-28717432D01*
X146851629Y-28782012D01*
X146845500Y-28788595D01*
X145824500Y-29809595D01*
X145762188Y-29843621D01*
X145735405Y-29846500D01*
X143213663Y-29846500D01*
X143145542Y-29826498D01*
X143112705Y-29795889D01*
X143070758Y-29739715D01*
X143070757Y-29739714D01*
X143067305Y-29735091D01*
X142977646Y-29652211D01*
X142921943Y-29600719D01*
X142921940Y-29600717D01*
X142917703Y-29596800D01*
X142854099Y-29556669D01*
X142750288Y-29491169D01*
X142750283Y-29491167D01*
X142745404Y-29488088D01*
X142556180Y-29412595D01*
X142356366Y-29372849D01*
X142350592Y-29372773D01*
X142350588Y-29372773D01*
X142247452Y-29371424D01*
X142152655Y-29370183D01*
X142146958Y-29371162D01*
X142146957Y-29371162D01*
X141959936Y-29403298D01*
X141951870Y-29404684D01*
X141760734Y-29475198D01*
X141755773Y-29478150D01*
X141755772Y-29478150D01*
X141609040Y-29565447D01*
X141585649Y-29579363D01*
X141432478Y-29713690D01*
X141428911Y-29718215D01*
X141428906Y-29718220D01*
X141367677Y-29795889D01*
X141306351Y-29873681D01*
X141211492Y-30053978D01*
X141151078Y-30248543D01*
X141127132Y-30450859D01*
X141140457Y-30654151D01*
X141190605Y-30851610D01*
X141275898Y-31036624D01*
X141393479Y-31202997D01*
X141539410Y-31345157D01*
X141544206Y-31348362D01*
X141544209Y-31348364D01*
X141574523Y-31368619D01*
X141708803Y-31458342D01*
X141714106Y-31460620D01*
X141714109Y-31460622D01*
X141803115Y-31498862D01*
X141895987Y-31538763D01*
X141968817Y-31555243D01*
X142089055Y-31582450D01*
X142089060Y-31582451D01*
X142094692Y-31583725D01*
X142100463Y-31583952D01*
X142100465Y-31583952D01*
X142163470Y-31586427D01*
X142298263Y-31591723D01*
X142499883Y-31562490D01*
X142505347Y-31560635D01*
X142505352Y-31560634D01*
X142687327Y-31498862D01*
X142687332Y-31498860D01*
X142692799Y-31497004D01*
X142870551Y-31397458D01*
X143027186Y-31267186D01*
X143077222Y-31207024D01*
X143117221Y-31158931D01*
X143176159Y-31119347D01*
X143214095Y-31113500D01*
X145971233Y-31113500D01*
X145982416Y-31114027D01*
X145989909Y-31115702D01*
X145997835Y-31115453D01*
X145997836Y-31115453D01*
X146057986Y-31113562D01*
X146061945Y-31113500D01*
X146089856Y-31113500D01*
X146093791Y-31113003D01*
X146093856Y-31112995D01*
X146105693Y-31112062D01*
X146137951Y-31111048D01*
X146141970Y-31110922D01*
X146149889Y-31110673D01*
X146169343Y-31105021D01*
X146188700Y-31101013D01*
X146200930Y-31099468D01*
X146200931Y-31099468D01*
X146208797Y-31098474D01*
X146216168Y-31095555D01*
X146216170Y-31095555D01*
X146249912Y-31082196D01*
X146261142Y-31078351D01*
X146295983Y-31068229D01*
X146295984Y-31068229D01*
X146303593Y-31066018D01*
X146310412Y-31061985D01*
X146310417Y-31061983D01*
X146321028Y-31055707D01*
X146338776Y-31047012D01*
X146357617Y-31039552D01*
X146368867Y-31031379D01*
X146393387Y-31013564D01*
X146403307Y-31007048D01*
X146434535Y-30988580D01*
X146434538Y-30988578D01*
X146441362Y-30984542D01*
X146455683Y-30970221D01*
X146470717Y-30957380D01*
X146480694Y-30950131D01*
X146487107Y-30945472D01*
X146515298Y-30911395D01*
X146523288Y-30902616D01*
X151944550Y-25481355D01*
X152006862Y-25447329D01*
X152058762Y-25446979D01*
X152238597Y-25483567D01*
X152243772Y-25483757D01*
X152243774Y-25483757D01*
X152456673Y-25491564D01*
X152456677Y-25491564D01*
X152461837Y-25491753D01*
X152466957Y-25491097D01*
X152466959Y-25491097D01*
X152678288Y-25464025D01*
X152678289Y-25464025D01*
X152683416Y-25463368D01*
X152688373Y-25461881D01*
X152688377Y-25461880D01*
X152778803Y-25434751D01*
X152849798Y-25434333D01*
X152909749Y-25472365D01*
X152939621Y-25536772D01*
X152941011Y-25555436D01*
X152941011Y-29035744D01*
X152940484Y-29046927D01*
X152938809Y-29054420D01*
X152939058Y-29062346D01*
X152939058Y-29062347D01*
X152940949Y-29122497D01*
X152941011Y-29126456D01*
X152941011Y-29154367D01*
X152941508Y-29158301D01*
X152941508Y-29158302D01*
X152941516Y-29158367D01*
X152942449Y-29170204D01*
X152943838Y-29214400D01*
X152949489Y-29233850D01*
X152953498Y-29253211D01*
X152956037Y-29273308D01*
X152958956Y-29280679D01*
X152958956Y-29280681D01*
X152972315Y-29314423D01*
X152976160Y-29325653D01*
X152988493Y-29368104D01*
X152992526Y-29374923D01*
X152992528Y-29374928D01*
X152998804Y-29385539D01*
X153007499Y-29403287D01*
X153014959Y-29422128D01*
X153019621Y-29428544D01*
X153019621Y-29428545D01*
X153040947Y-29457898D01*
X153047463Y-29467818D01*
X153051828Y-29475198D01*
X153069969Y-29505873D01*
X153084290Y-29520194D01*
X153097130Y-29535227D01*
X153109039Y-29551618D01*
X153128157Y-29567434D01*
X153143116Y-29579809D01*
X153151895Y-29587799D01*
X156343795Y-32779699D01*
X156377821Y-32842011D01*
X156379827Y-32883602D01*
X156367132Y-32990859D01*
X156380457Y-33194151D01*
X156430605Y-33391610D01*
X156515898Y-33576624D01*
X156633479Y-33742997D01*
X156637613Y-33747024D01*
X156758186Y-33864481D01*
X156779410Y-33885157D01*
X156784206Y-33888362D01*
X156784209Y-33888364D01*
X156904099Y-33968472D01*
X156948803Y-33998342D01*
X156954106Y-34000620D01*
X156954109Y-34000622D01*
X157130680Y-34076483D01*
X157135987Y-34078763D01*
X157208817Y-34095243D01*
X157329055Y-34122450D01*
X157329060Y-34122451D01*
X157334692Y-34123725D01*
X157340463Y-34123952D01*
X157340465Y-34123952D01*
X157403470Y-34126427D01*
X157538263Y-34131723D01*
X157626931Y-34118867D01*
X157697217Y-34128887D01*
X157750928Y-34175316D01*
X157771011Y-34243563D01*
X157771011Y-34320895D01*
X157751009Y-34389016D01*
X157734106Y-34409990D01*
X157723128Y-34420968D01*
X157660816Y-34454994D01*
X157609452Y-34455452D01*
X157596366Y-34452849D01*
X157590592Y-34452773D01*
X157590588Y-34452773D01*
X157487452Y-34451424D01*
X157392655Y-34450183D01*
X157386958Y-34451162D01*
X157386957Y-34451162D01*
X157364656Y-34454994D01*
X157191870Y-34484684D01*
X157000734Y-34555198D01*
X156995773Y-34558150D01*
X156995772Y-34558150D01*
X156915993Y-34605614D01*
X156825649Y-34659363D01*
X156672478Y-34793690D01*
X156668911Y-34798215D01*
X156668906Y-34798220D01*
X156617938Y-34862873D01*
X156546351Y-34953681D01*
X156543662Y-34958792D01*
X156543660Y-34958795D01*
X156525635Y-34993055D01*
X156451492Y-35133978D01*
X156391078Y-35328543D01*
X156367132Y-35530859D01*
X156380457Y-35734151D01*
X156430605Y-35931610D01*
X156515898Y-36116624D01*
X156633479Y-36282997D01*
X156779410Y-36425157D01*
X156784206Y-36428362D01*
X156784209Y-36428364D01*
X156836890Y-36463564D01*
X156948803Y-36538342D01*
X156954106Y-36540620D01*
X156954109Y-36540622D01*
X157043115Y-36578862D01*
X157135987Y-36618763D01*
X157188989Y-36630756D01*
X157329055Y-36662450D01*
X157329060Y-36662451D01*
X157334692Y-36663725D01*
X157340463Y-36663952D01*
X157340465Y-36663952D01*
X157402727Y-36666398D01*
X157538263Y-36671723D01*
X157717377Y-36645753D01*
X157787662Y-36655773D01*
X157841373Y-36702202D01*
X157861456Y-36770299D01*
X157841535Y-36838444D01*
X157824551Y-36859544D01*
X157723127Y-36960968D01*
X157660815Y-36994994D01*
X157609447Y-36995451D01*
X157602034Y-36993976D01*
X157602029Y-36993975D01*
X157596366Y-36992849D01*
X157590592Y-36992773D01*
X157590588Y-36992773D01*
X157487452Y-36991424D01*
X157392655Y-36990183D01*
X157386958Y-36991162D01*
X157386957Y-36991162D01*
X157348949Y-36997693D01*
X157191870Y-37024684D01*
X157000734Y-37095198D01*
X156995773Y-37098150D01*
X156995772Y-37098150D01*
X156849040Y-37185447D01*
X156825649Y-37199363D01*
X156672478Y-37333690D01*
X156668911Y-37338215D01*
X156668906Y-37338220D01*
X156603276Y-37421472D01*
X156546351Y-37493681D01*
X156543662Y-37498792D01*
X156543660Y-37498795D01*
X156528946Y-37526762D01*
X156451492Y-37673978D01*
X156391078Y-37868543D01*
X156367132Y-38070859D01*
X156380457Y-38274151D01*
X156430605Y-38471610D01*
X156515898Y-38656624D01*
X156633479Y-38822997D01*
X156779410Y-38965157D01*
X156784206Y-38968362D01*
X156784209Y-38968364D01*
X156909227Y-39051898D01*
X156948803Y-39078342D01*
X156954106Y-39080620D01*
X156954109Y-39080622D01*
X157130680Y-39156483D01*
X157135987Y-39158763D01*
X157208817Y-39175243D01*
X157329055Y-39202450D01*
X157329060Y-39202451D01*
X157334692Y-39203725D01*
X157340463Y-39203952D01*
X157340465Y-39203952D01*
X157403470Y-39206427D01*
X157538263Y-39211723D01*
X157739883Y-39182490D01*
X157745347Y-39180635D01*
X157745352Y-39180634D01*
X157927327Y-39118862D01*
X157927332Y-39118860D01*
X157932799Y-39117004D01*
X157938653Y-39113726D01*
X158049054Y-39051898D01*
X158110551Y-39017458D01*
X158267186Y-38887186D01*
X158397458Y-38730551D01*
X158434118Y-38665090D01*
X158484854Y-38615430D01*
X158554386Y-38601083D01*
X158620636Y-38626604D01*
X158662572Y-38683893D01*
X158670051Y-38726658D01*
X158670051Y-40007470D01*
X158650049Y-40075591D01*
X158596393Y-40122084D01*
X158526119Y-40132188D01*
X158461539Y-40102694D01*
X158434983Y-40068300D01*
X158434343Y-40068692D01*
X158432539Y-40065747D01*
X158424869Y-40059990D01*
X158412449Y-40066762D01*
X157852021Y-40627189D01*
X157844408Y-40641132D01*
X157844539Y-40642966D01*
X157848790Y-40649580D01*
X158410239Y-41211028D01*
X158422614Y-41217785D01*
X158429195Y-41212859D01*
X158434117Y-41204070D01*
X158484854Y-41154409D01*
X158554386Y-41140062D01*
X158620636Y-41165583D01*
X158662572Y-41222872D01*
X158670051Y-41265637D01*
X158670051Y-42546340D01*
X158650049Y-42614461D01*
X158596393Y-42660954D01*
X158526119Y-42671058D01*
X158461539Y-42641564D01*
X158435579Y-42607942D01*
X158434774Y-42608435D01*
X158431755Y-42603509D01*
X158429201Y-42598329D01*
X158410796Y-42573681D01*
X158310758Y-42439715D01*
X158310758Y-42439714D01*
X158307305Y-42435091D01*
X158185718Y-42322697D01*
X158161943Y-42300719D01*
X158161940Y-42300717D01*
X158157703Y-42296800D01*
X158088897Y-42253387D01*
X157990288Y-42191169D01*
X157990283Y-42191167D01*
X157985404Y-42188088D01*
X157817603Y-42121142D01*
X157801549Y-42114737D01*
X157796180Y-42112595D01*
X157596366Y-42072849D01*
X157590592Y-42072773D01*
X157590588Y-42072773D01*
X157487452Y-42071424D01*
X157392655Y-42070183D01*
X157386958Y-42071162D01*
X157386957Y-42071162D01*
X157285526Y-42088591D01*
X157191870Y-42104684D01*
X157000734Y-42175198D01*
X156995773Y-42178150D01*
X156995772Y-42178150D01*
X156852637Y-42263307D01*
X156825649Y-42279363D01*
X156672478Y-42413690D01*
X156668911Y-42418215D01*
X156668906Y-42418220D01*
X156582331Y-42528040D01*
X156546351Y-42573681D01*
X156543662Y-42578792D01*
X156543660Y-42578795D01*
X156510636Y-42641564D01*
X156451492Y-42753978D01*
X156391078Y-42948543D01*
X156367132Y-43150859D01*
X156367510Y-43156625D01*
X156378537Y-43324857D01*
X156363034Y-43394140D01*
X156341902Y-43422193D01*
X156163236Y-43600859D01*
X156154950Y-43608399D01*
X156148471Y-43612511D01*
X156143046Y-43618288D01*
X156101846Y-43662162D01*
X156099091Y-43665004D01*
X156079354Y-43684741D01*
X156076874Y-43687938D01*
X156069171Y-43696958D01*
X156038903Y-43729190D01*
X156035084Y-43736136D01*
X156035082Y-43736139D01*
X156029141Y-43746945D01*
X156018290Y-43763464D01*
X156005875Y-43779470D01*
X156002730Y-43786739D01*
X156002727Y-43786743D01*
X155988315Y-43820048D01*
X155983098Y-43830698D01*
X155961794Y-43869451D01*
X155959823Y-43877126D01*
X155959823Y-43877127D01*
X155956756Y-43889073D01*
X155950352Y-43907777D01*
X155942308Y-43926366D01*
X155941069Y-43934189D01*
X155941066Y-43934199D01*
X155935390Y-43970035D01*
X155932984Y-43981655D01*
X155921989Y-44024481D01*
X155921989Y-44044735D01*
X155920438Y-44064445D01*
X155917269Y-44084454D01*
X155918015Y-44092346D01*
X155921430Y-44128472D01*
X155921989Y-44140330D01*
X155921989Y-46024179D01*
X155921462Y-46035362D01*
X155919787Y-46042855D01*
X155920036Y-46050781D01*
X155920036Y-46050782D01*
X155921927Y-46110932D01*
X155921989Y-46114891D01*
X155921989Y-46142802D01*
X155922486Y-46146736D01*
X155922486Y-46146737D01*
X155922494Y-46146802D01*
X155923427Y-46158639D01*
X155924816Y-46202835D01*
X155930467Y-46222285D01*
X155934476Y-46241646D01*
X155937015Y-46261743D01*
X155939934Y-46269114D01*
X155939934Y-46269116D01*
X155953293Y-46302858D01*
X155957138Y-46314088D01*
X155969471Y-46356539D01*
X155973504Y-46363358D01*
X155973506Y-46363363D01*
X155979782Y-46373974D01*
X155988477Y-46391722D01*
X155995937Y-46410563D01*
X156000599Y-46416979D01*
X156000599Y-46416980D01*
X156021925Y-46446333D01*
X156028441Y-46456253D01*
X156050947Y-46494308D01*
X156065268Y-46508629D01*
X156078108Y-46523662D01*
X156090017Y-46540053D01*
X156096122Y-46545104D01*
X156096127Y-46545109D01*
X156124087Y-46568240D01*
X156132865Y-46576228D01*
X156147562Y-46590925D01*
X156181588Y-46653237D01*
X156176523Y-46724052D01*
X156133976Y-46780888D01*
X156067456Y-46805699D01*
X156058467Y-46806020D01*
X154434115Y-46806020D01*
X154365994Y-46786018D01*
X154345020Y-46769115D01*
X149157199Y-41581294D01*
X156903066Y-41581294D01*
X156912948Y-41593783D01*
X156944239Y-41614691D01*
X156954349Y-41620181D01*
X157130835Y-41696005D01*
X157141778Y-41699560D01*
X157329120Y-41741952D01*
X157340530Y-41743454D01*
X157532469Y-41750995D01*
X157543951Y-41750393D01*
X157734045Y-41722832D01*
X157745240Y-41720144D01*
X157927131Y-41658400D01*
X157937628Y-41653726D01*
X158048032Y-41591898D01*
X158057895Y-41581821D01*
X158054940Y-41574151D01*
X157492811Y-41012021D01*
X157478868Y-41004408D01*
X157477034Y-41004539D01*
X157470420Y-41008790D01*
X156909259Y-41569952D01*
X156903066Y-41581294D01*
X149157199Y-41581294D01*
X148192543Y-40616638D01*
X156368012Y-40616638D01*
X156380575Y-40808304D01*
X156382376Y-40819674D01*
X156429657Y-41005843D01*
X156433498Y-41016690D01*
X156513916Y-41191130D01*
X156519664Y-41201086D01*
X156525788Y-41209751D01*
X156536377Y-41218140D01*
X156549676Y-41211113D01*
X157107979Y-40652811D01*
X157115592Y-40638868D01*
X157115461Y-40637034D01*
X157111210Y-40630420D01*
X156548538Y-40067749D01*
X156536163Y-40060992D01*
X156530197Y-40065458D01*
X156454645Y-40209058D01*
X156450242Y-40219691D01*
X156393281Y-40403132D01*
X156390891Y-40414376D01*
X156368313Y-40605137D01*
X156368012Y-40616638D01*
X148192543Y-40616638D01*
X147274580Y-39698675D01*
X156902788Y-39698675D01*
X156906275Y-39707064D01*
X157467189Y-40267979D01*
X157481132Y-40275592D01*
X157482966Y-40275461D01*
X157489580Y-40271210D01*
X158050285Y-39710504D01*
X158057042Y-39698129D01*
X158051012Y-39690073D01*
X157990061Y-39651616D01*
X157979813Y-39646395D01*
X157801401Y-39575216D01*
X157790373Y-39571949D01*
X157601982Y-39534476D01*
X157590535Y-39533273D01*
X157398477Y-39530759D01*
X157386997Y-39531662D01*
X157197697Y-39564190D01*
X157186577Y-39567170D01*
X157006365Y-39633653D01*
X156995991Y-39638601D01*
X156912385Y-39688342D01*
X156902788Y-39698675D01*
X147274580Y-39698675D01*
X143376436Y-35800531D01*
X143342410Y-35738219D01*
X143340835Y-35693356D01*
X143342868Y-35679339D01*
X143351723Y-35618263D01*
X143353249Y-35560000D01*
X143334608Y-35357126D01*
X143279307Y-35161047D01*
X143268680Y-35139496D01*
X143191756Y-34983510D01*
X143189201Y-34978329D01*
X143180585Y-34966790D01*
X143070758Y-34819715D01*
X143070758Y-34819714D01*
X143067305Y-34815091D01*
X142959589Y-34715519D01*
X142921943Y-34680719D01*
X142921940Y-34680717D01*
X142917703Y-34676800D01*
X142814253Y-34611528D01*
X142750288Y-34571169D01*
X142750283Y-34571167D01*
X142745404Y-34568088D01*
X142556180Y-34492595D01*
X142356366Y-34452849D01*
X142350592Y-34452773D01*
X142350588Y-34452773D01*
X142247452Y-34451424D01*
X142152655Y-34450183D01*
X142146958Y-34451162D01*
X142146957Y-34451162D01*
X142124656Y-34454994D01*
X141951870Y-34484684D01*
X141760734Y-34555198D01*
X141755773Y-34558150D01*
X141755772Y-34558150D01*
X141675993Y-34605614D01*
X141585649Y-34659363D01*
X141432478Y-34793690D01*
X141428911Y-34798215D01*
X141428906Y-34798220D01*
X141377938Y-34862873D01*
X141306351Y-34953681D01*
X141303662Y-34958792D01*
X141303660Y-34958795D01*
X141285635Y-34993055D01*
X141211492Y-35133978D01*
X141151078Y-35328543D01*
X141127132Y-35530859D01*
X141140457Y-35734151D01*
X141190605Y-35931610D01*
X141275898Y-36116624D01*
X141393479Y-36282997D01*
X141539410Y-36425157D01*
X141544206Y-36428362D01*
X141544209Y-36428364D01*
X141596890Y-36463564D01*
X141708803Y-36538342D01*
X141714106Y-36540620D01*
X141714109Y-36540622D01*
X141803115Y-36578862D01*
X141895987Y-36618763D01*
X141948989Y-36630756D01*
X142089055Y-36662450D01*
X142089060Y-36662451D01*
X142094692Y-36663725D01*
X142100463Y-36663952D01*
X142100465Y-36663952D01*
X142162727Y-36666398D01*
X142298263Y-36671723D01*
X142373358Y-36660835D01*
X142443643Y-36670855D01*
X142480532Y-36696436D01*
X142588305Y-36804209D01*
X142622331Y-36866521D01*
X142617266Y-36937336D01*
X142574719Y-36994172D01*
X142508199Y-37018983D01*
X142474629Y-37016883D01*
X142361982Y-36994476D01*
X142350535Y-36993273D01*
X142158477Y-36990759D01*
X142146997Y-36991662D01*
X141957697Y-37024190D01*
X141946577Y-37027170D01*
X141766365Y-37093653D01*
X141755991Y-37098601D01*
X141672385Y-37148342D01*
X141662788Y-37158675D01*
X141666275Y-37167064D01*
X142240000Y-37740790D01*
X143170236Y-38671025D01*
X143182615Y-38677784D01*
X143189195Y-38672858D01*
X143253726Y-38557628D01*
X143258400Y-38547131D01*
X143320144Y-38365240D01*
X143322832Y-38354045D01*
X143350689Y-38161911D01*
X143351319Y-38154528D01*
X143352650Y-38103704D01*
X143352407Y-38096305D01*
X143334643Y-37902975D01*
X143332546Y-37891661D01*
X143328795Y-37878361D01*
X143329555Y-37807368D01*
X143368575Y-37748056D01*
X143433468Y-37719256D01*
X143503630Y-37730111D01*
X143539159Y-37755063D01*
X153615863Y-47831767D01*
X153623407Y-47840057D01*
X153627520Y-47846538D01*
X153633297Y-47851963D01*
X153677187Y-47893178D01*
X153680029Y-47895933D01*
X153699750Y-47915654D01*
X153702945Y-47918132D01*
X153711967Y-47925838D01*
X153744199Y-47956106D01*
X153751148Y-47959926D01*
X153761952Y-47965866D01*
X153778476Y-47976719D01*
X153794479Y-47989133D01*
X153835063Y-48006696D01*
X153845693Y-48011903D01*
X153884460Y-48033215D01*
X153892137Y-48035186D01*
X153892142Y-48035188D01*
X153904078Y-48038252D01*
X153922786Y-48044657D01*
X153941375Y-48052701D01*
X153949203Y-48053941D01*
X153949210Y-48053943D01*
X153985044Y-48059619D01*
X153996664Y-48062025D01*
X154028479Y-48070193D01*
X154039490Y-48073020D01*
X154059744Y-48073020D01*
X154079454Y-48074571D01*
X154099463Y-48077740D01*
X154107355Y-48076994D01*
X154126100Y-48075222D01*
X154143482Y-48073579D01*
X154155339Y-48073020D01*
X157624887Y-48073020D01*
X157636070Y-48073547D01*
X157643563Y-48075222D01*
X157651489Y-48074973D01*
X157651490Y-48074973D01*
X157711640Y-48073082D01*
X157715599Y-48073020D01*
X157743510Y-48073020D01*
X157747445Y-48072523D01*
X157747510Y-48072515D01*
X157759347Y-48071582D01*
X157791605Y-48070568D01*
X157795624Y-48070442D01*
X157803543Y-48070193D01*
X157822997Y-48064541D01*
X157842354Y-48060533D01*
X157854584Y-48058988D01*
X157854585Y-48058988D01*
X157862451Y-48057994D01*
X157869822Y-48055075D01*
X157869824Y-48055075D01*
X157903566Y-48041716D01*
X157914796Y-48037871D01*
X157949637Y-48027749D01*
X157949638Y-48027749D01*
X157957247Y-48025538D01*
X157964066Y-48021505D01*
X157964071Y-48021503D01*
X157974682Y-48015227D01*
X157992430Y-48006532D01*
X158011271Y-47999072D01*
X158031641Y-47984273D01*
X158047041Y-47973084D01*
X158056961Y-47966568D01*
X158088189Y-47948100D01*
X158088192Y-47948098D01*
X158095016Y-47944062D01*
X158109337Y-47929741D01*
X158124371Y-47916900D01*
X158126086Y-47915654D01*
X158140761Y-47904992D01*
X158168952Y-47870915D01*
X158176942Y-47862136D01*
X158916375Y-47122703D01*
X185850743Y-47122703D01*
X185888268Y-47407734D01*
X185964129Y-47685036D01*
X185965813Y-47688984D01*
X186074614Y-47944062D01*
X186076923Y-47949476D01*
X186224561Y-48196161D01*
X186404313Y-48420528D01*
X186612851Y-48618423D01*
X186846317Y-48786186D01*
X186850112Y-48788195D01*
X186850113Y-48788196D01*
X186871869Y-48799715D01*
X187100392Y-48920712D01*
X187370373Y-49019511D01*
X187651264Y-49080755D01*
X187679841Y-49083004D01*
X187874282Y-49098307D01*
X187874291Y-49098307D01*
X187876739Y-49098500D01*
X188032271Y-49098500D01*
X188034407Y-49098354D01*
X188034418Y-49098354D01*
X188242548Y-49084165D01*
X188242554Y-49084164D01*
X188246825Y-49083873D01*
X188251020Y-49083004D01*
X188251022Y-49083004D01*
X188387584Y-49054723D01*
X188528342Y-49025574D01*
X188799343Y-48929607D01*
X189054812Y-48797750D01*
X189058313Y-48795289D01*
X189058317Y-48795287D01*
X189172418Y-48715095D01*
X189290023Y-48632441D01*
X189500622Y-48436740D01*
X189682713Y-48214268D01*
X189832927Y-47969142D01*
X189865064Y-47895933D01*
X189946757Y-47709830D01*
X189948483Y-47705898D01*
X190027244Y-47429406D01*
X190067751Y-47144784D01*
X190067845Y-47126951D01*
X190069235Y-46861583D01*
X190069235Y-46861576D01*
X190069257Y-46857297D01*
X190064670Y-46822450D01*
X190040687Y-46640284D01*
X190031732Y-46572266D01*
X189955871Y-46294964D01*
X189924871Y-46222285D01*
X189844763Y-46034476D01*
X189844761Y-46034472D01*
X189843077Y-46030524D01*
X189695439Y-45783839D01*
X189515687Y-45559472D01*
X189307149Y-45361577D01*
X189073683Y-45193814D01*
X189051843Y-45182250D01*
X188960151Y-45133702D01*
X188819608Y-45059288D01*
X188549627Y-44960489D01*
X188268736Y-44899245D01*
X188237685Y-44896801D01*
X188045718Y-44881693D01*
X188045709Y-44881693D01*
X188043261Y-44881500D01*
X187887729Y-44881500D01*
X187885593Y-44881646D01*
X187885582Y-44881646D01*
X187677452Y-44895835D01*
X187677446Y-44895836D01*
X187673175Y-44896127D01*
X187668980Y-44896996D01*
X187668978Y-44896996D01*
X187612394Y-44908714D01*
X187391658Y-44954426D01*
X187120657Y-45050393D01*
X186865188Y-45182250D01*
X186861687Y-45184711D01*
X186861683Y-45184713D01*
X186851594Y-45191804D01*
X186629977Y-45347559D01*
X186614892Y-45361577D01*
X186453485Y-45511566D01*
X186419378Y-45543260D01*
X186237287Y-45765732D01*
X186087073Y-46010858D01*
X186085347Y-46014791D01*
X186085346Y-46014792D01*
X186043144Y-46110932D01*
X185971517Y-46274102D01*
X185892756Y-46550594D01*
X185878148Y-46653237D01*
X185856907Y-46802490D01*
X185852249Y-46835216D01*
X185852227Y-46839505D01*
X185852226Y-46839512D01*
X185850765Y-47118417D01*
X185850743Y-47122703D01*
X158916375Y-47122703D01*
X160861767Y-45177311D01*
X160870057Y-45169767D01*
X160876538Y-45165654D01*
X160923179Y-45115986D01*
X160925933Y-45113145D01*
X160945654Y-45093424D01*
X160948132Y-45090229D01*
X160955838Y-45081207D01*
X160976421Y-45059288D01*
X160986106Y-45048975D01*
X160995866Y-45031222D01*
X161006719Y-45014699D01*
X161014273Y-45004960D01*
X161019133Y-44998695D01*
X161036696Y-44958111D01*
X161041903Y-44947481D01*
X161063215Y-44908714D01*
X161065186Y-44901037D01*
X161065188Y-44901032D01*
X161068252Y-44889096D01*
X161074658Y-44870384D01*
X161079553Y-44859073D01*
X161082701Y-44851799D01*
X161083941Y-44843971D01*
X161083943Y-44843964D01*
X161089619Y-44808130D01*
X161092025Y-44796510D01*
X161101048Y-44761365D01*
X161101048Y-44761364D01*
X161103020Y-44753684D01*
X161103020Y-44733430D01*
X161104571Y-44713719D01*
X161106500Y-44701540D01*
X161107740Y-44693711D01*
X161103579Y-44649692D01*
X161103020Y-44637835D01*
X161103020Y-40610859D01*
X163987132Y-40610859D01*
X164000457Y-40814151D01*
X164050605Y-41011610D01*
X164135898Y-41196624D01*
X164253479Y-41362997D01*
X164399410Y-41505157D01*
X164404206Y-41508362D01*
X164404209Y-41508364D01*
X164529227Y-41591898D01*
X164568803Y-41618342D01*
X164574106Y-41620620D01*
X164574109Y-41620622D01*
X164750680Y-41696483D01*
X164755987Y-41698763D01*
X164828817Y-41715243D01*
X164949055Y-41742450D01*
X164949060Y-41742451D01*
X164954692Y-41743725D01*
X164960463Y-41743952D01*
X164960465Y-41743952D01*
X165023470Y-41746427D01*
X165158263Y-41751723D01*
X165359883Y-41722490D01*
X165365347Y-41720635D01*
X165365352Y-41720634D01*
X165547327Y-41658862D01*
X165547332Y-41658860D01*
X165552799Y-41657004D01*
X165558653Y-41653726D01*
X165628354Y-41614691D01*
X165730551Y-41557458D01*
X165887186Y-41427186D01*
X166017458Y-41270551D01*
X166117004Y-41092799D01*
X166118860Y-41087332D01*
X166118862Y-41087327D01*
X166180634Y-40905352D01*
X166180635Y-40905347D01*
X166182490Y-40899883D01*
X166211723Y-40698263D01*
X166213249Y-40640000D01*
X166201860Y-40516049D01*
X166195137Y-40442880D01*
X166195136Y-40442877D01*
X166194608Y-40437126D01*
X166139307Y-40241047D01*
X166128776Y-40219691D01*
X166051756Y-40063510D01*
X166049201Y-40058329D01*
X166030796Y-40033681D01*
X165930758Y-39899715D01*
X165930758Y-39899714D01*
X165927305Y-39895091D01*
X165777703Y-39756800D01*
X165671947Y-39690073D01*
X165610288Y-39651169D01*
X165610283Y-39651167D01*
X165605404Y-39648088D01*
X165416180Y-39572595D01*
X165241663Y-39537881D01*
X165222032Y-39533976D01*
X165222031Y-39533976D01*
X165216366Y-39532849D01*
X165210592Y-39532773D01*
X165210588Y-39532773D01*
X165107452Y-39531424D01*
X165012655Y-39530183D01*
X165006958Y-39531162D01*
X165006957Y-39531162D01*
X164987671Y-39534476D01*
X164811870Y-39564684D01*
X164620734Y-39635198D01*
X164615773Y-39638150D01*
X164615772Y-39638150D01*
X164499939Y-39707064D01*
X164445649Y-39739363D01*
X164292478Y-39873690D01*
X164288911Y-39878215D01*
X164288906Y-39878220D01*
X164202331Y-39988040D01*
X164166351Y-40033681D01*
X164163662Y-40038792D01*
X164163660Y-40038795D01*
X164149480Y-40065747D01*
X164071492Y-40213978D01*
X164011078Y-40408543D01*
X163987132Y-40610859D01*
X161103020Y-40610859D01*
X161103020Y-39041294D01*
X164523066Y-39041294D01*
X164532948Y-39053783D01*
X164564239Y-39074691D01*
X164574349Y-39080181D01*
X164750835Y-39156005D01*
X164761778Y-39159560D01*
X164949120Y-39201952D01*
X164960530Y-39203454D01*
X165152469Y-39210995D01*
X165163951Y-39210393D01*
X165354045Y-39182832D01*
X165365240Y-39180144D01*
X165547131Y-39118400D01*
X165557628Y-39113726D01*
X165668032Y-39051898D01*
X165677895Y-39041821D01*
X165674940Y-39034151D01*
X165112811Y-38472021D01*
X165098868Y-38464408D01*
X165097034Y-38464539D01*
X165090420Y-38468790D01*
X164529259Y-39029952D01*
X164523066Y-39041294D01*
X161103020Y-39041294D01*
X161103020Y-38076638D01*
X163988012Y-38076638D01*
X164000575Y-38268304D01*
X164002376Y-38279674D01*
X164049657Y-38465843D01*
X164053498Y-38476690D01*
X164133916Y-38651130D01*
X164139664Y-38661086D01*
X164145788Y-38669751D01*
X164156377Y-38678140D01*
X164169676Y-38671113D01*
X164727979Y-38112811D01*
X164734356Y-38101132D01*
X165464408Y-38101132D01*
X165464539Y-38102966D01*
X165468790Y-38109580D01*
X166030239Y-38671028D01*
X166042614Y-38677785D01*
X166049194Y-38672859D01*
X166113726Y-38557628D01*
X166118400Y-38547131D01*
X166180144Y-38365240D01*
X166182832Y-38354045D01*
X166210689Y-38161911D01*
X166211319Y-38154528D01*
X166212650Y-38103704D01*
X166212407Y-38096305D01*
X166194643Y-37902975D01*
X166192545Y-37891654D01*
X166140408Y-37706791D01*
X166136283Y-37696044D01*
X166052163Y-37525465D01*
X166044869Y-37519990D01*
X166032449Y-37526762D01*
X165472021Y-38087189D01*
X165464408Y-38101132D01*
X164734356Y-38101132D01*
X164735592Y-38098868D01*
X164735461Y-38097034D01*
X164731210Y-38090420D01*
X164168538Y-37527749D01*
X164156163Y-37520992D01*
X164150197Y-37525458D01*
X164074645Y-37669058D01*
X164070242Y-37679691D01*
X164013281Y-37863132D01*
X164010891Y-37874376D01*
X163988313Y-38065137D01*
X163988012Y-38076638D01*
X161103020Y-38076638D01*
X161103020Y-37158675D01*
X164522788Y-37158675D01*
X164526275Y-37167064D01*
X165087189Y-37727979D01*
X165101132Y-37735592D01*
X165102966Y-37735461D01*
X165109580Y-37731210D01*
X165670285Y-37170504D01*
X165677042Y-37158129D01*
X165671012Y-37150073D01*
X165610061Y-37111616D01*
X165599813Y-37106395D01*
X165421401Y-37035216D01*
X165410373Y-37031949D01*
X165221982Y-36994476D01*
X165210535Y-36993273D01*
X165018477Y-36990759D01*
X165006997Y-36991662D01*
X164817697Y-37024190D01*
X164806577Y-37027170D01*
X164626365Y-37093653D01*
X164615991Y-37098601D01*
X164532385Y-37148342D01*
X164522788Y-37158675D01*
X161103020Y-37158675D01*
X161103020Y-35530859D01*
X163987132Y-35530859D01*
X164000457Y-35734151D01*
X164050605Y-35931610D01*
X164135898Y-36116624D01*
X164253479Y-36282997D01*
X164399410Y-36425157D01*
X164404206Y-36428362D01*
X164404209Y-36428364D01*
X164456890Y-36463564D01*
X164568803Y-36538342D01*
X164574106Y-36540620D01*
X164574109Y-36540622D01*
X164663115Y-36578862D01*
X164755987Y-36618763D01*
X164808989Y-36630756D01*
X164949055Y-36662450D01*
X164949060Y-36662451D01*
X164954692Y-36663725D01*
X164960463Y-36663952D01*
X164960465Y-36663952D01*
X165022727Y-36666398D01*
X165158263Y-36671723D01*
X165359883Y-36642490D01*
X165365347Y-36640635D01*
X165365352Y-36640634D01*
X165547327Y-36578862D01*
X165547332Y-36578860D01*
X165552799Y-36577004D01*
X165730551Y-36477458D01*
X165887186Y-36347186D01*
X166017458Y-36190551D01*
X166085765Y-36068580D01*
X166114180Y-36017842D01*
X166114181Y-36017840D01*
X166117004Y-36012799D01*
X166118860Y-36007332D01*
X166118862Y-36007327D01*
X166180634Y-35825352D01*
X166180635Y-35825347D01*
X166182490Y-35819883D01*
X166211723Y-35618263D01*
X166213249Y-35560000D01*
X166194608Y-35357126D01*
X166139307Y-35161047D01*
X166128680Y-35139496D01*
X166051756Y-34983510D01*
X166049201Y-34978329D01*
X166040585Y-34966790D01*
X165930758Y-34819715D01*
X165930758Y-34819714D01*
X165927305Y-34815091D01*
X165819589Y-34715519D01*
X165781943Y-34680719D01*
X165781940Y-34680717D01*
X165777703Y-34676800D01*
X165674253Y-34611528D01*
X165610288Y-34571169D01*
X165610283Y-34571167D01*
X165605404Y-34568088D01*
X165416180Y-34492595D01*
X165216366Y-34452849D01*
X165210592Y-34452773D01*
X165210588Y-34452773D01*
X165107452Y-34451424D01*
X165012655Y-34450183D01*
X165006958Y-34451162D01*
X165006957Y-34451162D01*
X164984656Y-34454994D01*
X164811870Y-34484684D01*
X164620734Y-34555198D01*
X164615773Y-34558150D01*
X164615772Y-34558150D01*
X164535993Y-34605614D01*
X164445649Y-34659363D01*
X164292478Y-34793690D01*
X164288911Y-34798215D01*
X164288906Y-34798220D01*
X164237938Y-34862873D01*
X164166351Y-34953681D01*
X164163662Y-34958792D01*
X164163660Y-34958795D01*
X164145635Y-34993055D01*
X164071492Y-35133978D01*
X164011078Y-35328543D01*
X163987132Y-35530859D01*
X161103020Y-35530859D01*
X161103020Y-33961294D01*
X164523066Y-33961294D01*
X164532948Y-33973783D01*
X164564239Y-33994691D01*
X164574349Y-34000181D01*
X164750835Y-34076005D01*
X164761778Y-34079560D01*
X164949120Y-34121952D01*
X164960530Y-34123454D01*
X165152469Y-34130995D01*
X165163951Y-34130393D01*
X165354045Y-34102832D01*
X165365240Y-34100144D01*
X165547131Y-34038400D01*
X165557628Y-34033726D01*
X165668032Y-33971898D01*
X165677895Y-33961821D01*
X165674940Y-33954151D01*
X165112811Y-33392021D01*
X165098868Y-33384408D01*
X165097034Y-33384539D01*
X165090420Y-33388790D01*
X164529259Y-33949952D01*
X164523066Y-33961294D01*
X161103020Y-33961294D01*
X161103020Y-32996638D01*
X163988012Y-32996638D01*
X164000575Y-33188304D01*
X164002376Y-33199674D01*
X164049657Y-33385843D01*
X164053498Y-33396690D01*
X164133916Y-33571130D01*
X164139664Y-33581086D01*
X164145788Y-33589751D01*
X164156377Y-33598140D01*
X164169676Y-33591113D01*
X164727979Y-33032811D01*
X164734356Y-33021132D01*
X165464408Y-33021132D01*
X165464539Y-33022966D01*
X165468790Y-33029580D01*
X166030239Y-33591028D01*
X166042614Y-33597785D01*
X166049194Y-33592859D01*
X166113726Y-33477628D01*
X166118400Y-33467131D01*
X166180144Y-33285240D01*
X166182832Y-33274045D01*
X166210689Y-33081911D01*
X166211319Y-33074528D01*
X166212650Y-33023704D01*
X166212407Y-33016305D01*
X166194643Y-32822975D01*
X166192545Y-32811654D01*
X166140408Y-32626791D01*
X166136283Y-32616044D01*
X166052163Y-32445465D01*
X166044869Y-32439990D01*
X166032449Y-32446762D01*
X165472021Y-33007189D01*
X165464408Y-33021132D01*
X164734356Y-33021132D01*
X164735592Y-33018868D01*
X164735461Y-33017034D01*
X164731210Y-33010420D01*
X164168538Y-32447749D01*
X164156163Y-32440992D01*
X164150197Y-32445458D01*
X164074645Y-32589058D01*
X164070242Y-32599691D01*
X164013281Y-32783132D01*
X164010891Y-32794376D01*
X163988313Y-32985137D01*
X163988012Y-32996638D01*
X161103020Y-32996638D01*
X161103020Y-32078675D01*
X164522788Y-32078675D01*
X164526275Y-32087064D01*
X165087189Y-32647979D01*
X165101132Y-32655592D01*
X165102966Y-32655461D01*
X165109580Y-32651210D01*
X165670285Y-32090504D01*
X165677042Y-32078129D01*
X165671012Y-32070073D01*
X165610061Y-32031616D01*
X165599813Y-32026395D01*
X165421401Y-31955216D01*
X165410373Y-31951949D01*
X165221982Y-31914476D01*
X165210535Y-31913273D01*
X165018477Y-31910759D01*
X165006997Y-31911662D01*
X164817697Y-31944190D01*
X164806577Y-31947170D01*
X164626365Y-32013653D01*
X164615991Y-32018601D01*
X164532385Y-32068342D01*
X164522788Y-32078675D01*
X161103020Y-32078675D01*
X161103020Y-30450859D01*
X163987132Y-30450859D01*
X164000457Y-30654151D01*
X164050605Y-30851610D01*
X164135898Y-31036624D01*
X164253479Y-31202997D01*
X164399410Y-31345157D01*
X164404206Y-31348362D01*
X164404209Y-31348364D01*
X164434523Y-31368619D01*
X164568803Y-31458342D01*
X164574106Y-31460620D01*
X164574109Y-31460622D01*
X164663115Y-31498862D01*
X164755987Y-31538763D01*
X164828817Y-31555243D01*
X164949055Y-31582450D01*
X164949060Y-31582451D01*
X164954692Y-31583725D01*
X164960463Y-31583952D01*
X164960465Y-31583952D01*
X165023470Y-31586427D01*
X165158263Y-31591723D01*
X165359883Y-31562490D01*
X165365347Y-31560635D01*
X165365352Y-31560634D01*
X165547327Y-31498862D01*
X165547332Y-31498860D01*
X165552799Y-31497004D01*
X165730551Y-31397458D01*
X165887186Y-31267186D01*
X166017458Y-31110551D01*
X166085765Y-30988580D01*
X166114180Y-30937842D01*
X166114181Y-30937840D01*
X166117004Y-30932799D01*
X166118860Y-30927332D01*
X166118862Y-30927327D01*
X166180634Y-30745352D01*
X166180635Y-30745347D01*
X166182490Y-30739883D01*
X166211723Y-30538263D01*
X166213249Y-30480000D01*
X166194608Y-30277126D01*
X166139307Y-30081047D01*
X166128680Y-30059496D01*
X166051756Y-29903510D01*
X166049201Y-29898329D01*
X166030796Y-29873681D01*
X165930758Y-29739715D01*
X165930758Y-29739714D01*
X165927305Y-29735091D01*
X165837646Y-29652211D01*
X165781943Y-29600719D01*
X165781940Y-29600717D01*
X165777703Y-29596800D01*
X165714099Y-29556669D01*
X165610288Y-29491169D01*
X165610283Y-29491167D01*
X165605404Y-29488088D01*
X165416180Y-29412595D01*
X165216366Y-29372849D01*
X165210592Y-29372773D01*
X165210588Y-29372773D01*
X165107452Y-29371424D01*
X165012655Y-29370183D01*
X165006958Y-29371162D01*
X165006957Y-29371162D01*
X164819936Y-29403298D01*
X164811870Y-29404684D01*
X164620734Y-29475198D01*
X164615773Y-29478150D01*
X164615772Y-29478150D01*
X164469040Y-29565447D01*
X164445649Y-29579363D01*
X164292478Y-29713690D01*
X164288911Y-29718215D01*
X164288906Y-29718220D01*
X164227677Y-29795889D01*
X164166351Y-29873681D01*
X164071492Y-30053978D01*
X164011078Y-30248543D01*
X163987132Y-30450859D01*
X161103020Y-30450859D01*
X161103020Y-29075074D01*
X161123022Y-29006953D01*
X161139925Y-28985979D01*
X161537770Y-28588134D01*
X163991500Y-28588134D01*
X163998255Y-28650316D01*
X164049385Y-28786705D01*
X164136739Y-28903261D01*
X164253295Y-28990615D01*
X164389684Y-29041745D01*
X164451866Y-29048500D01*
X165748134Y-29048500D01*
X165810316Y-29041745D01*
X165946705Y-28990615D01*
X166063261Y-28903261D01*
X166150615Y-28786705D01*
X166201745Y-28650316D01*
X166208500Y-28588134D01*
X166208500Y-27291866D01*
X166201745Y-27229684D01*
X166150615Y-27093295D01*
X166063261Y-26976739D01*
X165946705Y-26889385D01*
X165810316Y-26838255D01*
X165748134Y-26831500D01*
X164451866Y-26831500D01*
X164389684Y-26838255D01*
X164253295Y-26889385D01*
X164136739Y-26976739D01*
X164049385Y-27093295D01*
X163998255Y-27229684D01*
X163991500Y-27291866D01*
X163991500Y-28588134D01*
X161537770Y-28588134D01*
X164644549Y-25481355D01*
X164706861Y-25447329D01*
X164758762Y-25446979D01*
X164938597Y-25483567D01*
X164943772Y-25483757D01*
X164943774Y-25483757D01*
X165156673Y-25491564D01*
X165156677Y-25491564D01*
X165161837Y-25491753D01*
X165166957Y-25491097D01*
X165166959Y-25491097D01*
X165378288Y-25464025D01*
X165378289Y-25464025D01*
X165383416Y-25463368D01*
X165422434Y-25451662D01*
X165592429Y-25400661D01*
X165592434Y-25400659D01*
X165597384Y-25399174D01*
X165797994Y-25300896D01*
X165979860Y-25171173D01*
X166138096Y-25013489D01*
X166268453Y-24832077D01*
X166269776Y-24833028D01*
X166316645Y-24789857D01*
X166386580Y-24777625D01*
X166452026Y-24805144D01*
X166479875Y-24836994D01*
X166539987Y-24935088D01*
X166686250Y-25103938D01*
X166858126Y-25246632D01*
X167051000Y-25359338D01*
X167259692Y-25439030D01*
X167264760Y-25440061D01*
X167264763Y-25440062D01*
X167343436Y-25456068D01*
X167478597Y-25483567D01*
X167483772Y-25483757D01*
X167483774Y-25483757D01*
X167696673Y-25491564D01*
X167696677Y-25491564D01*
X167701837Y-25491753D01*
X167706957Y-25491097D01*
X167706959Y-25491097D01*
X167918288Y-25464025D01*
X167918289Y-25464025D01*
X167923416Y-25463368D01*
X167928367Y-25461883D01*
X167928370Y-25461882D01*
X167969829Y-25449444D01*
X168040825Y-25449028D01*
X168095131Y-25481035D01*
X175859595Y-33245499D01*
X175893621Y-33307811D01*
X175896500Y-33334594D01*
X175896500Y-41831233D01*
X175895973Y-41842416D01*
X175894298Y-41849909D01*
X175894547Y-41857835D01*
X175894547Y-41857836D01*
X175896438Y-41917986D01*
X175896500Y-41921945D01*
X175896500Y-41949856D01*
X175896997Y-41953790D01*
X175896997Y-41953791D01*
X175897005Y-41953856D01*
X175897938Y-41965693D01*
X175899327Y-42009889D01*
X175904978Y-42029339D01*
X175908987Y-42048700D01*
X175911526Y-42068797D01*
X175914445Y-42076168D01*
X175914445Y-42076170D01*
X175927804Y-42109912D01*
X175931649Y-42121142D01*
X175943982Y-42163593D01*
X175948015Y-42170412D01*
X175948017Y-42170417D01*
X175954293Y-42181028D01*
X175962988Y-42198776D01*
X175970448Y-42217617D01*
X175975110Y-42224033D01*
X175975110Y-42224034D01*
X175996436Y-42253387D01*
X176002952Y-42263307D01*
X176012448Y-42279363D01*
X176025458Y-42301362D01*
X176039779Y-42315683D01*
X176052619Y-42330716D01*
X176064528Y-42347107D01*
X176070634Y-42352158D01*
X176098605Y-42375298D01*
X176107384Y-42383288D01*
X179203795Y-45479699D01*
X179237821Y-45542011D01*
X179239827Y-45583602D01*
X179227132Y-45690859D01*
X179240457Y-45894151D01*
X179290605Y-46091610D01*
X179375898Y-46276624D01*
X179493479Y-46442997D01*
X179497613Y-46447024D01*
X179625928Y-46572023D01*
X179639410Y-46585157D01*
X179644206Y-46588362D01*
X179644209Y-46588364D01*
X179648042Y-46590925D01*
X179808803Y-46698342D01*
X179814106Y-46700620D01*
X179814109Y-46700622D01*
X179903115Y-46738862D01*
X179995987Y-46778763D01*
X180068817Y-46795243D01*
X180189055Y-46822450D01*
X180189060Y-46822451D01*
X180194692Y-46823725D01*
X180200463Y-46823952D01*
X180200465Y-46823952D01*
X180263470Y-46826427D01*
X180398263Y-46831723D01*
X180599883Y-46802490D01*
X180605347Y-46800635D01*
X180605352Y-46800634D01*
X180787327Y-46738862D01*
X180787332Y-46738860D01*
X180792799Y-46737004D01*
X180815927Y-46724052D01*
X180867567Y-46695132D01*
X180970551Y-46637458D01*
X181127186Y-46507186D01*
X181257458Y-46350551D01*
X181323958Y-46231807D01*
X181354180Y-46177842D01*
X181354181Y-46177840D01*
X181357004Y-46172799D01*
X181358860Y-46167332D01*
X181358862Y-46167327D01*
X181420634Y-45985352D01*
X181420635Y-45985347D01*
X181422490Y-45979883D01*
X181451723Y-45778263D01*
X181453249Y-45720000D01*
X181437314Y-45546579D01*
X181435137Y-45522880D01*
X181435136Y-45522877D01*
X181434608Y-45517126D01*
X181379307Y-45321047D01*
X181368680Y-45299496D01*
X181291756Y-45143510D01*
X181289201Y-45138329D01*
X181272518Y-45115987D01*
X181170758Y-44979715D01*
X181170758Y-44979714D01*
X181167305Y-44975091D01*
X181066059Y-44881500D01*
X181021943Y-44840719D01*
X181021940Y-44840717D01*
X181017703Y-44836800D01*
X180953847Y-44796510D01*
X180850288Y-44731169D01*
X180850283Y-44731167D01*
X180845404Y-44728088D01*
X180656180Y-44652595D01*
X180456366Y-44612849D01*
X180450592Y-44612773D01*
X180450588Y-44612773D01*
X180347452Y-44611424D01*
X180252655Y-44610183D01*
X180208944Y-44617694D01*
X180138423Y-44609518D01*
X180098513Y-44582609D01*
X179992265Y-44476361D01*
X179958239Y-44414049D01*
X179963304Y-44343234D01*
X180005851Y-44286398D01*
X180072371Y-44261587D01*
X180109168Y-44264373D01*
X180189055Y-44282450D01*
X180189060Y-44282451D01*
X180194692Y-44283725D01*
X180200463Y-44283952D01*
X180200465Y-44283952D01*
X180262727Y-44286398D01*
X180398263Y-44291723D01*
X180599883Y-44262490D01*
X180605347Y-44260635D01*
X180605352Y-44260634D01*
X180787327Y-44198862D01*
X180787332Y-44198860D01*
X180792799Y-44197004D01*
X180970551Y-44097458D01*
X181127186Y-43967186D01*
X181257458Y-43810551D01*
X181357004Y-43632799D01*
X181358860Y-43627332D01*
X181358862Y-43627327D01*
X181420634Y-43445352D01*
X181420635Y-43445347D01*
X181422490Y-43439883D01*
X181451723Y-43238263D01*
X181453249Y-43180000D01*
X181434608Y-42977126D01*
X181379307Y-42781047D01*
X181368680Y-42759496D01*
X181291756Y-42603510D01*
X181289201Y-42598329D01*
X181270796Y-42573681D01*
X181170758Y-42439715D01*
X181170758Y-42439714D01*
X181167305Y-42435091D01*
X181045718Y-42322697D01*
X181021943Y-42300719D01*
X181021940Y-42300717D01*
X181017703Y-42296800D01*
X180948897Y-42253387D01*
X180850288Y-42191169D01*
X180850283Y-42191167D01*
X180845404Y-42188088D01*
X180677603Y-42121142D01*
X180661549Y-42114737D01*
X180656180Y-42112595D01*
X180456366Y-42072849D01*
X180450592Y-42072773D01*
X180450588Y-42072773D01*
X180347452Y-42071424D01*
X180252655Y-42070183D01*
X180246958Y-42071162D01*
X180246957Y-42071162D01*
X180145526Y-42088591D01*
X180051870Y-42104684D01*
X179860734Y-42175198D01*
X179855773Y-42178150D01*
X179855772Y-42178150D01*
X179712637Y-42263307D01*
X179685649Y-42279363D01*
X179532478Y-42413690D01*
X179528911Y-42418215D01*
X179528906Y-42418220D01*
X179442331Y-42528040D01*
X179406351Y-42573681D01*
X179403662Y-42578792D01*
X179403660Y-42578795D01*
X179370636Y-42641564D01*
X179311492Y-42753978D01*
X179251078Y-42948543D01*
X179227132Y-43150859D01*
X179240457Y-43354151D01*
X179253759Y-43406528D01*
X179251141Y-43477473D01*
X179210581Y-43535743D01*
X179144957Y-43562835D01*
X179075103Y-43550147D01*
X179042541Y-43526636D01*
X177200405Y-41684500D01*
X177166379Y-41622188D01*
X177163500Y-41595405D01*
X177163500Y-41581294D01*
X179763066Y-41581294D01*
X179772948Y-41593783D01*
X179804239Y-41614691D01*
X179814349Y-41620181D01*
X179990835Y-41696005D01*
X180001778Y-41699560D01*
X180189120Y-41741952D01*
X180200530Y-41743454D01*
X180392469Y-41750995D01*
X180403951Y-41750393D01*
X180594045Y-41722832D01*
X180605240Y-41720144D01*
X180787131Y-41658400D01*
X180797628Y-41653726D01*
X180908032Y-41591898D01*
X180917895Y-41581821D01*
X180914940Y-41574151D01*
X180352811Y-41012021D01*
X180338868Y-41004408D01*
X180337034Y-41004539D01*
X180330420Y-41008790D01*
X179769259Y-41569952D01*
X179763066Y-41581294D01*
X177163500Y-41581294D01*
X177163500Y-40616638D01*
X179228012Y-40616638D01*
X179240575Y-40808304D01*
X179242376Y-40819674D01*
X179289657Y-41005843D01*
X179293498Y-41016690D01*
X179373916Y-41191130D01*
X179379664Y-41201086D01*
X179385788Y-41209751D01*
X179396377Y-41218140D01*
X179409676Y-41211113D01*
X179967979Y-40652811D01*
X179974356Y-40641132D01*
X180704408Y-40641132D01*
X180704539Y-40642966D01*
X180708790Y-40649580D01*
X181270239Y-41211028D01*
X181282614Y-41217785D01*
X181289194Y-41212859D01*
X181353726Y-41097628D01*
X181358400Y-41087131D01*
X181420144Y-40905240D01*
X181422832Y-40894045D01*
X181450689Y-40701911D01*
X181451319Y-40694528D01*
X181452650Y-40643704D01*
X181452407Y-40636305D01*
X181434643Y-40442975D01*
X181432545Y-40431654D01*
X181380408Y-40246791D01*
X181376283Y-40236044D01*
X181292163Y-40065465D01*
X181284869Y-40059990D01*
X181272449Y-40066762D01*
X180712021Y-40627189D01*
X180704408Y-40641132D01*
X179974356Y-40641132D01*
X179975592Y-40638868D01*
X179975461Y-40637034D01*
X179971210Y-40630420D01*
X179408538Y-40067749D01*
X179396163Y-40060992D01*
X179390197Y-40065458D01*
X179314645Y-40209058D01*
X179310242Y-40219691D01*
X179253281Y-40403132D01*
X179250891Y-40414376D01*
X179228313Y-40605137D01*
X179228012Y-40616638D01*
X177163500Y-40616638D01*
X177163500Y-39698675D01*
X179762788Y-39698675D01*
X179766275Y-39707064D01*
X180327189Y-40267979D01*
X180341132Y-40275592D01*
X180342966Y-40275461D01*
X180349580Y-40271210D01*
X180910285Y-39710504D01*
X180917042Y-39698129D01*
X180911012Y-39690073D01*
X180850061Y-39651616D01*
X180839813Y-39646395D01*
X180661401Y-39575216D01*
X180650373Y-39571949D01*
X180461982Y-39534476D01*
X180450535Y-39533273D01*
X180258477Y-39530759D01*
X180246997Y-39531662D01*
X180057697Y-39564190D01*
X180046577Y-39567170D01*
X179866365Y-39633653D01*
X179855991Y-39638601D01*
X179772385Y-39688342D01*
X179762788Y-39698675D01*
X177163500Y-39698675D01*
X177163500Y-33098768D01*
X177164027Y-33087585D01*
X177165702Y-33080092D01*
X177163562Y-33012001D01*
X177163500Y-33008044D01*
X177163500Y-32980144D01*
X177162996Y-32976153D01*
X177162063Y-32964311D01*
X177160923Y-32928036D01*
X177160674Y-32920111D01*
X177155021Y-32900652D01*
X177151012Y-32881293D01*
X177150846Y-32879983D01*
X177148474Y-32861203D01*
X177145558Y-32853837D01*
X177145556Y-32853831D01*
X177132200Y-32820098D01*
X177128355Y-32808868D01*
X177118230Y-32774017D01*
X177118230Y-32774016D01*
X177116019Y-32766407D01*
X177105705Y-32748966D01*
X177097008Y-32731213D01*
X177092472Y-32719758D01*
X177089552Y-32712383D01*
X177063563Y-32676612D01*
X177057047Y-32666692D01*
X177034542Y-32628638D01*
X177020221Y-32614317D01*
X177007380Y-32599283D01*
X177000131Y-32589306D01*
X176995472Y-32582893D01*
X176961395Y-32554702D01*
X176952616Y-32546712D01*
X170111318Y-25705413D01*
X170077292Y-25643101D01*
X170082357Y-25572286D01*
X170124904Y-25515450D01*
X170191424Y-25490639D01*
X170205024Y-25490403D01*
X170221698Y-25491015D01*
X170236674Y-25491564D01*
X170236678Y-25491564D01*
X170241837Y-25491753D01*
X170246957Y-25491097D01*
X170246959Y-25491097D01*
X170458288Y-25464025D01*
X170458289Y-25464025D01*
X170463416Y-25463368D01*
X170468367Y-25461883D01*
X170468370Y-25461882D01*
X170509829Y-25449444D01*
X170580825Y-25449028D01*
X170635131Y-25481035D01*
X178566343Y-33412247D01*
X178573887Y-33420537D01*
X178578000Y-33427018D01*
X178583777Y-33432443D01*
X178627667Y-33473658D01*
X178630509Y-33476413D01*
X178650231Y-33496135D01*
X178653355Y-33498558D01*
X178653359Y-33498562D01*
X178653424Y-33498612D01*
X178662445Y-33506317D01*
X178694679Y-33536586D01*
X178701627Y-33540405D01*
X178701629Y-33540407D01*
X178712432Y-33546346D01*
X178728959Y-33557202D01*
X178738698Y-33564757D01*
X178738700Y-33564758D01*
X178744960Y-33569614D01*
X178752233Y-33572761D01*
X178759059Y-33576798D01*
X178757685Y-33579122D01*
X178802240Y-33616200D01*
X178823596Y-33683908D01*
X178819663Y-33717752D01*
X178816754Y-33729082D01*
X178810352Y-33747777D01*
X178802308Y-33766366D01*
X178801069Y-33774189D01*
X178801066Y-33774199D01*
X178795390Y-33810035D01*
X178792984Y-33821655D01*
X178781989Y-33864481D01*
X178781989Y-33884735D01*
X178780438Y-33904445D01*
X178777269Y-33924454D01*
X178778015Y-33932346D01*
X178781430Y-33968472D01*
X178781989Y-33980330D01*
X178781989Y-37096722D01*
X178781462Y-37107905D01*
X178779787Y-37115398D01*
X178780036Y-37123324D01*
X178780036Y-37123325D01*
X178781927Y-37183475D01*
X178781989Y-37187434D01*
X178781989Y-37215345D01*
X178782486Y-37219279D01*
X178782486Y-37219280D01*
X178782494Y-37219345D01*
X178783427Y-37231182D01*
X178784816Y-37275378D01*
X178790467Y-37294828D01*
X178794476Y-37314189D01*
X178797015Y-37334286D01*
X178799934Y-37341657D01*
X178799934Y-37341659D01*
X178813293Y-37375401D01*
X178817138Y-37386631D01*
X178829471Y-37429082D01*
X178833504Y-37435901D01*
X178833506Y-37435906D01*
X178839782Y-37446517D01*
X178848477Y-37464265D01*
X178855937Y-37483106D01*
X178860599Y-37489522D01*
X178860599Y-37489523D01*
X178881925Y-37518876D01*
X178888441Y-37528796D01*
X178910947Y-37566851D01*
X178925268Y-37581172D01*
X178938108Y-37596205D01*
X178950017Y-37612596D01*
X178956122Y-37617647D01*
X178956127Y-37617652D01*
X178984087Y-37640783D01*
X178992865Y-37648770D01*
X179099159Y-37755063D01*
X179203795Y-37859699D01*
X179237820Y-37922011D01*
X179239827Y-37963603D01*
X179227132Y-38070859D01*
X179240457Y-38274151D01*
X179290605Y-38471610D01*
X179375898Y-38656624D01*
X179493479Y-38822997D01*
X179639410Y-38965157D01*
X179644206Y-38968362D01*
X179644209Y-38968364D01*
X179769227Y-39051898D01*
X179808803Y-39078342D01*
X179814106Y-39080620D01*
X179814109Y-39080622D01*
X179990680Y-39156483D01*
X179995987Y-39158763D01*
X180068817Y-39175243D01*
X180189055Y-39202450D01*
X180189060Y-39202451D01*
X180194692Y-39203725D01*
X180200463Y-39203952D01*
X180200465Y-39203952D01*
X180263470Y-39206427D01*
X180398263Y-39211723D01*
X180599883Y-39182490D01*
X180605347Y-39180635D01*
X180605352Y-39180634D01*
X180787327Y-39118862D01*
X180787332Y-39118860D01*
X180792799Y-39117004D01*
X180798653Y-39113726D01*
X180909054Y-39051898D01*
X180970551Y-39017458D01*
X181127186Y-38887186D01*
X181257458Y-38730551D01*
X181357004Y-38552799D01*
X181358860Y-38547332D01*
X181358862Y-38547327D01*
X181420634Y-38365352D01*
X181420635Y-38365347D01*
X181422490Y-38359883D01*
X181451723Y-38158263D01*
X181453249Y-38100000D01*
X181436895Y-37922011D01*
X181435137Y-37902880D01*
X181435136Y-37902877D01*
X181434608Y-37897126D01*
X181408866Y-37805853D01*
X181380875Y-37706606D01*
X181380874Y-37706604D01*
X181379307Y-37701047D01*
X181368776Y-37679691D01*
X181291756Y-37523510D01*
X181289201Y-37518329D01*
X181270796Y-37493681D01*
X181170758Y-37359715D01*
X181170758Y-37359714D01*
X181167305Y-37355091D01*
X181077646Y-37272211D01*
X181021943Y-37220719D01*
X181021940Y-37220717D01*
X181017703Y-37216800D01*
X180911947Y-37150073D01*
X180850288Y-37111169D01*
X180850283Y-37111167D01*
X180845404Y-37108088D01*
X180656180Y-37032595D01*
X180467150Y-36994994D01*
X180462032Y-36993976D01*
X180462031Y-36993976D01*
X180456366Y-36992849D01*
X180450592Y-36992773D01*
X180450588Y-36992773D01*
X180347452Y-36991424D01*
X180252655Y-36990183D01*
X180246962Y-36991161D01*
X180246952Y-36991162D01*
X180208944Y-36997693D01*
X180138420Y-36989515D01*
X180098513Y-36962608D01*
X180085894Y-36949989D01*
X180051868Y-36887677D01*
X180048989Y-36860894D01*
X180048989Y-36787685D01*
X180068991Y-36719564D01*
X180122647Y-36673071D01*
X180190838Y-36662853D01*
X180194692Y-36663725D01*
X180200466Y-36663952D01*
X180200467Y-36663952D01*
X180242898Y-36665619D01*
X180398263Y-36671723D01*
X180599883Y-36642490D01*
X180605347Y-36640635D01*
X180605352Y-36640634D01*
X180787327Y-36578862D01*
X180787332Y-36578860D01*
X180792799Y-36577004D01*
X180970551Y-36477458D01*
X181127186Y-36347186D01*
X181257458Y-36190551D01*
X181325765Y-36068580D01*
X181354180Y-36017842D01*
X181354181Y-36017840D01*
X181357004Y-36012799D01*
X181358860Y-36007332D01*
X181358862Y-36007327D01*
X181420634Y-35825352D01*
X181420635Y-35825347D01*
X181422490Y-35819883D01*
X181451723Y-35618263D01*
X181453249Y-35560000D01*
X181440366Y-35419787D01*
X181454051Y-35350121D01*
X181476742Y-35319163D01*
X181656764Y-35139141D01*
X181665050Y-35131601D01*
X181671529Y-35127489D01*
X181718155Y-35077837D01*
X181720909Y-35074996D01*
X181740646Y-35055259D01*
X181743126Y-35052062D01*
X181750831Y-35043040D01*
X181775670Y-35016589D01*
X181781097Y-35010810D01*
X181784916Y-35003864D01*
X181784918Y-35003861D01*
X181790859Y-34993055D01*
X181801710Y-34976536D01*
X181809269Y-34966790D01*
X181814125Y-34960530D01*
X181817270Y-34953261D01*
X181817273Y-34953257D01*
X181831685Y-34919952D01*
X181836902Y-34909302D01*
X181858206Y-34870549D01*
X181863244Y-34850926D01*
X181869648Y-34832223D01*
X181874544Y-34820909D01*
X181874544Y-34820908D01*
X181877692Y-34813634D01*
X181878931Y-34805811D01*
X181878934Y-34805801D01*
X181884610Y-34769965D01*
X181887016Y-34758345D01*
X181896039Y-34723200D01*
X181896039Y-34723199D01*
X181898011Y-34715519D01*
X181898011Y-34695265D01*
X181899562Y-34675554D01*
X181901491Y-34663375D01*
X181902731Y-34655546D01*
X181898570Y-34611527D01*
X181898011Y-34599670D01*
X181898011Y-31483278D01*
X181898538Y-31472095D01*
X181900213Y-31464602D01*
X181898073Y-31396525D01*
X181898011Y-31392566D01*
X181898011Y-31364655D01*
X181897506Y-31360655D01*
X181896573Y-31348812D01*
X181895433Y-31312540D01*
X181895184Y-31304621D01*
X181889533Y-31285169D01*
X181885525Y-31265817D01*
X181884631Y-31258746D01*
X181882985Y-31245714D01*
X181880067Y-31238343D01*
X181866711Y-31204608D01*
X181862866Y-31193381D01*
X181861058Y-31187158D01*
X181850529Y-31150918D01*
X181840218Y-31133483D01*
X181831523Y-31115735D01*
X181824063Y-31096894D01*
X181813385Y-31082196D01*
X181798075Y-31061124D01*
X181791559Y-31051204D01*
X181773091Y-31019976D01*
X181773089Y-31019973D01*
X181769053Y-31013149D01*
X181754732Y-30998828D01*
X181741891Y-30983794D01*
X181734642Y-30973817D01*
X181729983Y-30967404D01*
X181695906Y-30939213D01*
X181687127Y-30931223D01*
X179991603Y-29235698D01*
X179957577Y-29173386D01*
X179962642Y-29102570D01*
X180005189Y-29045735D01*
X180071709Y-29020924D01*
X180108506Y-29023710D01*
X180189121Y-29041952D01*
X180200530Y-29043454D01*
X180392469Y-29050995D01*
X180403951Y-29050393D01*
X180594045Y-29022832D01*
X180605240Y-29020144D01*
X180787131Y-28958400D01*
X180797628Y-28953726D01*
X180908032Y-28891898D01*
X180917895Y-28881821D01*
X180914940Y-28874151D01*
X179981922Y-27941132D01*
X180704408Y-27941132D01*
X180704539Y-27942966D01*
X180708790Y-27949580D01*
X181270239Y-28511028D01*
X181282614Y-28517785D01*
X181289194Y-28512859D01*
X181353726Y-28397628D01*
X181358400Y-28387131D01*
X181420144Y-28205240D01*
X181422832Y-28194045D01*
X181450689Y-28001911D01*
X181451319Y-27994528D01*
X181452650Y-27943704D01*
X181452407Y-27936305D01*
X181434643Y-27742975D01*
X181432545Y-27731654D01*
X181380408Y-27546791D01*
X181376283Y-27536044D01*
X181292163Y-27365465D01*
X181284869Y-27359990D01*
X181272449Y-27366762D01*
X180712021Y-27927189D01*
X180704408Y-27941132D01*
X179981922Y-27941132D01*
X179980790Y-27940000D01*
X179408541Y-27367752D01*
X179396162Y-27360993D01*
X179390196Y-27365459D01*
X179314645Y-27509058D01*
X179310242Y-27519691D01*
X179253281Y-27703132D01*
X179250891Y-27714376D01*
X179228313Y-27905137D01*
X179228012Y-27916638D01*
X179240575Y-28108304D01*
X179242376Y-28119675D01*
X179254450Y-28167218D01*
X179251831Y-28238167D01*
X179211271Y-28296436D01*
X179145646Y-28323527D01*
X179075792Y-28310838D01*
X179043232Y-28287328D01*
X178063375Y-27307470D01*
X177754580Y-26998675D01*
X179762788Y-26998675D01*
X179766275Y-27007064D01*
X180327189Y-27567979D01*
X180341132Y-27575592D01*
X180342966Y-27575461D01*
X180349580Y-27571210D01*
X180910285Y-27010504D01*
X180917042Y-26998129D01*
X180911012Y-26990073D01*
X180850061Y-26951616D01*
X180839813Y-26946395D01*
X180661401Y-26875216D01*
X180650373Y-26871949D01*
X180461982Y-26834476D01*
X180450535Y-26833273D01*
X180258477Y-26830759D01*
X180246997Y-26831662D01*
X180057697Y-26864190D01*
X180046577Y-26867170D01*
X179866365Y-26933653D01*
X179855991Y-26938601D01*
X179772385Y-26988342D01*
X179762788Y-26998675D01*
X177754580Y-26998675D01*
X175018608Y-24262703D01*
X185850743Y-24262703D01*
X185888268Y-24547734D01*
X185964129Y-24825036D01*
X185965813Y-24828984D01*
X186056970Y-25042696D01*
X186076923Y-25089476D01*
X186123637Y-25167529D01*
X186204235Y-25302198D01*
X186224561Y-25336161D01*
X186404313Y-25560528D01*
X186451557Y-25605361D01*
X186601518Y-25747668D01*
X186612851Y-25758423D01*
X186745390Y-25853662D01*
X186820824Y-25907867D01*
X186846317Y-25926186D01*
X186850112Y-25928195D01*
X186850113Y-25928196D01*
X186871869Y-25939715D01*
X187100392Y-26060712D01*
X187124699Y-26069607D01*
X187334453Y-26146366D01*
X187370373Y-26159511D01*
X187651264Y-26220755D01*
X187679841Y-26223004D01*
X187874282Y-26238307D01*
X187874291Y-26238307D01*
X187876739Y-26238500D01*
X188032271Y-26238500D01*
X188034407Y-26238354D01*
X188034418Y-26238354D01*
X188242548Y-26224165D01*
X188242554Y-26224164D01*
X188246825Y-26223873D01*
X188251020Y-26223004D01*
X188251022Y-26223004D01*
X188387584Y-26194723D01*
X188528342Y-26165574D01*
X188799343Y-26069607D01*
X188947360Y-25993210D01*
X189051005Y-25939715D01*
X189051006Y-25939715D01*
X189054812Y-25937750D01*
X189058313Y-25935289D01*
X189058317Y-25935287D01*
X189221131Y-25820859D01*
X189290023Y-25772441D01*
X189469822Y-25605361D01*
X189497479Y-25579661D01*
X189497481Y-25579658D01*
X189500622Y-25576740D01*
X189682713Y-25354268D01*
X189832927Y-25109142D01*
X189836927Y-25100031D01*
X189946757Y-24849830D01*
X189948483Y-24845898D01*
X190027244Y-24569406D01*
X190067751Y-24284784D01*
X190067845Y-24266951D01*
X190069235Y-24001583D01*
X190069235Y-24001576D01*
X190069257Y-23997297D01*
X190031732Y-23712266D01*
X190021909Y-23676357D01*
X189989421Y-23557604D01*
X189955871Y-23434964D01*
X189913861Y-23336473D01*
X189844763Y-23174476D01*
X189844761Y-23174472D01*
X189843077Y-23170524D01*
X189767342Y-23043980D01*
X189697643Y-22927521D01*
X189697640Y-22927517D01*
X189695439Y-22923839D01*
X189515687Y-22699472D01*
X189307149Y-22501577D01*
X189073683Y-22333814D01*
X189064363Y-22328879D01*
X188989690Y-22289342D01*
X188819608Y-22199288D01*
X188684617Y-22149888D01*
X188553658Y-22101964D01*
X188553656Y-22101963D01*
X188549627Y-22100489D01*
X188268736Y-22039245D01*
X188237685Y-22036801D01*
X188045718Y-22021693D01*
X188045709Y-22021693D01*
X188043261Y-22021500D01*
X187887729Y-22021500D01*
X187885593Y-22021646D01*
X187885582Y-22021646D01*
X187677452Y-22035835D01*
X187677446Y-22035836D01*
X187673175Y-22036127D01*
X187668980Y-22036996D01*
X187668978Y-22036996D01*
X187622588Y-22046603D01*
X187391658Y-22094426D01*
X187120657Y-22190393D01*
X187116848Y-22192359D01*
X186921875Y-22292992D01*
X186865188Y-22322250D01*
X186861687Y-22324711D01*
X186861683Y-22324713D01*
X186781037Y-22381392D01*
X186629977Y-22487559D01*
X186419378Y-22683260D01*
X186237287Y-22905732D01*
X186087073Y-23150858D01*
X185971517Y-23414102D01*
X185970342Y-23418229D01*
X185970341Y-23418230D01*
X185944913Y-23507495D01*
X185892756Y-23690594D01*
X185852249Y-23975216D01*
X185852227Y-23979505D01*
X185852226Y-23979512D01*
X185850765Y-24258417D01*
X185850743Y-24262703D01*
X175018608Y-24262703D01*
X174493652Y-23737747D01*
X174486112Y-23729461D01*
X174482000Y-23722982D01*
X174432348Y-23676356D01*
X174429507Y-23673602D01*
X174409770Y-23653865D01*
X174406573Y-23651385D01*
X174397551Y-23643680D01*
X174365321Y-23613414D01*
X174358375Y-23609595D01*
X174358372Y-23609593D01*
X174347566Y-23603652D01*
X174331047Y-23592801D01*
X174326132Y-23588989D01*
X174315041Y-23580386D01*
X174307772Y-23577241D01*
X174307768Y-23577238D01*
X174274463Y-23562826D01*
X174263813Y-23557609D01*
X174225060Y-23536305D01*
X174205437Y-23531267D01*
X174186734Y-23524863D01*
X174175420Y-23519967D01*
X174175419Y-23519967D01*
X174168145Y-23516819D01*
X174160322Y-23515580D01*
X174160312Y-23515577D01*
X174124476Y-23509901D01*
X174112856Y-23507495D01*
X174077711Y-23498472D01*
X174077710Y-23498472D01*
X174070030Y-23496500D01*
X174049776Y-23496500D01*
X174030065Y-23494949D01*
X174017886Y-23493020D01*
X174010057Y-23491780D01*
X174002165Y-23492526D01*
X173994242Y-23492277D01*
X173994319Y-23489841D01*
X173936508Y-23478642D01*
X173888557Y-23435143D01*
X173802822Y-23302617D01*
X173802820Y-23302614D01*
X173800014Y-23298277D01*
X173649670Y-23133051D01*
X173645619Y-23129852D01*
X173645615Y-23129848D01*
X173478414Y-22997800D01*
X173478410Y-22997798D01*
X173474359Y-22994598D01*
X173278789Y-22886638D01*
X173273920Y-22884914D01*
X173273916Y-22884912D01*
X173073087Y-22813795D01*
X173073083Y-22813794D01*
X173068212Y-22812069D01*
X173063119Y-22811162D01*
X173063116Y-22811161D01*
X172853373Y-22773800D01*
X172853367Y-22773799D01*
X172848284Y-22772894D01*
X172774452Y-22771992D01*
X172630081Y-22770228D01*
X172630079Y-22770228D01*
X172624911Y-22770165D01*
X172404091Y-22803955D01*
X172191756Y-22873357D01*
X171993607Y-22976507D01*
X171989474Y-22979610D01*
X171989471Y-22979612D01*
X171822478Y-23104994D01*
X171814965Y-23110635D01*
X171660629Y-23272138D01*
X171553201Y-23429621D01*
X171498293Y-23474621D01*
X171427768Y-23482792D01*
X171364021Y-23451538D01*
X171343324Y-23427054D01*
X171262822Y-23302617D01*
X171262820Y-23302614D01*
X171260014Y-23298277D01*
X171109670Y-23133051D01*
X171105619Y-23129852D01*
X171105615Y-23129848D01*
X170938414Y-22997800D01*
X170938410Y-22997798D01*
X170934359Y-22994598D01*
X170738789Y-22886638D01*
X170733920Y-22884914D01*
X170733916Y-22884912D01*
X170533087Y-22813795D01*
X170533083Y-22813794D01*
X170528212Y-22812069D01*
X170523119Y-22811162D01*
X170523116Y-22811161D01*
X170313373Y-22773800D01*
X170313367Y-22773799D01*
X170308284Y-22772894D01*
X170234452Y-22771992D01*
X170090081Y-22770228D01*
X170090079Y-22770228D01*
X170084911Y-22770165D01*
X169864091Y-22803955D01*
X169651756Y-22873357D01*
X169453607Y-22976507D01*
X169449474Y-22979610D01*
X169449471Y-22979612D01*
X169282478Y-23104994D01*
X169274965Y-23110635D01*
X169120629Y-23272138D01*
X169013201Y-23429621D01*
X168958293Y-23474621D01*
X168887768Y-23482792D01*
X168824021Y-23451538D01*
X168803324Y-23427054D01*
X168722822Y-23302617D01*
X168722820Y-23302614D01*
X168720014Y-23298277D01*
X168569670Y-23133051D01*
X168565619Y-23129852D01*
X168565615Y-23129848D01*
X168398414Y-22997800D01*
X168398410Y-22997798D01*
X168394359Y-22994598D01*
X168198789Y-22886638D01*
X168193920Y-22884914D01*
X168193916Y-22884912D01*
X167993087Y-22813795D01*
X167993083Y-22813794D01*
X167988212Y-22812069D01*
X167983119Y-22811162D01*
X167983116Y-22811161D01*
X167773373Y-22773800D01*
X167773367Y-22773799D01*
X167768284Y-22772894D01*
X167694452Y-22771992D01*
X167550081Y-22770228D01*
X167550079Y-22770228D01*
X167544911Y-22770165D01*
X167324091Y-22803955D01*
X167111756Y-22873357D01*
X166913607Y-22976507D01*
X166909474Y-22979610D01*
X166909471Y-22979612D01*
X166742478Y-23104994D01*
X166734965Y-23110635D01*
X166580629Y-23272138D01*
X166473201Y-23429621D01*
X166418293Y-23474621D01*
X166347768Y-23482792D01*
X166284021Y-23451538D01*
X166263324Y-23427054D01*
X166182822Y-23302617D01*
X166182820Y-23302614D01*
X166180014Y-23298277D01*
X166029670Y-23133051D01*
X166025619Y-23129852D01*
X166025615Y-23129848D01*
X165858414Y-22997800D01*
X165858410Y-22997798D01*
X165854359Y-22994598D01*
X165658789Y-22886638D01*
X165653920Y-22884914D01*
X165653916Y-22884912D01*
X165453087Y-22813795D01*
X165453083Y-22813794D01*
X165448212Y-22812069D01*
X165443119Y-22811162D01*
X165443116Y-22811161D01*
X165233373Y-22773800D01*
X165233367Y-22773799D01*
X165228284Y-22772894D01*
X165154452Y-22771992D01*
X165010081Y-22770228D01*
X165010079Y-22770228D01*
X165004911Y-22770165D01*
X164784091Y-22803955D01*
X164571756Y-22873357D01*
X164373607Y-22976507D01*
X164369474Y-22979610D01*
X164369471Y-22979612D01*
X164202478Y-23104994D01*
X164194965Y-23110635D01*
X164040629Y-23272138D01*
X163933201Y-23429621D01*
X163878293Y-23474621D01*
X163807768Y-23482792D01*
X163744021Y-23451538D01*
X163723324Y-23427054D01*
X163642822Y-23302617D01*
X163642820Y-23302614D01*
X163640014Y-23298277D01*
X163489670Y-23133051D01*
X163485619Y-23129852D01*
X163485615Y-23129848D01*
X163318414Y-22997800D01*
X163318410Y-22997798D01*
X163314359Y-22994598D01*
X163118789Y-22886638D01*
X163113920Y-22884914D01*
X163113916Y-22884912D01*
X162913087Y-22813795D01*
X162913083Y-22813794D01*
X162908212Y-22812069D01*
X162903119Y-22811162D01*
X162903116Y-22811161D01*
X162693373Y-22773800D01*
X162693367Y-22773799D01*
X162688284Y-22772894D01*
X162614452Y-22771992D01*
X162470081Y-22770228D01*
X162470079Y-22770228D01*
X162464911Y-22770165D01*
X162244091Y-22803955D01*
X162031756Y-22873357D01*
X161833607Y-22976507D01*
X161829474Y-22979610D01*
X161829471Y-22979612D01*
X161662478Y-23104994D01*
X161654965Y-23110635D01*
X161500629Y-23272138D01*
X161393201Y-23429621D01*
X161338293Y-23474621D01*
X161267768Y-23482792D01*
X161204021Y-23451538D01*
X161183324Y-23427054D01*
X161102822Y-23302617D01*
X161102820Y-23302614D01*
X161100014Y-23298277D01*
X160949670Y-23133051D01*
X160945619Y-23129852D01*
X160945615Y-23129848D01*
X160778414Y-22997800D01*
X160778410Y-22997798D01*
X160774359Y-22994598D01*
X160578789Y-22886638D01*
X160573920Y-22884914D01*
X160573916Y-22884912D01*
X160373087Y-22813795D01*
X160373083Y-22813794D01*
X160368212Y-22812069D01*
X160363119Y-22811162D01*
X160363116Y-22811161D01*
X160153373Y-22773800D01*
X160153367Y-22773799D01*
X160148284Y-22772894D01*
X160074452Y-22771992D01*
X159930081Y-22770228D01*
X159930079Y-22770228D01*
X159924911Y-22770165D01*
X159704091Y-22803955D01*
X159691532Y-22808060D01*
X159620568Y-22810210D01*
X159563294Y-22777389D01*
X159253652Y-22467747D01*
X159246112Y-22459461D01*
X159242000Y-22452982D01*
X159216034Y-22428598D01*
X159192349Y-22406357D01*
X159189507Y-22403602D01*
X159169770Y-22383865D01*
X159166573Y-22381385D01*
X159157551Y-22373680D01*
X159153397Y-22369779D01*
X159125321Y-22343414D01*
X159118375Y-22339595D01*
X159118372Y-22339593D01*
X159107566Y-22333652D01*
X159091047Y-22322801D01*
X159087803Y-22320285D01*
X159075041Y-22310386D01*
X159067772Y-22307241D01*
X159067768Y-22307238D01*
X159034463Y-22292826D01*
X159023813Y-22287609D01*
X158985060Y-22266305D01*
X158965437Y-22261267D01*
X158946734Y-22254863D01*
X158935420Y-22249967D01*
X158935419Y-22249967D01*
X158928145Y-22246819D01*
X158920322Y-22245580D01*
X158920312Y-22245577D01*
X158884476Y-22239901D01*
X158872856Y-22237495D01*
X158837711Y-22228472D01*
X158837710Y-22228472D01*
X158830030Y-22226500D01*
X158809776Y-22226500D01*
X158790065Y-22224949D01*
X158777886Y-22223020D01*
X158770057Y-22221780D01*
X158740786Y-22224547D01*
X158726039Y-22225941D01*
X158714181Y-22226500D01*
X157167758Y-22226500D01*
X157156575Y-22225973D01*
X157149082Y-22224298D01*
X157141156Y-22224547D01*
X157141155Y-22224547D01*
X157080992Y-22226438D01*
X157077034Y-22226500D01*
X157049134Y-22226500D01*
X157045144Y-22227004D01*
X157033310Y-22227936D01*
X156989101Y-22229326D01*
X156981485Y-22231539D01*
X156981483Y-22231539D01*
X156969642Y-22234979D01*
X156950283Y-22238988D01*
X156948973Y-22239154D01*
X156930193Y-22241526D01*
X156922827Y-22244442D01*
X156922821Y-22244444D01*
X156889088Y-22257800D01*
X156877858Y-22261645D01*
X156861818Y-22266305D01*
X156835397Y-22273981D01*
X156828574Y-22278016D01*
X156817956Y-22284295D01*
X156800203Y-22292992D01*
X156792558Y-22296019D01*
X156781373Y-22300448D01*
X156767695Y-22310386D01*
X156745602Y-22326437D01*
X156735685Y-22332951D01*
X156697628Y-22355458D01*
X156683307Y-22369779D01*
X156668274Y-22382619D01*
X156651883Y-22394528D01*
X156646832Y-22400633D01*
X156646827Y-22400638D01*
X156623696Y-22428598D01*
X156615709Y-22437376D01*
X156259962Y-22793124D01*
X155977053Y-23076033D01*
X155914740Y-23110058D01*
X155843925Y-23104994D01*
X155809864Y-23085819D01*
X155698415Y-22997801D01*
X155698413Y-22997800D01*
X155694359Y-22994598D01*
X155498789Y-22886638D01*
X155493920Y-22884914D01*
X155493916Y-22884912D01*
X155293087Y-22813795D01*
X155293083Y-22813794D01*
X155288212Y-22812069D01*
X155283119Y-22811162D01*
X155283116Y-22811161D01*
X155073373Y-22773800D01*
X155073367Y-22773799D01*
X155068284Y-22772894D01*
X154994452Y-22771992D01*
X154850081Y-22770228D01*
X154850079Y-22770228D01*
X154844911Y-22770165D01*
X154624091Y-22803955D01*
X154411756Y-22873357D01*
X154213607Y-22976507D01*
X154209474Y-22979610D01*
X154209471Y-22979612D01*
X154066760Y-23086763D01*
X154000275Y-23111669D01*
X153930880Y-23096677D01*
X153902012Y-23075098D01*
X153395407Y-22568492D01*
X152845142Y-22018227D01*
X152837602Y-22009941D01*
X152833490Y-22003462D01*
X152824277Y-21994810D01*
X152783839Y-21956837D01*
X152780997Y-21954082D01*
X152761260Y-21934345D01*
X152758063Y-21931865D01*
X152749041Y-21924160D01*
X152748858Y-21923988D01*
X152716811Y-21893894D01*
X152709865Y-21890075D01*
X152709862Y-21890073D01*
X152699056Y-21884132D01*
X152682537Y-21873281D01*
X152678651Y-21870267D01*
X152666531Y-21860866D01*
X152659262Y-21857721D01*
X152659258Y-21857718D01*
X152625953Y-21843306D01*
X152615303Y-21838089D01*
X152576550Y-21816785D01*
X152556927Y-21811747D01*
X152538224Y-21805343D01*
X152526910Y-21800447D01*
X152526909Y-21800447D01*
X152519635Y-21797299D01*
X152511812Y-21796060D01*
X152511802Y-21796057D01*
X152475966Y-21790381D01*
X152464346Y-21787975D01*
X152429201Y-21778952D01*
X152429200Y-21778952D01*
X152421520Y-21776980D01*
X152401266Y-21776980D01*
X152381555Y-21775429D01*
X152369376Y-21773500D01*
X152361547Y-21772260D01*
X152332276Y-21775027D01*
X152317529Y-21776421D01*
X152305671Y-21776980D01*
X146578288Y-21776980D01*
X146567105Y-21776453D01*
X146559612Y-21774778D01*
X146551686Y-21775027D01*
X146551685Y-21775027D01*
X146491522Y-21776918D01*
X146487564Y-21776980D01*
X146459664Y-21776980D01*
X146455674Y-21777484D01*
X146443840Y-21778416D01*
X146399631Y-21779806D01*
X146392015Y-21782019D01*
X146392013Y-21782019D01*
X146380172Y-21785459D01*
X146360813Y-21789468D01*
X146359503Y-21789634D01*
X146340723Y-21792006D01*
X146333357Y-21794922D01*
X146333351Y-21794924D01*
X146299618Y-21808280D01*
X146288388Y-21812125D01*
X146272348Y-21816785D01*
X146245927Y-21824461D01*
X146239104Y-21828496D01*
X146228486Y-21834775D01*
X146210733Y-21843472D01*
X146203088Y-21846499D01*
X146191903Y-21850928D01*
X146178225Y-21860866D01*
X146156132Y-21876917D01*
X146146215Y-21883431D01*
X146108158Y-21905938D01*
X146093837Y-21920259D01*
X146078804Y-21933099D01*
X146062413Y-21945008D01*
X146057363Y-21951112D01*
X146057358Y-21951117D01*
X146034227Y-21979078D01*
X146026237Y-21987859D01*
X145237344Y-22776751D01*
X145175032Y-22810776D01*
X145126153Y-22811702D01*
X144913373Y-22773800D01*
X144913367Y-22773799D01*
X144908284Y-22772894D01*
X144834452Y-22771992D01*
X144690081Y-22770228D01*
X144690079Y-22770228D01*
X144684911Y-22770165D01*
X144464091Y-22803955D01*
X144251756Y-22873357D01*
X144053607Y-22976507D01*
X144049474Y-22979610D01*
X144049471Y-22979612D01*
X143882478Y-23104994D01*
X143874965Y-23110635D01*
X143720629Y-23272138D01*
X143613201Y-23429621D01*
X143558293Y-23474621D01*
X143487768Y-23482792D01*
X143424021Y-23451538D01*
X143403324Y-23427054D01*
X143322822Y-23302617D01*
X143322820Y-23302614D01*
X143320014Y-23298277D01*
X143169670Y-23133051D01*
X143165619Y-23129852D01*
X143165615Y-23129848D01*
X142998414Y-22997800D01*
X142998410Y-22997798D01*
X142994359Y-22994598D01*
X142798789Y-22886638D01*
X142793920Y-22884914D01*
X142793916Y-22884912D01*
X142593087Y-22813795D01*
X142593083Y-22813794D01*
X142588212Y-22812069D01*
X142583119Y-22811162D01*
X142583116Y-22811161D01*
X142373373Y-22773800D01*
X142373367Y-22773799D01*
X142368284Y-22772894D01*
X142294452Y-22771992D01*
X142150081Y-22770228D01*
X142150079Y-22770228D01*
X142144911Y-22770165D01*
X141924091Y-22803955D01*
X141711756Y-22873357D01*
X141513607Y-22976507D01*
X141509474Y-22979610D01*
X141509471Y-22979612D01*
X141342478Y-23104994D01*
X141334965Y-23110635D01*
X141180629Y-23272138D01*
X141073201Y-23429621D01*
X141018293Y-23474621D01*
X140947768Y-23482792D01*
X140884021Y-23451538D01*
X140863324Y-23427054D01*
X140782822Y-23302617D01*
X140782820Y-23302614D01*
X140780014Y-23298277D01*
X140629670Y-23133051D01*
X140625619Y-23129852D01*
X140625615Y-23129848D01*
X140458414Y-22997800D01*
X140458410Y-22997798D01*
X140454359Y-22994598D01*
X140258789Y-22886638D01*
X140253920Y-22884914D01*
X140253916Y-22884912D01*
X140053087Y-22813795D01*
X140053083Y-22813794D01*
X140048212Y-22812069D01*
X140043119Y-22811162D01*
X140043116Y-22811161D01*
X139833373Y-22773800D01*
X139833367Y-22773799D01*
X139828284Y-22772894D01*
X139754452Y-22771992D01*
X139610081Y-22770228D01*
X139610079Y-22770228D01*
X139604911Y-22770165D01*
X139384091Y-22803955D01*
X139171756Y-22873357D01*
X138973607Y-22976507D01*
X138969474Y-22979610D01*
X138969471Y-22979612D01*
X138802478Y-23104994D01*
X138794965Y-23110635D01*
X138640629Y-23272138D01*
X138533201Y-23429621D01*
X138478293Y-23474621D01*
X138407768Y-23482792D01*
X138344021Y-23451538D01*
X138323324Y-23427054D01*
X138242822Y-23302617D01*
X138242820Y-23302614D01*
X138240014Y-23298277D01*
X138089670Y-23133051D01*
X138085619Y-23129852D01*
X138085615Y-23129848D01*
X137918414Y-22997800D01*
X137918410Y-22997798D01*
X137914359Y-22994598D01*
X137718789Y-22886638D01*
X137713920Y-22884914D01*
X137713916Y-22884912D01*
X137513087Y-22813795D01*
X137513083Y-22813794D01*
X137508212Y-22812069D01*
X137503119Y-22811162D01*
X137503116Y-22811161D01*
X137293373Y-22773800D01*
X137293367Y-22773799D01*
X137288284Y-22772894D01*
X137214452Y-22771992D01*
X137070081Y-22770228D01*
X137070079Y-22770228D01*
X137064911Y-22770165D01*
X136844091Y-22803955D01*
X136631756Y-22873357D01*
X136433607Y-22976507D01*
X136429474Y-22979610D01*
X136429471Y-22979612D01*
X136262478Y-23104994D01*
X136254965Y-23110635D01*
X136100629Y-23272138D01*
X135993201Y-23429621D01*
X135938293Y-23474621D01*
X135867768Y-23482792D01*
X135804021Y-23451538D01*
X135783324Y-23427054D01*
X135702822Y-23302617D01*
X135702820Y-23302614D01*
X135700014Y-23298277D01*
X135549670Y-23133051D01*
X135545619Y-23129852D01*
X135545615Y-23129848D01*
X135378414Y-22997800D01*
X135378410Y-22997798D01*
X135374359Y-22994598D01*
X135178789Y-22886638D01*
X135173920Y-22884914D01*
X135173916Y-22884912D01*
X134973087Y-22813795D01*
X134973083Y-22813794D01*
X134968212Y-22812069D01*
X134963119Y-22811162D01*
X134963116Y-22811161D01*
X134753373Y-22773800D01*
X134753367Y-22773799D01*
X134748284Y-22772894D01*
X134674452Y-22771992D01*
X134530081Y-22770228D01*
X134530079Y-22770228D01*
X134524911Y-22770165D01*
X134304091Y-22803955D01*
X134091756Y-22873357D01*
X133893607Y-22976507D01*
X133889474Y-22979610D01*
X133889471Y-22979612D01*
X133722478Y-23104994D01*
X133714965Y-23110635D01*
X133560629Y-23272138D01*
X133453201Y-23429621D01*
X133398293Y-23474621D01*
X133327768Y-23482792D01*
X133264021Y-23451538D01*
X133243324Y-23427054D01*
X133162822Y-23302617D01*
X133162820Y-23302614D01*
X133160014Y-23298277D01*
X133009670Y-23133051D01*
X133005619Y-23129852D01*
X133005615Y-23129848D01*
X132838414Y-22997800D01*
X132838410Y-22997798D01*
X132834359Y-22994598D01*
X132638789Y-22886638D01*
X132633920Y-22884914D01*
X132633916Y-22884912D01*
X132433087Y-22813795D01*
X132433083Y-22813794D01*
X132428212Y-22812069D01*
X132423119Y-22811162D01*
X132423116Y-22811161D01*
X132213373Y-22773800D01*
X132213367Y-22773799D01*
X132208284Y-22772894D01*
X132134452Y-22771992D01*
X131990081Y-22770228D01*
X131990079Y-22770228D01*
X131984911Y-22770165D01*
X131764091Y-22803955D01*
X131551756Y-22873357D01*
X131353607Y-22976507D01*
X131349474Y-22979610D01*
X131349471Y-22979612D01*
X131182478Y-23104994D01*
X131174965Y-23110635D01*
X131020629Y-23272138D01*
X130913201Y-23429621D01*
X130858293Y-23474621D01*
X130787768Y-23482792D01*
X130724021Y-23451538D01*
X130703324Y-23427054D01*
X130622822Y-23302617D01*
X130622820Y-23302614D01*
X130620014Y-23298277D01*
X130469670Y-23133051D01*
X130465619Y-23129852D01*
X130465615Y-23129848D01*
X130298414Y-22997800D01*
X130298410Y-22997798D01*
X130294359Y-22994598D01*
X130098789Y-22886638D01*
X130093920Y-22884914D01*
X130093916Y-22884912D01*
X129893087Y-22813795D01*
X129893083Y-22813794D01*
X129888212Y-22812069D01*
X129883119Y-22811162D01*
X129883116Y-22811161D01*
X129673373Y-22773800D01*
X129673367Y-22773799D01*
X129668284Y-22772894D01*
X129594452Y-22771992D01*
X129450081Y-22770228D01*
X129450079Y-22770228D01*
X129444911Y-22770165D01*
X129224091Y-22803955D01*
X129011756Y-22873357D01*
X128813607Y-22976507D01*
X128809474Y-22979610D01*
X128809471Y-22979612D01*
X128642478Y-23104994D01*
X128634965Y-23110635D01*
X128480629Y-23272138D01*
X128373201Y-23429621D01*
X128318293Y-23474621D01*
X128247768Y-23482792D01*
X128184021Y-23451538D01*
X128163324Y-23427054D01*
X128082822Y-23302617D01*
X128082820Y-23302614D01*
X128080014Y-23298277D01*
X127929670Y-23133051D01*
X127925619Y-23129852D01*
X127925615Y-23129848D01*
X127758414Y-22997800D01*
X127758410Y-22997798D01*
X127754359Y-22994598D01*
X127558789Y-22886638D01*
X127553920Y-22884914D01*
X127553916Y-22884912D01*
X127353087Y-22813795D01*
X127353083Y-22813794D01*
X127348212Y-22812069D01*
X127343119Y-22811162D01*
X127343116Y-22811161D01*
X127133373Y-22773800D01*
X127133367Y-22773799D01*
X127128284Y-22772894D01*
X127054452Y-22771992D01*
X126910081Y-22770228D01*
X126910079Y-22770228D01*
X126904911Y-22770165D01*
X126684091Y-22803955D01*
X126471756Y-22873357D01*
X126273607Y-22976507D01*
X126269474Y-22979610D01*
X126269471Y-22979612D01*
X126102478Y-23104994D01*
X126094965Y-23110635D01*
X125940629Y-23272138D01*
X125833201Y-23429621D01*
X125778293Y-23474621D01*
X125707768Y-23482792D01*
X125644021Y-23451538D01*
X125623324Y-23427054D01*
X125542822Y-23302617D01*
X125542820Y-23302614D01*
X125540014Y-23298277D01*
X125389670Y-23133051D01*
X125385619Y-23129852D01*
X125385615Y-23129848D01*
X125218414Y-22997800D01*
X125218410Y-22997798D01*
X125214359Y-22994598D01*
X125018789Y-22886638D01*
X125013920Y-22884914D01*
X125013916Y-22884912D01*
X124813087Y-22813795D01*
X124813083Y-22813794D01*
X124808212Y-22812069D01*
X124803119Y-22811162D01*
X124803116Y-22811161D01*
X124593373Y-22773800D01*
X124593367Y-22773799D01*
X124588284Y-22772894D01*
X124514452Y-22771992D01*
X124370081Y-22770228D01*
X124370079Y-22770228D01*
X124364911Y-22770165D01*
X124144091Y-22803955D01*
X124131532Y-22808060D01*
X124060568Y-22810210D01*
X124003294Y-22777389D01*
X123339621Y-22113716D01*
X123332081Y-22105430D01*
X123327969Y-22098951D01*
X123278317Y-22052325D01*
X123275476Y-22049571D01*
X123255739Y-22029834D01*
X123252542Y-22027354D01*
X123243520Y-22019649D01*
X123239366Y-22015748D01*
X123211290Y-21989383D01*
X123204344Y-21985564D01*
X123204341Y-21985562D01*
X123193535Y-21979621D01*
X123177016Y-21968770D01*
X123176552Y-21968410D01*
X123161010Y-21956355D01*
X123153741Y-21953210D01*
X123153737Y-21953207D01*
X123120432Y-21938795D01*
X123109782Y-21933578D01*
X123071029Y-21912274D01*
X123051406Y-21907236D01*
X123032703Y-21900832D01*
X123021389Y-21895936D01*
X123021388Y-21895936D01*
X123014114Y-21892788D01*
X123006291Y-21891549D01*
X123006281Y-21891546D01*
X122970445Y-21885870D01*
X122958825Y-21883464D01*
X122923680Y-21874441D01*
X122923679Y-21874441D01*
X122915999Y-21872469D01*
X122895745Y-21872469D01*
X122876034Y-21870918D01*
X122863855Y-21868989D01*
X122856026Y-21867749D01*
X122826755Y-21870516D01*
X122812008Y-21871910D01*
X122800150Y-21872469D01*
X99492798Y-21872469D01*
X99481615Y-21871942D01*
X99474122Y-21870267D01*
X99466196Y-21870516D01*
X99466195Y-21870516D01*
X99406032Y-21872407D01*
X99402074Y-21872469D01*
X99374175Y-21872469D01*
X99370185Y-21872973D01*
X99358351Y-21873905D01*
X99314142Y-21875295D01*
X99306528Y-21877507D01*
X99306523Y-21877508D01*
X99294690Y-21880946D01*
X99275327Y-21884957D01*
X99255234Y-21887495D01*
X99247867Y-21890412D01*
X99247862Y-21890413D01*
X99214123Y-21903771D01*
X99202896Y-21907615D01*
X99160438Y-21919951D01*
X99153612Y-21923988D01*
X99143003Y-21930262D01*
X99125255Y-21938957D01*
X99106414Y-21946417D01*
X99099998Y-21951079D01*
X99099997Y-21951079D01*
X99070644Y-21972405D01*
X99060724Y-21978921D01*
X99029496Y-21997389D01*
X99029493Y-21997391D01*
X99022669Y-22001427D01*
X99008348Y-22015748D01*
X98993315Y-22028588D01*
X98976924Y-22040497D01*
X98968248Y-22050985D01*
X98948733Y-22074574D01*
X98940743Y-22083353D01*
X95203236Y-25820859D01*
X95194950Y-25828399D01*
X95188471Y-25832511D01*
X95183046Y-25838288D01*
X95141846Y-25882162D01*
X95139091Y-25885004D01*
X95119354Y-25904741D01*
X95116874Y-25907938D01*
X95109171Y-25916958D01*
X95078903Y-25949190D01*
X95075084Y-25956136D01*
X95075082Y-25956139D01*
X95069141Y-25966945D01*
X95058290Y-25983464D01*
X95045875Y-25999470D01*
X95042730Y-26006739D01*
X95042727Y-26006743D01*
X95028315Y-26040048D01*
X95023098Y-26050698D01*
X95001794Y-26089451D01*
X94999823Y-26097126D01*
X94999823Y-26097127D01*
X94996756Y-26109073D01*
X94990352Y-26127777D01*
X94982308Y-26146366D01*
X94981069Y-26154189D01*
X94981066Y-26154199D01*
X94975390Y-26190035D01*
X94972984Y-26201655D01*
X94964964Y-26232893D01*
X94961989Y-26244481D01*
X94961989Y-26264735D01*
X94960438Y-26284445D01*
X94957269Y-26304454D01*
X85598000Y-26304454D01*
X85598000Y-24262703D01*
X86790743Y-24262703D01*
X86828268Y-24547734D01*
X86904129Y-24825036D01*
X86905813Y-24828984D01*
X86996970Y-25042696D01*
X87016923Y-25089476D01*
X87063637Y-25167529D01*
X87144235Y-25302198D01*
X87164561Y-25336161D01*
X87344313Y-25560528D01*
X87391557Y-25605361D01*
X87541518Y-25747668D01*
X87552851Y-25758423D01*
X87685390Y-25853662D01*
X87760824Y-25907867D01*
X87786317Y-25926186D01*
X87790112Y-25928195D01*
X87790113Y-25928196D01*
X87811869Y-25939715D01*
X88040392Y-26060712D01*
X88064699Y-26069607D01*
X88274453Y-26146366D01*
X88310373Y-26159511D01*
X88591264Y-26220755D01*
X88619841Y-26223004D01*
X88814282Y-26238307D01*
X88814291Y-26238307D01*
X88816739Y-26238500D01*
X88972271Y-26238500D01*
X88974407Y-26238354D01*
X88974418Y-26238354D01*
X89182548Y-26224165D01*
X89182554Y-26224164D01*
X89186825Y-26223873D01*
X89191020Y-26223004D01*
X89191022Y-26223004D01*
X89327584Y-26194723D01*
X89468342Y-26165574D01*
X89739343Y-26069607D01*
X89887360Y-25993210D01*
X89991005Y-25939715D01*
X89991006Y-25939715D01*
X89994812Y-25937750D01*
X89998313Y-25935289D01*
X89998317Y-25935287D01*
X90161131Y-25820859D01*
X90230023Y-25772441D01*
X90409822Y-25605361D01*
X90437479Y-25579661D01*
X90437481Y-25579658D01*
X90440622Y-25576740D01*
X90622713Y-25354268D01*
X90772927Y-25109142D01*
X90776927Y-25100031D01*
X90886757Y-24849830D01*
X90888483Y-24845898D01*
X90967244Y-24569406D01*
X91007751Y-24284784D01*
X91007845Y-24266951D01*
X91009235Y-24001583D01*
X91009235Y-24001576D01*
X91009257Y-23997297D01*
X90971732Y-23712266D01*
X90961909Y-23676357D01*
X90929421Y-23557604D01*
X90895871Y-23434964D01*
X90853861Y-23336473D01*
X90784763Y-23174476D01*
X90784761Y-23174472D01*
X90783077Y-23170524D01*
X90707342Y-23043980D01*
X90637643Y-22927521D01*
X90637640Y-22927517D01*
X90635439Y-22923839D01*
X90455687Y-22699472D01*
X90247149Y-22501577D01*
X90013683Y-22333814D01*
X90004363Y-22328879D01*
X89929690Y-22289342D01*
X89759608Y-22199288D01*
X89624617Y-22149888D01*
X89493658Y-22101964D01*
X89493656Y-22101963D01*
X89489627Y-22100489D01*
X89208736Y-22039245D01*
X89177685Y-22036801D01*
X88985718Y-22021693D01*
X88985709Y-22021693D01*
X88983261Y-22021500D01*
X88827729Y-22021500D01*
X88825593Y-22021646D01*
X88825582Y-22021646D01*
X88617452Y-22035835D01*
X88617446Y-22035836D01*
X88613175Y-22036127D01*
X88608980Y-22036996D01*
X88608978Y-22036996D01*
X88562588Y-22046603D01*
X88331658Y-22094426D01*
X88060657Y-22190393D01*
X88056848Y-22192359D01*
X87861875Y-22292992D01*
X87805188Y-22322250D01*
X87801687Y-22324711D01*
X87801683Y-22324713D01*
X87721037Y-22381392D01*
X87569977Y-22487559D01*
X87359378Y-22683260D01*
X87177287Y-22905732D01*
X87027073Y-23150858D01*
X86911517Y-23414102D01*
X86910342Y-23418229D01*
X86910341Y-23418230D01*
X86884913Y-23507495D01*
X86832756Y-23690594D01*
X86792249Y-23975216D01*
X86792227Y-23979505D01*
X86792226Y-23979512D01*
X86790765Y-24258417D01*
X86790743Y-24262703D01*
X85598000Y-24262703D01*
X85598000Y-24179328D01*
X85599500Y-24159943D01*
X85601805Y-24145142D01*
X85601805Y-24145139D01*
X85603186Y-24136270D01*
X85600743Y-24117589D01*
X85599852Y-24094657D01*
X85615743Y-23791446D01*
X85617121Y-23778329D01*
X85623549Y-23737747D01*
X85660016Y-23507495D01*
X85669123Y-23449998D01*
X85671865Y-23437098D01*
X85750843Y-23142348D01*
X85757903Y-23115999D01*
X85761979Y-23103456D01*
X85764582Y-23096677D01*
X85876947Y-22803955D01*
X85881105Y-22793124D01*
X85886469Y-22781076D01*
X86037388Y-22484880D01*
X86043982Y-22473459D01*
X86225033Y-22194666D01*
X86232779Y-22184004D01*
X86299214Y-22101964D01*
X86441985Y-21925655D01*
X86450810Y-21915855D01*
X86685855Y-21680810D01*
X86695656Y-21671984D01*
X86954004Y-21462779D01*
X86964666Y-21455033D01*
X87243464Y-21273979D01*
X87254880Y-21267388D01*
X87551076Y-21116469D01*
X87563124Y-21111105D01*
X87600642Y-21096703D01*
X87873464Y-20991977D01*
X87886000Y-20987903D01*
X88207098Y-20901865D01*
X88219998Y-20899123D01*
X88308715Y-20885072D01*
X88548335Y-20847120D01*
X88561443Y-20845743D01*
X88857334Y-20830236D01*
X88883312Y-20831564D01*
X88884856Y-20831805D01*
X88884860Y-20831805D01*
X88893730Y-20833186D01*
X88902632Y-20832022D01*
X88902635Y-20832022D01*
X88925251Y-20829064D01*
X88941589Y-20828000D01*
X187910672Y-20828000D01*
X187930057Y-20829500D01*
G37*
%TD.AperFunction*%
%TA.AperFunction,Conductor*%
G36*
X157014449Y-25406479D02*
G01*
X157022557Y-25409575D01*
X157099692Y-25439030D01*
X157104760Y-25440061D01*
X157104763Y-25440062D01*
X157183436Y-25456068D01*
X157318597Y-25483567D01*
X157323772Y-25483757D01*
X157323774Y-25483757D01*
X157536673Y-25491564D01*
X157536677Y-25491564D01*
X157541837Y-25491753D01*
X157546957Y-25491097D01*
X157546959Y-25491097D01*
X157758288Y-25464025D01*
X157758289Y-25464025D01*
X157763416Y-25463368D01*
X157768367Y-25461883D01*
X157768370Y-25461882D01*
X157809829Y-25449444D01*
X157880825Y-25449028D01*
X157935131Y-25481035D01*
X158633146Y-26179050D01*
X158667172Y-26241362D01*
X158670051Y-26268145D01*
X158670051Y-27307470D01*
X158650049Y-27375591D01*
X158596393Y-27422084D01*
X158526119Y-27432188D01*
X158461539Y-27402694D01*
X158434983Y-27368300D01*
X158434343Y-27368692D01*
X158432539Y-27365747D01*
X158424869Y-27359990D01*
X158412449Y-27366762D01*
X157852021Y-27927189D01*
X157844408Y-27941132D01*
X157844539Y-27942966D01*
X157848790Y-27949580D01*
X158410239Y-28511028D01*
X158422614Y-28517785D01*
X158429195Y-28512859D01*
X158434117Y-28504070D01*
X158484854Y-28454409D01*
X158554386Y-28440062D01*
X158620636Y-28465583D01*
X158662572Y-28522872D01*
X158670051Y-28565637D01*
X158670051Y-30469956D01*
X158650049Y-30538077D01*
X158596393Y-30584570D01*
X158526119Y-30594674D01*
X158461539Y-30565180D01*
X158454956Y-30559051D01*
X157131603Y-29235698D01*
X157097577Y-29173386D01*
X157102642Y-29102571D01*
X157145189Y-29045735D01*
X157211709Y-29020924D01*
X157248506Y-29023710D01*
X157329121Y-29041952D01*
X157340530Y-29043454D01*
X157532469Y-29050995D01*
X157543951Y-29050393D01*
X157734045Y-29022832D01*
X157745240Y-29020144D01*
X157927131Y-28958400D01*
X157937628Y-28953726D01*
X158048032Y-28891898D01*
X158057895Y-28881821D01*
X158054939Y-28874149D01*
X157209885Y-28029095D01*
X157175859Y-27966783D01*
X157180924Y-27895968D01*
X157209885Y-27850905D01*
X157480000Y-27580790D01*
X158050281Y-27010508D01*
X158057041Y-26998128D01*
X158051011Y-26990073D01*
X157990061Y-26951616D01*
X157979813Y-26946395D01*
X157801401Y-26875216D01*
X157790373Y-26871949D01*
X157601982Y-26834476D01*
X157590535Y-26833273D01*
X157398477Y-26830759D01*
X157386997Y-26831662D01*
X157197697Y-26864190D01*
X157186577Y-26867170D01*
X157013111Y-26931165D01*
X156942278Y-26935977D01*
X156880087Y-26901730D01*
X156846285Y-26839297D01*
X156843500Y-26812953D01*
X156843500Y-25524189D01*
X156863502Y-25456068D01*
X156917158Y-25409575D01*
X156987432Y-25399471D01*
X157014449Y-25406479D01*
G37*
%TD.AperFunction*%
%TD*%
M02*
